<?xml version="1.0" encoding="utf-8"?>
<!-- Generator: Adobe Illustrator 28.5.0, SVG Export Plug-In . SVG Version: 9.03 Build 54727)  -->
<svg version="1.1" baseProfile="tiny" id="Layer_1" xmlns="http://www.w3.org/2000/svg" xmlns:xlink="http://www.w3.org/1999/xlink"
	 x="0px" y="0px" viewBox="0 0 48 48" overflow="visible" xml:space="preserve">
<path fill="#FFFFFF" d="M37.2,42H10.8v-3.5h3c1.7,0,2.3-1.2,1.5-2.6l-6-10.3c-0.8-1.4-2.2-1.4-3,0l-6,10.3c-0.8,1.4-0.2,2.6,1.5,2.6
	h3V43c0,2.8,2.2,5,5,5h28.3c2.8,0,5-2.2,5-5V29h-6v13C37.1,42,37.2,42,37.2,42z"/>
<path fill="#FFFFFF" d="M46.1,9.5h-3V5c0-2.8-2.2-5-5-5H9.8c-2.8,0-5,2.2-5,5v14h6V6h26.3v3.5h-3c-1.7,0-2.3,1.2-1.5,2.6l6,10.3
	c0.8,1.4,2.2,1.4,3,0l6-10.3C48.5,10.6,47.8,9.5,46.1,9.5z"/>
</svg>
