<?xml version="1.0" encoding="utf-8"?>
<!-- Generator: Adobe Illustrator 28.5.0, SVG Export Plug-In . SVG Version: 9.03 Build 54727)  -->
<svg version="1.1" baseProfile="tiny" id="Layer_1" xmlns="http://www.w3.org/2000/svg" xmlns:xlink="http://www.w3.org/1999/xlink"
	 x="0px" y="0px" viewBox="0 0 48 48" overflow="visible" xml:space="preserve">
<g>
	<g>
		<path fill="#FFFFFF" d="M24,9.9V2.2c0-2.7-3.7-2.8-4.6-1l-1.5,2.6L24,9.9z"/>
		<path fill="#FFFFFF" d="M0.3,14.5C0.1,14.9,0,15.5,0,16v16c0,2.2,1.8,4,4,4h9.1l6.3,10.8c0.9,1.8,4.6,1.7,4.6-1v-7.6L0.3,14.5z"/>
	</g>
	<path fill="#FFFFFF" d="M35.8,21.6c-0.5-2.3-1.6-4.4-3.3-6.1c-0.8-0.8-2-0.8-2.8,0c0,0,0,0,0,0L35.8,21.6z"/>
	<path fill="#FFFFFF" d="M38,23.9l3.7,3.7c0.2-1.1,0.3-2.3,0.3-3.5c0-4.8-1.9-9.3-5.3-12.7c-0.8-0.8-2-0.8-2.8,0s-0.8,2,0,2.8
		C36.5,16.7,38,20.2,38,23.9z"/>
	<path fill="#FFFFFF" d="M44,24c0,1.8-0.2,3.5-0.7,5.2l3.2,3.2c1-2.6,1.5-5.5,1.5-8.4c0-6.4-2.5-12.4-7-17c-0.8-0.8-2-0.8-2.8,0
		c-0.8,0.8-0.8,2,0,2.8C41.9,13.6,44,18.7,44,24z"/>
	<g>
		<path fill="#FFFFFF" d="M42,48c-1.5,0-3.1-0.6-4.2-1.8l-36-36c-2.3-2.3-2.3-6.1,0-8.5c2.3-2.3,6.1-2.3,8.5,0l36,36
			c2.3,2.3,2.3,6.1,0,8.5C45.1,47.4,43.5,48,42,48z"/>
	</g>
</g>
</svg>
