<?xml version="1.0" encoding="utf-8"?>
<!-- Generator: Adobe Illustrator 28.5.0, SVG Export Plug-In . SVG Version: 9.03 Build 54727)  -->
<svg version="1.1" baseProfile="tiny" id="Layer_1" xmlns="http://www.w3.org/2000/svg" xmlns:xlink="http://www.w3.org/1999/xlink"
	 x="0px" y="0px" viewBox="0 0 48 48" overflow="visible" xml:space="preserve">
<g>
	<g>
		<polygon fill="#FFFFFF" points="43.2,29 43.2,29 43.1,29 		"/>
		<path fill="#FFFFFF" d="M27.9,42h-17v-3.5h3c1.7,0,2.3-1.2,1.5-2.6l-6-10.3c-0.8-1.4-2.2-1.4-3,0l-6,10.3
			c-0.8,1.4-0.2,2.6,1.5,2.6h3V43c0,2.8,2.2,5,5,5h24L27.9,42z"/>
	</g>
	<g>
		<path fill="#FFFFFF" d="M20.1,6h17v3.5h-3c-1.7,0-2.3,1.2-1.5,2.6l6,10.3c0.8,1.4,2.2,1.4,3,0l6-10.3c0.8-1.4,0.2-2.6-1.5-2.6h-3
			V5c0-2.8-2.2-5-5-5h-24L20.1,6z"/>
		<polygon fill="#FFFFFF" points="4.8,19 4.8,19 4.9,19 		"/>
	</g>
	<g>
		<path fill="#FFFFFF" d="M42,48c-1.5,0-3.1-0.6-4.2-1.8l-36-36c-2.3-2.3-2.3-6.1,0-8.5c2.3-2.3,6.1-2.3,8.5,0l36,36
			c2.3,2.3,2.3,6.1,0,8.5C45.1,47.4,43.5,48,42,48z"/>
	</g>
</g>
</svg>
