<?xml version="1.0" encoding="utf-8"?>
<!-- Generator: Adobe Illustrator 28.5.0, SVG Export Plug-In . SVG Version: 9.03 Build 54727)  -->
<svg version="1.1" baseProfile="tiny" id="Layer_1" xmlns="http://www.w3.org/2000/svg" xmlns:xlink="http://www.w3.org/1999/xlink"
	 x="0px" y="0px" viewBox="0 0 48 48" overflow="visible" xml:space="preserve">
<g>
	<g>
		<path fill="#FFFFFF" d="M21,41c0,3.8-3.1,7-7,7h-2c-3.9,0-7-3.2-7-7V7c0-3.8,3.1-7,7-7h2c3.9,0,7,3.2,7,7V41z"/>
	</g>
	<g>
		<path fill="#FFFFFF" d="M43,41c0,3.8-3.2,7-7,7h-2c-3.9,0-7-3.2-7-7V7c0-3.8,3.1-7,7-7h2c3.8,0,7,3.2,7,7V41z"/>
	</g>
</g>
</svg>
