<?xml version="1.0" encoding="utf-8"?>
<!-- Generator: Adobe Illustrator 28.5.0, SVG Export Plug-In . SVG Version: 9.03 Build 54727)  -->
<svg version="1.1" baseProfile="tiny" id="Layer_1" xmlns="http://www.w3.org/2000/svg" xmlns:xlink="http://www.w3.org/1999/xlink"
	 x="0px" y="0px" viewBox="0 0 48 48" overflow="visible" xml:space="preserve">
<g>
	<g>
		<g>
			<path fill="#FFFFFF" d="M31.1,33.1c-0.5,0-1-0.2-1.4-0.6c-0.8-0.8-0.8-2,0-2.8c1.5-1.5,2.3-3.5,2.3-5.7s-0.8-4.1-2.3-5.7
				c-0.8-0.8-0.8-2,0-2.8c0.8-0.8,2-0.8,2.8,0c2.3,2.3,3.5,5.3,3.5,8.5c0,3.2-1.2,6.2-3.5,8.5C32.1,32.9,31.6,33.1,31.1,33.1z"/>
		</g>
		<g>
			<path fill="#FFFFFF" d="M35.3,37.3c-0.5,0-1-0.2-1.4-0.6c-0.8-0.8-0.8-2,0-2.8c2.6-2.6,4.1-6.2,4.1-9.9c0-3.7-1.5-7.3-4.1-9.9
				c-0.8-0.8-0.8-2,0-2.8s2-0.8,2.8,0C40.1,14.7,42,19.2,42,24c0,4.8-1.9,9.3-5.3,12.7C36.3,37.1,35.8,37.3,35.3,37.3z"/>
		</g>
		<g>
			<path fill="#FFFFFF" d="M39.6,41.6c-0.5,0-1-0.2-1.4-0.6c-0.8-0.8-0.8-2,0-2.8C41.9,34.4,44,29.3,44,24s-2.1-10.4-5.9-14.1
				c-0.8-0.8-0.8-2,0-2.8c0.8-0.8,2-0.8,2.8,0c4.5,4.5,7,10.6,7,17s-2.5,12.4-7,17C40.6,41.4,40.1,41.6,39.6,41.6z"/>
		</g>
	</g>
	<path fill="#FFFFFF" d="M19.4,1.2L13.1,12H4c-2.2,0-4,1.8-4,4v16c0,2.2,1.8,4,4,4h9.1l6.3,10.8c0.9,1.8,4.6,1.7,4.6-1V32v-8v-8V2.2
		C24-0.5,20.3-0.6,19.4,1.2z"/>
</g>
</svg>
