<?xml version="1.0" encoding="utf-8"?>
<!-- Generator: Adobe Illustrator 28.5.0, SVG Export Plug-In . SVG Version: 9.03 Build 54727)  -->
<svg version="1.1" baseProfile="tiny" id="Layer_1" xmlns="http://www.w3.org/2000/svg" xmlns:xlink="http://www.w3.org/1999/xlink"
	 x="0px" y="0px" viewBox="0 0 48 48" overflow="visible" xml:space="preserve">
<g id="delete" display="none">
	<g display="inline">
		<path d="M36.7,47.9H11.3c-1.4,0-2.5-1.1-2.6-2.5L6.4,9.9c0-0.8,0.6-1.6,1.4-1.6s1.6,0.6,1.6,1.4l2.3,35.1h24.5l2.3-35.1
			c0-0.9,0.8-1.5,1.6-1.4c0.8,0,1.5,0.8,1.4,1.6l-2.3,35.5C39.2,46.8,38,47.9,36.7,47.9L36.7,47.9z"/>
		<path d="M4.5,8.9"/>
		<path d="M45.5,11.4h-1c-0.8,0-1.5-0.7-1.5-1.5s0.7-1.5,1.5-1.5h0.4v-1H3.1v1h0.4C4.3,8.4,5,9.1,5,9.9s-0.7,1.5-1.5,1.5h-1
			C1.1,11.4,0,10.3,0,8.9v-2c0-1.4,1.1-2.5,2.5-2.5h42.9c1.4,0,2.5,1.2,2.5,2.6v2c0,1.4-1.1,2.5-2.5,2.5L45.5,11.4z"/>
		<path d="M43.5,8.9"/>
		<path d="M31.1,40.6H31c-0.8,0-1.5-0.8-1.4-1.7l2-25.5c0-0.8,0.8-1.5,1.7-1.4c0.8,0,1.5,0.8,1.4,1.6l-2,25.5c0,0.8-0.7,1.4-1.5,1.4
			L31.1,40.6z"/>
		<path d="M16.9,40.6c-0.8,0-1.5-0.6-1.5-1.4l-2-25.5c0-0.8,0.6-1.6,1.4-1.6c0.8,0,1.6,0.6,1.6,1.4l2,25.5c0,0.8-0.6,1.6-1.4,1.7
			C17,40.7,17,40.7,16.9,40.6L16.9,40.6z"/>
		<path d="M24,40.6c-0.9,0-1.5-0.7-1.5-1.5V13.6c0-0.9,0.7-1.5,1.5-1.5s1.5,0.7,1.5,1.5v25.5C25.5,39.9,24.8,40.6,24,40.6z"/>
		<path d="M33.2,3.2H14.8c-0.9,0-1.5-0.7-1.5-1.5s0.7-1.5,1.5-1.5h18.4c0.8,0,1.5,0.7,1.5,1.5S34,3.2,33.2,3.2z"/>
	</g>
</g>
<g id="search" display="none">
	<path display="inline" fill="none" stroke="#000000" stroke-width="4" stroke-linecap="round" stroke-miterlimit="10" d="M30,18"/>
	<path display="inline" d="M29.9,0C19.8,0,11.7,8.1,11.7,18.1s1.3,7.6,3.4,10.5l0,0L0.9,42.8c-1.2,1.2-1.2,3.1,0,4.3
		C1.5,47.7,2.3,48,3,48s1.5-0.3,2.1-0.9L19.2,33l0,0c3,2.1,6.6,3.4,10.5,3.4c10,0,18.1-8.1,18.1-18.1S39.9,0,29.9,0z M29.8,32.2
		c-7.7,0-14-6.3-14-14s6.3-14,14-14s14,6.3,14,14S37.5,32.2,29.8,32.2z"/>
</g>
<g id="pencil" display="none">
	<path display="inline" d="M48,10.7L37.3,0l-5,5l-0.9-0.9l-5.3,5.3l0.9,0.9l-22,22l0,0L0,48l15.7-5l0,0l21.9-21.9l0.9,0.9l5.3-5.3
		l-0.9-0.9l5-5L48,10.7z M37.3,3.6l7.1,7.1l-3.2,3.2l-7.1-7.1l3.2-3.3V3.6z M3.6,44.4l2.5-7.7l5.2,5.2L3.6,44.4L3.6,44.4z M14,41.2
		l-7.1-7.1l21.8-21.9l7.1,7.1L13.9,41.2L14,41.2z M38.5,18.4l-8.9-8.9l1.8-1.8l8.9,8.9C40.3,16.6,38.5,18.4,38.5,18.4z"/>
</g>
<g id="check" display="none">
	<path display="inline" d="M11.2,47.5c0,0-0.1,0-0.2,0c-0.7,0-1.4-0.5-1.7-1.2L0.2,29.2c-0.6-1.1-0.2-2.4,0.9-2.9
		c1.1-0.6,2.4-0.1,2.9,0.9l7.5,14.2L44.1,1.3c0.8-0.9,2.1-1.1,3.1-0.3c0.9,0.8,1.1,2.1,0.3,3.1L12.9,46.7
		C12.5,47.2,11.9,47.5,11.2,47.5z"/>
</g>
<g id="cross" display="none">
	<path display="inline" d="M26.9,24L43.4,3.6c0.8-0.9,0.6-2.3-0.3-3.1S40.8-0.1,40,0.8L24.1,20.4L8.1,0.8C7.3-0.1,5.9-0.3,5,0.5
		S3.9,2.7,4.7,3.6L21.2,24L4.6,44.4c-0.8,1-0.6,2.3,0.3,3.1C5.3,47.8,5.8,48,6.3,48s1.3-0.3,1.7-0.8l15.9-19.6l15.9,19.6
		c0.4,0.5,1.1,0.8,1.7,0.8s1-0.2,1.4-0.5c1-0.8,1.1-2.2,0.3-3.1L26.7,24L26.9,24z"/>
</g>
<g id="dropdown_arrow" display="none">
	<path display="inline" d="M24,37.1c-0.5,0-1.1-0.2-1.5-0.6L0.6,14.6c-0.8-0.8-0.8-2.2,0-3s2.2-0.8,3,0l20.3,20.3l20.3-20.3
		c0.8-0.8,2.2-0.8,3,0s0.8,2.2,0,3L25.3,36.5c-0.4,0.4-1,0.6-1.5,0.6H24z"/>
</g>
<g id="play" display="none">
	<g display="inline">
		<circle cx="24" cy="24" r="24"/>
		<path fill="#FFFFFF" d="M19.1,15.1c0-1.1,0.8-1.5,1.7-0.9L34.3,23c0.9,0.6,0.9,1.6,0,2.2L20.8,34c-0.9,0.6-1.7,0.2-1.7-0.9
			L19.1,15.1L19.1,15.1z"/>
	</g>
</g>
<g id="play-alt" display="none">
	<path display="inline" d="M7.1,2c0,0,0.4,0,0.8,0.3l32.3,20.8c0.5,0.4,0.7,0.7,0.7,0.9s-0.2,0.5-0.7,0.9L7.9,45.7
		C7.5,46,7.2,46,7.1,46c0-0.1-0.1-0.4-0.1-0.8V2.8C7,2.3,7,2.1,7.1,2 M7.1,0C5.9,0,5,1,5,2.8v42.4C5,47,5.8,48,7.1,48
		s1.2-0.2,1.9-0.7l32.3-20.8c2.2-1.4,2.2-3.7,0-5.1L9,0.6C8.3,0.2,7.7,0,7.1,0L7.1,0z"/>
</g>
<g id="play-alt-2" display="none">
	<g display="inline">
		<path d="M7.1,47c-1,0-1.1-1.3-1.1-1.8V2.8C6,2.3,6.1,1,7.1,1S8,1.2,8.5,1.5l32.3,20.8c0.8,0.5,1.2,1.1,1.2,1.7s-0.4,1.2-1.2,1.7
			L8.5,46.5C7.9,46.9,7.4,47,7.1,47z"/>
		<path d="M7.1,2c0,0,0.4,0,0.8,0.3l32.3,20.8c0.5,0.4,0.7,0.7,0.7,0.9s-0.2,0.5-0.7,0.9L7.9,45.7C7.5,46,7.2,46,7.1,46
			c0-0.1-0.1-0.4-0.1-0.8V2.8C7,2.3,7,2.1,7.1,2 M7.1,0C5.9,0,5,1,5,2.8v42.4C5,47,5.8,48,7.1,48s1.2-0.2,1.9-0.7l32.3-20.8
			c2.2-1.4,2.2-3.7,0-5.1L9,0.6C8.3,0.2,7.7,0,7.1,0L7.1,0z"/>
	</g>
</g>
<g id="pause" display="none">
	<g display="inline">
		<circle cx="24" cy="24" r="24"/>
		<path fill="#FFFFFF" d="M19.6,34c0,1.1-0.9,2-2,2h-2c-1.1,0-2-0.9-2-2V14c0-1.1,0.9-2,2-2h2c1.1,0,2,0.9,2,2V34z"/>
		<path fill="#FFFFFF" d="M34.4,34c0,1.1-0.9,2-2,2h-2c-1.1,0-2-0.9-2-2V14c0-1.1,0.9-2,2-2h2c1.1,0,2,0.9,2,2V34z"/>
	</g>
</g>
<g id="Filter" display="none">
	<g display="inline">
		<path d="M27.3,3.4H2c-1.1,0-2,0.9-2,2v6.3c0,1.1,0.9,2,2,2h19.3l5.9-10.3L27.3,3.4z"/>
		<path d="M46,3.4H31.9l5.9,10.3H46c1.1,0,2-0.9,2-2V5.4C48,4.3,47.1,3.4,46,3.4z"/>
	</g>
	<polygon display="inline" points="37,16.4 29.6,3.4 22.1,16.4 28.1,16.4 28.1,32.3 31.1,32.3 31.1,16.4 	"/>
	<polygon display="inline" points="42,31.6 42,15.7 39,15.7 39,31.6 33,31.6 40.5,44.6 48,31.6 	"/>
	<path display="inline" d="M26.1,18.9H6.3c-1.1,0-2,0.9-2,2v6.3c0,1.1,0.9,2,2,2h19.8C26.1,29.2,26.1,18.9,26.1,18.9z"/>
	<rect x="33.1" y="18.9" display="inline" width="4" height="10.3"/>
	<path display="inline" d="M32.3,34.3h-20c-1.1,0-2,0.9-2,2v6.3c0,1.1,0.9,2,2,2h23.4c0.8,0,1.5-0.5,1.8-1.2L32.3,34.3L32.3,34.3z"
		/>
</g>
<g id="Filter_2_empty" display="none">
	<path display="inline" d="M12,2c2.2,0,4,1.8,4,4s-1.8,4-4,4S8,8.2,8,6S9.8,2,12,2 M12,0C8.7,0,6,2.7,6,6s2.7,6,6,6s6-2.7,6-6
		S15.3,0,12,0L12,0z"/>
	<path display="inline" d="M22,38c2.2,0,4,1.8,4,4s-1.8,4-4,4s-4-1.8-4-4S19.8,38,22,38 M22,36c-3.3,0-6,2.7-6,6s2.7,6,6,6
		s6-2.7,6-6S25.3,36,22,36L22,36z"/>
	<path display="inline" d="M36,20c2.2,0,4,1.8,4,4s-1.8,4-4,4s-4-1.8-4-4S33.8,20,36,20 M36,18c-3.3,0-6,2.7-6,6s2.7,6,6,6
		s6-2.7,6-6S39.3,18,36,18L36,18z"/>
	<g display="inline">
		<path d="M46,40H26v4h20c1.1,0,2-0.9,2-2S47.1,40,46,40z"/>
		<path d="M18,40H2c-1.1,0-2,0.9-2,2s0.9,2,2,2h16V40z"/>
	</g>
	<g display="inline">
		<path d="M32,22H2c-1.1,0-2,0.9-2,2s0.9,2,2,2h30V22z"/>
		<path d="M46,22h-6v4h6c1.1,0,2-0.9,2-2S47.1,22,46,22z"/>
	</g>
	<g display="inline">
		<path d="M8,4H2C0.9,4,0,4.9,0,6s0.9,2,2,2h6V4z"/>
		<path d="M46,4H16v4h30c1.1,0,2-0.9,2-2S47.1,4,46,4z"/>
	</g>
</g>
<g id="Filter_2_filled" display="none">
	<g display="inline">
		<path d="M46,40H26v4h20c1.1,0,2-0.9,2-2S47.1,40,46,40z"/>
		<path d="M18,40H2c-1.1,0-2,0.9-2,2s0.9,2,2,2h16V40z"/>
	</g>
	<g display="inline">
		<path d="M32,22H2c-1.1,0-2,0.9-2,2s0.9,2,2,2h30V22z"/>
		<path d="M46,22h-6v4h6c1.1,0,2-0.9,2-2S47.1,22,46,22z"/>
	</g>
	<g display="inline">
		<path d="M8,4H2C0.9,4,0,4.9,0,6s0.9,2,2,2h6V4z"/>
		<path d="M46,4H16v4h30c1.1,0,2-0.9,2-2S47.1,4,46,4z"/>
	</g>
	<g display="inline">
		<circle cx="12" cy="6" r="5"/>
		<path d="M12,2c2.2,0,4,1.8,4,4s-1.8,4-4,4S8,8.2,8,6S9.8,2,12,2 M12,0C8.7,0,6,2.7,6,6s2.7,6,6,6s6-2.7,6-6S15.3,0,12,0L12,0z"/>
	</g>
	<g display="inline">
		<circle cx="22" cy="42" r="5"/>
		<path d="M22,38c2.2,0,4,1.8,4,4s-1.8,4-4,4s-4-1.8-4-4S19.8,38,22,38 M22,36c-3.3,0-6,2.7-6,6s2.7,6,6,6s6-2.7,6-6S25.3,36,22,36
			L22,36z"/>
	</g>
	<g display="inline">
		<circle cx="36" cy="24" r="5"/>
		<path d="M36,20c2.2,0,4,1.8,4,4s-1.8,4-4,4s-4-1.8-4-4S33.8,20,36,20 M36,18c-3.3,0-6,2.7-6,6s2.7,6,6,6s6-2.7,6-6S39.3,18,36,18
			L36,18z"/>
	</g>
</g>
<g id="star" display="none">
	<path display="inline" d="M24,8.4l4.7,5.8c1.3,1.6,3.5,3.2,5.4,3.9l6.9,2.7L37,27c-1.1,1.7-2,4.3-2.1,6.3l-0.4,7.4l-7.2-1.9
		c-1.2-0.3-2.5-0.4-3.3-0.4s-2.1,0-3.3,0.4l-7.2,1.9l-0.4-7.4c-0.1-2-1-4.6-2.1-6.3l-4-6.2l6.9-2.7c1.9-0.7,4.1-2.3,5.4-3.9L24,8.4
		 M24,1.1c-0.5,0-1,0.2-1.3,0.7l-7.4,9.1c-0.7,0.9-2.2,1.9-3.2,2.3l-11,4.2c-1.1,0.4-1.4,1.5-0.8,2.5l6.4,9.9c0.6,1,1.2,2.7,1.2,3.8
		l0.6,11.7c0,1,0.7,1.6,1.6,1.6s0.3,0,0.5,0l11.3-3c0.5-0.2,1.3-0.2,2-0.2s1.5,0,2,0.2l11.3,3c0.2,0,0.3,0,0.5,0
		c0.9,0,1.6-0.6,1.6-1.6l0.6-11.7c0-1.1,0.6-2.9,1.2-3.8l6.4-9.9c0.6-1,0.3-2.1-0.8-2.5l-11-4.2c-1.1-0.4-2.5-1.5-3.2-2.4l-7.2-9
		C24.9,1.3,24.5,1.1,24,1.1C24,1.1,24,1.1,24,1.1z"/>
</g>
<g id="star_filled" display="none">
	<path display="inline" d="M26,44c-1.1-0.3-2.9-0.3-4,0l-11.3,3c-1.1,0.3-2.1-0.4-2.1-1.5L8,33.8c0-1.1-0.6-2.9-1.2-3.8l-6.5-9.8
		c-0.6-1-0.3-2.1,0.8-2.5l11-4.2c1.1-0.4,2.5-1.5,3.2-2.4L22.7,2c0.7-0.9,1.9-0.9,2.6,0l7.4,9.1c0.7,0.9,2.2,1.9,3.2,2.4l11,4.2
		c1.1,0.4,1.4,1.5,0.8,2.5l-6.4,9.9c-0.6,1-1.2,2.7-1.2,3.8l-0.6,11.7c0,1.1-1,1.8-2.1,1.5l-11.3-3L26,44z"/>
</g>
<g id="heart" display="none">
	<path display="inline" d="M33.9,7.1c2.4,0,4.7,0.9,6.4,2.7c3.5,3.5,3.5,9.3,0,12.8L24,38.9L7.7,22.5c-3.5-3.5-3.5-9.3,0-12.8
		C9.4,8,11.7,7,14.1,7s4.7,0.9,6.4,2.7l3.5,3.5l3.5-3.5C29.2,8,31.5,7,33.9,7.1 M33.9,2.1c-3.6,0-7.2,1.4-9.9,4.1
		c-2.8-2.8-6.3-4.1-9.9-4.1S6.9,3.5,4.2,6.2c-5.5,5.5-5.5,14.4,0,19.9L24.1,46L44,26.1c5.5-5.5,5.5-14.4,0-19.9
		c-2.7-2.8-6.3-4.1-9.9-4.1l0,0L33.9,2.1z"/>
</g>
<g id="heart_filled" display="none">
	<path display="inline" d="M43.9,6.2c-5.5-5.5-14.4-5.5-19.9,0c-5.5-5.5-14.4-5.5-19.9,0s-5.5,14.4,0,19.9L24,46l19.9-19.9
		C49.4,20.6,49.4,11.7,43.9,6.2z"/>
</g>
<g id="info" display="none">
	<path display="inline" d="M24,0c0.9,0,1.6,0.3,2.2,0.8c0.6,0.6,0.9,1.4,0.9,2.6s-0.3,2-0.9,2.6S24.8,6.9,24,6.9S22.3,6.6,21.7,6
		s-0.9-1.4-0.9-2.6s0.3-2.1,0.9-2.6S23.1,0,24,0z M26.6,13.1V48h-5.3V13.1C21.3,13.1,26.6,13.1,26.6,13.1z"/>
</g>
<g id="cog" display="none">
	<path display="inline" d="M42,22c0-0.5,0.4-1.1,1-1.3l3.6-1c0.5-0.1,0.8-0.7,0.7-1.2l-2.9-7c-0.3-0.5-0.9-0.7-1.3-0.4l-3.3,1.8
		c-0.5,0.3-1.2,0.2-1.6-0.2l-2.8-2.8c-0.4-0.4-0.5-1.1-0.2-1.6L37,5c0.2-0.5,0-1.1-0.4-1.4l-7-2.9c-0.5-0.2-1.1,0.1-1.2,0.7l-1,3.6
		c-0.1,0.5-0.7,1-1.3,1h-4c-0.5,0-1.1-0.4-1.3-1l-1-3.6c-0.1-0.5-0.7-0.8-1.2-0.7l-7,2.9c-0.5,0.3-0.7,0.9-0.4,1.4L13,8.3
		c0.3,0.5,0.2,1.2-0.2,1.6L10,12.7c-0.4,0.4-1.1,0.5-1.6,0.2l-3.3-1.8c-0.5-0.3-1.1,0-1.3,0.4l-2.9,7C0.7,19,1,19.6,1.6,19.7l3.6,1
		c0.5,0.2,1,0.7,1,1.3v4c0,0.5-0.4,1.1-1,1.3l-3.6,1c-0.5,0.1-0.8,0.7-0.7,1.2l2.9,7c0.3,0.5,0.9,0.6,1.4,0.4l3.3-1.8
		c0.5-0.3,1.2-0.2,1.6,0.2l2.8,2.8c0.4,0.4,0.5,1.1,0.2,1.6L11.3,43c-0.3,0.5,0,1.1,0.4,1.3l7,2.9c0.5,0.2,1.1-0.1,1.2-0.7l1-3.6
		c0.2-0.5,0.7-1,1.3-1h4c0.5,0,1.1,0.4,1.3,1l1,3.6c0.1,0.5,0.7,0.8,1.2,0.7l7-2.9c0.5-0.3,0.7-0.9,0.4-1.3l-1.8-3.3
		c-0.3-0.5-0.2-1.2,0.2-1.6l2.8-2.8c0.4-0.4,1.1-0.5,1.6-0.2l3.3,1.8c0.5,0.3,1.1,0,1.3-0.4l2.9-7c0.2-0.5-0.1-1.1-0.7-1.2l-3.6-1
		c-0.5-0.2-1-0.7-1-1.3L42,22L42,22z M24,36c-6.6,0-12-5.4-12-12s5.4-12,12-12s12,5.4,12,12S30.6,36,24,36z"/>
</g>
<g id="sound" display="none">
	<rect x="24" y="-1" display="inline" fill="#FFFFFF" width="4" height="50"/>
	<g display="inline">
		<path d="M8.8,11.4C8.4,11.7,7.6,12,7,12H1c-0.6,0-1,0.4-1,1v22c0,0.5,0.4,1,1,1h6c0.6,0,1.4,0.3,1.8,0.6l14.4,10.8
			c0.4,0.3,0.8,0.2,0.8-0.4V1c0-0.6-0.4-0.7-0.8-0.4C23.2,0.6,8.8,11.4,8.8,11.4z"/>
		<path d="M31.1,33.1c-0.5,0-1-0.2-1.4-0.6c-0.8-0.8-0.8-2,0-2.8c1.5-1.5,2.3-3.5,2.3-5.6s-0.8-4.1-2.3-5.7s-0.8-2,0-2.8
			s2-0.8,2.8,0c2.3,2.3,3.5,5.3,3.5,8.5s-1.2,6.2-3.5,8.5c-0.4,0.4-0.9,0.6-1.4,0.6V33.1z"/>
		<path d="M35.3,37.3c-0.5,0-1-0.2-1.4-0.6c-0.8-0.8-0.8-2,0-2.8c2.6-2.6,4.1-6.2,4.1-9.9s-1.5-7.3-4.1-9.9c-0.8-0.8-0.8-2.1,0-2.8
			s2-0.8,2.8,0C40.1,14.7,42,19.2,42,24s-1.9,9.3-5.3,12.7C36.3,37.1,35.8,37.3,35.3,37.3z"/>
		<path d="M39.6,41.6c-0.5,0-1-0.2-1.4-0.6c-0.8-0.8-0.8-2,0-2.8C42,34.4,44,29.4,44,24.1S41.9,13.7,38.1,10c-0.8-0.8-0.8-2.1,0-2.8
			s2-0.8,2.8,0c4.5,4.5,7,10.6,7,17s-2.5,12.4-7,17c-0.4,0.4-0.9,0.6-1.4,0.6L39.6,41.6z"/>
	</g>
</g>
<g id="mute" display="none">
	<rect x="24" y="-1" display="inline" fill="#FFFFFF" width="4" height="50"/>
	<g display="inline">
		<g>
			<path d="M6.3,12H1c-0.6,0-1,0.4-1,1v22c0,0.5,0.4,1,1,1h6c0.6,0,1.4,0.3,1.8,0.6l14.4,10.8c0.4,0.3,0.8,0.2,0.8-0.4V29.7L6.3,12z
				"/>
			<path d="M24,18.3V1c0-0.6-0.4-0.7-0.8-0.4l-9.7,7.3L24,18.4V18.3z"/>
		</g>
		<path d="M45.6,47.6c-0.5,0-1-0.2-1.4-0.6L1.2,4c-0.8-0.8-0.8-2,0-2.8s2-0.8,2.8,0l43,43c0.8,0.8,0.8,2,0,2.8
			C46.6,47.4,46.1,47.6,45.6,47.6z"/>
		<path d="M32,24c0,0.7-0.1,1.4-0.3,2.1l3.1,3.1c0.8-1.6,1.2-3.4,1.2-5.2c0-3.2-1.2-6.2-3.5-8.5c-0.8-0.8-2-0.8-2.8,0
			c-0.8,0.8-0.8,2,0,2.8C31.2,19.8,32,21.8,32,24z"/>
		<path d="M38,24c0,2.4-0.6,4.6-1.7,6.7l2.9,2.9C41,30.8,42,27.5,42,24s-1.9-9.3-5.3-12.7c-0.8-0.8-2-0.8-2.8,0s-0.8,2.1,0,2.8
			C36.5,16.7,38,20.3,38,24z"/>
		<path d="M44,24c0,4-1.2,7.8-3.3,11l2.9,2.9c2.9-4,4.4-8.8,4.4-13.9s-2.5-12.4-7-17c-0.8-0.8-2-0.8-2.8,0s-0.8,2.1,0,2.8
			c3.8,3.8,5.9,8.8,5.9,14.1L44,24z"/>
	</g>
</g>
<g id="controller_face_buttons" display="none">
	<path display="inline" d="M8,18c3.3,0,6,2.7,6,6s-2.7,6-6,6s-6-2.7-6-6S4.7,18,8,18 M8,16c-4.4,0-8,3.6-8,8s3.6,8,8,8s8-3.6,8-8
		S12.4,16,8,16L8,16z"/>
	<path display="inline" d="M24,34c3.3,0,6,2.7,6,6s-2.7,6-6,6s-6-2.7-6-6S20.7,34,24,34 M24,32c-4.4,0-8,3.6-8,8s3.6,8,8,8
		s8-3.6,8-8S28.4,32,24,32L24,32z"/>
	<path display="inline" d="M24,2c3.3,0,6,2.7,6,6s-2.7,6-6,6s-6-2.7-6-6S20.7,2,24,2 M24,0c-4.4,0-8,3.6-8,8s3.6,8,8,8s8-3.6,8-8
		S28.4,0,24,0L24,0z"/>
	<path display="inline" d="M40,18c3.3,0,6,2.7,6,6s-2.7,6-6,6s-6-2.7-6-6S36.7,18,40,18 M40,16c-4.4,0-8,3.6-8,8s3.6,8,8,8
		s8-3.6,8-8S44.4,16,40,16L40,16z"/>
</g>
<g id="controller_d-pad" display="none">
	<path display="inline" d="M12.4,20c0.4,0,1.1,0.4,1.3,0.7l1.5,2.6c0.2,0.3,0.2,1.1,0,1.4l-1.5,2.6c-0.2,0.4-0.9,0.8-1.3,0.8H2v-8
		h10.4 M12.4,18H2c-1.1,0-2,0.9-2,2v8c0,1.1,0.9,2,2,2h10.4c1.1,0,2.5-0.8,3-1.7l1.5-2.6c0.6-0.9,0.6-2.5,0-3.4l-1.5-2.6
		C14.8,18.7,13.5,18,12.4,18C12.4,18,12.4,18,12.4,18z"/>
	<path display="inline" d="M24,32.6c0.4,0,0.6,0,0.7,0.1l2.6,1.5c0.3,0.2,0.7,0.9,0.7,1.3v10.4h-8V35.5c0-0.4,0.4-1.1,0.7-1.3
		l2.6-1.5C23.3,32.7,23.6,32.6,24,32.6 M24,30.6c-0.6,0-1.2,0.1-1.7,0.4l-2.6,1.5c-1,0.6-1.7,1.9-1.7,3v10.4c0,1.1,0.9,2,2,2h8
		c1.1,0,2-0.9,2-2V35.5c0-1.1-0.8-2.5-1.7-3L25.7,31C25.2,30.7,24.6,30.6,24,30.6C24,30.6,24,30.6,24,30.6z"/>
	<path display="inline" d="M46,20v8H35.6c-0.4,0-1.1-0.4-1.3-0.7l-1.5-2.6c-0.2-0.3-0.2-1.1,0-1.4l1.5-2.6c0.2-0.4,0.9-0.8,1.3-0.8
		H46 M46,18H35.6c-1.1,0-2.5,0.8-3,1.7l-1.5,2.6c-0.6,0.9-0.6,2.5,0,3.4l1.5,2.6c0.6,1,1.9,1.7,3,1.7H46c1.1,0,2-0.9,2-2v-8
		C48,18.9,47.1,18,46,18C46,18,46,18,46,18z"/>
	<path display="inline" d="M28,2v10.4c0,0.4-0.4,1.1-0.7,1.3l-2.6,1.5c0,0-0.3,0.2-0.7,0.2s-0.6,0-0.7-0.1l-2.6-1.5
		c-0.3-0.2-0.7-0.9-0.7-1.3V2H28 M28,0h-8c-1.1,0-2,0.9-2,2v10.4c0,1.1,0.8,2.5,1.7,3l2.6,1.5c0.5,0.3,1.1,0.4,1.7,0.4
		s1.2-0.1,1.7-0.4l2.6-1.5c1-0.6,1.7-1.9,1.7-3V2C30,0.9,29.1,0,28,0C28,0,28,0,28,0z"/>
</g>
<path fill="#FFFFFF" d="M24,7l9.4,16.2h-1.2h-4v4V44h-8.3V27.2v-4h-4h-1.2L24,7 M24,0c-0.4,0-0.7,0.2-1,0.7L8.7,25.4
	c-0.6,1-0.1,1.8,1,1.8h6.1V46c0,1.1,0.9,2,2,2h12.3c1.1,0,2-0.9,2-2V27.2h6.1c1.1,0,1.6-0.8,1-1.8L25,0.7C24.7,0.2,24.4,0,24,0L24,0
	z"/>
</svg>
