<?xml version="1.0" encoding="utf-8"?>
<!-- Generator: Adobe Illustrator 28.5.0, SVG Export Plug-In . SVG Version: 9.03 Build 54727)  -->
<svg version="1.1" baseProfile="tiny" id="Layer_1" xmlns="http://www.w3.org/2000/svg" xmlns:xlink="http://www.w3.org/1999/xlink"
	 x="0px" y="0px" viewBox="0 0 48 48" overflow="visible" xml:space="preserve">
<path fill="#FFFFFF" d="M32.5,24l13.8-13.8c2.3-2.3,2.3-6.1,0-8.5c-2.3-2.3-6.1-2.3-8.5,0L24,15.5L10.2,1.8c-2.3-2.3-6.1-2.3-8.5,0
	c-2.3,2.3-2.3,6.1,0,8.5L15.5,24L1.8,37.8c-2.3,2.3-2.3,6.1,0,8.5C2.9,47.4,4.5,48,6,48s3.1-0.6,4.2-1.8L24,32.5l13.8,13.8
	c1.2,1.2,2.7,1.8,4.2,1.8s3.1-0.6,4.2-1.8c2.3-2.3,2.3-6.1,0-8.5L32.5,24z"/>
</svg>
