<?xml version="1.0" encoding="utf-8"?>
<!-- Generator: Adobe Illustrator 28.0.0, SVG Export Plug-In . SVG Version: 6.00 Build 0)  -->
<svg version="1.1" baseProfile="tiny" id="Layer_1" xmlns="http://www.w3.org/2000/svg" xmlns:xlink="http://www.w3.org/1999/xlink"
	 x="0px" y="0px" viewBox="0 0 48 48" overflow="visible" xml:space="preserve">
<path fill="#FFFFFF" d="M33.9,7.1c2.4,0,4.7,0.9,6.4,2.7c3.5,3.5,3.5,9.3,0,12.8L24,38.9L7.7,22.5c-3.5-3.5-3.5-9.3,0-12.8
	c1.7-1.7,4-2.7,6.4-2.7c2.4,0,4.7,0.9,6.4,2.7l3.5,3.5l3.5-3.5C29.2,8,31.5,7.1,33.9,7.1 M33.9,2.1c-3.6,0-7.2,1.4-9.9,4.1
	c-2.7-2.7-6.3-4.1-9.9-4.1S6.9,3.4,4.1,6.2c-5.5,5.5-5.5,14.4,0,19.9L24,45.9l19.9-19.9c5.5-5.5,5.5-14.4,0-19.9
	C41.1,3.4,37.5,2.1,33.9,2.1L33.9,2.1z"/>
</svg>
