<?xml version="1.0" encoding="utf-8"?>
<!-- Generator: Adobe Illustrator 28.5.0, SVG Export Plug-In . SVG Version: 9.03 Build 54727)  -->
<svg version="1.1" baseProfile="tiny" id="Layer_1" xmlns="http://www.w3.org/2000/svg" xmlns:xlink="http://www.w3.org/1999/xlink"
	 x="0px" y="0px" viewBox="0 0 48 48" overflow="visible" xml:space="preserve">
<path fill="#FFFFFF" d="M20.7,19.3c-1.1,0-2,0.9-2,2V46c0,1.1,0.9,2,2,2H28c1.1,0,2-0.9,2-2V21.3c0-1.1-0.9-2-2-2H20.7z"/>
<path fill="#FFFFFF" d="M28.7,1.6C27.5,0.6,26,0,24.4,0c-1.7,0-3.2,0.6-4.3,1.6c-0.9,0.8-1.9,2.3-1.9,4.8c0,2.5,1,4,1.8,4.8
	c1.2,1.1,2.7,1.7,4.3,1.7c1.6,0,3.1-0.6,4.3-1.6c0.9-0.8,1.9-2.3,1.9-4.8C30.6,3.9,29.5,2.4,28.7,1.6z"/>
</svg>
