<?xml version="1.0" encoding="utf-8"?>
<!-- Generator: Adobe Illustrator 28.5.0, SVG Export Plug-In . SVG Version: 9.03 Build 54727)  -->
<svg version="1.1" baseProfile="tiny" id="Layer_1" xmlns="http://www.w3.org/2000/svg" xmlns:xlink="http://www.w3.org/1999/xlink"
	 x="0px" y="0px" viewBox="0 0 173.8 15.8" overflow="visible" xml:space="preserve">
<g>
	<path fill="#FFFFFF" d="M19,0h-1.6H1.3C0.6,0,0,0.6,0,1.3v12c0,1.4,1.2,2.6,2.6,2.6h12.2c1.4,0,2.6-1.2,2.6-2.6v-1.7H19
		c3.1,0,5.6-2.5,5.6-5.6V5.6C24.6,2.5,22.1,0,19,0z M13.1,8.1c-0.8,1.2-2.4,2.8-4.7,4.6c-2.4-1.9-4-3.4-4.7-4.6
		C2.4,6.3,3.3,3.5,5.5,3.5C7,3.5,8,4.1,8.4,5.3c0.4-1.2,1.3-1.8,2.8-1.8C13.5,3.5,14.3,6.3,13.1,8.1z M18.9,8.6h-1.5V3h1.5
		c1.5,0,2.8,1.2,2.8,2.8C21.7,7.3,20.4,8.6,18.9,8.6z"/>
	<path id="SupportmeonKo-f" fill="#FFFFFF" d="M42.2,12.1c-0.7,0-1.3-0.1-1.8-0.3c-0.5-0.2-1-0.5-1.5-0.9c-0.3-0.2-0.4-0.5-0.4-0.7
		c0-0.2,0.1-0.4,0.2-0.6s0.3-0.2,0.6-0.2c0.2,0,0.3,0.1,0.5,0.2c0.4,0.3,0.7,0.5,1.1,0.7s0.8,0.2,1.3,0.2c0.5,0,1-0.1,1.4-0.4
		c0.4-0.2,0.6-0.5,0.6-0.9c0-0.4-0.2-0.7-0.6-1c-0.4-0.2-1-0.4-1.8-0.5c-2-0.3-3.1-1.3-3.1-2.9c0-0.6,0.2-1.1,0.5-1.5
		c0.3-0.4,0.7-0.8,1.3-1c0.5-0.2,1.1-0.3,1.8-0.3c0.6,0,1.1,0.1,1.7,0.3c0.5,0.2,0.9,0.4,1.3,0.7c0.3,0.2,0.4,0.5,0.4,0.7
		c0,0.2-0.1,0.4-0.2,0.6S45,4.6,44.8,4.6c-0.1,0-0.3,0-0.4-0.1c-0.2-0.2-0.6-0.4-1-0.5c-0.4-0.2-0.8-0.2-1.2-0.2
		c-0.6,0-1,0.1-1.4,0.3c-0.3,0.2-0.5,0.5-0.5,0.9c0,0.4,0.2,0.7,0.5,0.9c0.3,0.2,0.9,0.4,1.6,0.5c0.8,0.1,1.4,0.3,1.9,0.5
		c0.5,0.2,0.8,0.5,1.1,0.9c0.2,0.4,0.4,0.9,0.4,1.5c0,0.6-0.2,1.1-0.5,1.5c-0.3,0.4-0.8,0.8-1.3,1C43.4,12,42.8,12.1,42.2,12.1z
		 M52.8,4.5c0.2,0,0.4,0.1,0.6,0.2s0.2,0.4,0.2,0.6v3.6c0,1-0.3,1.8-0.8,2.4c-0.6,0.6-1.3,0.9-2.4,0.9s-1.8-0.3-2.4-0.9
		c-0.6-0.6-0.8-1.4-0.8-2.4V5.4c0-0.2,0.1-0.4,0.2-0.6c0.2-0.2,0.4-0.2,0.6-0.2s0.4,0.1,0.6,0.2s0.2,0.4,0.2,0.6v3.6
		c0,0.6,0.1,1,0.4,1.3c0.3,0.3,0.6,0.4,1.1,0.4c0.5,0,0.9-0.1,1.1-0.4C51.9,9.9,52,9.5,52,8.9V5.4c0-0.2,0.1-0.4,0.2-0.6
		S52.6,4.5,52.8,4.5z M59.4,4.4c0.6,0,1.2,0.2,1.8,0.5c0.5,0.3,0.9,0.8,1.2,1.4c0.3,0.6,0.5,1.3,0.5,2s-0.1,1.4-0.4,2
		s-0.7,1.1-1.2,1.4c-0.5,0.3-1.1,0.5-1.7,0.5c-0.4,0-0.9-0.1-1.3-0.3s-0.7-0.4-1-0.7v2.7c0,0.2-0.1,0.4-0.2,0.6s-0.4,0.2-0.6,0.2
		c-0.2,0-0.4-0.1-0.6-0.2c-0.2-0.2-0.2-0.4-0.2-0.6V5.4c0-0.2,0.1-0.4,0.2-0.6s0.4-0.2,0.6-0.2c0.2,0,0.4,0.1,0.6,0.2
		s0.2,0.4,0.2,0.6v0.1c0.2-0.3,0.5-0.5,0.9-0.7C58.5,4.5,58.9,4.4,59.4,4.4z M59.2,10.6c0.6,0,1.1-0.2,1.5-0.7s0.6-1,0.6-1.7
		c0-0.7-0.2-1.2-0.6-1.7c-0.4-0.4-0.9-0.7-1.5-0.7s-1.1,0.2-1.5,0.7s-0.6,1-0.6,1.7c0,0.7,0.2,1.2,0.6,1.7S58.5,10.6,59.2,10.6z
		 M68.1,4.4c0.6,0,1.2,0.2,1.8,0.5c0.5,0.3,0.9,0.8,1.2,1.4c0.3,0.6,0.5,1.3,0.5,2s-0.1,1.4-0.4,2s-0.7,1.1-1.2,1.4
		c-0.5,0.3-1.1,0.5-1.7,0.5c-0.4,0-0.9-0.1-1.3-0.3s-0.7-0.4-1-0.7v2.7c0,0.2-0.1,0.4-0.2,0.6s-0.4,0.2-0.6,0.2s-0.4-0.1-0.6-0.2
		c-0.2-0.2-0.2-0.4-0.2-0.6V5.4c0-0.2,0.1-0.4,0.2-0.6s0.4-0.2,0.6-0.2s0.4,0.1,0.6,0.2s0.2,0.4,0.2,0.6v0.1
		c0.2-0.3,0.5-0.5,0.9-0.7C67.2,4.5,67.6,4.4,68.1,4.4z M67.9,10.6c0.6,0,1.1-0.2,1.5-0.7s0.6-1,0.6-1.7c0-0.7-0.2-1.2-0.6-1.7
		c-0.4-0.4-0.9-0.7-1.5-0.7s-1.1,0.2-1.5,0.7s-0.6,1-0.6,1.7c0,0.7,0.2,1.2,0.6,1.7S67.3,10.6,67.9,10.6z M80.1,8.3
		c0,0.7-0.2,1.4-0.5,2c-0.3,0.6-0.8,1.1-1.4,1.4c-0.6,0.3-1.2,0.5-1.9,0.5c-0.7,0-1.4-0.2-1.9-0.5c-0.6-0.3-1-0.8-1.4-1.4
		s-0.5-1.3-0.5-2s0.2-1.4,0.5-2s0.8-1.1,1.4-1.4c0.6-0.3,1.2-0.5,1.9-0.5c0.7,0,1.3,0.2,1.9,0.5c0.6,0.3,1,0.8,1.4,1.4
		C80,6.8,80.1,7.5,80.1,8.3z M78.4,8.3c0-0.5-0.1-0.9-0.3-1.2c-0.2-0.4-0.4-0.6-0.8-0.8c-0.3-0.2-0.7-0.3-1.1-0.3
		c-0.4,0-0.7,0.1-1.1,0.3c-0.3,0.2-0.6,0.5-0.8,0.8c-0.2,0.4-0.3,0.8-0.3,1.2s0.1,0.9,0.3,1.2c0.2,0.4,0.4,0.6,0.8,0.8
		c0.3,0.2,0.7,0.3,1.1,0.3c0.4,0,0.7-0.1,1.1-0.3s0.6-0.5,0.8-0.8C78.4,9.1,78.4,8.7,78.4,8.3z M85.4,4.4c0.3,0,0.5,0.1,0.7,0.2
		s0.3,0.3,0.3,0.6c0,0.3-0.1,0.5-0.2,0.7C86,6,85.9,6,85.7,6c-0.1,0-0.3,0-0.5-0.1c0,0-0.1,0-0.2-0.1s-0.2,0-0.3,0
		c-0.2,0-0.5,0.1-0.7,0.2c-0.2,0.1-0.4,0.4-0.6,0.7c-0.1,0.3-0.2,0.7-0.2,1.1v3.3c0,0.2-0.1,0.4-0.2,0.6c-0.2,0.2-0.4,0.2-0.6,0.2
		s-0.4-0.1-0.6-0.2c-0.2-0.2-0.2-0.4-0.2-0.6V5.4c0-0.2,0.1-0.4,0.2-0.6s0.4-0.2,0.6-0.2s0.4,0.1,0.6,0.2c0.2,0.2,0.2,0.4,0.2,0.6
		v0.2c0.2-0.4,0.5-0.7,0.9-0.9C84.5,4.5,85,4.4,85.4,4.4z M91.2,10.4c0.1,0,0.2,0.1,0.4,0.2c0.1,0.1,0.2,0.3,0.2,0.5
		c0,0.3-0.1,0.5-0.4,0.6C91,11.9,90.7,12,90.4,12c-0.6,0-1.1-0.1-1.5-0.4c-0.4-0.2-0.6-0.8-0.6-1.6V6.2h-0.6c-0.2,0-0.4-0.1-0.6-0.2
		c-0.1-0.1-0.2-0.3-0.2-0.6c0-0.2,0.1-0.4,0.2-0.5c0.1-0.1,0.3-0.2,0.6-0.2h0.6V3.8c0-0.2,0.1-0.4,0.2-0.6c0.2-0.2,0.4-0.2,0.6-0.2
		c0.2,0,0.4,0.1,0.6,0.2C89.9,3.3,90,3.5,90,3.8v0.9h1c0.2,0,0.4,0.1,0.6,0.2c0.1,0.1,0.2,0.3,0.2,0.6c0,0.2-0.1,0.4-0.2,0.5
		c-0.1,0.1-0.3,0.2-0.6,0.2h-1V10c0,0.2,0.1,0.3,0.2,0.4s0.2,0.1,0.4,0.1c0.1,0,0.2,0,0.3-0.1C91,10.4,91.1,10.4,91.2,10.4z
		 M105.9,4.4c0.9,0,1.6,0.3,1.9,0.8c0.4,0.6,0.5,1.3,0.5,2.3v3.6c0,0.2-0.1,0.4-0.2,0.6c-0.2,0.2-0.4,0.2-0.6,0.2
		c-0.2,0-0.4-0.1-0.6-0.2c-0.2-0.2-0.2-0.4-0.2-0.6V7.6c0-0.5-0.1-0.9-0.3-1.2s-0.6-0.4-1.1-0.4c-0.5,0-0.9,0.2-1.2,0.5
		c-0.3,0.3-0.4,0.7-0.4,1.2v3.6c0,0.2-0.1,0.4-0.2,0.6c-0.2,0.2-0.4,0.2-0.6,0.2s-0.4-0.1-0.6-0.2c-0.2-0.2-0.2-0.4-0.2-0.6V7.6
		c0-0.5-0.1-0.9-0.3-1.2s-0.6-0.4-1.1-0.4c-0.5,0-0.9,0.2-1.2,0.5c-0.3,0.3-0.4,0.7-0.4,1.2v3.6c0,0.2-0.1,0.4-0.2,0.6
		c-0.2,0.2-0.4,0.2-0.6,0.2s-0.4-0.1-0.6-0.2c-0.2-0.2-0.2-0.4-0.2-0.6V5.4c0-0.2,0.1-0.4,0.2-0.6s0.4-0.2,0.6-0.2s0.4,0.1,0.6,0.2
		c0.2,0.2,0.2,0.4,0.2,0.6v0.2c0.3-0.3,0.6-0.6,1-0.9c0.4-0.2,0.8-0.4,1.3-0.4c1.2,0,1.9,0.5,2.3,1.5c0.2-0.4,0.5-0.7,1-1.1
		C104.8,4.5,105.3,4.4,105.9,4.4z M116.9,8.1c0,0.2-0.1,0.4-0.3,0.5c-0.2,0.1-0.4,0.2-0.6,0.2h-4.6c0.1,0.6,0.4,1,0.8,1.3
		s0.9,0.5,1.4,0.5c0.4,0,0.7,0,0.9-0.1c0.2-0.1,0.4-0.1,0.5-0.2c0.1-0.1,0.2-0.1,0.3-0.2c0.2-0.1,0.3-0.1,0.5-0.1
		c0.2,0,0.4,0.1,0.5,0.2s0.2,0.3,0.2,0.5c0,0.3-0.1,0.5-0.4,0.7c-0.3,0.2-0.6,0.4-1.1,0.5s-0.9,0.2-1.3,0.2c-0.8,0-1.5-0.2-2.1-0.5
		c-0.6-0.3-1-0.8-1.4-1.4c-0.3-0.6-0.5-1.2-0.5-1.9c0-0.8,0.2-1.5,0.5-2.1c0.3-0.6,0.8-1.1,1.3-1.4c0.6-0.3,1.1-0.5,1.8-0.5
		c0.6,0,1.2,0.2,1.7,0.5c0.5,0.3,1,0.8,1.3,1.4C116.7,6.8,116.9,7.4,116.9,8.1z M113.3,5.9c-1.1,0-1.7,0.5-1.9,1.5h3.7V7.3
		c0-0.4-0.2-0.7-0.6-1S113.8,5.9,113.3,5.9z M129.4,8.3c0,0.7-0.2,1.4-0.5,2s-0.8,1.1-1.4,1.4c-0.6,0.3-1.2,0.5-1.9,0.5
		c-0.7,0-1.4-0.2-1.9-0.5c-0.6-0.3-1-0.8-1.4-1.4s-0.5-1.3-0.5-2s0.2-1.4,0.5-2s0.8-1.1,1.4-1.4c0.6-0.3,1.2-0.5,1.9-0.5
		c0.7,0,1.3,0.2,1.9,0.5c0.6,0.3,1,0.8,1.4,1.4S129.4,7.5,129.4,8.3z M127.7,8.3c0-0.5-0.1-0.9-0.3-1.2s-0.4-0.6-0.8-0.8
		c-0.3-0.2-0.7-0.3-1.1-0.3s-0.7,0.1-1.1,0.3c-0.3,0.2-0.6,0.5-0.8,0.8c-0.2,0.4-0.3,0.8-0.3,1.2s0.1,0.9,0.3,1.2
		c0.2,0.4,0.4,0.6,0.8,0.8s0.7,0.3,1.1,0.3s0.7-0.1,1.1-0.3s0.6-0.5,0.8-0.8C127.6,9.1,127.7,8.7,127.7,8.3z M134.8,4.4
		c1,0,1.6,0.3,2,0.8c0.4,0.6,0.5,1.3,0.5,2.3v3.6c0,0.2-0.1,0.4-0.2,0.6c-0.2,0.2-0.4,0.2-0.6,0.2c-0.2,0-0.4-0.1-0.6-0.2
		c-0.2-0.2-0.2-0.4-0.2-0.6V7.6c0-0.5-0.1-0.9-0.3-1.2c-0.2-0.3-0.6-0.4-1.1-0.4c-0.5,0-1,0.2-1.3,0.5c-0.3,0.3-0.5,0.7-0.5,1.2v3.6
		c0,0.2-0.1,0.4-0.2,0.6c-0.2,0.2-0.4,0.2-0.6,0.2c-0.2,0-0.4-0.1-0.6-0.2c-0.2-0.2-0.2-0.4-0.2-0.6V5.4c0-0.2,0.1-0.4,0.2-0.6
		s0.4-0.2,0.6-0.2c0.2,0,0.4,0.1,0.6,0.2c0.2,0.2,0.2,0.4,0.2,0.6v0.2c0.3-0.3,0.6-0.6,1-0.9S134.3,4.4,134.8,4.4z M150.7,10.5
		c0.1,0.1,0.1,0.2,0.1,0.3c0,0.1,0.1,0.2,0.1,0.3c0,0.3-0.1,0.5-0.3,0.6c-0.2,0.2-0.4,0.3-0.7,0.3c-0.1,0-0.2,0-0.4-0.1
		s-0.2-0.1-0.3-0.2l-3-4l-1.3,1.3v2.2c0,0.3-0.1,0.5-0.2,0.6c-0.2,0.2-0.4,0.2-0.6,0.2c-0.3,0-0.5-0.1-0.6-0.2
		c-0.2-0.2-0.2-0.4-0.2-0.6V3.1c0-0.2,0.1-0.4,0.3-0.6c0.2-0.2,0.4-0.2,0.6-0.2c0.3,0,0.5,0.1,0.6,0.2c0.2,0.2,0.2,0.4,0.2,0.6v3.8
		l4.5-4.4c0.2-0.2,0.4-0.3,0.7-0.3c0.2,0,0.4,0.1,0.5,0.3c0.1,0.2,0.2,0.4,0.2,0.6s-0.1,0.4-0.3,0.5l-3.1,2.9L150.7,10.5z
		 M159.4,8.3c0,0.7-0.2,1.4-0.5,2s-0.8,1.1-1.4,1.4c-0.6,0.3-1.2,0.5-1.9,0.5c-0.7,0-1.4-0.2-1.9-0.5c-0.6-0.3-1-0.8-1.4-1.4
		s-0.5-1.3-0.5-2s0.2-1.4,0.5-2s0.8-1.1,1.4-1.4c0.6-0.3,1.2-0.5,1.9-0.5c0.7,0,1.3,0.2,1.9,0.5c0.6,0.3,1,0.8,1.4,1.4
		S159.4,7.5,159.4,8.3z M157.7,8.3c0-0.5-0.1-0.9-0.3-1.2s-0.4-0.6-0.8-0.8c-0.3-0.2-0.7-0.3-1.1-0.3s-0.7,0.1-1.1,0.3
		c-0.3,0.2-0.6,0.5-0.8,0.8c-0.2,0.4-0.3,0.8-0.3,1.2s0.1,0.9,0.3,1.2c0.2,0.4,0.4,0.6,0.8,0.8s0.7,0.3,1.1,0.3s0.7-0.1,1.1-0.3
		s0.6-0.5,0.8-0.8C157.6,9.1,157.7,8.7,157.7,8.3z M161.5,8.5c-0.2,0-0.4-0.1-0.6-0.2c-0.2-0.2-0.2-0.4-0.2-0.6
		c0-0.2,0.1-0.4,0.2-0.6c0.2-0.2,0.4-0.2,0.6-0.2h2.4c0.2,0,0.4,0.1,0.6,0.2c0.2,0.2,0.2,0.4,0.2,0.6c0,0.2-0.1,0.4-0.2,0.6
		c-0.2,0.2-0.4,0.2-0.6,0.2H161.5z M170,3.1c-0.3,0-0.5,0.1-0.7,0.3c-0.1,0.2-0.2,0.4-0.2,0.6v0.7h1.3c0.2,0,0.4,0.1,0.6,0.2
		c0.1,0.1,0.2,0.3,0.2,0.6s-0.1,0.4-0.2,0.6c-0.1,0.1-0.3,0.2-0.6,0.2h-1.3v5c0,0.2-0.1,0.4-0.2,0.6c-0.2,0.2-0.4,0.2-0.6,0.2
		c-0.2,0-0.4-0.1-0.6-0.2c-0.2-0.2-0.2-0.4-0.2-0.6v-5h-0.8c-0.2,0-0.4-0.1-0.6-0.2c-0.1-0.1-0.2-0.3-0.2-0.6s0.1-0.4,0.2-0.6
		c0.1-0.1,0.3-0.2,0.6-0.2h0.8V4c0-0.7,0.2-1.3,0.7-1.7c0.5-0.4,1.2-0.7,2.1-0.7c0.3,0,0.6,0.1,0.9,0.2c0.3,0.1,0.4,0.4,0.4,0.6
		c0,0.2-0.1,0.4-0.2,0.5s-0.3,0.2-0.5,0.2c0,0-0.1,0-0.1,0s-0.1,0-0.2,0C170.3,3.2,170.1,3.1,170,3.1z M173.8,11.1
		c0,0.2-0.1,0.4-0.2,0.6c-0.2,0.2-0.4,0.2-0.6,0.2c-0.2,0-0.4-0.1-0.6-0.2c-0.2-0.2-0.2-0.4-0.2-0.6V5.4c0-0.2,0.1-0.4,0.2-0.6
		c0.2-0.2,0.4-0.2,0.6-0.2c0.2,0,0.4,0.1,0.6,0.2c0.2,0.2,0.2,0.4,0.2,0.6V11.1z M172.9,3.6c-0.3,0-0.5-0.1-0.7-0.2
		c-0.1-0.1-0.2-0.3-0.2-0.5V2.6c0-0.3,0.1-0.4,0.2-0.5c0.1-0.1,0.4-0.2,0.7-0.2c0.3,0,0.6,0.1,0.7,0.2c0.1,0.1,0.2,0.3,0.2,0.5v0.3
		c0,0.3-0.1,0.5-0.2,0.6S173.3,3.6,172.9,3.6z"/>
</g>
</svg>
