<?xml version="1.0" encoding="utf-8"?>
<!-- Generator: Adobe Illustrator 28.6.0, SVG Export Plug-In . SVG Version: 9.03 Build 54939)  -->
<svg version="1.1" baseProfile="tiny" id="Layer_1" xmlns="http://www.w3.org/2000/svg" xmlns:xlink="http://www.w3.org/1999/xlink"
	 x="0px" y="0px" viewBox="0 0 48 48" overflow="visible" xml:space="preserve">
<g>
	<path fill="#FFFFFF" d="M24,6c4.3,0,8.3,1.5,11.5,4.2l-2.2,1c-1.5,0.7-1.7,2-0.3,3l9.6,7.1c1.3,1,2.6,0.4,2.8-1.2l1.4-11.9
		c0.2-1.6-0.9-2.4-2.4-1.8l-2.8,1.2C37,2.7,30.7,0,24,0C11.1,0,0.6,10,0,22.9l6,0.3C6.5,13.5,14.4,6,24,6z"/>
	<path fill="#FFFFFF" d="M42,24.9C41.5,34.5,33.6,42,24,42c-4.3,0-8.3-1.5-11.5-4.2l2.2-1c1.5-0.7,1.7-2,0.3-3l-9.6-7.1
		c-1.3-1-2.6-0.4-2.8,1.2L1.3,39.9c-0.2,1.6,0.9,2.4,2.4,1.8l2.8-1.2C11,45.3,17.3,48,24,48c12.9,0,23.4-10,24-22.9L42,24.9z"/>
</g>
</svg>
