<?xml version="1.0" encoding="utf-8"?>
<!-- Generator: Adobe Illustrator 28.5.0, SVG Export Plug-In . SVG Version: 9.03 Build 54727)  -->
<svg version="1.1" baseProfile="tiny" id="Layer_1" xmlns="http://www.w3.org/2000/svg" xmlns:xlink="http://www.w3.org/1999/xlink"
	 x="0px" y="0px" width="48px" height="48px" viewBox="0 0 48 48" overflow="visible" xml:space="preserve">
<path fill="#FFFFFF" d="M29.8,0c-10,0-18.2,8.1-18.2,18.2c0,3.9,1.3,7.5,3.4,10.5c0,0,0,0-0.1,0.1L0.9,42.8c-1.2,1.2-1.2,3.1,0,4.3
	C1.5,47.7,2.3,48,3,48s1.5-0.3,2.1-0.9L19.3,33c0,0,0,0,0.1-0.1c3,2.1,6.6,3.4,10.5,3.4c10,0,18.2-8.1,18.2-18.2
	C48,8.1,39.9,0,29.8,0z M29.8,32.2c-7.7,0-14-6.3-14-14c0-7.7,6.3-14,14-14c7.7,0,14,6.3,14,14C43.8,25.9,37.5,32.2,29.8,32.2z"/>
</svg>
