<?xml version="1.0" encoding="utf-8"?>
<!-- Generator: Adobe Illustrator 28.5.0, SVG Export Plug-In . SVG Version: 9.03 Build 54727)  -->
<svg version="1.1" baseProfile="tiny" id="Layer_1" xmlns="http://www.w3.org/2000/svg" xmlns:xlink="http://www.w3.org/1999/xlink"
	 x="0px" y="0px" width="48px" height="48px" viewBox="0 0 48 48" overflow="visible" xml:space="preserve">
<path fill="#FFFFFF" d="M42,22c0-0.5,0.4-1.1,1-1.3l3.6-1c0.5-0.2,0.8-0.7,0.7-1.2l-2.9-7c-0.3-0.5-0.9-0.7-1.4-0.4l-3.3,1.8
	c-0.5,0.3-1.2,0.2-1.6-0.2l-2.8-2.8c-0.4-0.4-0.5-1.1-0.2-1.6L36.9,5c0.3-0.5,0.1-1.1-0.4-1.4l-7-2.9c-0.5-0.2-1.1,0.1-1.2,0.7
	l-1,3.6c-0.2,0.5-0.7,1-1.3,1h-4c-0.5,0-1.1-0.4-1.3-1l-1-3.6c-0.2-0.5-0.7-0.8-1.2-0.7l-7,2.9C11,3.9,10.8,4.5,11.1,5l1.8,3.3
	c0.3,0.5,0.2,1.2-0.2,1.6l-2.8,2.8c-0.4,0.4-1.1,0.5-1.6,0.2L5,11.1c-0.5-0.3-1.1-0.1-1.3,0.4l-2.9,7c-0.2,0.5,0.1,1.1,0.7,1.2
	l3.6,1c0.5,0.2,1,0.7,1,1.3v4c0,0.5-0.4,1.1-1,1.3l-3.6,1c-0.5,0.2-0.8,0.7-0.7,1.2l2.9,7C3.9,37,4.5,37.2,5,36.9l3.3-1.8
	c0.5-0.3,1.2-0.2,1.6,0.2l2.8,2.8c0.4,0.4,0.5,1.1,0.2,1.6L11.1,43c-0.3,0.5-0.1,1.1,0.4,1.3l7,2.9c0.5,0.2,1.1-0.1,1.2-0.7l1-3.6
	c0.2-0.5,0.7-1,1.3-1h4c0.5,0,1.1,0.4,1.3,1l1,3.6c0.2,0.5,0.7,0.8,1.2,0.7l7-2.9c0.5-0.3,0.7-0.9,0.4-1.4l-1.8-3.3
	c-0.3-0.5-0.2-1.2,0.2-1.6l2.8-2.8c0.4-0.4,1.1-0.5,1.6-0.2l3.3,1.8c0.5,0.3,1.1,0.1,1.3-0.4l2.9-7c0.2-0.5-0.1-1.1-0.7-1.2l-3.6-1
	c-0.5-0.2-1-0.7-1-1.3V22z M24,36c-6.6,0-12-5.4-12-12c0-6.6,5.4-12,12-12s12,5.4,12,12C36,30.6,30.6,36,24,36z"/>
</svg>
