<?xml version="1.0" encoding="utf-8"?>
<!-- Generator: Adobe Illustrator 28.5.0, SVG Export Plug-In . SVG Version: 9.03 Build 54727)  -->
<svg version="1.1" baseProfile="tiny" id="Layer_1" xmlns="http://www.w3.org/2000/svg" xmlns:xlink="http://www.w3.org/1999/xlink"
	 x="0px" y="0px" viewBox="0 0 48 48" overflow="visible" xml:space="preserve">
<path fill="#FFFFFF" d="M12,2c2.21,0,4,1.79,4,4s-1.79,4-4,4S8,8.21,8,6S9.79,2,12,2 M12,0C8.69,0,6,2.69,6,6s2.69,6,6,6s6-2.69,6-6
	S15.31,0,12,0L12,0z"/>
<path fill="#FFFFFF" d="M22,38c2.21,0,4,1.79,4,4s-1.79,4-4,4s-4-1.79-4-4S19.79,38,22,38 M22,36c-3.31,0-6,2.69-6,6s2.69,6,6,6
	s6-2.69,6-6S25.31,36,22,36L22,36z"/>
<path fill="#FFFFFF" d="M36,20c2.21,0,4,1.79,4,4s-1.79,4-4,4s-4-1.79-4-4S33.79,20,36,20 M36,18c-3.31,0-6,2.69-6,6s2.69,6,6,6
	s6-2.69,6-6S39.31,18,36,18L36,18z"/>
<g>
	<path fill="#FFFFFF" d="M46,40H26v4h20c1.1,0,2-0.9,2-2S47.1,40,46,40z"/>
	<path fill="#FFFFFF" d="M18,40H2c-1.1,0-2,0.9-2,2s0.9,2,2,2h16V40z"/>
</g>
<g>
	<path fill="#FFFFFF" d="M32,22H2c-1.1,0-2,0.9-2,2s0.9,2,2,2h30V22z"/>
	<path fill="#FFFFFF" d="M46,22h-6v4h6c1.1,0,2-0.9,2-2S47.1,22,46,22z"/>
</g>
<g>
	<path fill="#FFFFFF" d="M8,4H2C0.9,4,0,4.9,0,6s0.9,2,2,2h6V4z"/>
	<path fill="#FFFFFF" d="M46,4H16v4h30c1.1,0,2-0.9,2-2S47.1,4,46,4z"/>
</g>
</svg>
