<?xml version="1.0" encoding="utf-8"?>
<!-- Generator: Adobe Illustrator 28.0.0, SVG Export Plug-In . SVG Version: 6.00 Build 0)  -->
<svg version="1.1" baseProfile="tiny" id="Layer_1" xmlns="http://www.w3.org/2000/svg" xmlns:xlink="http://www.w3.org/1999/xlink"
	 x="0px" y="0px" viewBox="0 0 144 24" overflow="visible" xml:space="preserve">
<g>
	<path fill="#FFFFFF" d="M13,22.4c-0.5-0.2-1.4-0.2-2,0L5.3,24c-0.5,0.2-1-0.2-1.1-0.8L4,17c0-0.6-0.3-1.5-0.6-2L0.2,9.9
		C-0.2,9.4,0,8.8,0.6,8.6L6,6.4c0.5-0.2,1.3-0.8,1.6-1.2l3.7-4.8c0.4-0.5,0.9-0.5,1.3,0l3.7,4.8c0.4,0.5,1.1,1,1.6,1.2l5.5,2.2
		c0.5,0.2,0.7,0.8,0.4,1.3L20.7,15c-0.3,0.5-0.6,1.4-0.6,2l-0.3,6.1c0,0.6-0.5,1-1.1,0.8L13,22.4z"/>
	<path fill="#FFFFFF" d="M43,22.4c-0.5-0.2-1.4-0.2-2,0L35.3,24c-0.5,0.2-1-0.2-1.1-0.8L34,17c0-0.6-0.3-1.5-0.6-2l-3.2-5.2
		c-0.3-0.5-0.1-1.1,0.4-1.3L36,6.4c0.5-0.2,1.3-0.8,1.6-1.2l3.7-4.8c0.4-0.5,0.9-0.5,1.3,0l3.7,4.8c0.4,0.5,1.1,1,1.6,1.2l5.5,2.2
		c0.5,0.2,0.7,0.8,0.4,1.3L50.7,15c-0.3,0.5-0.6,1.4-0.6,2l-0.3,6.1c0,0.6-0.5,1-1.1,0.8L43,22.4z"/>
	<path fill="#FFFFFF" d="M73,22.4c-0.5-0.2-1.4-0.2-2,0L65.3,24c-0.5,0.2-1-0.2-1.1-0.8L64,17c0-0.6-0.3-1.5-0.6-2l-3.2-5.2
		c-0.3-0.5-0.1-1.1,0.4-1.3L66,6.4c0.5-0.2,1.3-0.8,1.6-1.2l3.7-4.8c0.4-0.5,0.9-0.5,1.3,0l3.7,4.8c0.4,0.5,1.1,1,1.6,1.2l5.5,2.2
		c0.5,0.2,0.7,0.8,0.4,1.3L80.7,15c-0.3,0.5-0.6,1.4-0.6,2l-0.3,6.1c0,0.6-0.5,1-1.1,0.8L73,22.4z"/>
	<path fill="#FFFFFF" d="M103,22.4c-0.5-0.2-1.4-0.2-2,0L95.3,24c-0.5,0.2-1-0.2-1.1-0.8L94,17c0-0.6-0.3-1.5-0.6-2l-3.2-5.2
		c-0.3-0.5-0.1-1.1,0.4-1.3L96,6.4c0.5-0.2,1.3-0.8,1.6-1.2l3.7-4.8c0.4-0.5,0.9-0.5,1.3,0l3.7,4.8c0.4,0.5,1.1,1,1.6,1.2l5.5,2.2
		c0.5,0.2,0.7,0.8,0.4,1.3l-3.2,5.2c-0.3,0.5-0.6,1.4-0.6,2l-0.3,6.1c0,0.6-0.5,1-1.1,0.8L103,22.4z"/>
	<path fill="#FFFFFF" d="M133,22.4c-0.5-0.2-1.4-0.2-2,0l-5.7,1.6c-0.5,0.2-1-0.2-1.1-0.8L124,17c0-0.6-0.3-1.5-0.6-2l-3.2-5.2
		c-0.3-0.5-0.1-1.1,0.4-1.3l5.5-2.2c0.5-0.2,1.3-0.8,1.6-1.2l3.7-4.8c0.4-0.5,0.9-0.5,1.3,0l3.7,4.8c0.4,0.5,1.1,1,1.6,1.2l5.5,2.2
		c0.5,0.2,0.7,0.8,0.4,1.3l-3.2,5.2c-0.3,0.5-0.6,1.4-0.6,2l-0.3,6.1c0,0.6-0.5,1-1.1,0.8L133,22.4z"/>
</g>
</svg>
