<?xml version="1.0" encoding="utf-8"?>
<!-- Generator: Adobe Illustrator 28.0.0, SVG Export Plug-In . SVG Version: 6.00 Build 0)  -->
<svg version="1.1" baseProfile="tiny" id="Layer_1" xmlns="http://www.w3.org/2000/svg" xmlns:xlink="http://www.w3.org/1999/xlink"
	 x="0px" y="0px" viewBox="0 0 96 96" overflow="visible" xml:space="preserve">
<g>
	<circle cx="48" cy="48" r="48"/>
	<path fill="#FFFFFF" d="M39.2,68c0,2.2-1.8,4-4,4h-4c-2.2,0-4-1.8-4-4V28c0-2.2,1.8-4,4-4h4c2.2,0,4,1.8,4,4V68z"/>
	<path fill="#FFFFFF" d="M68.8,68c0,2.2-1.8,4-4,4h-4c-2.2,0-4-1.8-4-4V28c0-2.2,1.8-4,4-4h4c2.2,0,4,1.8,4,4V68z"/>
</g>
</svg>
