<?xml version="1.0" encoding="utf-8"?>
<!-- Generator: Adobe Illustrator 28.0.0, SVG Export Plug-In . SVG Version: 6.00 Build 0)  -->
<svg version="1.1" baseProfile="tiny" id="Layer_1" xmlns="http://www.w3.org/2000/svg" xmlns:xlink="http://www.w3.org/1999/xlink"
	 x="0px" y="0px" viewBox="0 0 144 24" overflow="visible" xml:space="preserve">
<g>
	<path fill="#FFFFFF" d="M12,3.8l2.3,3C15,7.7,16.1,8.5,17,8.9l3.5,1.4l-2,3.3c-0.6,0.9-1,2.3-1,3.3l-0.2,3.9l-3.6-1
		c-0.6-0.2-1.2-0.2-1.7-0.2c-0.4,0-1.1,0-1.7,0.2l-3.6,1l-0.2-3.9c-0.1-1.1-0.5-2.4-1-3.3l-2-3.3L7,8.9C7.9,8.5,9,7.7,9.7,6.8
		L12,3.8 M12,0c-0.2,0-0.5,0.1-0.7,0.3L7.6,5.1C7.3,5.6,6.6,6.1,6,6.4L0.6,8.6C0,8.8-0.2,9.4,0.2,9.9L3.3,15c0.3,0.5,0.6,1.4,0.6,2
		l0.3,6.1c0,0.5,0.4,0.8,0.8,0.8c0.1,0,0.2,0,0.3,0l5.7-1.6c0.3-0.1,0.6-0.1,1-0.1s0.7,0,1,0.1l5.7,1.6c0.1,0,0.2,0,0.3,0
		c0.4,0,0.8-0.3,0.8-0.8L20,17c0-0.6,0.3-1.5,0.6-2l3.2-5.2c0.3-0.5,0.1-1.1-0.4-1.3L18,6.4c-0.5-0.2-1.3-0.8-1.6-1.2l-3.7-4.8
		C12.5,0.1,12.2,0,12,0L12,0z"/>
	<path fill="#FFFFFF" d="M42,3.8l2.3,3C45,7.7,46.1,8.5,47,8.9l3.5,1.4l-2,3.3c-0.6,0.9-1,2.3-1,3.3l-0.2,3.9l-3.6-1
		c-0.6-0.2-1.2-0.2-1.7-0.2c-0.4,0-1.1,0-1.7,0.2l-3.6,1l-0.2-3.9c-0.1-1.1-0.5-2.4-1-3.3l-2-3.3L37,8.9c0.9-0.4,2.1-1.2,2.7-2.1
		L42,3.8 M42,0c-0.2,0-0.5,0.1-0.7,0.3l-3.7,4.8c-0.4,0.5-1.1,1-1.6,1.2l-5.5,2.2c-0.5,0.2-0.7,0.8-0.4,1.3l3.2,5.2
		c0.3,0.5,0.6,1.4,0.6,2l0.3,6.1c0,0.5,0.4,0.8,0.8,0.8c0.1,0,0.2,0,0.3,0l5.7-1.6c0.3-0.1,0.6-0.1,1-0.1c0.4,0,0.7,0,1,0.1l5.7,1.6
		c0.1,0,0.2,0,0.3,0c0.4,0,0.8-0.3,0.8-0.8L50,17c0-0.6,0.3-1.5,0.6-2l3.2-5.2c0.3-0.5,0.1-1.1-0.4-1.3L48,6.4
		c-0.5-0.2-1.3-0.8-1.6-1.2l-3.7-4.8C42.5,0.1,42.2,0,42,0L42,0z"/>
	<path fill="#FFFFFF" d="M72,3.8l2.3,3C75,7.7,76.1,8.5,77,8.9l3.5,1.4l-2,3.3c-0.6,0.9-1,2.3-1,3.3l-0.2,3.9l-3.6-1
		c-0.6-0.2-1.2-0.2-1.7-0.2s-1.1,0-1.7,0.2l-3.6,1l-0.2-3.9c-0.1-1.1-0.5-2.4-1-3.3l-2-3.3L67,8.9c0.9-0.4,2.1-1.2,2.7-2.1L72,3.8
		 M72,0c-0.2,0-0.5,0.1-0.7,0.3l-3.7,4.8c-0.4,0.5-1.1,1-1.6,1.2l-5.5,2.2c-0.5,0.2-0.7,0.8-0.4,1.3l3.2,5.2c0.3,0.5,0.6,1.4,0.6,2
		l0.3,6.1c0,0.5,0.4,0.8,0.8,0.8c0.1,0,0.2,0,0.3,0l5.7-1.6c0.3-0.1,0.6-0.1,1-0.1s0.7,0,1,0.1l5.7,1.6c0.1,0,0.2,0,0.3,0
		c0.4,0,0.8-0.3,0.8-0.8L80,17c0-0.6,0.3-1.5,0.6-2l3.2-5.2c0.3-0.5,0.1-1.1-0.4-1.3L78,6.4c-0.5-0.2-1.3-0.8-1.6-1.2l-3.7-4.8
		C72.5,0.1,72.2,0,72,0L72,0z"/>
	<path fill="#FFFFFF" d="M102,3.8l2.3,3c0.6,0.8,1.7,1.7,2.7,2.1l3.5,1.4l-2,3.3c-0.6,0.9-1,2.3-1,3.3l-0.2,3.9l-3.6-1
		c-0.6-0.2-1.2-0.2-1.7-0.2c-0.4,0-1.1,0-1.7,0.2l-3.6,1l-0.2-3.9c-0.1-1.1-0.5-2.4-1-3.3l-2-3.3L97,8.9c0.9-0.4,2.1-1.2,2.7-2.1
		L102,3.8 M102,0c-0.2,0-0.5,0.1-0.7,0.3l-3.7,4.8c-0.4,0.5-1.1,1-1.6,1.2l-5.5,2.2c-0.5,0.2-0.7,0.8-0.4,1.3l3.2,5.2
		c0.3,0.5,0.6,1.4,0.6,2l0.3,6.1c0,0.5,0.4,0.8,0.8,0.8c0.1,0,0.2,0,0.3,0l5.7-1.6c0.3-0.1,0.6-0.1,1-0.1s0.7,0,1,0.1l5.7,1.6
		c0.1,0,0.2,0,0.3,0c0.4,0,0.8-0.3,0.8-0.8L110,17c0-0.6,0.3-1.5,0.6-2l3.2-5.2c0.3-0.5,0.1-1.1-0.4-1.3L108,6.4
		c-0.5-0.2-1.3-0.8-1.6-1.2l-3.7-4.8C102.5,0.1,102.2,0,102,0L102,0z"/>
	<path fill="#FFFFFF" d="M132,3.8l2.3,3c0.6,0.8,1.7,1.7,2.7,2.1l3.5,1.4l-2,3.3c-0.6,0.9-1,2.3-1,3.3l-0.2,3.9l-3.6-1
		c-0.6-0.2-1.2-0.2-1.7-0.2c-0.4,0-1.1,0-1.7,0.2l-3.6,1l-0.2-3.9c-0.1-1.1-0.5-2.4-1-3.3l-2-3.3l3.5-1.4c0.9-0.4,2.1-1.2,2.7-2.1
		L132,3.8 M132,0c-0.2,0-0.5,0.1-0.7,0.3l-3.7,4.8c-0.4,0.5-1.1,1-1.6,1.2l-5.5,2.2c-0.5,0.2-0.7,0.8-0.4,1.3l3.2,5.2
		c0.3,0.5,0.6,1.4,0.6,2l0.3,6.1c0,0.5,0.4,0.8,0.8,0.8c0.1,0,0.2,0,0.3,0l5.7-1.6c0.3-0.1,0.6-0.1,1-0.1s0.7,0,1,0.1l5.7,1.6
		c0.1,0,0.2,0,0.3,0c0.4,0,0.8-0.3,0.8-0.8L140,17c0-0.6,0.3-1.5,0.6-2l3.2-5.2c0.3-0.5,0.1-1.1-0.4-1.3L138,6.4
		c-0.5-0.2-1.3-0.8-1.6-1.2l-3.7-4.8C132.5,0.1,132.2,0,132,0L132,0z"/>
</g>
</svg>
