<?xml version="1.0" encoding="utf-8"?>
<!-- Generator: Adobe Illustrator 28.5.0, SVG Export Plug-In . SVG Version: 9.03 Build 54727)  -->
<svg version="1.1" baseProfile="tiny" id="Layer_1" xmlns="http://www.w3.org/2000/svg" xmlns:xlink="http://www.w3.org/1999/xlink"
	 x="0px" y="0px" width="48px" height="48px" viewBox="0 0 48 48" overflow="visible" xml:space="preserve">
<path fill="#FFFFFF" d="M12.4,20c0.4,0,1.1,0.4,1.3,0.7l1.5,2.6c0.2,0.3,0.2,1.1,0,1.4l-1.5,2.6c-0.2,0.3-0.9,0.7-1.3,0.7H9.2h-4H2
	v-2v-4v-2h3.2h4H12.4 M12.4,18H9.2c-1.1,0-2.9,0-4,0H2c-1.1,0-2,0.9-2,2v2c0,1.1,0,2.9,0,4v2c0,1.1,0.9,2,2,2h3.2c1.1,0,2.9,0,4,0
	h3.2c1.1,0,2.5-0.8,3-1.7l1.5-2.6c0.6-0.9,0.6-2.5,0-3.4l-1.5-2.6C14.9,18.8,13.5,18,12.4,18L12.4,18z"/>
<g>
	<path fill="#FFFFFF" d="M20,47c-0.6,0-1-0.4-1-1V35.6c0-0.8,0.6-1.8,1.2-2.2l2.6-1.5c0.3-0.2,0.7-0.3,1.2-0.3s0.9,0.1,1.2,0.3
		l2.6,1.5c0.6,0.4,1.2,1.4,1.2,2.2V46c0,0.6-0.4,1-1,1H20z"/>
	<path fill="#FFFFFF" d="M24,32.6c0.4,0,0.6,0.1,0.7,0.1l2.6,1.5c0.3,0.2,0.7,0.9,0.7,1.3v3.2v4V46h-2h-4h-2v-3.2v-4v-3.2
		c0-0.4,0.4-1.1,0.7-1.3l2.6-1.5C23.4,32.7,23.6,32.6,24,32.6 M24,30.6c-0.6,0-1.2,0.1-1.7,0.4l-2.6,1.5c-0.9,0.6-1.7,1.9-1.7,3v3.2
		c0,1.1,0,2.9,0,4V46c0,1.1,0.9,2,2,2h2c1.1,0,2.9,0,4,0h2c1.1,0,2-0.9,2-2v-3.2c0-1.1,0-2.9,0-4v-3.2c0-1.1-0.8-2.5-1.7-3L25.7,31
		C25.2,30.7,24.6,30.6,24,30.6L24,30.6z"/>
</g>
<path fill="#FFFFFF" d="M46,20v2v4v2h-3.2h-4h-3.2c-0.4,0-1.1-0.4-1.3-0.7l-1.5-2.6c-0.2-0.3-0.2-1.1,0-1.4l1.5-2.6
	c0.2-0.3,0.9-0.7,1.3-0.7h3.2h4H46 M46,18h-3.2c-1.1,0-2.9,0-4,0h-3.2c-1.1,0-2.5,0.8-3,1.7L31,22.3c-0.6,0.9-0.6,2.5,0,3.4l1.5,2.6
	c0.6,0.9,1.9,1.7,3,1.7h3.2c1.1,0,2.9,0,4,0H46c1.1,0,2-0.9,2-2v-2c0-1.1,0-2.9,0-4v-2C48,18.9,47.1,18,46,18L46,18z"/>
<path fill="#FFFFFF" d="M28,2v3.2v4v3.2c0,0.4-0.4,1.1-0.7,1.3l-2.6,1.5c-0.1,0.1-0.3,0.1-0.7,0.1s-0.6-0.1-0.7-0.1l-2.6-1.5
	c-0.3-0.2-0.7-0.9-0.7-1.3V9.2v-4V2h2h4H28 M28,0h-2c-1.1,0-2.9,0-4,0h-2c-1.1,0-2,0.9-2,2v3.2c0,1.1,0,2.9,0,4v3.2
	c0,1.1,0.8,2.5,1.7,3l2.6,1.5c0.5,0.3,1.1,0.4,1.7,0.4s1.2-0.1,1.7-0.4l2.6-1.5c0.9-0.6,1.7-1.9,1.7-3V9.2c0-1.1,0-2.9,0-4V2
	C30,0.9,29.1,0,28,0L28,0z"/>
</svg>
