<?xml version="1.0" encoding="utf-8"?>
<!-- Generator: Adobe Illustrator 28.5.0, SVG Export Plug-In . SVG Version: 9.03 Build 54727)  -->
<svg version="1.1" baseProfile="tiny" id="Layer_1" xmlns="http://www.w3.org/2000/svg" xmlns:xlink="http://www.w3.org/1999/xlink"
	 x="0px" y="0px" width="48px" height="48px" viewBox="0 0 48 48" overflow="visible" xml:space="preserve">
<path fill="#FFFFFF" d="M8,18c3.3,0,6,2.7,6,6s-2.7,6-6,6s-6-2.7-6-6S4.7,18,8,18 M8,16c-4.4,0-8,3.6-8,8s3.6,8,8,8s8-3.6,8-8
	S12.4,16,8,16L8,16z"/>
<g>
	<circle fill="#FFFFFF" cx="24" cy="40" r="7"/>
	<path fill="#FFFFFF" d="M24,34c3.3,0,6,2.7,6,6s-2.7,6-6,6s-6-2.7-6-6S20.7,34,24,34 M24,32c-4.4,0-8,3.6-8,8s3.6,8,8,8s8-3.6,8-8
		S28.4,32,24,32L24,32z"/>
</g>
<path fill="#FFFFFF" d="M24,2c3.3,0,6,2.7,6,6s-2.7,6-6,6s-6-2.7-6-6S20.7,2,24,2 M24,0c-4.4,0-8,3.6-8,8s3.6,8,8,8s8-3.6,8-8
	S28.4,0,24,0L24,0z"/>
<path fill="#FFFFFF" d="M40,18c3.3,0,6,2.7,6,6s-2.7,6-6,6s-6-2.7-6-6S36.7,18,40,18 M40,16c-4.4,0-8,3.6-8,8s3.6,8,8,8s8-3.6,8-8
	S44.4,16,40,16L40,16z"/>
</svg>
