<?xml version="1.0" encoding="utf-8"?>
<!-- Generator: Adobe Illustrator 28.6.0, SVG Export Plug-In . SVG Version: 9.03 Build 54939)  -->
<svg version="1.1" baseProfile="tiny" id="Layer_1" xmlns="http://www.w3.org/2000/svg" xmlns:xlink="http://www.w3.org/1999/xlink"
	 x="0px" y="0px" viewBox="0 0 48 48" overflow="visible" xml:space="preserve">
<g>
	<path fill="#FFFFFF" d="M24,40C13.2,40,4.3,32.2,2.4,22C2.1,23.3,2,24.6,2,26c0,12.2,9.8,22,22,22s22-9.8,22-22
		c0-1.4-0.1-2.7-0.4-4C43.7,32.2,34.8,40,24,40z"/>
	<path fill="#FFFFFF" d="M24,0C14.1,0,6,8.1,6,18c0,9.9,8.1,18,18,18s18-8.1,18-18C42,8.1,33.9,0,24,0z M24,30c-6.6,0-12-5.4-12-12
		c0-6.6,5.4-12,12-12s12,5.4,12,12C36,24.6,30.6,30,24,30z"/>
</g>
</svg>
