<?xml version="1.0" encoding="utf-8"?>
<!-- Generator: Adobe Illustrator 28.5.0, SVG Export Plug-In . SVG Version: 9.03 Build 54727)  -->
<svg version="1.1" baseProfile="tiny" id="Layer_1" xmlns="http://www.w3.org/2000/svg" xmlns:xlink="http://www.w3.org/1999/xlink"
	 x="0px" y="0px" viewBox="0 0 48 48" overflow="visible" xml:space="preserve">
<g>
	<g>
		<path fill="#FFFFFF" d="M19.2,31.9v-8.6H21v7.1h3.5v1.5H19.2z"/>
		<path fill="#FFFFFF" d="M26,23.4h2.7c1.1,0,2,0.2,2.6,0.5s0.9,0.9,0.9,1.7c0,0.3-0.1,0.6-0.2,0.9s-0.3,0.5-0.4,0.6
			s-0.4,0.3-0.7,0.3v0.1c0.3,0.1,0.5,0.2,0.8,0.3s0.4,0.3,0.6,0.6s0.2,0.6,0.2,1.1c0,0.5-0.1,1-0.4,1.3s-0.6,0.7-1.1,0.9
			s-1,0.3-1.7,0.3H26V23.4z M27.8,26.8h1.1c0.5,0,0.9-0.1,1.1-0.2s0.3-0.4,0.3-0.7c0-0.3-0.1-0.6-0.4-0.7s-0.6-0.2-1.1-0.2h-1V26.8z
			 M27.8,28.2v2.2H29c0.5,0,0.9-0.1,1.1-0.3s0.3-0.5,0.3-0.8c0-0.2,0-0.4-0.1-0.6s-0.3-0.3-0.5-0.4s-0.5-0.1-0.9-0.1H27.8z"/>
	</g>
	<path fill="#FFFFFF" d="M0,38.2c-0.2,1.7,1.1,3.1,2.8,3.1h33.6c1.7,0,3.6-1.3,4.2-2.9l7.1-18.1c0.6-1.6,0-3.7-1.4-4.6L35,7.6
		c-1.4-1-3.7-1.2-5.3-0.5L4.5,19.3C3,20,1.6,22,1.5,23.7L0,38.2z M6.5,35.2l0.3-3.1c0,0,0,0,0,0l0.4-4.4c0,0,0,0,0,0l0.3-3.1
		l2.8-1.3c0,0,0,0,0,0l21.6-10.4l9.5,6.8l-3,7.7l-1.9,4.9c0,0,0,0,0,0l-1.1,2.9h-3.1H9.6H6.5z"/>
</g>
</svg>
