<?xml version="1.0" encoding="utf-8"?>
<!-- Generator: Adobe Illustrator 28.5.0, SVG Export Plug-In . SVG Version: 9.03 Build 54727)  -->
<svg version="1.1" baseProfile="tiny" id="Layer_1" xmlns="http://www.w3.org/2000/svg" xmlns:xlink="http://www.w3.org/1999/xlink"
	 x="0px" y="0px" viewBox="0 0 48 48" overflow="visible" xml:space="preserve">
<g>
	<g>
		<path fill="#FFFFFF" d="M18.1,23.4c0.8,0,1.4,0.1,1.9,0.3s0.9,0.5,1.1,0.8s0.4,0.9,0.4,1.4c0,0.4-0.1,0.7-0.2,1s-0.3,0.5-0.6,0.7
			s-0.5,0.4-0.8,0.5l2.5,3.7h-2l-2-3.3h-1v3.3h-1.8v-8.6H18.1z M17.9,24.8h-0.6v2.3H18c0.6,0,1-0.1,1.3-0.3s0.4-0.5,0.4-0.9
			c0-0.4-0.1-0.7-0.4-0.9S18.5,24.8,17.9,24.8z"/>
		<path fill="#FFFFFF" d="M23.5,23.4h2.7c1.1,0,2,0.2,2.6,0.5s0.9,0.9,0.9,1.7c0,0.3-0.1,0.6-0.2,0.9S29.2,26.9,29,27
			s-0.4,0.3-0.7,0.3v0.1c0.3,0.1,0.5,0.2,0.8,0.3s0.4,0.3,0.6,0.6s0.2,0.6,0.2,1.1c0,0.5-0.1,1-0.4,1.3s-0.6,0.7-1.1,0.9
			s-1,0.3-1.7,0.3h-3.2V23.4z M25.3,26.8h1.1c0.5,0,0.9-0.1,1.1-0.2s0.3-0.4,0.3-0.7c0-0.3-0.1-0.6-0.4-0.7s-0.6-0.2-1.1-0.2h-1
			V26.8z M25.3,28.2v2.2h1.2c0.5,0,0.9-0.1,1.1-0.3s0.3-0.5,0.3-0.8c0-0.2,0-0.4-0.1-0.6s-0.3-0.3-0.5-0.4s-0.5-0.1-0.9-0.1H25.3z"
			/>
	</g>
	<path fill="#FFFFFF" d="M46.5,23.7C46.4,22,45,20,43.5,19.3L18.3,7.1c-1.5-0.7-3.9-0.5-5.3,0.5L1.6,15.7c-1.4,1-2,3.1-1.4,4.6
		l7.1,18.1c0.6,1.6,2.5,2.9,4.2,2.9h33.6c1.7,0,2.9-1.4,2.8-3.1L46.5,23.7z M38.4,35.2H15.8h-3.1l-1.1-2.9c0,0,0,0,0,0l-1.9-4.9
		l-3-7.7l9.5-6.8l21.6,10.4c0,0,0,0,0,0l2.8,1.3l0.3,3.1c0,0,0,0,0,0l0.4,4.4c0,0,0,0,0,0l0.3,3.1H38.4z"/>
</g>
</svg>
