<?xml version="1.0" encoding="utf-8"?>
<!-- Generator: Adobe Illustrator 28.6.0, SVG Export Plug-In . SVG Version: 9.03 Build 54939)  -->
<svg version="1.1" baseProfile="tiny" id="Layer_1" xmlns="http://www.w3.org/2000/svg" xmlns:xlink="http://www.w3.org/1999/xlink"
	 x="0px" y="0px" viewBox="0 0 96 48" overflow="visible" xml:space="preserve">
<g>
	<path fill="#FFFFFF" d="M28.93,28.12c0,0.93-0.22,1.72-0.66,2.36c-0.44,0.64-1.09,1.13-1.96,1.46c-0.87,0.33-1.95,0.5-3.24,0.5
		c-0.96,0-1.78-0.06-2.46-0.18c-0.68-0.12-1.37-0.33-2.07-0.61v-3.09c0.74,0.34,1.54,0.61,2.4,0.83c0.85,0.22,1.6,0.33,2.25,0.33
		c0.73,0,1.25-0.11,1.56-0.33s0.47-0.5,0.47-0.85c0-0.23-0.06-0.44-0.19-0.62c-0.13-0.18-0.4-0.39-0.82-0.62
		c-0.42-0.23-1.07-0.54-1.96-0.91c-0.86-0.36-1.56-0.72-2.12-1.09c-0.55-0.37-0.96-0.8-1.23-1.31c-0.27-0.5-0.4-1.14-0.4-1.92
		c0-1.27,0.49-2.22,1.48-2.86c0.99-0.64,2.3-0.96,3.96-0.96c0.85,0,1.66,0.09,2.44,0.26s1.57,0.45,2.39,0.82L27.65,22
		c-0.68-0.29-1.32-0.54-1.92-0.72c-0.6-0.19-1.21-0.28-1.83-0.28c-0.55,0-0.96,0.07-1.24,0.22c-0.28,0.15-0.42,0.37-0.42,0.67
		c0,0.22,0.07,0.42,0.21,0.59c0.14,0.17,0.42,0.36,0.83,0.57c0.41,0.21,1.02,0.48,1.82,0.8c0.78,0.32,1.45,0.65,2.02,1
		c0.57,0.35,1.01,0.78,1.33,1.29C28.77,26.65,28.93,27.31,28.93,28.12z"/>
	<path fill="#FFFFFF" d="M37.63,29.46c0.41,0,0.81-0.04,1.2-0.12c0.39-0.08,0.78-0.18,1.16-0.31v2.79c-0.4,0.18-0.9,0.33-1.49,0.45
		c-0.59,0.12-1.24,0.18-1.94,0.18c-0.82,0-1.55-0.13-2.2-0.4c-0.65-0.27-1.16-0.73-1.53-1.39c-0.37-0.66-0.56-1.58-0.56-2.75v-6.61
		h-1.79v-1.58l2.06-1.25l1.08-2.9h2.39v2.92h3.84v2.81h-3.84v6.61c0,0.52,0.15,0.91,0.45,1.17C36.74,29.33,37.13,29.46,37.63,29.46z
		"/>
	<path fill="#FFFFFF" d="M48.37,18.2c1.84,0,3.25,0.4,4.23,1.2c0.98,0.8,1.47,2.02,1.47,3.66v9.14h-2.61l-0.72-1.87h-0.1
		c-0.39,0.49-0.79,0.89-1.2,1.2c-0.41,0.31-0.88,0.54-1.41,0.69s-1.18,0.22-1.94,0.22c-0.81,0-1.54-0.16-2.18-0.47
		s-1.15-0.79-1.52-1.43s-0.55-1.46-0.55-2.45c0-1.46,0.51-2.53,1.53-3.22c1.02-0.69,2.56-1.07,4.6-1.15l2.38-0.07v-0.6
		c0-0.72-0.19-1.25-0.56-1.58c-0.38-0.33-0.9-0.5-1.57-0.5c-0.66,0-1.31,0.09-1.95,0.28c-0.64,0.19-1.28,0.43-1.91,0.71l-1.24-2.53
		c0.73-0.38,1.54-0.69,2.45-0.91C46.47,18.31,47.41,18.2,48.37,18.2z M50.36,25.84l-1.45,0.05c-1.21,0.03-2.05,0.25-2.52,0.65
		c-0.47,0.4-0.71,0.93-0.71,1.58c0,0.57,0.17,0.98,0.5,1.22c0.33,0.24,0.77,0.36,1.31,0.36c0.8,0,1.48-0.24,2.03-0.71
		c0.55-0.47,0.83-1.15,0.83-2.02V25.84z"/>
	<path fill="#FFFFFF" d="M65.59,18.22c0.19,0,0.41,0.01,0.66,0.03s0.45,0.05,0.61,0.08l-0.28,3.51c-0.12-0.04-0.3-0.07-0.52-0.09
		c-0.23-0.02-0.42-0.03-0.58-0.03c-0.48,0-0.95,0.06-1.4,0.18c-0.46,0.12-0.86,0.32-1.22,0.6c-0.36,0.27-0.64,0.63-0.85,1.08
		s-0.31,0.99-0.31,1.64v6.98h-3.74V18.48h2.83l0.55,2.31h0.18c0.27-0.47,0.61-0.89,1.01-1.28c0.41-0.39,0.87-0.7,1.39-0.93
		C64.42,18.34,64.98,18.22,65.59,18.22z"/>
	<path fill="#FFFFFF" d="M75.12,29.46c0.41,0,0.81-0.04,1.2-0.12c0.39-0.08,0.78-0.18,1.16-0.31v2.79c-0.4,0.18-0.9,0.33-1.49,0.45
		s-1.24,0.18-1.94,0.18c-0.82,0-1.55-0.13-2.2-0.4s-1.16-0.73-1.53-1.39c-0.37-0.66-0.56-1.58-0.56-2.75v-6.61h-1.79v-1.58
		l2.06-1.25l1.08-2.9h2.39v2.92h3.84v2.81h-3.84v6.61c0,0.52,0.15,0.91,0.45,1.17C74.24,29.33,74.63,29.46,75.12,29.46z"/>
</g>
<path fill="#FFFFFF" d="M90,0H6C2.7,0,0,2.7,0,6v36c0,3.3,2.7,6,6,6h84c3.3,0,6-2.7,6-6V6C96,2.7,93.3,0,90,0z M90,42H6V6h84V42z"/>
</svg>
