<?xml version="1.0" encoding="utf-8"?>
<!-- Generator: Adobe Illustrator 28.5.0, SVG Export Plug-In . SVG Version: 9.03 Build 54727)  -->
<svg version="1.1" baseProfile="tiny" id="Layer_1" xmlns="http://www.w3.org/2000/svg" xmlns:xlink="http://www.w3.org/1999/xlink"
	 x="0px" y="0px" viewBox="0 0 48 48" overflow="visible" xml:space="preserve">
<path fill="#FFFFFF" d="M40,4c2.2,0,4,1.8,4,4v32c0,2.2-1.8,4-4,4H8c-2.2,0-4-1.8-4-4V8c0-2.2,1.8-4,4-4H40 M40,0H8C3.6,0,0,3.6,0,8
	v32c0,4.4,3.6,8,8,8h32c4.4,0,8-3.6,8-8V8C48,3.6,44.4,0,40,0L40,0z"/>
<path fill="#FFFFFF" d="M34,4c2.2,0,4,1.8,4,4v26c0,2.2-1.8,4-4,4H14c-2.2,0-4-1.8-4-4V8c0-2.2,1.8-4,4-4H34 M34,0H14
	C9.6,0,6,3.6,6,8v26c0,4.4,3.6,8,8,8h20c4.4,0,8-3.6,8-8V8C42,3.6,38.4,0,34,0L34,0z"/>
<g>
	<path fill="#FFFFFF" d="M36.1,10.1l-4.6,17.9h-4.3l-2.4-9.4c0-0.2-0.1-0.5-0.2-0.8c-0.1-0.4-0.2-0.8-0.3-1.2
		c-0.1-0.4-0.2-0.9-0.2-1.2C24.1,15,24,14.7,24,14.4c0,0.2-0.1,0.5-0.1,0.9c-0.1,0.4-0.1,0.8-0.2,1.2s-0.2,0.8-0.3,1.2
		s-0.1,0.7-0.2,0.9l-2.4,9.4h-4.3l-4.6-17.9h3.7l2.3,9.8c0.1,0.3,0.1,0.6,0.2,1.1c0.1,0.4,0.2,0.8,0.3,1.3c0.1,0.4,0.2,0.9,0.2,1.3
		c0.1,0.4,0.1,0.8,0.2,1.1c0-0.3,0.1-0.7,0.2-1.1s0.1-0.8,0.2-1.3c0.1-0.4,0.2-0.8,0.2-1.2c0.1-0.4,0.2-0.7,0.2-0.9l2.6-10h3.6
		l2.6,10c0.1,0.2,0.1,0.5,0.2,0.9s0.2,0.8,0.2,1.2s0.2,0.9,0.2,1.3c0.1,0.4,0.1,0.8,0.2,1.1c0.1-0.4,0.1-0.9,0.2-1.5
		c0.1-0.6,0.2-1.2,0.3-1.7c0.1-0.6,0.2-1.1,0.3-1.5l2.3-9.8H36.1z"/>
</g>
</svg>
