<?xml version="1.0" encoding="UTF-8"?>
<svg xmlns="http://www.w3.org/2000/svg" version="1.1" viewBox="0 0 48 48">
  <defs>
    <style>
      .cls-1 {
        fill: #fff;
      }
    </style>
  </defs>
  <!-- Generator: Adobe Illustrator 28.6.0, SVG Export Plug-In . SVG Version: 1.2.0 Build 709)  -->
  <g>
    <g id="Layer_1">
      <g>
        <path class="cls-1" d="M40,4c2.2,0,4,1.8,4,4v32c0,2.2-1.8,4-4,4H8c-2.2,0-4-1.8-4-4V8c0-2.2,1.8-4,4-4h32M40,0H8C3.6,0,0,3.6,0,8v32c0,4.4,3.6,8,8,8h32c4.4,0,8-3.6,8-8V8c0-4.4-3.6-8-8-8h0Z"/>
        <path class="cls-1" d="M34,4c2.2,0,4,1.8,4,4v26c0,2.2-1.8,4-4,4H14c-2.2,0-4-1.8-4-4V8c0-2.2,1.8-4,4-4h20M34,0H14C9.6,0,6,3.6,6,8v26c0,4.4,3.6,8,8,8h20c4.4,0,8-3.6,8-8V8c0-4.4-3.6-8-8-8h0Z"/>
        <path class="cls-1" d="M28.6,28.1l-1.3-4.3h-6.5l-1.3,4.3h-4.1l6.3-18h4.7l6.4,18s-4.2,0-4.2,0ZM26.4,20.6l-1.3-4.2c-.1-.3-.2-.6-.3-1.1-.1-.4-.3-.9-.4-1.3s-.2-.8-.3-1.2c-.1.3-.2.8-.3,1.2-.1.5-.3,1-.4,1.4s-.4.8-.4,1l-1.3,4.2s4.7,0,4.7,0Z"/>
      </g>
    </g>
  </g>
</svg>