<?xml version="1.0" encoding="utf-8"?>
<!-- Generator: Adobe Illustrator 28.5.0, SVG Export Plug-In . SVG Version: 9.03 Build 54727)  -->
<svg version="1.1" baseProfile="tiny" id="Layer_1" xmlns="http://www.w3.org/2000/svg" xmlns:xlink="http://www.w3.org/1999/xlink"
	 x="0px" y="0px" viewBox="0 0 48 48" overflow="visible" xml:space="preserve">
<path fill="#FFFFFF" d="M40,4c2.2,0,4,1.8,4,4v32c0,2.2-1.8,4-4,4H8c-2.2,0-4-1.8-4-4V8c0-2.2,1.8-4,4-4H40 M40,0H8C3.6,0,0,3.6,0,8
	v32c0,4.4,3.6,8,8,8h32c4.4,0,8-3.6,8-8V8C48,3.6,44.4,0,40,0L40,0z"/>
<path fill="#FFFFFF" d="M34,4c2.2,0,4,1.8,4,4v26c0,2.2-1.8,4-4,4H14c-2.2,0-4-1.8-4-4V8c0-2.2,1.8-4,4-4H34 M34,0H14
	C9.6,0,6,3.6,6,8v26c0,4.4,3.6,8,8,8h20c4.4,0,8-3.6,8-8V8C42,3.6,38.4,0,34,0L34,0z"/>
<g>
	<path fill="#FFFFFF" d="M32.5,19.1c0,1.3-0.2,2.6-0.5,3.7c-0.3,1.1-0.8,2.1-1.5,2.9s-1.5,1.4-2.5,1.9l4.3,4.8h-4.9l-3.3-4
		c-0.1,0-0.1,0-0.1,0s-0.1,0-0.1,0c-1.5,0-2.7-0.2-3.8-0.7c-1.1-0.4-2-1.1-2.7-1.9c-0.7-0.8-1.2-1.8-1.6-2.9
		c-0.3-1.1-0.5-2.4-0.5-3.8c0-1.9,0.3-3.5,0.9-4.9c0.6-1.4,1.5-2.4,2.8-3.2c1.3-0.8,2.9-1.1,4.8-1.1c1.9,0,3.5,0.4,4.8,1.1
		s2.2,1.8,2.8,3.2S32.5,17.2,32.5,19.1z M19.4,19.1c0,1.3,0.2,2.3,0.5,3.2c0.3,0.9,0.8,1.6,1.5,2.1c0.7,0.5,1.5,0.7,2.6,0.7
		c1.1,0,2-0.2,2.6-0.7c0.7-0.5,1.2-1.2,1.5-2.1c0.3-0.9,0.5-2,0.5-3.2c0-1.9-0.4-3.4-1.1-4.4C26.8,13.5,25.6,13,24,13
		c-1.1,0-1.9,0.2-2.6,0.7c-0.7,0.5-1.2,1.2-1.5,2.1C19.6,16.7,19.4,17.8,19.4,19.1z"/>
</g>
</svg>
