<?xml version="1.0" encoding="UTF-8"?>
<svg xmlns="http://www.w3.org/2000/svg" version="1.1" viewBox="0 0 48 48">
  <defs>
    <style>
      .cls-1 {
        fill: #fff;
      }
    </style>
  </defs>
  <!-- Generator: Adobe Illustrator 28.6.0, SVG Export Plug-In . SVG Version: 1.2.0 Build 709)  -->
  <g>
    <g id="Layer_1">
      <g>
        <path class="cls-1" d="M40,4c2.2,0,4,1.8,4,4v32c0,2.2-1.8,4-4,4H8c-2.2,0-4-1.8-4-4V8c0-2.2,1.8-4,4-4h32M40,0H8C3.6,0,0,3.6,0,8v32c0,4.4,3.6,8,8,8h32c4.4,0,8-3.6,8-8V8c0-4.4-3.6-8-8-8h0Z"/>
        <path class="cls-1" d="M34,4c2.2,0,4,1.8,4,4v26c0,2.2-1.8,4-4,4H14c-2.2,0-4-1.8-4-4V8c0-2.2,1.8-4,4-4h20M34,0H14C9.6,0,6,3.6,6,8v26c0,4.4,3.6,8,8,8h20c4.4,0,8-3.6,8-8V8c0-4.4-3.6-8-8-8h0Z"/>
        <path class="cls-1" d="M31.8,18.9c0,2-.4,3.7-1.2,5.1s-1.9,2.4-3.4,3.1-3.2,1-5.3,1h-4.9V10.1h5.6c1.9,0,3.5.3,4.9,1s2.5,1.7,3.2,3c.8,1.3,1.1,2.9,1.1,4.8ZM27.9,19c0-1.3-.2-2.4-.6-3.3-.4-.9-1-1.5-1.7-1.9-.8-.4-1.7-.6-2.8-.6h-2v11.7h1.6c1.9,0,3.2-.5,4.1-1.5s1.4-2.4,1.4-4.4Z"/>
      </g>
    </g>
  </g>
</svg>