<?xml version="1.0" encoding="utf-8"?>
<!-- Generator: Adobe Illustrator 28.5.0, SVG Export Plug-In . SVG Version: 9.03 Build 54727)  -->
<svg version="1.1" baseProfile="tiny" id="Layer_1" xmlns="http://www.w3.org/2000/svg" xmlns:xlink="http://www.w3.org/1999/xlink"
	 x="0px" y="0px" viewBox="0 0 96 48" overflow="visible" xml:space="preserve">
<path fill="#FFFFFF" d="M88,4c2.2,0,4,1.8,4,4v32c0,2.2-1.8,4-4,4H8c-2.2,0-4-1.8-4-4V8c0-2.2,1.8-4,4-4H88 M88,0H8C3.6,0,0,3.6,0,8
	v32c0,4.4,3.6,8,8,8h80c4.4,0,8-3.6,8-8V8C96,3.6,92.4,0,88,0L88,0z"/>
<path fill="#FFFFFF" d="M82,4c2.2,0,4,1.8,4,4v26c0,2.2-1.8,4-4,4H14c-2.2,0-4-1.8-4-4V8c0-2.2,1.8-4,4-4H82 M82,0H14
	C9.6,0,6,3.6,6,8v26c0,4.4,3.6,8,8,8h68c4.4,0,8-3.6,8-8V8C90,3.6,86.4,0,82,0L82,0z"/>
<g>
	<path fill="#FFFFFF" d="M25,26.9h-8.7V11.9H25v2.6h-5.5v3.3h5.1v2.6h-5.1v3.9H25V26.9z"/>
	<path fill="#FFFFFF" d="M41.6,26.9h-4.1L31,15.5h-0.1c0,0.5,0.1,1,0.1,1.4s0,1,0.1,1.4c0,0.5,0,1,0.1,1.4v7.1h-2.9V11.9h4l6.6,11.3
		h0.1c0-0.5,0-0.9-0.1-1.4c0-0.5,0-0.9-0.1-1.4c0-0.5,0-0.9,0-1.4v-7.1h2.9V26.9z"/>
	<path fill="#FFFFFF" d="M51.2,26.9H48V14.5h-4.1v-2.7h11.4v2.7h-4.1V26.9z"/>
	<path fill="#FFFFFF" d="M66.3,26.9h-8.7V11.9h8.7v2.6h-5.5v3.3h5.1v2.6h-5.1v3.9h5.5V26.9z"/>
	<path fill="#FFFFFF" d="M74,11.9c1.4,0,2.5,0.2,3.4,0.5c0.9,0.3,1.6,0.8,2,1.5c0.4,0.7,0.7,1.5,0.7,2.5c0,0.7-0.1,1.3-0.4,1.8
		c-0.3,0.5-0.6,1-1,1.3s-0.9,0.7-1.4,0.9l4.4,6.6h-3.5l-3.6-5.8h-1.7v5.8h-3.2V11.9H74z M73.7,14.5h-1v4.1h1c1.1,0,1.8-0.2,2.3-0.5
		c0.5-0.4,0.7-0.9,0.7-1.6c0-0.7-0.2-1.2-0.7-1.5C75.5,14.6,74.8,14.5,73.7,14.5z"/>
</g>
</svg>
