<?xml version="1.0" encoding="UTF-8"?>
<svg xmlns="http://www.w3.org/2000/svg" version="1.1" viewBox="0 0 48 48">
  <defs>
    <style>
      .cls-1 {
        fill: #fff;
      }
    </style>
  </defs>
  <!-- Generator: Adobe Illustrator 28.6.0, SVG Export Plug-In . SVG Version: 1.2.0 Build 709)  -->
  <g>
    <g id="Layer_1">
      <g>
        <path class="cls-1" d="M40,4c2.2,0,4,1.8,4,4v32c0,2.2-1.8,4-4,4H8c-2.2,0-4-1.8-4-4V8c0-2.2,1.8-4,4-4h32M40,0H8C3.6,0,0,3.6,0,8v32c0,4.4,3.6,8,8,8h32c4.4,0,8-3.6,8-8V8c0-4.4-3.6-8-8-8h0Z"/>
        <path class="cls-1" d="M34,4c2.2,0,4,1.8,4,4v26c0,2.2-1.8,4-4,4H14c-2.2,0-4-1.8-4-4V8c0-2.2,1.8-4,4-4h20M34,0H14C9.6,0,6,3.6,6,8v26c0,4.4,3.6,8,8,8h20c4.4,0,8-3.6,8-8V8c0-4.4-3.6-8-8-8h0Z"/>
        <path class="cls-1" d="M29.9,23.1c0,1.1-.3,2-.8,2.8s-1.3,1.4-2.3,1.8-2.2.6-3.6.6-1.2,0-1.8-.1c-.6-.1-1.2-.2-1.7-.4s-1.1-.4-1.6-.6v-3.5c.9.4,1.7.7,2.7,1s1.8.5,2.7.5,1.1-.1,1.5-.2c.4-.2.7-.4.8-.7s.3-.6.3-1-.2-.8-.5-1.2-.7-.6-1.2-.9-1.1-.6-1.8-.9c-.4-.2-.9-.4-1.4-.7-.5-.3-1-.6-1.4-1s-.8-.9-1.1-1.5-.4-1.3-.4-2.1.2-2,.7-2.7c.5-.8,1.2-1.3,2.1-1.7s2-.6,3.2-.6,1.8.1,2.7.3,1.7.5,2.7.9l-1.2,3c-.8-.3-1.6-.6-2.2-.8-.7-.2-1.3-.3-2-.3s-.9.1-1.2.2c-.3.2-.6.4-.8.6s-.3.6-.3,1,.1.8.4,1.1c.2.3.6.6,1.1.8.5.3,1.1.6,1.9.9.9.4,1.7.9,2.3,1.4.7.5,1.2,1,1.5,1.7s.7,1.3.7,2.3Z"/>
      </g>
    </g>
  </g>
</svg>