<?xml version="1.0" encoding="utf-8"?>
<!-- Generator: Adobe Illustrator 28.6.0, SVG Export Plug-In . SVG Version: 9.03 Build 54939)  -->
<svg version="1.1" baseProfile="tiny" id="Layer_1" xmlns="http://www.w3.org/2000/svg" xmlns:xlink="http://www.w3.org/1999/xlink"
	 x="0px" y="0px" viewBox="0 0 48 48" overflow="visible" xml:space="preserve">
<g>
	<path fill="#FFFFFF" d="M40,4c2.2,0,4,1.8,4,4v32c0,2.2-1.8,4-4,4H8c-2.2,0-4-1.8-4-4V8c0-2.2,1.8-4,4-4H40 M40,0H8
		C3.6,0,0,3.6,0,8v32c0,4.4,3.6,8,8,8h32c4.4,0,8-3.6,8-8V8C48,3.6,44.4,0,40,0L40,0z"/>
	<path fill="#FFFFFF" d="M34,4c2.2,0,4,1.8,4,4v26c0,2.2-1.8,4-4,4H14c-2.2,0-4-1.8-4-4V8c0-2.2,1.8-4,4-4H34 M34,0H14
		C9.6,0,6,3.6,6,8v26c0,4.4,3.6,8,8,8h20c4.4,0,8-3.6,8-8V8C42,3.6,38.4,0,34,0L34,0z"/>
	<g>
		<path fill="#FFFFFF" d="M23.1,28.1h-3.7V10.1h10.3v3.1h-6.5v4.6h6.1V21h-6.1V28.1z"/>
	</g>
</g>
</svg>
