<?xml version="1.0" encoding="utf-8"?>
<!-- Generator: Adobe Illustrator 28.5.0, SVG Export Plug-In . SVG Version: 9.03 Build 54727)  -->
<svg version="1.1" baseProfile="tiny" id="Layer_1" xmlns="http://www.w3.org/2000/svg" xmlns:xlink="http://www.w3.org/1999/xlink"
	 x="0px" y="0px" viewBox="0 0 48 48" overflow="visible" xml:space="preserve">
<path fill="#FFFFFF" d="M40,4c2.2,0,4,1.8,4,4v32c0,2.2-1.8,4-4,4H8c-2.2,0-4-1.8-4-4V8c0-2.2,1.8-4,4-4H40 M40,0H8C3.6,0,0,3.6,0,8
	v32c0,4.4,3.6,8,8,8h32c4.4,0,8-3.6,8-8V8C48,3.6,44.4,0,40,0L40,0z"/>
<path fill="#FFFFFF" d="M34,4c2.2,0,4,1.8,4,4v26c0,2.2-1.8,4-4,4H14c-2.2,0-4-1.8-4-4V8c0-2.2,1.8-4,4-4H34 M34,0H14
	C9.6,0,6,3.6,6,8v26c0,4.4,3.6,8,8,8h20c4.4,0,8-3.6,8-8V8C42,3.6,38.4,0,34,0L34,0z"/>
<g>
	<path fill="#FFFFFF" d="M29.9,23.1c0,1.1-0.3,2-0.8,2.8c-0.5,0.8-1.3,1.4-2.3,1.8c-1,0.4-2.2,0.6-3.6,0.6c-0.6,0-1.2,0-1.8-0.1
		c-0.6-0.1-1.2-0.2-1.7-0.4s-1.1-0.4-1.6-0.6v-3.5c0.9,0.4,1.7,0.7,2.7,1s1.8,0.5,2.7,0.5c0.6,0,1.1-0.1,1.5-0.2
		c0.4-0.2,0.7-0.4,0.8-0.7s0.3-0.6,0.3-1c0-0.5-0.2-0.8-0.5-1.2s-0.7-0.6-1.2-0.9c-0.5-0.3-1.1-0.6-1.8-0.9
		c-0.4-0.2-0.9-0.4-1.4-0.7c-0.5-0.3-1-0.6-1.4-1c-0.4-0.4-0.8-0.9-1.1-1.5s-0.4-1.3-0.4-2.1c0-1.1,0.2-2,0.7-2.7
		c0.5-0.8,1.2-1.3,2.1-1.7c0.9-0.4,2-0.6,3.2-0.6c0.9,0,1.8,0.1,2.7,0.3s1.7,0.5,2.7,0.9l-1.2,3c-0.8-0.3-1.6-0.6-2.2-0.8
		c-0.7-0.2-1.3-0.3-2-0.3c-0.5,0-0.9,0.1-1.2,0.2c-0.3,0.2-0.6,0.4-0.8,0.6s-0.3,0.6-0.3,1c0,0.4,0.1,0.8,0.4,1.1
		c0.2,0.3,0.6,0.6,1.1,0.8c0.5,0.3,1.1,0.6,1.9,0.9c0.9,0.4,1.7,0.9,2.3,1.4c0.7,0.5,1.2,1,1.5,1.7S29.9,22.1,29.9,23.1z"/>
</g>
</svg>
