<?xml version="1.0" encoding="UTF-8"?>
<svg xmlns="http://www.w3.org/2000/svg" version="1.1" viewBox="0 0 48 48">
  <defs>
    <style>
      .cls-1 {
        fill: #fff;
      }
    </style>
  </defs>
  <!-- Generator: Adobe Illustrator 28.6.0, SVG Export Plug-In . SVG Version: 1.2.0 Build 709)  -->
  <g>
    <g id="Layer_1">
      <g>
        <path class="cls-1" d="M40,4c2.2,0,4,1.8,4,4v32c0,2.2-1.8,4-4,4H8c-2.2,0-4-1.8-4-4V8c0-2.2,1.8-4,4-4h32M40,0H8C3.6,0,0,3.6,0,8v32c0,4.4,3.6,8,8,8h32c4.4,0,8-3.6,8-8V8c0-4.4-3.6-8-8-8h0Z"/>
        <path class="cls-1" d="M34,4c2.2,0,4,1.8,4,4v26c0,2.2-1.8,4-4,4H14c-2.2,0-4-1.8-4-4V8c0-2.2,1.8-4,4-4h20M34,0H14C9.6,0,6,3.6,6,8v26c0,4.4,3.6,8,8,8h20c4.4,0,8-3.6,8-8V8c0-4.4-3.6-8-8-8h0Z"/>
        <path class="cls-1" d="M36.1,10.1l-4.6,17.9h-4.3l-2.4-9.4c0-.2-.1-.5-.2-.8-.1-.4-.2-.8-.3-1.2-.1-.4-.2-.9-.2-1.2,0-.4,0-.7,0-1,0,.2-.1.5-.1.9-.1.4-.1.8-.2,1.2s-.2.8-.3,1.2-.1.7-.2.9l-2.4,9.4h-4.3l-4.6-17.9h3.7l2.3,9.8c.1.3.1.6.2,1.1.1.4.2.8.3,1.3.1.4.2.9.2,1.3.1.4.1.8.2,1.1,0-.3.1-.7.2-1.1s.1-.8.2-1.3c.1-.4.2-.8.2-1.2.1-.4.2-.7.2-.9l2.6-10h3.6l2.6,10c.1.2.1.5.2.9s.2.8.2,1.2.2.9.2,1.3c.1.4.1.8.2,1.1.1-.4.1-.9.2-1.5s.2-1.2.3-1.7c.1-.6.2-1.1.3-1.5l2.3-9.8h3.8Z"/>
      </g>
    </g>
  </g>
</svg>