<?xml version="1.0" encoding="utf-8"?>
<!-- Generator: Adobe Illustrator 28.5.0, SVG Export Plug-In . SVG Version: 9.03 Build 54727)  -->
<svg version="1.1" baseProfile="tiny" id="Layer_1" xmlns="http://www.w3.org/2000/svg" xmlns:xlink="http://www.w3.org/1999/xlink"
	 x="0px" y="0px" viewBox="0 0 96 48" overflow="visible" xml:space="preserve">
<path fill="#FFFFFF" d="M88,4c2.2,0,4,1.8,4,4v32c0,2.2-1.8,4-4,4H8c-2.2,0-4-1.8-4-4V8c0-2.2,1.8-4,4-4H88 M88,0H8C3.6,0,0,3.6,0,8
	v32c0,4.4,3.6,8,8,8h80c4.4,0,8-3.6,8-8V8C96,3.6,92.4,0,88,0L88,0z"/>
<path fill="#FFFFFF" d="M82,4c2.2,0,4,1.8,4,4v26c0,2.2-1.8,4-4,4H14c-2.2,0-4-1.8-4-4V8c0-2.2,1.8-4,4-4H82 M82,0H14
	C9.6,0,6,3.6,6,8v26c0,4.4,3.6,8,8,8h68c4.4,0,8-3.6,8-8V8C90,3.6,86.4,0,82,0L82,0z"/>
<g>
	<path fill="#FFFFFF" d="M27.1,22.7c0,0.9-0.2,1.7-0.7,2.3c-0.4,0.7-1.1,1.2-1.9,1.5c-0.8,0.4-1.8,0.5-3,0.5c-0.5,0-1,0-1.5-0.1
		c-0.5-0.1-1-0.2-1.4-0.3c-0.5-0.1-0.9-0.3-1.3-0.5v-3c0.7,0.3,1.5,0.6,2.2,0.9c0.8,0.3,1.5,0.4,2.3,0.4c0.5,0,0.9-0.1,1.3-0.2
		c0.3-0.1,0.6-0.3,0.7-0.6c0.1-0.2,0.2-0.5,0.2-0.8c0-0.4-0.1-0.7-0.4-1c-0.3-0.3-0.6-0.5-1-0.8c-0.4-0.2-0.9-0.5-1.5-0.8
		c-0.4-0.2-0.7-0.4-1.1-0.6c-0.4-0.2-0.8-0.5-1.2-0.9s-0.7-0.8-0.9-1.3c-0.2-0.5-0.4-1.1-0.4-1.8c0-0.9,0.2-1.7,0.6-2.3
		c0.4-0.6,1-1.1,1.8-1.5c0.8-0.3,1.7-0.5,2.7-0.5c0.8,0,1.5,0.1,2.2,0.3c0.7,0.2,1.5,0.4,2.2,0.8l-1,2.5c-0.7-0.3-1.3-0.5-1.9-0.7
		c-0.5-0.2-1.1-0.2-1.7-0.2c-0.4,0-0.7,0.1-1,0.2c-0.3,0.1-0.5,0.3-0.6,0.5s-0.2,0.5-0.2,0.8c0,0.4,0.1,0.7,0.3,0.9
		c0.2,0.2,0.5,0.5,0.9,0.7c0.4,0.2,1,0.5,1.6,0.8c0.8,0.4,1.4,0.7,2,1.1s1,0.9,1.3,1.4C26.9,21.3,27.1,22,27.1,22.7z"/>
	<path fill="#FFFFFF" d="M34.7,11.9c1.9,0,3.4,0.4,4.3,1.3c0.9,0.8,1.3,2,1.3,3.5c0,0.7-0.1,1.3-0.3,1.9c-0.2,0.6-0.5,1.1-1,1.6
		s-1.1,0.8-1.8,1.1c-0.8,0.3-1.7,0.4-2.8,0.4h-1.4v5.4h-3.2V11.9H34.7z M34.5,14.5h-1.5V19h1.1c0.6,0,1.1-0.1,1.6-0.2
		c0.4-0.2,0.8-0.4,1-0.7c0.2-0.3,0.4-0.8,0.4-1.3c0-0.7-0.2-1.3-0.6-1.7C36,14.7,35.4,14.5,34.5,14.5z"/>
	<path fill="#FFFFFF" d="M51.5,26.9l-1.1-3.6h-5.5l-1.1,3.6h-3.4l5.3-15.1h3.9l5.3,15.1H51.5z M49.6,20.7l-1.1-3.5
		c-0.1-0.2-0.2-0.5-0.3-0.9c-0.1-0.4-0.2-0.7-0.3-1.1s-0.2-0.7-0.3-1c-0.1,0.3-0.2,0.6-0.3,1c-0.1,0.4-0.2,0.8-0.3,1.2
		c-0.1,0.4-0.2,0.6-0.2,0.8l-1.1,3.5H49.6z"/>
	<path fill="#FFFFFF" d="M62.9,14.3c-0.6,0-1.2,0.1-1.6,0.4c-0.5,0.2-0.9,0.6-1.2,1c-0.3,0.4-0.6,1-0.7,1.6
		c-0.2,0.6-0.2,1.3-0.2,2.1c0,1.1,0.1,2,0.4,2.7c0.3,0.8,0.7,1.3,1.2,1.7c0.6,0.4,1.3,0.6,2.2,0.6c0.6,0,1.2-0.1,1.8-0.2
		s1.3-0.3,2-0.6v2.7c-0.7,0.3-1.3,0.5-2,0.6c-0.6,0.1-1.4,0.2-2.2,0.2c-1.6,0-2.8-0.3-3.8-1c-1-0.6-1.7-1.5-2.2-2.7
		c-0.5-1.2-0.7-2.5-0.7-4.1c0-1.1,0.2-2.2,0.5-3.1s0.8-1.8,1.4-2.5c0.6-0.7,1.3-1.2,2.2-1.6c0.9-0.4,1.9-0.6,3-0.6
		c0.8,0,1.5,0.1,2.3,0.3s1.5,0.4,2.2,0.8l-1,2.6c-0.6-0.3-1.1-0.5-1.7-0.7C64,14.4,63.4,14.3,62.9,14.3z"/>
	<path fill="#FFFFFF" d="M78.5,26.9h-8.7V11.9h8.7v2.6H73v3.3h5.1v2.6H73v3.9h5.5V26.9z"/>
</g>
</svg>
