<?xml version="1.0" encoding="utf-8"?>
<!-- Generator: Adobe Illustrator 28.5.0, SVG Export Plug-In . SVG Version: 9.03 Build 54727)  -->
<svg version="1.1" baseProfile="tiny" id="Layer_1" xmlns="http://www.w3.org/2000/svg" xmlns:xlink="http://www.w3.org/1999/xlink"
	 x="0px" y="0px" viewBox="0 0 48 48" overflow="visible" xml:space="preserve">
<path fill="#FFFFFF" d="M40,4c2.2,0,4,1.8,4,4v32c0,2.2-1.8,4-4,4H8c-2.2,0-4-1.8-4-4V8c0-2.2,1.8-4,4-4H40 M40,0H8C3.6,0,0,3.6,0,8
	v32c0,4.4,3.6,8,8,8h32c4.4,0,8-3.6,8-8V8C48,3.6,44.4,0,40,0L40,0z"/>
<path fill="#FFFFFF" d="M34,4c2.2,0,4,1.8,4,4v26c0,2.2-1.8,4-4,4H14c-2.2,0-4-1.8-4-4V8c0-2.2,1.8-4,4-4H34 M34,0H14
	C9.6,0,6,3.6,6,8v26c0,4.4,3.6,8,8,8h20c4.4,0,8-3.6,8-8V8C42,3.6,38.4,0,34,0L34,0z"/>
<g>
	<path fill="#FFFFFF" d="M31.8,18.9c0,2-0.4,3.7-1.2,5.1s-1.9,2.4-3.4,3.1c-1.5,0.7-3.2,1-5.3,1H17V10.1h5.6c1.9,0,3.5,0.3,4.9,1
		c1.4,0.7,2.5,1.7,3.2,3C31.5,15.4,31.8,17,31.8,18.9z M27.9,19c0-1.3-0.2-2.4-0.6-3.3c-0.4-0.9-1-1.5-1.7-1.9
		c-0.8-0.4-1.7-0.6-2.8-0.6h-2v11.7h1.6c1.9,0,3.2-0.5,4.1-1.5C27.4,22.4,27.9,21,27.9,19z"/>
</g>
</svg>
