<?xml version="1.0" encoding="utf-8"?>
<!-- Generator: Adobe Illustrator 28.6.0, SVG Export Plug-In . SVG Version: 9.03 Build 54939)  -->
<svg version="1.1" baseProfile="tiny" id="Layer_1" xmlns="http://www.w3.org/2000/svg" xmlns:xlink="http://www.w3.org/1999/xlink"
	 x="0px" y="0px" viewBox="0 0 210 48" overflow="visible" xml:space="preserve">
<g>
	<path fill="#FFFFFF" d="M202,4c2.2,0,4,1.8,4,4v32c0,2.2-1.8,4-4,4h-32c-2.2,0-4-1.8-4-4V8c0-2.2,1.8-4,4-4L202,4 M202,0h-32
		c-4.4,0-8,3.6-8,8v32c0,4.4,3.6,8,8,8h32c4.4,0,8-3.6,8-8V8C210,3.6,206.4,0,202,0L202,0z"/>
	<path fill="#FFFFFF" d="M196,4c2.2,0,4,1.8,4,4v26c0,2.2-1.8,4-4,4h-20c-2.2,0-4-1.8-4-4V8c0-2.2,1.8-4,4-4L196,4 M196,0h-20
		c-4.4,0-8,3.6-8,8v26c0,4.4,3.6,8,8,8h20c4.4,0,8-3.6,8-8V8C204,3.6,200.4,0,196,0L196,0z"/>
	<g>
		<path fill="#FFFFFF" d="M193.8,18.9c0,2-0.4,3.7-1.2,5.1s-1.9,2.4-3.4,3.1s-3.2,1-5.3,1H179v-18h5.6c1.9,0,3.5,0.3,4.9,1
			s2.5,1.7,3.2,3C193.5,15.4,193.8,17,193.8,18.9z M189.9,19c0-1.3-0.2-2.4-0.6-3.3c-0.4-0.9-1-1.5-1.7-1.9
			c-0.8-0.4-1.7-0.6-2.8-0.6h-2v11.7h1.6c1.9,0,3.2-0.5,4.1-1.5S189.9,21,189.9,19z"/>
	</g>
</g>
<g>
	<path fill="#FFFFFF" d="M148,4c2.2,0,4,1.8,4,4v32c0,2.2-1.8,4-4,4h-32c-2.2,0-4-1.8-4-4V8c0-2.2,1.8-4,4-4L148,4 M148,0h-32
		c-4.4,0-8,3.6-8,8v32c0,4.4,3.6,8,8,8h32c4.4,0,8-3.6,8-8V8C156,3.6,152.4,0,148,0L148,0z"/>
	<path fill="#FFFFFF" d="M142,4c2.2,0,4,1.8,4,4v26c0,2.2-1.8,4-4,4h-20c-2.2,0-4-1.8-4-4V8c0-2.2,1.8-4,4-4L142,4 M142,0h-20
		c-4.4,0-8,3.6-8,8v26c0,4.4,3.6,8,8,8h20c4.4,0,8-3.6,8-8V8C150,3.6,146.4,0,142,0L142,0z"/>
	<g>
		<path fill="#FFFFFF" d="M136.6,28.1l-1.3-4.3h-6.5l-1.3,4.3h-4.1l6.3-18h4.7l6.4,18C140.8,28.1,136.6,28.1,136.6,28.1z
			 M134.4,20.6l-1.3-4.2c-0.1-0.3-0.2-0.6-0.3-1.1c-0.1-0.4-0.3-0.9-0.4-1.3c-0.1-0.4-0.2-0.8-0.3-1.2c-0.1,0.3-0.2,0.8-0.3,1.2
			c-0.1,0.5-0.3,1-0.4,1.4c-0.1,0.4-0.4,0.8-0.4,1l-1.3,4.2H134.4z"/>
	</g>
</g>
<g>
	<path fill="#FFFFFF" d="M94,4c2.2,0,4,1.8,4,4v32c0,2.2-1.8,4-4,4H62c-2.2,0-4-1.8-4-4V8c0-2.2,1.8-4,4-4L94,4 M94,0H62
		c-4.4,0-8,3.6-8,8v32c0,4.4,3.6,8,8,8h32c4.4,0,8-3.6,8-8V8C102,3.6,98.4,0,94,0L94,0z"/>
	<path fill="#FFFFFF" d="M88,4c2.2,0,4,1.8,4,4v26c0,2.2-1.8,4-4,4H68c-2.2,0-4-1.8-4-4V8c0-2.2,1.8-4,4-4L88,4 M88,0H68
		c-4.4,0-8,3.6-8,8v26c0,4.4,3.6,8,8,8h20c4.4,0,8-3.6,8-8V8C96,3.6,92.4,0,88,0L88,0z"/>
	<g>
		<path fill="#FFFFFF" d="M83.9,23.1c0,1.1-0.3,2-0.8,2.8s-1.3,1.4-2.3,1.8s-2.2,0.6-3.6,0.6c-0.6,0-1.2,0-1.8-0.1s-1.2-0.2-1.7-0.4
			s-1.1-0.4-1.6-0.6v-3.5c0.9,0.4,1.7,0.7,2.7,1s1.8,0.5,2.7,0.5c0.6,0,1.1-0.1,1.5-0.2c0.4-0.2,0.7-0.4,0.8-0.7s0.3-0.6,0.3-1
			c0-0.5-0.2-0.8-0.5-1.2c-0.3-0.4-0.7-0.6-1.2-0.9s-1.1-0.6-1.8-0.9c-0.4-0.2-0.9-0.4-1.4-0.7c-0.5-0.3-1-0.6-1.4-1
			s-0.8-0.9-1.1-1.5c-0.3-0.6-0.4-1.3-0.4-2.1c0-1.1,0.2-2,0.7-2.7c0.5-0.8,1.2-1.3,2.1-1.7s2-0.6,3.2-0.6c0.9,0,1.8,0.1,2.7,0.3
			c0.9,0.2,1.7,0.5,2.7,0.9l-1.2,3c-0.8-0.3-1.6-0.6-2.2-0.8c-0.7-0.2-1.3-0.3-2-0.3c-0.5,0-0.9,0.1-1.2,0.2
			c-0.3,0.2-0.6,0.4-0.8,0.6s-0.3,0.6-0.3,1s0.1,0.8,0.4,1.1c0.2,0.3,0.6,0.6,1.1,0.8c0.5,0.3,1.1,0.6,1.9,0.9
			c0.9,0.4,1.7,0.9,2.3,1.4c0.7,0.5,1.2,1,1.5,1.7C83.5,21.5,83.9,22.1,83.9,23.1z"/>
	</g>
</g>
<g>
	<path fill="#FFFFFF" d="M40,4c2.2,0,4,1.8,4,4v32c0,2.2-1.8,4-4,4H8c-2.2,0-4-1.8-4-4V8c0-2.2,1.8-4,4-4L40,4 M40,0H8
		C3.6,0,0,3.6,0,8v32c0,4.4,3.6,8,8,8h32c4.4,0,8-3.6,8-8V8C48,3.6,44.4,0,40,0L40,0z"/>
	<path fill="#FFFFFF" d="M34,4c2.2,0,4,1.8,4,4v26c0,2.2-1.8,4-4,4H14c-2.2,0-4-1.8-4-4V8c0-2.2,1.8-4,4-4L34,4 M34,0H14
		C9.6,0,6,3.6,6,8v26c0,4.4,3.6,8,8,8h20c4.4,0,8-3.6,8-8V8C42,3.6,38.4,0,34,0L34,0z"/>
	<g>
		<path fill="#FFFFFF" d="M36.1,10.1L31.5,28h-4.3l-2.4-9.4c0-0.2-0.1-0.5-0.2-0.8c-0.1-0.4-0.2-0.8-0.3-1.2
			c-0.1-0.4-0.2-0.9-0.2-1.2c0-0.4-0.1-0.7-0.1-1c0,0.2-0.1,0.5-0.1,0.9c-0.1,0.4-0.1,0.8-0.2,1.2s-0.2,0.8-0.3,1.2
			s-0.1,0.7-0.2,0.9L20.8,28h-4.3l-4.6-17.9h3.7l2.3,9.8c0.1,0.3,0.1,0.6,0.2,1.1c0.1,0.4,0.2,0.8,0.3,1.3c0.1,0.4,0.2,0.9,0.2,1.3
			c0.1,0.4,0.1,0.8,0.2,1.1c0-0.3,0.1-0.7,0.2-1.1s0.1-0.8,0.2-1.3c0.1-0.4,0.2-0.8,0.2-1.2c0.1-0.4,0.2-0.7,0.2-0.9l2.6-10h3.6
			l2.6,10c0.1,0.2,0.1,0.5,0.2,0.9s0.2,0.8,0.2,1.2s0.2,0.9,0.2,1.3c0.1,0.4,0.1,0.8,0.2,1.1c0.1-0.4,0.1-0.9,0.2-1.5
			s0.2-1.2,0.3-1.7c0.1-0.6,0.2-1.1,0.3-1.5l2.3-9.8L36.1,10.1L36.1,10.1z"/>
	</g>
</g>
</svg>
