<?xml version="1.0" encoding="utf-8"?>
<!-- Generator: Adobe Illustrator 28.6.0, SVG Export Plug-In . SVG Version: 9.03 Build 54939)  -->
<svg version="1.1" baseProfile="tiny" id="Layer_1" xmlns="http://www.w3.org/2000/svg" xmlns:xlink="http://www.w3.org/1999/xlink"
	 x="0px" y="0px" viewBox="0 0 566.9 97.9" overflow="visible" xml:space="preserve">
<g>
	<path fill="#FFFFFF" d="M90.9,60L57.7,40.1l14.8,0c9.9,0,18-8,18-18v-4c0-9.9-8-18-18-18H0v59.9h11.6V10.6h43.1l16.2,0
		c4.8,0,8.6,3.9,8.6,8.6v1.9c0,4.8-3.9,8.6-8.6,8.6H20.4L70.9,60H90.9z"/>
	<path fill="#FFFFFF" d="M11.6,10.6h43.1l16.2,0"/>
	<path fill="#FFFFFF" d="M72.5,0.2H0"/>
	<path fill="#FFFFFF" d="M198,10.6l38.8,0V0.2h-93.4v59.9H198l38.8,0V49.8h-81.9V10.6L198,10.6z"/>
	<path fill="#FFFFFF" d="M446.5,0.2v59.9h54.6l38.8,0V49.8h-81.8V0.2L446.5,0.2z"/>
	<path fill="#FFFFFF" d="M162.7,25h58.7v10.3l-58.7,0V25z"/>
	<path fill="#FFFFFF" d="M340.7,0l-63.1,59.8h15L341,14L364,34.5h-32.7l-10.9,10.3l0,0h55.3l16.9,15h15.6L340.7,0z"/>
	<path fill="#FFFFFF" d="M109.4,19.4h19v19h-19V19.4z"/>
	<path fill="#FFFFFF" d="M255.7,19.4h19v19h-19L255.7,19.4z"/>
	<path fill="#FFFFFF" d="M405.9,19.4h19v19h-19V19.4z"/>
	<path fill="#FFFFFF" d="M0,70.8h539.9v3.8H0V70.8z"/>
	<path fill="#FFFFFF" d="M321.3,82.5h7.1l5.3,9.8l5.3-9.8h7.1v15.2h-4.5V86.8h0l-6.1,10.9H332l-6.1-10.9h0v10.9h-4.5V82.5z"/>
	<path fill="#FFFFFF" d="M350.1,82.5h4.6v8.8c0,1.9,0.7,2.7,2.6,2.7h4.6c1.9,0,2.6-0.8,2.6-2.7v-8.8h4.6v9.8c0,3.8-1.9,5.6-6.2,5.6
		h-6.7c-4.3,0-6.2-1.8-6.2-5.6L350.1,82.5L350.1,82.5z"/>
	<path fill="#FFFFFF" d="M373.2,82.5h4.6v11.3h10.4v3.9h-15.1L373.2,82.5L373.2,82.5z"/>
	<path fill="#FFFFFF" d="M387.6,82.5h17.7v3.8h-6.5v11.4h-4.6V86.3h-6.5L387.6,82.5L387.6,82.5z"/>
	<path fill="#FFFFFF" d="M408.4,82.5h4.6v15.2h-4.6V82.5z"/>
	<path fill="#FFFFFF" d="M417.3,82.5H430c4.4,0,5.5,2.2,5.5,5.2V89c0,2.3-1,4.9-4.3,4.9H422v3.8h-4.6L417.3,82.5z M422,90.1h7.2
		c1.1,0,1.5-0.7,1.5-1.6v-0.6c0-1-0.5-1.6-1.9-1.6H422L422,90.1L422,90.1z"/>
	<path fill="#FFFFFF" d="M438.8,82.5h4.6v11.3h10.4v3.9h-15.1L438.8,82.5L438.8,82.5z"/>
	<path fill="#FFFFFF" d="M463.4,82.5h6.1l8.3,15.2h-5.2l-1.4-2.7h-9.4l-1.4,2.7h-5.2L463.4,82.5L463.4,82.5z M463.5,91.7h5.9l-3-5.7
		L463.5,91.7L463.5,91.7z"/>
	<path fill="#FFFFFF" d="M484.6,92.4l-8.4-9.9h5.6l5.1,6.2l5.1-6.2h5.6l-8.4,9.9v5.3h-4.6L484.6,92.4L484.6,92.4z"/>
	<path fill="#FFFFFF" d="M500.2,82.5h16.6V86h-11.9v2.4h11.3v3.1h-11.3V94H517v3.6h-16.9L500.2,82.5L500.2,82.5z"/>
	<path fill="#FFFFFF" d="M520.7,82.5h14c3.6,0,4.5,1.8,4.5,4.5v1c0,2-0.5,3.2-2.6,3.7v0c1.4,0.3,2.5,0.9,2.5,3.3v2.6h-4.6v-1.8
		c0-1.6-0.5-2.1-1.9-2.1h-7.3v3.9h-4.6L520.7,82.5z M525.3,90h7.7c1.3,0,1.7-0.5,1.7-1.6v-0.5c0-1.3-0.7-1.6-2.1-1.6h-7.3V90z"/>
	<path fill="#FFFFFF" d="M91,82.5h4.6v15.2H91V82.5z"/>
	<path fill="#FFFFFF" d="M99.8,82.5h7.2l8.7,11h0v-11h4.6v15.2h-7.2l-8.7-11h0v11h-4.6L99.8,82.5L99.8,82.5z"/>
	<path fill="#FFFFFF" d="M123.3,82.5h17.7v3.8h-6.5v11.4h-4.6V86.3h-6.5L123.3,82.5z"/>
	<path fill="#FFFFFF" d="M143.9,82.5h16.6V86h-11.9v2.4h11.3v3.1h-11.3V94h12.2v3.6h-16.9L143.9,82.5L143.9,82.5z"/>
	<path fill="#FFFFFF" d="M164.4,82.5h14c3.6,0,4.5,1.8,4.5,4.5v1c0,2-0.5,3.2-2.6,3.7v0c1.4,0.3,2.5,0.9,2.5,3.3v2.6h-4.6v-1.8
		c0-1.6-0.5-2.1-1.9-2.1h-7.3v3.9h-4.6L164.4,82.5z M169.1,90h7.7c1.3,0,1.7-0.5,1.7-1.6v-0.5c0-1.3-0.7-1.6-2.1-1.6h-7.3V90z"/>
	<path fill="#FFFFFF" d="M193.7,82.5h6.1l8.3,15.2h-5.2l-1.4-2.7H192l-1.4,2.7h-5.2L193.7,82.5L193.7,82.5z M193.8,91.7h5.9l-3-5.7
		L193.8,91.7L193.8,91.7z"/>
	<path fill="#FFFFFF" d="M210.2,87.8c0-4.4,2.5-5.5,6.7-5.5h5.5c6.6,0,7.5,1.4,7.4,5.7h-4.6v-0.4c0-1.1-0.8-1.4-2.2-1.4h-5.1
		c-2.4,0-2.9,1.2-2.9,3v1.6c0,2.2,0.5,3,2.7,3h5c2.1,0,2.7-0.2,2.7-2.1h4.6v1.4c0,2.6-0.9,4.6-5.6,4.6h-7.5c-4.2,0-6.7-1-6.7-5.5
		V87.8z"/>
	<path fill="#FFFFFF" d="M232.5,82.5h17.7v3.8h-6.5v11.4h-4.6V86.3h-6.5L232.5,82.5z"/>
	<path fill="#FFFFFF" d="M253.4,82.5h4.6v15.2h-4.6L253.4,82.5z"/>
	<path fill="#FFFFFF" d="M260.8,82.5h5.1l5.9,11.3l5.9-11.3h5.1l-8.1,15.2h-5.7L260.8,82.5L260.8,82.5z"/>
	<path fill="#FFFFFF" d="M285.3,82.5h16.6V86h-11.9v2.4h11.3v3.1h-11.3V94h12.2v3.6h-16.9L285.3,82.5L285.3,82.5z"/>
	<path fill="#FFFFFF" d="M0,92.3h4.4V93c0,1.3,0.4,1.6,2,1.6H12c1.4,0,1.6-0.4,1.6-1.4c0-1-0.3-1.5-1.7-1.5H7.1v-3.1h4.3
		c1.5,0,1.8-0.4,1.8-1.5c0-1.2-0.7-1.5-2.1-1.5H6.5c-1.5,0-2,0.3-2,1.4v0.6H0.2v-0.8c0-4.1,2-4.5,7.7-4.5H11c5.4,0,6.7,0.8,6.7,4.2
		c0,2.6-0.4,2.9-2.5,3.5v0.1c2.4,0.4,2.8,1.2,2.8,3.6c0,3-1,4.1-5.3,4.1H5c-2.7,0-5-0.8-5-3.9C0,93.9,0,92.3,0,92.3z"/>
	<path fill="#FFFFFF" d="M21.9,82.5h14c4.6,0,6.3,1.5,6.3,5.3v4.6c0,3.7-1.6,5.3-6.3,5.3h-14L21.9,82.5z M26.6,93.8h8.2
		c2,0,2.8-0.6,2.8-2.7V89c0-2.2-0.8-2.7-2.8-2.7h-8.2V93.8z"/>
	<path fill="#FFFFFF" d="M45.5,87.8c0-4.4,2.5-5.5,6.7-5.5h7.5c4.2,0,6.7,1,6.7,5.5v4.5c0,4.4-2.5,5.5-6.7,5.5h-7.5
		c-4.2,0-6.7-1-6.7-5.5L45.5,87.8L45.5,87.8z M50.3,90.9c0,2.2,0.5,3,2.7,3h5.9c2.2,0,2.7-0.8,2.7-3v-1.6c0-1.9-0.5-3-2.9-3h-5.4
		c-2.4,0-2.9,1.2-2.9,3V90.9z"/>
	<path fill="#FFFFFF" d="M72.8,90.5h-2.2v-6.3h-2.1v-1.9H75v1.9h-2.2L72.8,90.5z"/>
	<path fill="#FFFFFF" d="M78.3,90.5h-2.2v-8.1h3.4l1.6,5.1h0.1l1.5-5.1h3.5v8.1H84l0.2-6.2h-0.1l-2.1,6.2h-1.9l-2.1-6.2h-0.1
		L78.3,90.5z"/>
	<path fill="#FFFFFF" d="M548.8,90.7h-2.2v-6.3h-2.1v-1.9h6.5v1.9h-2.2L548.8,90.7z"/>
	<path fill="#FFFFFF" d="M554.3,90.7h-2.2v-8.1h3.4l1.6,5.1h0.1l1.5-5.1h3.5v8.1H560l0.2-6.2h-0.1l-2.1,6.2h-1.9l-2.1-6.2H554
		L554.3,90.7L554.3,90.7z"/>
	<path fill="#FFFFFF" d="M550,60.1h-2.8v-7.9h-2.6v-2.4h8.2v2.4H550V60.1z"/>
	<path fill="#FFFFFF" d="M556.9,60.1h-2.8V49.8h4.4l2,6.5h0.1l1.9-6.5h4.5v10.3h-2.8l0.3-7.9h-0.1l-2.6,7.9h-2.4l-2.6-7.9h-0.1
		L556.9,60.1L556.9,60.1z"/>
</g>
</svg>
