<?xml version="1.0" encoding="utf-8"?>
<!-- Generator: Adobe Illustrator 28.0.0, SVG Export Plug-In . SVG Version: 6.00 Build 0)  -->
<svg version="1.1" baseProfile="tiny" id="Layer_1" xmlns="http://www.w3.org/2000/svg" xmlns:xlink="http://www.w3.org/1999/xlink"
	 x="0px" y="0px" viewBox="0 0 174 153" overflow="visible" xml:space="preserve">
<g>
	<path fill="#FFFFFF" d="M174,0c-0.1,2.3-0.4,4.6-0.4,7c0,46.1,0,92.2,0,138.4c0,1.7,0,3.5,0,5.2c-0.4,0-0.7,0.1-1.1,0.1
		c-0.7-1.6-1.5-3.2-2.2-4.8C150.7,98.9,131,52,111.3,5c-0.7-1.7-1.5-3.3-2.3-5C130.7,0,152.3,0,174,0z"/>
	<path fill="#FFFFFF" d="M64,0c-0.5,1.7-0.9,3.5-1.6,5.2C42.6,52.4,22.8,99.7,3,146.9c-0.8,1.8-2,3.4-3,5.1C0,101.4,0,50.9,0,0
		C21.3,0,42.7,0,64,0z"/>
	<path fill="#FFFFFF" d="M101,153c-3.4-8.3-7.1-16.5-10.2-24.9c-1.7-4.6-4-6.5-9-6.2c-7.3,0.5-14.6,0.1-23,0.1
		C68,99.9,76.9,78.6,86.4,55.8c14.3,33.3,28,65.3,41.6,97.2C119,153,110,153,101,153z"/>
</g>
</svg>
