<?xml version="1.0" encoding="utf-8"?>
<!-- Generator: Adobe Illustrator 28.0.0, SVG Export Plug-In . SVG Version: 6.00 Build 0)  -->
<svg version="1.1" baseProfile="tiny" id="Layer_1" xmlns="http://www.w3.org/2000/svg" xmlns:xlink="http://www.w3.org/1999/xlink"
	 x="0px" y="0px" viewBox="0 0 499.3 102.8" overflow="visible" xml:space="preserve">
<g>
	<g>
		<rect x="26.7" y="26.3" fill="#FFFFFF" width="28.5" height="17.1"/>
		<path fill="#FFFFFF" d="M0,0v102.8h135.9V0H0z M71.4,84.6c0,2.4-0.9,4.3-2.4,5.7c-1.6,1.3-3.6,2.1-5.6,2.1c-2.3,0-4.2-0.7-5.7-2
			C55.8,89,55,87,55,84.6V59.4H26.7v24.8c0,2.5-0.9,4.5-2.4,6c-1.6,1.4-3.6,2.1-5.7,2.1s-4.1-0.7-5.7-2.1s-2.3-3.4-2.3-6v-56
			c0-5,1.7-9.3,5.3-12.7c3.6-3.5,7.8-5.1,12.8-5.1H53c4.9,0,9.2,1.7,12.8,5.1c3.7,3.4,5.5,7.6,5.5,12.7L71.4,84.6L71.4,84.6z
			 M98.9,84.2c0,2.5-1,4.5-2.8,6c-2,1.4-4.2,2.1-6.8,2.1c-2.6,0-4.8-0.7-6.6-2.1c-1.8-1.4-2.7-3.4-2.7-6v-66c0-2.5,1-4.5,2.9-6.1
			c1.7-1.3,3.8-1.9,6.5-1.9c2.6,0,4.8,0.7,6.5,1.9c1.9,1.5,3,3.6,3,6.1V84.2z M125.5,84.2c0,2.5-1,4.5-2.8,6c-2,1.4-4.2,2.1-6.8,2.1
			c-2.6,0-4.8-0.7-6.6-2.1c-1.8-1.4-2.7-3.4-2.7-6v-66c0-2.5,1-4.5,2.9-6.1c1.7-1.3,3.8-1.9,6.5-1.9c2.6,0,4.8,0.7,6.5,1.9
			c1.9,1.5,3,3.6,3,6.1V84.2z"/>
	</g>
	<g>
		<path fill="#FFFFFF" d="M214.1,60.8v13.5c0,5-1.7,9.3-5.3,12.8s-7.8,5.2-12.9,5.2h-24.6c-4.9,0-9.2-1.7-12.8-5.3
			c-3.6-3.6-5.3-7.7-5.3-12.7V28.1c0-5,1.7-9.3,5.3-12.8s7.9-5.2,12.9-5.2H206c2.3,0,4.3,0.8,5.8,2.3c1.6,1.5,2.3,3.5,2.3,5.8
			s-0.8,4.3-2.3,5.7c-1.5,1.4-3.5,2.2-5.8,2.2h-36.7v50.1h28.3V59.3h-6.9c-2.3,0-4.3-0.8-5.8-2.3s-2.3-3.5-2.3-5.8s0.8-4.3,2.3-5.8
			s3.5-2.3,5.8-2.3H206c2.1,0,4,0.9,5.6,2.4c1.6,1.6,2.4,3.6,2.4,5.6v21.5V60.8H214.1z"/>
		<path fill="#FFFFFF" d="M264.5,92.2h-34.6c-2.1,0-4-0.9-5.6-2.5s-2.4-3.6-2.4-5.7V61.6c0-2.1,0.9-4,2.4-5.6
			c1.6-1.6,3.6-2.4,5.6-2.4h22.3c2.4,0,4.4,0.8,5.9,2.2s2.3,3.5,2.3,5.9c0,2.4-0.8,4.4-2.3,5.9s-3.5,2.3-5.9,2.3H238v6.3h28.4v-28
			h-36.6c-2.4,0-4.3-0.8-5.9-2.2c-1.4-1.4-2.2-3.5-2.2-5.9s0.8-4.3,2.2-5.9c1.4-1.4,3.5-2.2,5.9-2.2h34.6c5,0,9.3,1.7,12.9,5.3
			s5.3,7.8,5.3,12.9v24c0,5-1.7,9.3-5.3,12.9C273.8,90.5,269.6,92.2,264.5,92.2z"/>
		<path fill="#FFFFFF" d="M354,92.2c-2.4,0-4.4-0.8-5.9-2.3s-2.3-3.5-2.3-6V48.3h-11.6v35.9c0,2.4-0.7,4.4-2.1,6
			c-1.4,1.5-3.4,2.3-5.8,2.3s-4.3-0.8-5.8-2.3c-1.4-1.5-2.1-3.5-2.1-6V48.3h-11.6v35.9c0,2.4-0.8,4.4-2.3,6
			c-1.5,1.5-3.5,2.3-5.9,2.3c-2.3,0-4.3-0.8-5.7-2.3c-1.4-1.5-2.2-3.5-2.2-6v-34c0-4.9,1.7-9.2,5.2-12.8s7.7-5.3,12.8-5.3h35.5
			c5,0,9.3,1.7,12.8,5.3s5.2,7.8,5.2,12.8V84c0,2.3-0.8,4.3-2.2,5.9C358.2,91.5,356.4,92.2,354,92.2z"/>
		<path fill="#FFFFFF" d="M430.6,62.4c0,2.1-0.9,4-2.4,5.7c-1.6,1.6-3.6,2.5-5.6,2.5h-22.5c-2.3,0-4.3-0.8-5.8-2.3s-2.3-3.6-2.3-5.9
			c0-2.3,0.8-4.3,2.3-5.8s3.5-2.3,5.8-2.3h14.2V48h-28.6v28h36.7c2.3,0,4.3,0.8,5.8,2.3s2.3,3.5,2.3,5.8s-0.8,4.3-2.3,5.9
			c-1.5,1.5-3.5,2.3-5.8,2.3h-34.7c-5,0-9.3-1.7-12.8-5.3c-3.6-3.6-5.3-7.8-5.3-12.9V50c0-5,1.7-9.3,5.3-12.8
			c3.6-3.5,7.8-5.2,12.8-5.2h24.1c5.5,0,9.9,1.7,13.4,5.1c3.5,3.5,5.2,7.7,5.3,12.9L430.6,62.4C430.5,62.4,430.6,62.4,430.6,62.4z"
			/>
		<path fill="#FFFFFF" d="M481.2,92.2h-34.7c-2.4,0-4.3-0.8-5.9-2.3c-1.4-1.5-2.2-3.5-2.2-6c0-2.3,0.8-4.3,2.3-5.8s3.5-2.3,5.8-2.3
			h36.7V70h-26.7c-5,0-9.3-1.7-12.8-5.3c-3.6-3.6-5.3-7.8-5.3-12.9v-1.9c0-5,1.7-9.3,5.3-12.9c3.6-3.6,7.8-5.3,12.8-5.3h34.7
			c2.3,0,4.3,0.8,5.8,2.3s2.3,3.5,2.3,5.8s-0.8,4.3-2.3,5.8s-3.5,2.3-5.8,2.3h-36.7v5.8h26.6c5,0,9.3,1.7,12.9,5.3s5.3,7.8,5.3,12.9
			V74c0,5-1.7,9.3-5.3,12.9S486.2,92.2,481.2,92.2z"/>
	</g>
</g>
</svg>
