<?xml version="1.0" encoding="utf-8"?>
<!-- Generator: Adobe Illustrator 28.0.0, SVG Export Plug-In . SVG Version: 6.00 Build 0)  -->
<svg version="1.1" baseProfile="tiny" id="Layer_1" xmlns="http://www.w3.org/2000/svg" xmlns:xlink="http://www.w3.org/1999/xlink"
	 x="0px" y="0px" viewBox="0 0 566.9 102.8" overflow="visible" xml:space="preserve">
<g>
	<path fill="#FFFFFF" d="M70.9,24.8v64.9c0,2.8-1,5-2.8,6.6c-1.8,1.5-4.1,2.4-6.5,2.4c-2.6,0-4.8-0.8-6.6-2.3c-2-1.6-3-3.9-3-6.7
		V60.7H19.4v28.6c0,2.9-1,5.2-2.8,6.9c-1.8,1.6-4.1,2.4-6.6,2.4s-4.7-0.8-6.6-2.4s-2.7-3.9-2.7-6.9V24.8c0-5.8,2-10.7,6.1-14.6
		c4.1-4,9-5.9,14.7-5.9h28.3c5.7,0,10.6,2,14.8,5.9C68.9,14.1,70.9,19,70.9,24.8z M52.2,42.4V22.6H19.4v19.7H52.2z"/>
	<path fill="#FFFFFF" d="M91.6,98.6c-3,0-5.5-0.8-7.6-2.4c-2.1-1.6-3.1-3.9-3.1-6.9v-76c0-2.9,1.1-5.2,3.3-7c2-1.5,4.4-2.2,7.5-2.2
		c3,0,5.5,0.8,7.5,2.2c2.2,1.7,3.4,4.1,3.4,7v76c0,2.9-1.1,5.2-3.2,6.9C97.1,97.8,94.6,98.6,91.6,98.6z"/>
	<path fill="#FFFFFF" d="M122.2,98.6c-3,0-5.5-0.8-7.6-2.4c-2.1-1.6-3.1-3.9-3.1-6.9v-76c0-2.9,1.1-5.2,3.3-7c2-1.5,4.4-2.2,7.5-2.2
		c3,0,5.5,0.8,7.5,2.2c2.2,1.7,3.4,4.1,3.4,7v76c0,2.9-1.1,5.2-3.2,6.9C127.7,97.8,125.2,98.6,122.2,98.6z"/>
	<path fill="#FFFFFF" d="M237.7,62.4v15.6c0,5.8-2,10.7-6.1,14.7c-4.1,4-9,6-14.9,6h-28.3c-5.7,0-10.6-2-14.7-6.1
		c-4.1-4.1-6.1-8.9-6.1-14.6V24.8c0-5.8,2-10.7,6.1-14.7s9.1-6,14.9-6h39.8c2.7,0,4.9,0.9,6.7,2.6s2.6,4,2.6,6.7s-0.9,4.9-2.6,6.6
		c-1.7,1.6-4,2.5-6.7,2.5h-42.3v57.7h32.6V60.7h-7.9c-2.7,0-4.9-0.9-6.7-2.6c-1.7-1.7-2.6-4-2.6-6.7s0.9-4.9,2.6-6.7
		c1.7-1.7,4-2.6,6.7-2.6h17.6c2.4,0,4.6,1,6.5,2.8c1.8,1.8,2.8,4.1,2.8,6.5v24.8L237.7,62.4L237.7,62.4z"/>
	<path fill="#FFFFFF" d="M295.8,98.6h-39.9c-2.4,0-4.6-1-6.5-2.9c-1.8-1.9-2.8-4.1-2.8-6.6V63.4c0-2.4,1-4.6,2.8-6.5
		c1.8-1.8,4.1-2.8,6.5-2.8h25.7c2.8,0,5.1,0.9,6.8,2.5c1.7,1.6,2.6,4,2.6,6.8c0,2.8-0.9,5.1-2.6,6.8c-1.7,1.7-4,2.6-6.8,2.6h-16.3
		V80h32.7V47.8h-42.1c-2.8,0-5-0.9-6.8-2.5c-1.6-1.6-2.5-4-2.5-6.8c0-2.8,0.9-5,2.5-6.8c1.6-1.6,4-2.5,6.8-2.5h39.9
		c5.8,0,10.7,2,14.9,6.1c4.1,4.1,6.1,9,6.1,14.8v27.6c0,5.8-2,10.7-6.1,14.9C306.5,96.6,301.6,98.6,295.8,98.6z"/>
	<path fill="#FFFFFF" d="M398.8,98.6c-2.8,0-5.1-0.9-6.8-2.6c-1.7-1.7-2.6-4-2.6-6.9V48H376v41.3c0,2.8-0.8,5.1-2.4,6.9
		c-1.6,1.7-3.9,2.6-6.7,2.6s-5-0.9-6.7-2.6c-1.6-1.7-2.4-4-2.4-6.9V48h-13.4v41.3c0,2.8-0.9,5.1-2.6,6.9c-1.7,1.7-4,2.6-6.8,2.6
		c-2.7,0-4.9-0.9-6.6-2.6c-1.6-1.7-2.5-4-2.5-6.9V50.1c0-5.7,2-10.6,6-14.7s8.9-6.1,14.7-6.1h40.9c5.8,0,10.7,2,14.7,6.1
		c4,4.1,6,9,6,14.7v39.1c0,2.7-0.9,4.9-2.5,6.8C403.7,97.8,401.6,98.6,398.8,98.6z"/>
	<path fill="#FFFFFF" d="M487.1,64.3c0,2.4-1,4.6-2.8,6.6c-1.8,1.9-4.1,2.9-6.5,2.9h-25.9c-2.7,0-4.9-0.9-6.7-2.6
		c-1.7-1.7-2.6-4.1-2.6-6.8c0-2.7,0.9-4.9,2.6-6.7c1.7-1.7,4-2.6,6.7-2.6h16.4v-7.3h-32.9V80h42.3c2.7,0,4.9,0.9,6.7,2.6
		c1.7,1.7,2.6,4,2.6,6.7s-0.9,4.9-2.6,6.8c-1.7,1.7-4,2.7-6.7,2.7h-40c-5.8,0-10.7-2-14.8-6.1c-4.1-4.1-6.1-9-6.1-14.9V50
		c0-5.8,2-10.7,6.1-14.7s9-6,14.8-6h27.8c6.3,0,11.4,2,15.4,5.9c4,4,6,8.9,6.1,14.9v14.2H487.1z"/>
	<path fill="#FFFFFF" d="M545.3,98.6h-40c-2.8,0-5-0.9-6.8-2.6c-1.6-1.7-2.5-4-2.5-6.9c0-2.7,0.9-4.9,2.6-6.7c1.7-1.7,4-2.6,6.7-2.6
		h42.3V73h-30.7c-5.8,0-10.7-2-14.8-6.1c-4.1-4.1-6.1-9-6.1-14.8v-2.2c0-5.8,2-10.7,6.1-14.8s9-6.1,14.8-6.1h40
		c2.7,0,4.9,0.9,6.7,2.6c1.7,1.7,2.6,4,2.6,6.7s-0.9,4.9-2.6,6.7c-1.7,1.7-4,2.6-6.7,2.6h-42.3v6.7h30.6c5.8,0,10.7,2,14.9,6.1
		c4.1,4.1,6.1,9,6.1,14.8v2.4c0,5.8-2,10.7-6.1,14.8C556,96.6,551.1,98.6,545.3,98.6z"/>
</g>
</svg>
