<?xml version="1.0" encoding="utf-8"?>
<!-- Generator: Adobe Illustrator 28.6.0, SVG Export Plug-In . SVG Version: 9.03 Build 54939)  -->
<svg version="1.1" baseProfile="tiny" id="Layer_1" xmlns="http://www.w3.org/2000/svg" xmlns:xlink="http://www.w3.org/1999/xlink"
	 x="0px" y="0px" viewBox="0 0 566.9 92.2" overflow="visible" xml:space="preserve">
<g>
	<path fill="#FFFFFF" d="M18.4,92.1L19.8,74h7.5l1.5,18.1h18.5L35.7,0.4H11.8L0,92.1H18.4z M26.2,58.9h-5.3l2.7-35.6L26.2,58.9z
		 M77.6,0.5H51.7v91.7h17.7V39.9l7.3,52.2h11.5l7-51.9v51.9h17.7V0.5H87l-4.8,40.5L77.6,0.5z M116,11.6c0,6.3-0.1,12.6,0,19
		c0,1,0.1,2.1,0.2,2.8c0.1,1.6,0.3,2,0.5,3.1c0.3,1,0.7,2.3,1.4,3.4c0.3,0.5,0.7,1,1.3,1.6s1.3,1.3,2.1,2c1.6,1.4,3.4,2.5,5.1,3.4
		c3.9,2.1,7.7,4.2,11.6,6.4c0.5,0.3,1.1,0.6,1.6,1.1c1.3,1.3,1.3,2.8,1.3,4.2l0.1,2l0,12.4c0,0.9-0.1,1.8-0.5,2.8
		c-0.1,0.3-0.4,0.5-0.6,0.8c-0.8,0.7-1.8,0.8-2.7,0.4c-0.3-0.1-0.6-0.3-0.8-0.5c-1-0.9-0.9-2.3-1-3.4l0-18.7H116l0,20.9
		c0,2.6,0,5,0.6,7.5c0.3,1.3,0.8,2.6,1.5,3.9s1.7,2.3,2.8,3.1c1.1,0.8,2.4,1.4,3.5,1.8c1,0.4,1.8,0.5,2.5,0.6s1.5,0.2,2.3,0.2
		l19.8,0c0.9,0,1.8,0,2.9-0.3c1.1-0.3,2.4-0.8,3.6-1.6c1.1-0.7,2.1-1.6,2.8-2.6s1-2,1.3-2.9s0.6-1.8,0.8-2.9
		c0.2-1.1,0.3-2.5,0.4-3.9c0.1-1.4,0-2.8,0-4.2V59.2c0-0.3,0-0.6,0-1.2c0-0.6,0-1.6-0.1-2.7c0-1.1-0.1-2.3-0.2-3.1
		c-0.1-0.8-0.1-1.2-0.2-1.5c-0.1-0.4-0.2-0.7-0.3-1.1c-0.1-0.4-0.2-0.7-0.5-1.3c-0.3-0.6-0.7-1.5-1.3-2.3c-0.5-0.8-1.2-1.5-1.9-2.2
		c-0.7-0.7-1.5-1.2-2.4-1.8c-1.8-1.2-3.8-2.5-5.8-3.6l-8.3-4.5c-0.5-0.3-1-0.6-1.5-0.9c-0.5-0.3-0.9-0.6-1.2-0.9
		c-0.5-0.4-0.5-0.4-0.7-0.7c-0.1-0.1-0.2-0.2-0.3-0.4c-0.3-0.5-0.7-1.4-0.8-2.1c0-0.4,0-0.8,0-1.2c0-2.9,0-5.9,0-8.7
		c0-0.6,0-1.4,0.2-2.1c0.1-0.3,0.3-0.7,0.4-0.9c0.9-1.3,2.1-1.4,3.3-0.9c0.3,0.1,0.5,0.4,0.8,0.6c0.2,0.2,0.4,0.5,0.5,0.8
		c0.1,0.3,0.2,0.6,0.3,1.1c0.1,0.9,0.1,2.2,0.1,3.3v10.9h19.6c0-5.6,0.1-11.3-0.1-16.9c-0.1-1.3-0.1-2.6-0.2-3.5
		c-0.1-0.9-0.1-1.3-0.2-1.7c-0.1-0.4-0.2-0.8-0.3-1.2c-0.1-0.4-0.2-0.8-0.6-1.5c-0.3-0.7-0.8-1.7-1.4-2.5s-1.4-1.6-2.3-2.2
		c-0.9-0.6-1.9-1.1-2.7-1.4c-1.7-0.6-2.9-0.7-4.4-0.8c-0.7-0.1-1.4-0.1-2.1-0.1l-17,0.1c-1.9,0.1-3.9,0.3-5.9,0.9
		c-0.6,0.2-1.2,0.4-1.8,0.7c-1.1,0.6-2,1.3-3,2.4c-0.5,0.6-1,1.4-1.4,2.2C116.6,8,116.1,9.8,116,11.6 M164,0.4v14.8h9.8v76.9h19.6
		V15.2h9.7V0.4L164,0.4 M229.1,0.4h-20.9v91.7h19.6V55.6c1.3,0,2.6-0.1,3.9,0.3c0.3,0.1,0.5,0.2,0.8,0.4c0.9,0.8,0.8,1.8,1,2.7
		c0.2,1.9,0,3.8,0.1,5.7v27.5h19.6l0-28.7c0-2.8-0.2-5.6-0.8-8.5c-0.2-0.6-0.4-1.3-0.7-1.9c-0.4-1-1-1.9-1.7-2.8s-1.6-1.5-2.5-2.1
		s-1.9-1-3-1.3c0.5-0.1,1-0.3,1.5-0.5c1-0.4,2-0.9,2.8-1.6c0.8-0.7,1.6-1.5,2.1-2.4c0.6-0.9,1-1.9,1.2-3c0.2-0.8,0.4-1.5,0.5-2.3
		c0.5-3.1,0.6-6.2,0.6-9.3v-9.6c0.1-1.9,0-3.8-0.3-5.7c-0.1-0.9-0.3-1.9-0.4-2.7c-0.2-0.8-0.3-1.4-0.6-2s-0.5-1.2-0.8-1.7
		c-0.3-0.6-0.7-1.1-1.1-1.6c-0.7-0.7-1.4-1.3-2.2-1.8c-1.7-1.1-3.5-1.7-5.4-1.8C237.9,0.4,233.5,0.6,229.1,0.4 M227.9,15.4
		c0.9,0,1.8,0,2.8,0c0.4,0,0.9,0.2,1.3,0.4c1.3,0.8,1.3,1.9,1.5,2.9c0.1,1.2,0.1,2.3,0.1,3.5c0,4,0.1,8,0,12c0,0.7-0.1,1.4-0.2,2.1
		c0,0.3-0.1,0.7-0.3,1c-0.2,0.3-0.4,0.6-0.6,0.8c-0.6,0.5-1.4,0.6-2.1,0.6c-0.8,0.1-1.6,0.1-2.4,0V15.4z M275.6,92.1l1.4-18.1h7.5
		l1.5,18.1h18.5L292.8,0.4h-23.9l-11.8,91.7H275.6 M283.3,58.9H278l2.7-35.6L283.3,58.9 M351.1,6.1c-0.7-1.1-1.5-2-2.5-2.8
		c-1-0.8-2.2-1.3-3-1.7s-1.4-0.5-2-0.5c-0.6-0.1-1.1-0.2-1.7-0.3c-0.6-0.1-1.1-0.1-2.5-0.2c-1.3-0.1-3.5-0.2-5.6-0.2l-25.4,0v91.7
		l31.1-0.1c0.8,0,1.5-0.2,2.3-0.4c1.6-0.3,3-0.6,4.5-1.3c0.8-0.4,1.6-0.8,2.4-1.4c0.8-0.6,1.5-1.3,2.1-2.4c0.7-1.1,1.3-2.5,1.7-4.3
		c0.5-1.8,0.8-3.9,0.8-6l-0.1-62.6c0-1.4-0.4-2.8-0.7-4.1C352.2,8.4,351.7,7.2,351.1,6.1 M329.2,15.4c0.4,0,0.8,0,1.2,0
		c0.4,0.1,0.8,0.1,1.1,0.2s0.6,0.2,0.8,0.4c0.2,0.1,0.4,0.3,0.6,0.6c0.7,1,0.6,2.5,0.7,3.7v52.8c0,0.4,0,0.8-0.1,1.2
		c-0.1,0.4-0.1,0.7-0.3,1.1s-0.3,0.6-0.5,0.8c-0.2,0.2-0.4,0.4-0.7,0.6s-0.6,0.3-0.9,0.3H328V15.4L329.2,15.4"/>
	<path fill="#FFFFFF" d="M429.8,82.7h-21.4c-2.6-0.1-4.5-0.2-5.9-0.3c-1.1-0.1-1.9-0.5-2.6-1.2c-0.6-0.6-0.9-1.5-1-2.8
		c-0.1-1.5-0.2-3.8-0.3-6.8V20.1c0-2.5,0.1-4.5,0.2-5.9c0.1-1.2,0.6-2.2,1.4-2.9c0.7-0.7,1.5-1.1,2.4-1.2c1.1-0.1,3.1-0.2,5.9-0.2
		h21.3v14.9h10V0.4h-33.8c-2.5,0-5,0.2-7.4,0.5c-2.6,0.3-5,1.4-7,3.3c-2.1,2.1-3.3,4.6-3.6,7.6c-0.3,2.7-0.4,6-0.4,9.9v51.5
		c0,3.4,0.2,6.3,0.5,8.6c0.3,2.5,1.4,4.7,3.3,6.5c1.8,1.8,4.1,3,6.7,3.3c2.4,0.3,5.6,0.5,9.4,0.5h32.6V67.8h-10.1L429.8,82.7
		L429.8,82.7z"/>
	<path fill="#FFFFFF" d="M506.2,16.3c0-1.8-0.1-3.5-0.2-5.2c-0.1-1.7-0.5-3.3-1.2-4.6c-0.7-1.4-1.7-2.6-3-3.5
		c-1.3-1-3.1-1.7-5.4-2.2c-0.6-0.1-1.2-0.2-1.7-0.2c-0.5,0-1.2-0.1-2-0.1c-0.8,0-1.9-0.1-3.2-0.1h-41.3v9.5h8.6v72.8h-8.6v9.5h28.5
		v-9.5h-8.8V50.5h20.7c1.8,0,3.6,0,5.2-0.1c1.8-0.1,3.4-0.4,4.9-0.8c1.5-0.5,2.9-1.3,4.1-2.4c1.2-1.1,2.1-2.7,2.7-4.6
		c0.4-1.2,0.6-2.5,0.7-3.9c0.1-1.4,0.1-3.2,0-5.4V16.3z M495.5,19.9v11.5c0,2.2-0.1,4-0.2,5.3c-0.1,1.2-0.4,2.2-0.9,2.8
		c-0.5,0.6-1.3,1.1-2.5,1.3c-1.3,0.3-3.3,0.4-5.8,0.4h-18.1V9.9h17.6c2.5,0,4.4,0.1,5.8,0.2c1.2,0.1,2.1,0.5,2.7,1
		c0.5,0.5,0.9,1.4,1.1,2.7C495.3,15.3,495.4,17.3,495.5,19.9L495.5,19.9z"/>
	<path fill="#FFFFFF" d="M556.8,67.8v14.9h-21.4c-2.6-0.1-4.5-0.2-5.9-0.3c-1.1-0.1-1.9-0.5-2.6-1.2c-0.6-0.6-0.9-1.5-1-2.8
		c-0.1-1.5-0.2-3.8-0.3-6.8V20.1c0-2.5,0.1-4.5,0.2-5.9c0.1-1.3,0.6-2.2,1.4-2.9c0.7-0.7,1.5-1.1,2.4-1.2c1.1-0.1,3.1-0.2,5.9-0.2
		h21.3v14.9h10V0.4H533c-2.5,0-5,0.2-7.4,0.5c-2.6,0.3-5,1.4-7,3.3c-2.1,2.1-3.3,4.6-3.6,7.6c-0.3,2.7-0.5,6-0.5,9.9v51.5
		c0,3.4,0.2,6.3,0.5,8.6c0.3,2.5,1.4,4.7,3.3,6.5c1.8,1.8,4.1,3,6.7,3.3c2.4,0.3,5.6,0.5,9.4,0.5h32.6V67.8H556.8L556.8,67.8z"/>
</g>
</svg>
