<?xml version="1.0" encoding="utf-8"?>
<!-- Generator: Adobe Illustrator 28.6.0, SVG Export Plug-In . SVG Version: 9.03 Build 54939)  -->
<svg version="1.1" baseProfile="tiny" id="Layer_1" xmlns="http://www.w3.org/2000/svg" xmlns:xlink="http://www.w3.org/1999/xlink"
	 x="0px" y="0px" viewBox="0 0 1000 222.6" overflow="visible" xml:space="preserve">
<g transform="translate(-282.22 -311.27)">
	<g transform="matrix(21.017 0 0 -21.017 367.58 493.02)">
		<path fill="#FFFFFF" d="M0,0c-1.1,0-2,0.9-2,2.1c0,1.1,0.9,2.1,2,2.1c0.7,0,1.5-0.3,1.8-1c0,0,0.1-0.1,0.1-0.2V1.2
			c0,0,0-0.1,0-0.1C1.5,0.4,0.8,0,0,0 M3.7-1.6v7.4H1.9V5.2C1.3,5.6,0.7,5.9-0.2,5.9c-2.1,0-3.7-1.7-3.7-3.8c0-2.1,1.6-3.8,3.7-3.8
			c0.9,0,1.5,0.3,2.1,0.8v-0.6H3.7z M11.6-1.6v4c0,2-1.5,3.5-3.5,3.5c-2,0-3.5-1.6-3.5-3.5v-4h1.8v4c0,1,0.7,1.7,1.7,1.7
			c1,0,1.7-0.7,1.7-1.7v-4L11.6-1.6L11.6-1.6z M16.2,0c-1.1,0-2,0.9-2,2.1c0,1.1,0.9,2.1,2,2.1c0.7,0,1.5-0.4,1.8-1
			c0,0,0.1-0.1,0.1-0.2V1.2c0,0,0-0.1,0-0.1C17.7,0.4,17,0,16.2,0 M19.9-1.6V8h-1.8V5.2c-0.5,0.5-1.2,0.8-2.1,0.8
			c-2.1,0-3.7-1.7-3.7-3.8c0-2.1,1.6-3.8,3.7-3.8c0.9,0,1.5,0.3,2.1,0.8v-0.6L19.9-1.6L19.9-1.6z M22.7-1.6v3.9
			c0,1.2,0.6,1.8,1.8,1.8v1.8c-2.3,0-3.6-1.2-3.6-3.6v-3.9L22.7-1.6L22.7-1.6z M28.4,0.1c-1.1,0-2,0.9-2,2c0,1.1,0.9,2,2,2
			c1.1,0,2-0.9,2-2C30.5,1,29.6,0.1,28.4,0.1 M28.4-1.7c2.1,0,3.9,1.7,3.9,3.8c0,2.1-1.7,3.8-3.9,3.8c-2.1,0-3.8-1.7-3.8-3.8
			C24.6,0,26.3-1.7,28.4-1.7 M34,6.3c0.6,0,1.1,0.5,1.1,1.1c0,0.6-0.5,1.1-1.1,1.1C33.5,8.5,33,8,33,7.4C33,6.8,33.5,6.3,34,6.3
			 M35,5.8h-1.8v-7.4H35V5.8z M39.7,0c-1.1,0-2,0.9-2,2.1c0,1.1,0.9,2.1,2,2.1c0.7,0,1.5-0.4,1.8-1c0,0,0.1-0.1,0.1-0.2V1.2
			c0,0,0-0.1,0-0.1C41.1,0.4,40.4,0,39.7,0 M43.3-1.6V8h-1.8V5.2c-0.5,0.5-1.2,0.8-2.1,0.8c-2.1,0-3.7-1.7-3.7-3.8
			c0-2.1,1.6-3.9,3.7-3.9c0.9,0,1.5,0.3,2.1,0.8v-0.6C41.5-1.6,43.3-1.6,43.3-1.6z"/>
	</g>
</g>
</svg>
