<?xml version="1.0" encoding="utf-8"?>
<!-- Generator: Adobe Illustrator 28.6.0, SVG Export Plug-In . SVG Version: 9.03 Build 54939)  -->
<svg version="1.1" baseProfile="tiny" id="Layer_1" xmlns="http://www.w3.org/2000/svg" xmlns:xlink="http://www.w3.org/1999/xlink"
	 x="0px" y="0px" viewBox="0 0 564.7 165.9" overflow="visible" xml:space="preserve">
<g>
	<path fill="#FFFFFF" d="M92.6,29.6c6.2-6.8,9.4-16.3,9.8-29.1l0-0.5L102,0.1c-21.7,4.4-32.9,18-33.3,40.4l0,0.4l0.4-0.1
		C79.4,39.3,87.1,35.6,92.6,29.6L92.6,29.6z"/>
	<path fill="#FFFFFF" d="M17.9,144.8l0.4,0.6c3.6,5.2,7.7,10.2,12.2,15c3.4,3.6,8.9,5.6,15.5,5.6c4.8,0,9.7-1.1,12.9-2.9
		c6.6-3.7,10.1-3.7,12.7-3.8c0.5,0,1,0,1.5,0l0.4,0c0.6,0,1.1-0.1,1.8-0.1c2.3,0,5.7,0.4,11.8,3.9c4.3,1.8,8.5,2.7,12.4,2.7h0
		c10.7,0,20.1-6.7,28.6-20.4l0.4-0.6L17.9,144.8L17.9,144.8L17.9,144.8z"/>
	<path fill="#FFFFFF" d="M129.7,59c1.4-1.4,3-2.8,4.6-4.2l0.3-0.2l-0.2-0.3c-8.1-9.9-19.1-15.3-31.9-15.5l-0.6,0
		c-6.5,0-12.2,1.2-16.6,3.5c-5.7,3-9.9,3.6-9.9,3.7c-0.1,0-0.5,0-1.8,0c-1.5,0-2.9,0-3,0l-0.1,0c-1.8-0.2-6.4-1-10.2-3
		c-5.1-2.7-10.8-4.2-16.4-4.2l-0.4,0C28.5,38.9,16,46.2,8.2,59L129.7,59L129.7,59z"/>
	<path fill="#FFFFFF" d="M117.2,80.2c1.5-7.1,5.4-14,11.9-20.6l0.6-0.6H8.3l-0.1,0.2C4.4,65.4,2,72.5,0.8,80.2L117.2,80.2
		L117.2,80.2z"/>
	<path fill="#FFFFFF" d="M120.1,101.2c-2.9-6-4.4-13-2.9-20.5l0.1-0.4H0.8l0,0.3c-1,6.7-1,13.7-0.1,20.7L120.1,101.2L120.1,101.2z"
		/>
	<path fill="#FFFFFF" d="M6.4,123.2h133.1l0.8-1.7l-0.3-0.2c-6.4-3.2-14.9-10.1-19.8-20l-0.1-0.2H0.7l0.1,0.4
		C1.5,107.7,3.2,115.1,6.4,123.2L6.4,123.2z"/>
	<path fill="#FFFFFF" d="M17.9,144.8h110.6c4.2-6.8,7.7-14.4,10.8-21l0.2-0.5H6.4l0.2,0.5C9.5,131,13.3,138,17.9,144.8L17.9,144.8z"
		/>
	<path fill="#FFFFFF" d="M373.9,38.5v78.1h18.6V38.5L373.9,38.5L373.9,38.5z M496.6,38.5V49h10.9c1.4,0,2.4,1.1,2.4,2.5v52.1
		c0,1.4-1.1,2.5-2.4,2.5h-10.9v10.5H526V38.5L496.6,38.5L496.6,38.5z M535.1,38.5v78.2h29.4v-10.5h-10.9c-1.4,0-2.4-1.1-2.4-2.5
		V51.5c0-1.4,1.1-2.5,2.4-2.5h10.9V38.5L535.1,38.5L535.1,38.5z M157.2,57.3c-8.8,0-16,2.9-22,8.9c-6.1,6-8.9,12.7-8.9,20.4
		c0,7.6,3,14.4,9.4,20.7c6.4,6.3,13.5,9.3,21.8,9.3h12v-13.7h-4.9c-4.7,0-9-1.5-12.3-4.6c-3.3-3-5.1-7.1-5.1-11.5
		c0-4.5,1.8-8.6,5-11.5c3.3-2.9,7.4-4.3,12.1-4.3h12.9c1.4,0,2.4,1.1,2.4,2.5v43.1h18.6V57.3L157.2,57.3L157.2,57.3z M210.3,57.3
		v78.1h18.6V73.6c0-1.4,1.1-2.5,2.4-2.5h12.1c5.1,0,9.6,1.8,13.2,5.2c3.3,3.2,5.1,7.1,5.1,11.4c0,4.5-2,8.4-5.5,11.2
		c-3.5,2.7-7.9,4.1-12.8,4.1h-4.3v13.7h12.5c8.7,0,15.9-2.8,21.9-8.5c6-5.7,8.9-12.4,8.9-20.6c0-8.5-2.9-15.5-8.9-21.4
		c-6-6-13-8.8-21.5-8.8L210.3,57.3L210.3,57.3z M292.1,57.3v78.1h18.6V73.6c0-1.4,1.1-2.5,2.4-2.5h12.1c5.1,0,9.6,1.8,13.2,5.2
		c3.3,3.2,5.1,7.1,5.1,11.4c0,4.5-2,8.5-5.6,11.2c-3.5,2.7-7.9,4.1-12.7,4.1h-4.3v13.7h12.5c8.7,0,15.8-2.8,21.9-8.5
		c6-5.7,8.9-12.4,8.9-20.6c0-8.5-2.9-15.5-8.9-21.4c-6-6-13-8.8-21.5-8.8L292.1,57.3L292.1,57.3z M438.8,57.3
		c-9.9,0-18.4,3-25.7,9.1c-7.3,6.1-10.7,12.7-10.7,20.3c0,9.1,3.5,16.2,10.9,21.9c6.9,5.4,15.3,8.1,25.4,8.1h37.2v-13.7h-35.3
		c-4.7,0-8.9-1.6-12.2-4.6c-3.4-3.1-5.2-7.2-5.2-11.8c0-4.4,1.8-8.3,5-11.2c3.2-2.9,7.5-4.3,12.4-4.3h12.1c0.9,0,1.8,0.6,2.2,1.4
		c0.4,0.9,0.3,1.9-0.3,2.7l-13.4,17.3h20.3l14.4-19.7V57.3L438.8,57.3L438.8,57.3z"/>
	<path fill="#FFFFFF" d="M373.7,38.4V117h19V38.4L373.7,38.4L373.7,38.4z M496.4,38.4v10.9h11.1c0.6,0,1.2,0.2,1.6,0.7
		c0.4,0.4,0.7,1,0.6,1.6v52.1c0,0.6-0.2,1.2-0.6,1.6c-0.4,0.4-1,0.7-1.6,0.7h-11.1v11h29.8V38.4L496.4,38.4L496.4,38.4z M534.9,38.4
		V117h29.8v-11h-11.1c-0.6,0-1.2-0.2-1.6-0.7c-0.4-0.4-0.7-1-0.6-1.6V51.7c0-0.6,0.2-1.2,0.6-1.6c0.4-0.4,1-0.7,1.6-0.7h11.1V38.4
		L534.9,38.4L534.9,38.4z M157.2,57.2c-8.9,0-16.1,2.9-22.2,8.9c-6.1,6-9,12.8-9,20.6c0,7.7,3,14.5,9.5,20.9
		c6.4,6.3,13.6,9.4,21.9,9.4h12.2v-14.2h-5.1c-4.7,0-8.9-1.5-12.1-4.5c-3.3-3-5-6.9-5-11.4c0-4.5,1.7-8.4,5-11.3
		c3.2-2.8,7.3-4.3,12-4.3h12.9c0.6,0,1.2,0.2,1.6,0.7c0.4,0.4,0.7,1,0.7,1.6V117h19V57.2L157.2,57.2L157.2,57.2z M210.1,57.2v78.6
		h19V73.7c0-0.6,0.2-1.2,0.6-1.6s1-0.7,1.6-0.7h12.1c5,0,9.5,1.7,13,5.1c3.3,3.1,5.1,7,5.1,11.3c0,4.4-2,8.3-5.5,11
		c-3.5,2.7-7.8,4-12.6,4h-4.5V117h12.7c8.8,0,16-2.8,22.1-8.6c6.1-5.7,9-12.5,9-20.7c0-8.6-2.9-15.6-9-21.6
		c-6.1-6-13.1-8.9-21.6-8.9L210.1,57.2L210.1,57.2z M291.9,57.2v78.6h19V73.7c0-0.6,0.2-1.2,0.6-1.6c0.4-0.4,1-0.7,1.6-0.7h12.1
		c5,0,9.5,1.7,13,5.1c3.3,3.1,5.1,7,5.1,11.3c0,4.4-2,8.3-5.5,11c-3.5,2.7-7.8,4-12.6,4h-4.5V117h12.7c8.8,0,16-2.8,22.1-8.6
		c6.1-5.7,9-12.5,9-20.7c0-8.6-2.9-15.6-9-21.6c-6.1-6-13.1-8.9-21.6-8.9L291.9,57.2L291.9,57.2z M438.8,57.2c-10,0-18.5,3-25.8,9.2
		c-7.4,6.2-10.8,12.8-10.8,20.4c0,9.2,3.5,16.3,10.9,22.1c7,5.4,15.4,8.1,25.6,8.1H476v-14.2h-35.5c-4.6,0-8.8-1.6-12.1-4.6
		c-3.3-3-5.1-7.1-5.1-11.6c0-4.3,1.7-8.2,4.9-11c3.2-2.8,7.4-4.2,12.3-4.2h12.1c0.9,0,1.6,0.5,2,1.3c0.4,0.8,0.3,1.7-0.3,2.4
		l-13.7,17.7h20.9L476,72.9V57.2L438.8,57.2L438.8,57.2z"/>
</g>
</svg>
