<?xml version="1.0" encoding="utf-8"?>
<!-- Generator: Adobe Illustrator 28.6.0, SVG Export Plug-In . SVG Version: 9.03 Build 54939)  -->
<svg version="1.1" baseProfile="tiny" id="Layer_1" xmlns="http://www.w3.org/2000/svg" xmlns:xlink="http://www.w3.org/1999/xlink"
	 x="0px" y="0px" viewBox="0 0 505 155" overflow="visible" xml:space="preserve">
<g>
	<path fill="#FFFFFF" d="M95.6,131.1H68.2v-8.6c-2.6,3.3-5.3,5.7-7.9,7.2c-4.7,2.6-10,3.9-15.9,3.9c-9.6,0-18.2-3.3-25.7-9.9
		c-9-7.9-13.4-18.4-13.4-31.4C5.2,79,9.8,68.5,19,60.5c7.3-6.3,15.7-9.4,25.1-9.4c5.5,0,10.7,1.2,15.5,3.5c2.8,1.3,5.6,3.5,8.6,6.6
		v-7.6h27.4V131.1z M69.1,92.4c0-4.9-1.7-9-5.2-12.4c-3.5-3.5-7.6-5.2-12.5-5.2c-5.5,0-9.9,2.1-13.4,6.2c-2.8,3.3-4.3,7.2-4.3,11.4
		s1.4,8.1,4.3,11.4c3.5,4.1,7.9,6.2,13.4,6.2c5,0,9.1-1.7,12.5-5.1C67.3,101.5,69.1,97.3,69.1,92.4z"/>
	<path fill="#FFFFFF" d="M161.6,78.9c-3.8-1.8-7.7-2.8-11.7-2.8c-9,0-14.9,3.7-17.5,11c-1,2.7-1.5,6.3-1.5,10.8v33.1h-27.4V53.6
		h27.4v12.7c2.9-4.5,6-7.8,9.3-9.8c4.5-2.7,9.8-4,16-4c1.4,0,3.2,0.1,5.3,0.3L161.6,78.9z"/>
	<path fill="#FFFFFF" d="M221.4,129.4c-5.7,2.8-11.6,4.3-17.9,4.3c-14.1,0-25.3-4.8-33.6-14.4c-6.7-7.7-10-16.7-10-26.9
		c0-10.2,3.3-19.2,10-26.9c8.3-9.6,19.5-14.4,33.6-14.4c6.3,0,12.3,1.4,17.9,4.3v23.3c-4.8-3.4-9.6-5.1-14.2-5.1
		c-5.5,0-10,1.8-13.5,5.3c-3.6,3.5-5.3,8-5.3,13.4c0,5.5,1.8,9.9,5.3,13.4s8.1,5.3,13.5,5.3c4.6,0,9.3-1.7,14.2-5L221.4,129.4z"/>
	<path fill="#FFFFFF" d="M313.5,131.1h-27.4v-8.6c-2.6,3.3-5.3,5.7-7.9,7.2c-4.7,2.6-10,3.9-15.9,3.9c-9.6,0-18.2-3.3-25.7-9.9
		c-9-7.9-13.4-18.4-13.4-31.4c0-13.2,4.6-23.8,13.8-31.7c7.3-6.3,15.7-9.4,25.1-9.4c5.5,0,10.7,1.2,15.5,3.5
		c2.8,1.3,5.6,3.5,8.6,6.6v-7.6h27.4V131.1z M286.9,92.4c0-4.9-1.7-9-5.2-12.4c-3.5-3.5-7.6-5.2-12.5-5.2c-5.5,0-9.9,2.1-13.4,6.2
		c-2.8,3.3-4.3,7.2-4.3,11.4s1.4,8.1,4.3,11.4c3.5,4.1,7.9,6.2,13.4,6.2c5,0,9.1-1.7,12.5-5.1C285.2,101.5,286.9,97.3,286.9,92.4z"
		/>
	<path fill="#FFFFFF" d="M408.7,131.1h-27.4v-8.6c-2.6,3.3-5.3,5.7-7.9,7.2c-4.7,2.6-10,3.9-15.9,3.9c-9.6,0-18.2-3.3-25.7-9.9
		c-9-7.9-13.4-18.4-13.4-31.4c0-13.2,4.6-23.8,13.8-31.7c7.3-6.3,15.7-9.4,25.1-9.4c5.5,0,10.7,1.2,15.5,3.5
		c2.8,1.3,5.6,3.5,8.6,6.6V5.7h27.4L408.7,131.1z M382.1,92.4c0-4.9-1.7-9-5.2-12.4c-3.5-3.5-7.6-5.2-12.5-5.2
		c-5.5,0-9.9,2.1-13.4,6.2c-2.8,3.3-4.3,7.2-4.3,11.4s1.4,8.1,4.3,11.4c3.5,4.1,7.9,6.2,13.4,6.2c5,0,9.1-1.7,12.5-5.1
		C380.4,101.5,382.1,97.3,382.1,92.4z"/>
	<path fill="#FFFFFF" d="M498.8,97.4h-57.6c0,11.6,5.6,17.4,16.9,17.4c5.7,0,10.1-2.4,13.2-7.3h26.5c-2.1,7-5.2,12.4-9.3,16.3
		c-7.5,7-17.4,10.4-30,10.4c-15.9,0-27.9-4.8-35.9-14.5c-6-7.2-9-16.1-9-26.5c0-12.4,3.8-22.4,11.3-30.1
		c7.5-7.7,18.1-11.6,31.8-11.6c16.9,0,28.9,6.1,36.1,18.4c4.1,6.9,6.1,14.9,6.1,24L498.8,97.4z M473.2,81.7
		c-1.9-8.6-7.2-12.9-15.6-12.9c-4.7,0-8.5,1.4-11.4,4.1c-2.3,2.2-3.7,5.1-4.3,8.8L473.2,81.7z"/>
</g>
</svg>
