<?xml version="1.0" encoding="utf-8"?>
<!-- Generator: Adobe Illustrator 28.6.0, SVG Export Plug-In . SVG Version: 9.03 Build 54939)  -->
<svg version="1.1" baseProfile="tiny" id="Layer_1" xmlns="http://www.w3.org/2000/svg" xmlns:xlink="http://www.w3.org/1999/xlink"
	 x="0px" y="0px" viewBox="0 0 566.9 72.7" overflow="visible" xml:space="preserve">
<g>
	<path fill="#FFFFFF" d="M122.9,3.1c2.8-3.6,8.6-4.2,12-1.2c1.4,1.2,2.4,2.8,2.9,4.6c6.4,21.9,12.8,43.8,19.1,65.7
		c-3.8,0-7.5,0-11.3,0c-1.8-6-3.5-12.1-5.3-18.1c-7.3,0-14.5,0-21.8,0c-1.8,6-3.5,12.1-5.3,18.2c-3.7,0-7.5,0-11.2,0
		c6.1-20.9,12.1-41.8,18.2-62.7C121,7.4,121.3,4.9,122.9,3.1 M129.5,16.6c-2.7,9.1-5.3,18.2-7.9,27.3c5.3,0,10.6,0,15.8,0
		C134.8,34.7,132.2,25.7,129.5,16.6L129.5,16.6z"/>
	<path fill="#FFFFFF" d="M202.1,3.6c2-2.8,5.7-4.2,9.1-3.3c3.1,0.7,5.4,3.3,6.2,6.3c6.4,21.9,12.7,43.8,19.1,65.7
		c-3.8,0-7.5,0-11.3,0c-1.8-6-3.5-12.1-5.2-18.2c-7.3,0-14.5,0-21.8,0c-1.7,6.1-3.5,12.1-5.3,18.1c-3.7,0-7.5,0-11.2,0
		c6-21,12.2-42,18.3-63C200.6,7.3,200.8,5.2,202.1,3.6 M201.2,43.8c5.3,0,10.5,0,15.8,0c-2.6-9.1-5.3-18.2-7.9-27.3
		C206.4,25.6,203.8,34.7,201.2,43.8L201.2,43.8z"/>
	<path fill="#FFFFFF" d="M148.5,0.2h40.8v11c-5,0-10,0-15,0c0,20.4,0,40.7,0,61.1h-10.8c0-20.4,0-40.7,0-61.1c-5,0-10,0-15,0
		C148.5,7.5,148.5,3.8,148.5,0.2L148.5,0.2z"/>
	<path fill="#FFFFFF" d="M248.4,0.6c1-0.4,2.1-0.5,3.2-0.5c4.3,0,8.6,0,12.9,0c7.2,0.1,14.1,4.6,17.2,11.1c2.2,4.2,2.4,9.1,1.8,13.8
		c-0.4,4.8-2.4,9.7-6.1,12.9c-2,1.8-4.4,2.8-6.5,4.4c-1.2,0.9-1.2,2.6-0.6,3.8c5.7,8.8,11.6,17.4,17.4,26.1c-4.2,0-8.5,0-12.7,0
		c-5.6-8.4-11.1-16.8-16.6-25.1c-1.6-2.4-2.1-5.5-1.1-8.3c0.8-2.1,2.6-3.6,4.6-4.4c3.9-1.5,7.7-3.8,9.8-7.5c1.6-2.7,1.5-6.1,0.8-9.1
		c-0.9-3.9-4.7-7-8.7-6.8c-2.8,0-5.6,0-8.3,0c-1.3,0-2.4,1.1-2.4,2.3c0,19.6,0,39.2,0,58.8c-3.6,0-7.2,0-10.8,0
		c0-21.1,0-42.2,0-63.4C242.3,5.2,244.9,1.7,248.4,0.6L248.4,0.6z"/>
	<path fill="#FFFFFF" d="M293.4,0.2h11.4c0,24,0,48.1,0,72.1c-3.8,0-7.6,0-11.4,0C293.4,48.2,293.4,24.2,293.4,0.2L293.4,0.2z"/>
	<path fill="#FFFFFF" d="M32.2,0c1.8,0,3.7,0,5.5,0c0,4.3,0,8.6,0,12.9c0,3.6-0.1,7.2-0.2,10.7C37.2,28.8,36.8,34,36,39.1
		c-0.6,3.5-1.8,6.9-3.3,10.1c-2.5,5.2-6.3,9.6-10.7,13.3c-3.9,3.4-8.6,5.9-13.4,7.6c-2.8,1-5.6,1.7-8.5,2.1c0-3.6,0-7.2,0-10.8
		c3.5-0.5,6.8-1.8,10-3.4c3.7-2,7-4.6,9.8-7.7c2.9-3.2,5.2-6.9,7-10.8c2.1-4.5,3.2-9.4,3.9-14.3C31.6,19,32,12.7,32.1,6.4
		C32.2,4.3,32.1,2.1,32.2,0z"/>
	<path fill="#FFFFFF" d="M39.8,0c3.4,0,6.7,0,10.1,0c0,24.1,0,48.2,0,72.3c-3.4,0-6.7,0-10.1,0c0-7.7,0-15.4,0-23
		C39.8,32.8,39.8,16.4,39.8,0z"/>
	<path fill="#FFFFFF" d="M52.2,0c1.8,0,3.6,0,5.4,0c-0.1,7.3,0.2,14.7,1.1,22c0.7,5.7,1.7,11.4,4,16.7c2.1,5.1,5.2,9.9,9.2,13.7
		c3.8,3.7,8.5,6.5,13.5,8.1c1.4,0.5,2.9,0.8,4.3,1c0,3.6,0,7.2,0,10.8c-2.9-0.4-5.7-1.1-8.5-2.1C78,69,74.9,67.6,72,65.7
		c-2.1-1.4-4.1-3-5.9-4.7c-3.1-2.8-5.8-6-7.8-9.6c-1.6-2.8-2.8-5.9-3.7-9c-0.8-3.1-1.2-6.4-1.5-9.6c-0.6-7-0.9-13.9-0.8-20.9
		C52.2,7.9,52.2,3.9,52.2,0z"/>
	<path fill="#FFFFFF" d="M32.2,0c0,2.1,0,4.3,0,6.4C32,12.7,31.6,19,30.7,25.2c-0.8,4.9-1.9,9.8-3.9,14.3c-1.8,3.9-4.1,7.6-7,10.8
		c-2.8,3.1-6.1,5.7-9.8,7.7c-3.1,1.6-6.5,2.9-10,3.4c0,3.6,0,7.2,0,10.8c2.9-0.4,5.8-1.1,8.5-2.1c4.9-1.7,9.5-4.2,13.4-7.6
		c4.4-3.7,8.2-8.1,10.7-13.3c1.5-3.2,2.7-6.6,3.3-10.1c0.9-5.1,1.2-10.3,1.4-15.5c0.1-3.6,0.2-7.2,0.2-10.7c0-4.3,0-8.6,0-12.9
		C35.8,0,34,0,32.2,0"/>
	<path fill="#FFFFFF" d="M39.8,0c0,16.4,0,32.8,0,49.2c0,7.7,0,15.4,0,23c3.4,0,6.7,0,10.1,0c0-24.1,0-48.2,0-72.3
		C46.6,0,43.2,0,39.8,0"/>
	<path fill="#FFFFFF" d="M52.2,0c0,3.9,0,7.9,0,11.8c0,7,0.2,14,0.8,20.9c0.3,3.2,0.7,6.4,1.5,9.6c0.9,3.1,2.1,6.2,3.7,9
		c2.1,3.6,4.8,6.8,7.8,9.6c1.9,1.7,3.8,3.3,5.9,4.7c2.9,1.9,6.1,3.4,9.3,4.5c2.7,0.9,5.6,1.7,8.5,2.1c0-3.6,0-7.2,0-10.8
		c-1.5-0.2-2.9-0.6-4.3-1c-5.1-1.6-9.7-4.4-13.5-8.1c-4-3.8-7.1-8.6-9.2-13.7c-2.3-5.3-3.3-11-4-16.7c-0.9-7.3-1.1-14.7-1.1-22
		C55.8,0,54,0,52.2,0"/>
	<path fill="#FFFFFF" d="M437.9,34.5c5.3-3.1,8.6-8.4,8.6-14.2c0-13.8-14.6-20.1-28.1-20.1c-13.6,0-28.1,6.3-28.1,20.1
		c0,5.9,3.3,11.1,8.6,14.2C391.2,38,387,43.9,387,51.3c0,13.9,15.7,21.2,31.3,21.2s31.3-7.3,31.3-21.2
		C449.6,43.9,445.4,38,437.9,34.5L437.9,34.5z M418.3,25.7c-3.5,0-6.3-2.2-6.3-5s2.8-5,6.3-5c3.5,0,6.3,2.2,6.3,5
		S421.8,25.7,418.3,25.7L418.3,25.7z M418.3,43.5c3.8,0,7,2.6,7,5.7c0,3.1-3.1,5.6-7,5.6c-3.9,0-7-2.5-7-5.6
		C411.3,46,414.5,43.5,418.3,43.5L418.3,43.5z"/>
	<path fill="#FFFFFF" d="M498.2,11.9C492.5,4.2,484,0.2,473.7,0.2c-10.3,0-18.8,4.1-24.5,11.8c-4.9,6.5-7.5,15.2-7.5,24.5
		c0,18.1,9.9,36.3,32.1,36.3s32.1-18.2,32.1-36.3C505.8,27.1,503.1,18.4,498.2,11.9L498.2,11.9z M473.7,51.2c-7.7,0-8.6-10-8.6-14.9
		c0-4.8,0.8-14.7,8.6-14.7c7.7,0,8.6,9.9,8.6,14.7C482.3,41.2,481.4,51.2,473.7,51.2L473.7,51.2z"/>
	<path fill="#FFFFFF" d="M559.4,11.9c-5.8-7.7-14.3-11.8-24.5-11.8s-18.8,4.1-24.5,11.8c-4.9,6.5-7.5,15.2-7.5,24.5
		c0,18.1,9.9,36.3,32.1,36.3s32.1-18.2,32.1-36.3C566.9,27.1,564.3,18.4,559.4,11.9L559.4,11.9z M534.9,51.2c-7.7,0-8.6-10-8.6-14.9
		c0-4.8,0.8-14.7,8.6-14.7s8.6,9.9,8.6,14.7C543.4,41.2,542.6,51.2,534.9,51.2L534.9,51.2z"/>
	<path fill="#FFFFFF" d="M336.5,1.2v22h30.1l-22.5,49.2h25.5l30.2-71.2L336.5,1.2z"/>
</g>
</svg>
