<?xml version="1.0" encoding="utf-8"?>
<!-- Generator: Adobe Illustrator 28.6.0, SVG Export Plug-In . SVG Version: 9.03 Build 54939)  -->
<svg version="1.1" baseProfile="tiny" id="Layer_1" xmlns="http://www.w3.org/2000/svg" xmlns:xlink="http://www.w3.org/1999/xlink"
	 x="0px" y="0px" viewBox="0 0 566.9 92.9" overflow="visible" xml:space="preserve">
<g>
	<g>
		<path fill="#FFFFFF" d="M162.7,4.8c3.6-4.6,11-5.4,15.4-1.5c1.8,1.5,3,3.6,3.7,5.8c8.1,27.9,16.3,55.8,24.4,83.8
			c-4.8,0-9.6,0-14.4,0c-2.3-7.7-4.5-15.4-6.7-23.1c-9.3,0-18.5,0-27.8,0c-2.3,7.7-4.5,15.4-6.7,23.1c-4.8,0-9.5,0-14.3,0
			c7.7-26.6,15.4-53.3,23.2-79.9C160.4,10.2,160.7,7.1,162.7,4.8 M171.2,21.9c-3.4,11.6-6.7,23.2-10.1,34.7c6.7,0,13.5,0,20.2,0
			C177.9,45.1,174.6,33.5,171.2,21.9z"/>
		<path fill="#FFFFFF" d="M263.6,5.4c2.5-3.6,7.3-5.4,11.6-4.3c3.9,0.9,6.9,4.2,7.9,8c8.1,27.9,16.2,55.8,24.3,83.7
			c-4.8,0-9.6,0-14.4,0c-2.2-7.7-4.4-15.4-6.7-23.1c-9.2,0-18.5,0-27.7,0c-2.2,7.7-4.5,15.4-6.7,23.1c-4.8,0-9.5,0-14.3,0
			c7.7-26.8,15.5-53.5,23.3-80.3C261.7,10.2,262,7.5,263.6,5.4 M262.4,56.7c6.7,0,13.4,0,20.1,0c-3.3-11.6-6.7-23.2-10-34.8
			C269.2,33.5,265.8,45.1,262.4,56.7L262.4,56.7z"/>
		<path fill="#FFFFFF" d="M195.4,1h52v14c-6.4,0-12.8,0-19.1,0c0,26,0,51.9,0,77.9c-4.6,0-9.1,0-13.7,0c0-26,0-51.9,0-77.9
			c-6.4,0-12.8,0-19.1,0C195.4,10.4,195.4,5.7,195.4,1z"/>
		<path fill="#FFFFFF" d="M322.7,1.6c1.3-0.5,2.7-0.6,4.1-0.6c5.5,0,10.9,0,16.4,0c9.2,0.2,18,5.9,22,14.2c2.8,5.4,3,11.6,2.3,17.5
			c-0.5,6.2-3.1,12.3-7.8,16.4c-2.5,2.2-5.6,3.6-8.3,5.6c-1.5,1.1-1.5,3.3-0.8,4.9c7.2,11.2,14.8,22.2,22.2,33.3
			c-5.4,0-10.8,0-16.2,0c-7.1-10.6-14.1-21.3-21.2-32c-2.1-3-2.6-7.1-1.4-10.5c1-2.7,3.3-4.6,5.9-5.6c4.9-1.9,9.8-4.8,12.5-9.5
			c2.1-3.5,2-7.8,1-11.6c-1.1-5-5.9-8.9-11.1-8.7c-3.5,0-7.1,0-10.6,0c-1.6,0-3.1,1.4-3.1,3c0,25,0,50,0,75c-4.6,0-9.2,0-13.8,0
			c0-26.9,0-53.8,0-80.7C314.8,7.5,318.2,3,322.7,1.6L322.7,1.6z"/>
		<path fill="#FFFFFF" d="M380,1h14.5c0,30.6,0,61.3,0,91.9c-4.8,0-9.7,0-14.5,0C380,62.3,380,31.7,380,1L380,1z"/>
	</g>
	<g>
		<path fill="#FFFFFF" d="M41,0.9c2.3,0,4.7,0,7,0c0,5.5,0,10.9,0,16.4c0,4.6-0.1,9.1-0.3,13.7c-0.3,6.6-0.7,13.2-1.8,19.7
			c-0.8,4.5-2.3,8.8-4.2,12.9c-3.1,6.6-8.1,12.2-13.6,16.9c-5,4.4-10.9,7.6-17.1,9.7C7.3,91.5,3.7,92.4,0,92.9c0-4.6,0-9.2,0-13.8
			c4.4-0.7,8.7-2.2,12.7-4.3c4.7-2.5,9-5.8,12.5-9.8c3.7-4.1,6.6-8.8,8.9-13.8c2.6-5.8,4-12,5-18.2c1.2-7.9,1.7-16,1.9-24
			C41,6.3,41,3.6,41,0.9z"/>
		<path fill="#FFFFFF" d="M50.8,0.9c4.3,0,8.6,0,12.8,0c0,30.7,0,61.4,0,92c-4.3,0-8.5,0-12.8,0c-0.1-9.8,0-19.6,0-29.4
			C50.8,42.7,50.8,21.8,50.8,0.9z"/>
		<path fill="#FFFFFF" d="M66.5,0.9c2.3,0,4.6,0,6.9,0c-0.1,9.4,0.2,18.7,1.4,28c0.9,7.2,2.2,14.5,5.1,21.2
			c2.7,6.5,6.7,12.6,11.8,17.4c4.9,4.7,10.8,8.2,17.3,10.3c1.8,0.6,3.6,1,5.5,1.3c0,4.6,0,9.2,0,13.8c-3.7-0.5-7.3-1.4-10.8-2.6
			c-4.2-1.4-8.2-3.3-11.9-5.7c-2.7-1.7-5.2-3.8-7.5-6c-3.9-3.6-7.4-7.7-10-12.3c-2-3.6-3.5-7.5-4.7-11.4c-1.1-4-1.5-8.1-1.9-12.2
			c-0.8-8.9-1.1-17.8-1.1-26.6C66.5,10.9,66.5,5.9,66.5,0.9L66.5,0.9z"/>
		<path fill="#FFFFFF" d="M50.8,0.9c0,20.9,0,41.8,0,62.7c0,9.8,0,19.6,0,29.4c4.3,0,8.5,0,12.8,0c0-30.7,0-61.4,0-92
			C59.3,0.9,55,0.8,50.8,0.9"/>
		<path fill="#FFFFFF" d="M66.5,0.9c0,5,0,10.1,0,15.1c-0.1,8.9,0.2,17.8,1.1,26.6c0.4,4.1,0.9,8.2,1.9,12.2c1.2,4,2.7,7.9,4.7,11.4
			c2.6,4.6,6.1,8.7,10,12.3c2.4,2.2,4.8,4.3,7.5,6c3.7,2.4,7.7,4.3,11.9,5.7c3.5,1.2,7.1,2.1,10.8,2.6c0-4.6,0-9.2,0-13.8
			c-1.9-0.3-3.7-0.7-5.5-1.3c-6.4-2.1-12.4-5.6-17.3-10.3c-5.1-4.9-9-10.9-11.8-17.4c-2.9-6.7-4.2-14-5.1-21.2
			c-1.1-9.3-1.4-18.7-1.4-28C71.1,0.9,68.8,0.9,66.5,0.9"/>
	</g>
	<g>
		<path fill="#FFFFFF" d="M432.9,59.2l1.7,1.3c5.9,4.5,12.9,8.2,20.4,8.2c3.2,0,8.4-1.3,8.4-5.4c0-4.1-4.3-4.4-7.3-5l-6.6-1.2
			c-12.8-2.3-23.5-9.8-23.5-23.9C426,11.9,445.5,0,465,0c10.3,0,19.7,2.5,28.5,7.9l-8.8,23.1c-5.6-3.8-11.9-6.8-19-6.8
			c-2.9,0-7,1.1-7,4.8c0,3.3,4.1,3.8,6.6,4.4l7.4,1.7c13.9,3.1,23.9,10.5,23.9,25.8c0,21.5-19.6,32.1-39.1,32.1
			c-11.4,0-24.5-3.1-34.6-8.2L432.9,59.2z"/>
		<path fill="#FFFFFF" d="M498.1,1.4h68.8v25.3l-18,0.1v64.7h-32.7V26.8l-18,0V1.4z"/>
	</g>
</g>
</svg>
