<?xml version="1.0" encoding="utf-8"?>
<!-- Generator: Adobe Illustrator 28.6.0, SVG Export Plug-In . SVG Version: 9.03 Build 54939)  -->
<svg version="1.1" baseProfile="tiny" id="Layer_1" xmlns="http://www.w3.org/2000/svg" xmlns:xlink="http://www.w3.org/1999/xlink"
	 x="0px" y="0px" viewBox="0 0 566.9 104.5" overflow="visible" xml:space="preserve">
<g>
	<path fill="#FFFFFF" d="M432.6,69l-48.5,17.6h48.8l18.6-10.2L432.6,69z"/>
	<path fill="#FFFFFF" d="M387.3,18.2h57.6l76.7,38.9h-30.1l-21.1-9.7l-13,5.3L387.3,18.2z"/>
	<path fill="#FFFFFF" d="M494.6,36l48.5-17.6h-48.8l-18.5,10.2L494.6,36z"/>
	<path fill="#FFFFFF" d="M539.9,86.8h-57.6l-76.7-38.9h30.1l21.1,9.7l13-5.3L539.9,86.8z"/>
	<path fill="#FFFFFF" d="M23.8,17.7H62v46.7H23.8L23.8,17.7z"/>
	<path fill="#FFFFFF" d="M23.8,70.1h97.8v14.3H23.8L23.8,70.1z"/>
	<path fill="#FFFFFF" d="M85.9,17.7h45.3l31,26.2l-22.4,16.4L85.9,17.7z"/>
	<path fill="#FFFFFF" d="M143.1,63v21.4h35.8V63l69.2-45.2h-33.4L145.5,63H143.1z"/>
	<path fill="#FFFFFF" d="M252.9,24.9l38.2,23.8v35.7h-38.2L252.9,24.9z"/>
	<path fill="#FFFFFF" d="M257.7,17.7l97.8,66.6H377V17.7h-18.6v46.9l-69.7-46.9L257.7,17.7z"/>
</g>
</svg>
