<?xml version="1.0" encoding="utf-8"?>
<!-- Generator: Adobe Illustrator 28.6.0, SVG Export Plug-In . SVG Version: 9.03 Build 54939)  -->
<svg version="1.1" baseProfile="tiny" id="Layer_1" xmlns="http://www.w3.org/2000/svg" xmlns:xlink="http://www.w3.org/1999/xlink"
	 x="0px" y="0px" viewBox="0 0 566.9 79.2" overflow="visible" xml:space="preserve">
<g>
	<g>
		<g>
			<path fill="#FFFFFF" d="M123.4,3.4c3.1-3.9,9.4-4.6,13.2-1.3c1.5,1.3,2.6,3.1,3.2,5c7,24,14,48,21,72.1c-4.1,0-8.2,0-12.4,0
				c-1.9-6.6-3.8-13.3-5.8-19.9c-8,0-15.9,0-23.9,0c-2,6.6-3.9,13.3-5.8,19.9c-4.1,0-8.2,0-12.3,0c6.6-22.9,13.3-45.8,19.9-68.7
				C121.4,8.1,121.7,5.4,123.4,3.4 M130.7,18.2c-2.9,10-5.8,19.9-8.7,29.9c5.8,0,11.6,0,17.4,0C136.5,38.1,133.6,28.1,130.7,18.2
				L130.7,18.2z"/>
			<path fill="#FFFFFF" d="M210.2,4c2.1-3.1,6.3-4.6,10-3.7c3.3,0.8,5.9,3.7,6.8,6.9c7,24,14,48,20.9,72c-4.1,0-8.2,0-12.4,0
				c-1.9-6.6-3.8-13.3-5.7-19.9c-8,0-15.9,0-23.9,0c-1.9,6.6-3.9,13.3-5.8,19.9c-4.1,0-8.2,0-12.3,0c6.6-23,13.3-46.1,20-69.1
				C208.6,8,208.9,5.7,210.2,4 M209.2,48c5.8,0,11.5,0,17.3,0c-2.9-10-5.8-20-8.6-29.9C215,28.1,212.1,38.1,209.2,48L209.2,48z"/>
			<path fill="#FFFFFF" d="M151.6,0.2h44.7v12.1c-5.5,0-11,0-16.5,0c0,22.3,0,44.7,0,67H168c0-22.3,0-44.7,0-67c-5.5,0-11,0-16.5,0
				C151.6,12.2,151.6,0.2,151.6,0.2z"/>
			<path fill="#FFFFFF" d="M261,0.7c1.1-0.4,2.3-0.5,3.5-0.5c4.7,0,9.4,0,14.1,0c7.9,0.1,15.5,5.1,18.9,12.2c2.4,4.6,2.6,10,2,15.1
				c-0.4,5.3-2.6,10.6-6.7,14.1c-2.2,1.9-4.8,3.1-7.2,4.8c-1.3,1-1.3,2.8-0.7,4.2c6.2,9.6,12.7,19.1,19.1,28.7c-4.7,0-9.3,0-14,0
				c-6.1-9.2-12.1-18.4-18.2-27.5c-1.8-2.6-2.3-6.1-1.2-9c0.8-2.3,2.8-4,5.1-4.8c4.2-1.6,8.4-4.2,10.8-8.2c1.8-3,1.7-6.7,0.9-10
				c-0.9-4.3-5.1-7.6-9.5-7.5c-3,0-6.1,0-9.1,0c-1.4,0-2.7,1.2-2.7,2.6c0,21.5,0,43,0,64.5c-4,0-7.9,0-11.9,0c0-23.1,0-46.3,0-69.4
				C254.3,5.7,257.2,1.9,261,0.7L261,0.7z"/>
			<path fill="#FFFFFF" d="M310.3,0.2h12.5c0,26.3,0,52.7,0,79c-4.2,0-8.3,0-12.5,0C310.3,79.2,310.3,0.2,310.3,0.2z"/>
		</g>
		<path fill="#FFFFFF" d="M527.3,79.2c-21.8,0-39.6-17.8-39.6-39.6c0-21.8,17.8-39.6,39.6-39.6c21.8,0,39.6,17.8,39.6,39.6
			C566.9,61.4,549.2,79.2,527.3,79.2L527.3,79.2z M527.3,2.9c-20.2,0-36.7,16.5-36.7,36.7c0,20.2,16.5,36.7,36.7,36.7
			c20.2,0,36.7-16.5,36.7-36.7C564,19.4,547.6,2.9,527.3,2.9L527.3,2.9z M527.3,66.6c-14.9,0-27-12.1-27-27c0-14.9,12.1-27,27-27
			s27,12.1,27,27C554.3,54.5,542.2,66.6,527.3,66.6L527.3,66.6z M527.3,15.5c-13.3,0-24.1,10.8-24.1,24.1
			c0,13.3,10.8,24.1,24.1,24.1c13.3,0,24.1-10.8,24.1-24.1C551.4,26.3,540.6,15.5,527.3,15.5L527.3,15.5z"/>
		<path fill="#FFFFFF" d="M446.3,79.2c-21.8,0-39.6-17.8-39.6-39.6c0-21.8,17.8-39.6,39.6-39.6c21.8,0,39.6,17.8,39.6,39.6
			C485.9,61.4,468.1,79.2,446.3,79.2L446.3,79.2z M446.3,2.9c-20.2,0-36.7,16.5-36.7,36.7c0,20.2,16.5,36.7,36.7,36.7
			S483,59.8,483,39.6C483,19.4,466.5,2.9,446.3,2.9L446.3,2.9z M446.3,66.6c-14.9,0-27-12.1-27-27c0-14.9,12.1-27,27-27
			c14.9,0,27,12.1,27,27C473.2,54.5,461.1,66.6,446.3,66.6L446.3,66.6z M446.3,15.5c-13.3,0-24.1,10.8-24.1,24.1
			c0,13.3,10.8,24.1,24.1,24.1s24.1-10.8,24.1-24.1C470.3,26.3,459.5,15.5,446.3,15.5L446.3,15.5z"/>
		<path fill="#FFFFFF" d="M378.4,79.2c-15.3,0-27.7-12.4-27.7-27.7c0-9.2,4.6-17.8,12.2-23c-1.9-3-2.9-6.4-2.9-10
			c0-10.2,8.3-18.5,18.5-18.5s18.5,8.3,18.5,18.5c0,3.6-1,7-2.9,10c7.6,5.1,12.2,13.8,12.2,23C406.1,66.8,393.7,79.2,378.4,79.2
			L378.4,79.2z M378.4,2.9c-8.6,0-15.6,7-15.6,15.6c0,3.5,1.1,6.8,3.3,9.5l1,1.3l-1.4,0.8c-7.5,4.5-12.1,12.6-12.1,21.3
			c0,13.7,11.1,24.8,24.8,24.8c13.7,0,24.8-11.1,24.8-24.8c0-8.7-4.6-16.9-12.1-21.3l-1.4-0.8l1-1.3c2.1-2.8,3.3-6,3.3-9.5
			C394,9.9,387,2.9,378.4,2.9L378.4,2.9z M378.4,67.7c-8.9,0-16.2-7.3-16.2-16.2c0-8.9,7.3-16.2,16.2-16.2c8.9,0,16.2,7.3,16.2,16.2
			C394.6,60.4,387.4,67.7,378.4,67.7L378.4,67.7z M378.4,38.2c-7.3,0-13.3,6-13.3,13.3c0,7.3,6,13.3,13.3,13.3
			c7.3,0,13.3-6,13.3-13.3C391.7,44.1,385.7,38.2,378.4,38.2L378.4,38.2z M378.4,26.6c-4.5,0-8.2-3.7-8.2-8.2c0-4.5,3.7-8.2,8.2-8.2
			s8.2,3.7,8.2,8.2C386.6,23,382.9,26.6,378.4,26.6L378.4,26.6z M378.4,13.2c-2.9,0-5.2,2.4-5.2,5.2c0,2.9,2.4,5.2,5.2,5.2
			c2.9,0,5.2-2.4,5.2-5.2C383.6,15.6,381.3,13.2,378.4,13.2L378.4,13.2z"/>
	</g>
	<path fill="#FFFFFF" d="M0,70.5c0,4.8,3.9,8.8,8.8,8.8h61.7c4.8,0,8.8-3.9,8.8-8.8V8.8c0-4.8-3.9-8.8-8.8-8.8H8.8
		C3.9,0,0,3.9,0,8.8C0,8.8,0,70.5,0,70.5z"/>
	<path fill="#FFFFFF" d="M30.5,15c1.3,0,2.6,0,3.9,0c0,3.1,0,6.1,0,9.2c0,2.6-0.1,5.1-0.2,7.7c-0.2,3.7-0.4,7.4-1,11
		c-0.4,2.5-1.3,4.9-2.4,7.2c-1.8,3.7-4.5,6.9-7.6,9.5c-2.8,2.4-6.1,4.2-9.6,5.4c-2,0.7-4,1.2-6.1,1.5c0-2.6,0-5.1,0-7.7
		c2.5-0.4,4.9-1.3,7.1-2.4c2.6-1.4,5-3.3,7-5.5c2.1-2.3,3.7-4.9,5-7.7c1.5-3.2,2.3-6.7,2.8-10.2c0.7-4.4,1-8.9,1.1-13.4
		C30.5,18,30.5,16.5,30.5,15z"/>
	<path fill="#FFFFFF" d="M36,15c2.4,0,4.8,0,7.2,0c0,17.2,0,34.4,0,51.6c-2.4,0-4.8,0-7.2,0c0-5.5,0-11,0-16.4
		C36,38.4,36,26.7,36,15z"/>
	<path fill="#FFFFFF" d="M44.8,15c1.3,0,2.6,0,3.9,0c0,5.2,0.1,10.5,0.8,15.7c0.5,4,1.2,8.1,2.8,11.9c1.5,3.6,3.7,7,6.6,9.8
		c2.7,2.6,6.1,4.6,9.7,5.8c1,0.3,2,0.6,3.1,0.7c0,2.6,0,5.1,0,7.7c-2.1-0.3-4.1-0.8-6-1.5c-2.3-0.8-4.6-1.9-6.7-3.2
		c-1.5-1-2.9-2.1-4.2-3.4c-2.2-2-4.1-4.3-5.6-6.9c-1.1-2-2-4.2-2.6-6.4c-0.6-2.2-0.9-4.5-1.1-6.8c-0.5-5-0.6-9.9-0.6-14.9
		C44.8,20.6,44.8,17.8,44.8,15L44.8,15z"/>
	<path fill="#FFFFFF" d="M36,15c0,11.7,0,23.4,0,35.1c0,5.5,0,11,0,16.4c2.4,0,4.8,0,7.2,0c0-17.2,0-34.4,0-51.6
		C40.8,15,38.4,15,36,15"/>
	<path fill="#FFFFFF" d="M44.8,15c0,2.8,0,5.6,0,8.5c0,5,0.1,10,0.6,14.9c0.2,2.3,0.5,4.6,1.1,6.8c0.7,2.2,1.5,4.4,2.6,6.4
		c1.5,2.6,3.4,4.9,5.6,6.9c1.3,1.2,2.7,2.4,4.2,3.4c2.1,1.4,4.3,2.4,6.7,3.2c2,0.7,4,1.2,6,1.5c0-2.6,0-5.1,0-7.7
		c-1-0.2-2.1-0.4-3.1-0.7C65,57,61.6,55,58.9,52.3c-2.9-2.7-5.1-6.1-6.6-9.8c-1.6-3.8-2.3-7.8-2.8-11.9c-0.6-5.2-0.8-10.5-0.8-15.7
		C47.4,15,46.1,15,44.8,15"/>
</g>
</svg>
