<?xml version="1.0" encoding="utf-8"?>
<!-- Generator: Adobe Illustrator 28.6.0, SVG Export Plug-In . SVG Version: 9.03 Build 54939)  -->
<svg version="1.1" baseProfile="tiny" id="Layer_1" xmlns="http://www.w3.org/2000/svg" xmlns:xlink="http://www.w3.org/1999/xlink"
	 x="0px" y="0px" viewBox="0 0 566.9 197.1" overflow="visible" xml:space="preserve">
<g>
	<path fill="#FFFFFF" d="M88.7,89.4c2.7-8.1,5.1-16.2,7.7-24.4c0.6-2,1.2-4,1.8-6c0.1-0.4,2.3-8.2,3.1-11.7c1-4.2,2.1-8.4,2.6-12.6
		c0.3-2.6,1.5-4,3.7-4.7c1.3-0.4,2.1-1.1,3.4-1.2c1.1-0.1,1.9-0.4,2.4-1.4c0.4-0.9,1.6-1.4,2.2-2.2c0.4-0.6,1-1.3,1.6-1.5
		c1.8-0.6,3.8-0.7,5.6-1.3c2.3-0.8,4.9-1.3,6.6-2.8c1.7-1.6,3.3-2.4,5.5-2.6c2-0.2,3.8-0.9,4.4-3.1c0.4-1.3,1.4-1.9,2.4-2.6
		c0.9-0.2,1.4-0.6,1.6-1.7c0.1-1.1-4.1-0.5-4.4-0.8c-1.3-1.3-1.2-1.6,0.5-2.2c1.1-0.4,2.3-0.5,3.5-0.8c0.7-0.2,1.4-0.3,2.1-0.5
		c1.7-0.2,3.3-0.5,5-0.6c2.9-0.3,5.8-0.6,8.7-1c0.7-0.1,1.4-0.3,2-0.7c0.5-0.3,1.2-1.5,1.2-2.1S160.9,0,160.4,0
		c-2.3,0.1-4.6,0.2-6.9,0.6c-3.6,0.5-7.1,1.1-10.7,1.8c-3,0.5-5.9,1.2-8.8,1.8c-0.4,0-5.7,1.3-6.1,1.4c-1.1,0.3-2.3,0.5-3.4,0.8
		l-0.3,0c-1.1,0.2-2.2,0.4-3.3,0.6c-3.5,0.7-6.9,1.5-10.4,2.1c-1.9,0.4-3.8,0.8-5.7,1.2c-2.7,0.6-5.3,1.1-8,1.6
		c-5.9,1.2-11.9,2.2-17.8,3.3c-0.6,0-21.1,3.7-32,4c-2.5,0.1-5.1,0-7.6,0c-0.9,0-1.6,0.1-1.9,1.1c-0.4,1.3-0.1,1.7,1.4,2.3
		c0.7,0.3,1.2,0.8,1.8,1.3c-0.7,0.5-1.4,1.1-2.1,1.4c-0.5,0.2-1.2,0-1.8,0.1c-0.5,0.1-1,0.2-1.4,0.5c-1.6,1.2-1.1,2.7,1.2,3.7
		c3.1,1.4,3.3,2.1,1.4,4.9C37.8,34.8,37,35,37,35.3c0,0.3,0.7,0.6,1.1,0.8c0.3,0.1,0.8-0.1,1.1-0.2c0.5,0.6,1.2,1.1,1.5,1.7
		c0.6,1.4,1.5,2,3.1,1.8c4.3-0.3,8.7-0.3,13-0.9c4.5-0.6,8.8-2.1,13.3-2.5c3.7-0.3,7.4-1,11.1-1.6c1-0.1,1.6,0.2,1.5,1.3
		c0,1.4,0.1,2.9-0.2,4.2c-0.3,1.3-1,5.7-1.7,8.8c-0.9,4.1-2.3,8.7-2.3,9c-0.4,1.4-0.8,2.8-1.2,4.2c-1.4,4.3-4.6,15.1-4.9,16.1
		C71.2,83,66,95.7,65.2,97.3c-1.7,3.8-3.5,7.5-5.6,11.1c-2.1,3.5-4.6,6.8-6.9,10.1c-1.8,2.6-6.4,7.1-6.4,7.2
		c-6.8,7.8-14.6,9.4-14.7,9.5c-5.1,1.8-9.9,1.7-14.9-0.8c-2.2-1.1-4.6-2.1-6.6-3.7c-2.1-1.6-4.3-3.7-6.2-5.4c-0.6-0.5-1-1.2-1.8-1.7
		c-1.2-0.6-2-0.1-2,1.3c0,0.6,0,1.3,0.3,1.8c2.2,3.7,4.6,7.2,8.3,9.5c3.6,2.3,9,4.8,12.5,6.3c3.6,1.4,6.4,2.4,9.2,3
		c2.8,0.6,7.4,1.4,11.3,0.2c3.9-1.2,8.2-2.9,14.3-7.9c6-4.9,18.1-18.7,22.8-27.3c2-3.7,3.8-7.5,5.6-11.3
		C85.9,95.9,87.6,92.8,88.7,89.4L88.7,89.4z"/>
	<path fill="#FFFFFF" d="M268.6,99.1L268.6,99.1L268.6,99.1L268.6,99.1z"/>
	<path fill="#FFFFFF" d="M164.4,26.5l-1.8-0.5l-0.1,0c-0.1-1.7-0.2-3.4-0.4-5.1c-0.1-0.9,0.2-2.2-1.3-2.4l0,0c-1-0.8-3-0.2-3-0.2
		s-2.1,0.4-2.5,1.5c-1.3,0.2-2.6,0.5-3.9,0.5c-4.4,0-4.4,0-6,4.1c-0.2,0.5-0.6,0.9-0.9,1.4c-0.4-0.4-1-0.8-1-1.3
		c-0.3-1.6-1.3-1.9-2.7-1.8c-1.3,0.1-1.3,1.1-1.6,2.1c-0.7,2.5-1.3,5.1-3.6,6.8c-2.7,2-3.8,4.9-4.6,7.9c-0.7,2.3-0.9,4.8-3.1,6.3
		c-0.3,0.2-0.6,1.7-0.5,1.9c-1.9,2.5-7.7,11.1-8.5,12.8c-0.9,1.9-2,3.7-2.5,5.7c-0.4,1.6-0.8,3-2,4.2c-2.2,1.2-1.7,3.4-1.9,5.4
		c-0.4,0.6-0.8,1.2-1.1,1.8c-0.3,0.4-0.6,0.8-0.8,1.2c-0.1,0.2-0.3,0.3-0.4,0.5c-0.4,0.4-0.4,1-1.1,1.3c-0.7,0.3-3.2,1.2-4.9,1.7
		c-2.5,0.7-3,1-3,2.4c0.1,1.8,1.5,1.9,2.8,2c1.1,0.1,1.4,0.8,1,1.7c-1.3,2.8-2.6,5.7-4.1,8.4c-3.4,6.5-10.5,20-10.6,20.3
		c-0.7,1.6-1.3,3.3-2,4.9l0,0.6c-0.3,0.4-0.5,0.7-0.8,1.1c-0.1,0.2-0.3,0.5-0.4,0.7c0,0.2-0.1,0.4-0.1,0.6c-0.7,1.3-1.8,2.6-2.1,4
		c-0.3,1.6-0.9,2.9-1.9,4c-2.1,2.3-1.3,4.9-0.8,7.4c0.2,0.8,0.9,0.9,1.4,0.4c0.8-0.9,1.4-1.9,1.9-3c0.6-1.2,0.9-2.4,1.5-3.6
		c0.2-0.3,0.8-0.6,1.2-0.6c0.3,0,0.7,0.8,0.6,1.1c-0.3,1.1-0.9,2.2-1.2,3.3c-0.1,0.3-0.1,0.9,0.2,1c0.3,0.1,0.8-0.2,1-0.4
		c0.7-1.5,1.4-3.1,2.1-4.7c1.3-2.7,2.6-5.4,3.9-8.1c0.1-0.3,0.7-0.6,0.9-0.5c0.3,0.1,0.5,0.6,0.6,0.9c0.1,0.3,0.1,0.6,0,0.9
		c-0.5,3.1-1.1,6.3-1.6,9.4c0,0.2,0.1,0.5,0.1,0.5c0.3,0,0.7,0,0.8-0.1c0.3-0.5,0.5-1,0.7-1.6c0.9-2.4,1.1-5.2,3.6-6.8
		c0.4-0.3,0.9-1,0.9-1.5c0-2.3,5.2-13.5,5.9-14.7l0,0c0.5-1.2,6.4-13.4,7.6-16.5c0.1-0.4,2-4.5,2.2-4.7c0.8-1.8,1.7-3.6,2.5-5.5
		c1.3-0.6,2.5-1.3,3.8-1.8c6.6-2.6,22.2-9,23-8.8c0,0.2,0,1.7,0,1.9c0,0.4,0,0.8,0,1.2c0,2.8-0.1,5.6,0,8.4c0,2.2,0.6,9.4,0.4,10.8
		c-0.3,2.1-0.3,4.1,0.6,6.2c0.9,1.9,1.3,4.1,0.7,6.2l0,0.1c0,0.8,0,1.6,0,2.5v0c0.1,1.5,0.1,3,1.3,4.2c0.8,0.8,1.5,1.1,2.2,0.1
		c0.5-0.7,0.8-0.6,1.3,0c1.4,1.5,2.1,3.1,1.7,5.3c-0.1,0.7,0.2,1.5,0.5,2.2c0.2,0.4,0.5,1.1,1.2,0.8c0.7-0.3,0.7-1,0.7-1.5
		c0.1-1,0-2,0.1-3c0.1-0.9,0.3-1.8,0.6-2.6c0.2-0.5,0.7-0.9,1.2-1.1c0.2-0.1,0.7,0.6,1,1c0.3,0.5,0.4,1.2,0.8,1.6
		c0.9,1.1,2.1,0.9,2.5-0.4c0.3-0.9,0.4-1.8,0.3-2.7c-0.1-3.7-0.4-7.5-0.4-11.2c0.1-7.5,0.3-15,0.5-22.5c0.2-7.4,0.3-14.8,0.5-22.2
		c0.1-2.2,0.5-4.4,0.5-6.6c0.1-7.2,0.7-14.3,1.9-21.4c0.3-2.1,0-4.1-1.2-6L164.4,26.5L164.4,26.5z M142.5,66.2
		c-1.2,0.5-2.5,0.8-3.7,1.3c-0.5,0.2-1.7,1-1.7,1s-0.5,0.6-0.6,0.8c-0.9,0.4-1.8,1.2-2.6,1.2c-2.2,0-3.7,0.9-4.8,2.7
		c-0.3,0.4-0.5,0.9-0.8,1.3c-0.3,0.2-0.8,0.4-1.1,0.3c-0.3-0.1-0.7-0.6-0.6-0.8c0.1-0.9,0.2-1.8,0.5-2.6c1.5-3.2,3-6.4,4.6-9.5
		c2.6-4.9,5.3-9.8,8-14.6c0.4-0.8,0.8-1.7,2-1.3c0.4,0.1,1.1-0.3,1.5-0.6c0.5-0.3,0.8-0.7,1.2-1c0.1,0.6,0.3,1.2,0.3,1.8
		c0,5.6-0.1,11.2,0,16.7C144.8,64.5,144.1,65.6,142.5,66.2L142.5,66.2z"/>
	<path fill="#FFFFFF" d="M279.9,21.7c-0.6-0.2-1.2-0.5-1.8-0.7c0-0.1,0-0.3-0.1-0.4c0,0,1.8-2.3,0.8-3.4c-0.3-0.2-1.9-0.8-2.1-1
		c-0.1-0.9-0.3-1.8-0.4-2.7c-0.2-1.4-1.1-1.8-2.3-1.5c-0.4,0.3-0.8,0.6-1.2,0.9l-0.2,0l-1.9-0.2c-1.4,0.4-0.8,1.1-2.2,1.6
		c-0.3,0.2-0.6,0.5-0.9,0.7c-0.9,0.8-1.6,1.3-2.8,2.9c-1.2,1.6-2.5,4.2-3.3,5.7c-0.8,1.5-4.1,10.1-4.2,10.2
		c-0.3,0.2-5.8,12.5-7.7,16.7c-1.4,3.2-3.3,7-4.7,10.9c-1.4,3.9-2.7,9.8-3,10.1c-0.1,0.3-0.2,0.5-0.3,0.8l-0.4,1.2
		c-0.1,0.4-0.1,0.8-0.2,1.2c-0.4,2.2-1,5.2-1.4,6.6c-0.4,1.4-1.3,2.9-1.8,4.4c-0.4,2.9-0.9,5.7-1.2,8.6c-0.3,2.2-0.3,4.4-0.4,6.6
		c0.1,0.8,0.2,1.6,0.3,2.4c0.4,1.4,0.5,2.1,1.2,4.3c0.7,2.2,3.7,4.2,3.7,4.2c3.6,2,9.6,2,12.3,0.1c2.7-1.9,4.6-3.1,5.7-4.1
		c1.2-1,7.1-5.7,9.9-8.8c2.8-3.1,3.8-4.6,4.7-5.4c0.4,1.4,0,2.7-0.9,3.8c-0.2,0.5-0.4,1.1-0.6,1.6c-0.1,2.5-0.4,5-0.4,7.5
		c0,3.3,1.3,10.3,4.8,11c3.5,0.6,4.1,0.6,6.1-0.4c1.6-0.8,3.4-1.2,5.2-1.6c1.3-0.3,1.7,0.3,1.2,1.5c-0.6,1.4-1.4,2.7-2.1,4
		c-3.1,5.2-6.1,10.5-9.2,15.7c-1.2,2.1-0.5,2.4,1.1,2.4c0.3,0-0.3,1.7-0.3,2.2c0.2,1.8,1,2.3,2.5,1.3c0.9-0.6,1.5-1.6,2.1-2.5
		c0.6-0.9,1-2,1.6-2.9c0.1-0.2,1-0.1,1.2,0.1c0.4,0.6-0.2,1.9,1.1,1.7c0.6-0.1,1.1-1,1.6-1.6c0.3-0.4,0.6-0.8,0.9-1.2
		c0.5-0.7,1.1-0.9,1.6,0c0.6,1,1.4,0.8,2,0.1c0.9-1.1,1.9-2.1,2.6-3.4c1.8-3.3,3.4-6.6,5.1-10c0.6-1.2,1.2-2.1,2.7-1.7
		c1.3,0.3,1.8-0.3,2.2-1.4c0.6-1.6,1.2-3.2,2-4.7c2.7-5,5.5-9.8,8.3-14.8c2.2-4,4.4-7.9,6.6-11.9c1.2-2.1,2.1-4.4,3.6-6.4
		c1.9-2.6,5.5-3.2,6.6-3c1.1,0.1,2.3-0.6,2.9-1.1c0.5-0.5,0.6-0.5,1.4-0.9c0.7-0.5,1.2-0.9,1.6-1.1c0.4-0.3,5.8-2.4,6.9-3.5
		c2.2-2.1,5.6-3.4,8.6-3.6c0.3,1.4,0.4,2.9,0.4,4.3c0,3.2,0,6.4-0.1,9.6c0,0.4,0,0.8-0.1,1.3c-0.8,2,0.1,3.9,0.6,5.8
		c0.3,0.9,0.5,2.1,0.2,2.9c-1.1,2.6-0.6,5.2-0.5,7.8c0,1,0.4,2.1,1.8,1.9c1.1-0.1,1.3,0.5,1.4,1.4c0.1,1.8,0.4,3.6,0.7,5.4
		c0.2,1.7,0.4,3.4,0.7,5.1c0.2,0.9,0.5,1.6,1.6,2c1.7,0.7,1.8,0.9,0.9,2.6c-0.5,1-1,1.8,0,2.7c1.6,1.5,1.7,3.1,0.5,4.9
		c-0.7,1.1-0.6,1.9,0.8,2.2c1.2,0.3,1.3,1.2,1.4,2.1c0.1,0.7,0,1.4-0.1,2.1c-0.1,1,0.2,1.6,1.3,1.6c0.9,0,1.2-0.6,1.2-1.4
		c0.2-4.4,0.4-8.9,0.7-13.3c0.1-1.9,0.9-6.4,1-6.7c0.2-1.9,0.7-6.4,0.8-6.8c0.2-4.9,0.6-17.3,0.9-21.9c0.3-4.6,1.7-26,1.8-29.3
		c-0.1-0.2,2.7-20.4,3.6-25c0.9-4.6,0.9-8.7,0.8-9.2s-2.1-1-3.2-1.2c-2.2-0.4-4.5-0.5-6.8-0.7c-1.5-0.2-1.2-2-1.3-2.3
		c-0.1-0.3-4.9-1.7-5.9-1.2c-1,0.5-1.2,5.1-1.4,7.2c-0.6,1-1.2,2-1.8,3.1c-0.4,0.4-0.9,0.8-1.3,1.2c-0.2,0.2-0.4,0.4-0.5,0.5
		c-1.2,0.7-2.4,1.5-3.5,2.2c-1.7,1.8-3.4,3.6-5,5.4c-0.1,0.1-1,1.2-1.2,1.5c-0.9,1.3-3.1,4-3.1,4.2c-0.3,0.5-0.7,0.9-1,1.4
		c0,0-0.8,0.3-0.9,0.5c-1.4,2.6-2.8,5.3-4.3,7.9c0,0-1,0.5-1.6,0.8c-0.5,0.4-0.9,0.7-1.4,1.1c-0.2,0.1-3.1,3.9-4.6,5.5
		c-0.3,0.3-0.9,1.5-0.9,1.7c-2.1,0.9-1.8,4.1-2.1,4.5c-0.3,0.4-1.7,1-2.1,1.7c-1.1,2-2.3,5.5-2.8,6.1c-0.5,0.6-1.2,1.3-1.7,1.7
		c-0.3,0.1-0.6,0.2-0.9,0.4c-1.3,0.1-2,1.9-2.1,2.2c-0.2,0.4-0.6,0.4-1,0.6c-0.2,0.2-0.5,0.3-0.7,0.5l0,0c-0.5,0.2-0.9,0.4-1.4,0.6
		c-2.9,1.8-5.9,3.5-8.8,5.3c-0.2,0.2-0.5,0.8-0.4,1c1,2,0.4,3.5-1.1,4.9c-0.1,0.1-0.2,0.5-0.2,0.5c0.2,0.2,0.6,0.4,0.8,0.3
		c1.2-0.4,2.5-0.9,3.7-1.3c0.4-0.1,1.3-0.2,1.4,0.1c0.2,0.4,0.3,1.1,0.1,1.6c-0.2,0.6-0.6,1-0.9,1.5c-1.2,1.8-4.2,5.7-4.4,6
		c-1.7,2.3-3.3,4.6-4.9,6.9c-1,1.3-2.1,2-3.6,0.9c-1.1-0.8-2.2-1.8-3.2-2.6c-0.1-0.6-0.1-1.2-0.2-1.9c0.4-2.4,0.6-4.7,1.7-7
		c1.6-3.2,2.5-6.7,3.7-10.1c1.3-3.7,2.6-7.4,3.8-11.1c0.6-1.9,1.3-3.8,1.9-5.7c2.1-4.3,4.3-8.5,6.4-12.8c1.1-2.3,2.1-4.6,3.1-6.9
		c0.2,0,0.2-0.2,0.2-0.3c1.9-3.6,3.9-7.2,5.6-11c0.6-1.4,0.5-3.2,0.3-4.7c-0.1-0.7-1.3-1.3-2.1-1.9c-0.8-0.6-0.8-1.2-0.2-2
		c1.1-1.8,1-2.8-0.2-4.3c-1-1.2-2.2-1.3-3.6-1.3c-1.7,0.1-3.3,0-5-0.4c-1.4-0.4-3.4-1-4.7,0.8l-0.1,0.1c-0.5,0.9-8,13.9-8.4,14.6
		l-2.1,3.3c-0.5,0.8,0.7,2.1,0.4,2.8c-0.3,0.7-0.9-0.3-2,0.7c-0.1,0-0.9,3-1.6,5.8c-0.1,0.2,0.9,0.5,0.8,0.7c-0.1,0.2-1.1,1-1.1,1.3
		c-0.5,2-1.1,3.7-1.7,5.8c-0.1,0.4,0.1,0.4,0,0.8c-0.1,0.4-0.5,0.1-0.6,0.4c-0.5,2-1,4.6-1.3,5.4c-0.1,0.2,0.2,0.5,0.1,0.7
		c-0.1,0.3-0.6,0.7-0.7,1c-1.4,4-2.7,8.1-4,12.2c-0.1,0.3-0.2,0.6-0.3,0.8c-1,1.3-2,2.7-3,4c-0.6,0.5-1.1,1-1.7,1.5
		c0,0.1,0,0.2,0,0.3c0-0.1,0-0.2,0-0.3c-0.4,0.5-0.9,1-1.3,1.5c-0.3,0.2-0.6,0.5-0.9,0.7c-0.2,0-0.3,0.2-0.4,0.4
		c-0.2,0.2-0.5,0.5-0.7,0.7c0,0,0,0,0-0.1c-0.7,0.7-1.4,1.4-2,2c0.2,0,0.3,0,0.5,0c-0.1,0-0.3,0-0.5,0c-0.3,0.2-0.6,0.5-0.8,0.7
		c-0.3,0.4-0.7,0.7-1,1.1c-0.2,0.1-1.1,0.9-1.5,1.2c-0.2,0.1-0.4,0.2-0.5,0.3c-4.5,3.4-9,6.8-13.5,10.2c-0.4,0.1-0.4,0.1-1.1,0.4
		c-0.7,0.2-2.8-0.1-2.8-1s0.7-5.9,1.5-8.9c1.6-6,3.7-11.6,6.5-17.1c1.1-2.1,2.2-5,3.1-6.4c0.9-1.4,2.8-3.9,3.5-5.3
		c0.7-1.4,1-3.9,1.9-5.7c1.7-3.2,3.5-6.3,5.5-9.4c1.3-2,2.3-3.9,2.6-6.4c0.2-1.6,0.8-3.3,1.2-3.8c0.4-0.6,1.3-1.4,1.5-1.7
		c1.2-2.4,2.4-4.9,3.5-7.3c0,0,2.4-3.9,3.4-6C282.4,22.8,282.3,22.8,279.9,21.7 M273.7,85.3C273.7,85.3,273.7,85.3,273.7,85.3
		C273.7,85.3,273.7,85.3,273.7,85.3z M292.5,37.4l0.1,0.1L292.5,37.4L292.5,37.4L292.5,37.4z M353.3,47.6c-0.6,1.6-1.1,3-1,4.6
		c0.1,0.8-0.2,1.6-0.4,2.4c-0.3,1-0.9,1.5-2,1.4c-2.9-0.3-4.9,1.3-6.8,3.3c-0.4,0.4-0.9,0.9-1.4,1.1c-1.1,0.4-2.3,0.7-3.4,1
		c0.2-1,0.4-2.1,0.8-3.1c0.6-1.4,1.2-2.8,2-4c3.3-4.5,6.6-8.9,10-13.3c1.5-1.9,1.2,0,1.9,0.1c0.2,0,0.7-0.9,0.9-0.9
		c0.2,0.1,0.3,0.3,0.4,0.5c0.1,0.2,0.2,0.4,0.2,0.6c0.1,0.5,0.2,1,0.2,1.5c-0.1,1.1-0.5,2-0.9,3C353.7,46.5,353.5,47,353.3,47.6
		L353.3,47.6z"/>
	<path fill="#FFFFFF" d="M427.1,79.6c0.9,0.3,3,0.9,4.6,1.2c1.9,0.5,3.6,1.3,4.9,2.8c1.7,1.9,3.6,3.8,5.4,5.7
		c0.4,0.4,0.9,0.9,1.1,1.4c1.5,3.5,3.5,6.5,7.4,7.8c0.8,0.3,1.5,1,2.2,1.6c0.5,0.4,1,1,1.5,1.3c2.4,1.5,4.8,3,7.1,4.5
		c1.6,1.1,3.2,2.5,4.7,3.7c0.2,0.2,0.4,0.3,0.6,0.5c1.4,1.2,2.8,2.5,4.2,3.7c8.4,8.4,16.4,17.1,26.8,23.1c0.8,0.5,1.6,1,2.4,1.5
		c0.6,0.3,1.1,0.7,1.7,1c0.5,0.4,0.9,0.7,1.4,1.1c2.4,1.8,4.9,3.6,7.2,5.5c3.9,3.2,7.8,6.5,11.7,9.7c1.2,1,12.3,8.5,13.6,9.4
		c0.1,0.1,3.4,1,0.8-1.2c-1.7-1.4-9.7-6.3-9.7-6.4c-2.3-2-5.2-3.6-7.5-5.6c-3-2.7-6-5.4-9-8.1c-3.6-3.2-6.6-7.1-11.1-9.3
		c-0.5-0.2-1-0.7-1.3-1.2c-2.1-3.8-5.5-6.4-8.7-9.2c-2.1-1.9-4.9-3.3-7.2-5c-3-2.3-5.8-4.7-8.7-7c-0.3-0.3-0.5-0.5-0.8-0.8
		c-1.3-1.2-2.6-2.4-3.9-3.5c-2.3-1.7-4.5-3.4-6.8-5c-1-0.7-2.1-1.2-3.1-1.9c-0.3-0.2-1.1-0.6-0.2-1c1.5-0.7,0.6-1.1-0.1-1.6
		c-4.1-3.1-8.1-6.3-11.5-10.2c-1.3-1.5-3.2-2.3-4.9-3.5c-0.6-0.4-1.2-0.8-1.6-1.3c-2.3-2.5-3.5-5.9-6.5-7.9
		c-0.3-0.2-0.5-0.7-0.6-1.1c-0.1-0.3,0-0.7,0-1.1c0.4,0,0.9-0.1,1.1,0.1c1.1,0.9,2,2,3.1,2.9c0.6,0.5,1.2,1.2,1.9,1.3
		c1.3,0.2,2.2,0.6,2.7,1.9c0.2,0.6,1.1,0.9,1.6,1.3c1.7,1.1,3.4,2.2,5,3.4c0.9,0.7,1.6,1.6,2.9,0.8c0.3-0.2,1,0.1,1.3,0.4
		c3.3,3.6,6.5,7.2,9.8,10.7c1.5,1.6,2.7,3.5,4.8,4.5c1.1,0.5,2.3,1.2,3.2,2.1c1.6,1.6,3,3.2,4.4,5c1.5,2,3.4,3.4,5.9,4
		c0.7,0.5,1.3,1,2,1.4c0.9,0.7,1.8,1.3,2.6,2c2.3,1.7,4.7,3.5,7,5.2c0.4,0.3,0.8,0.7,1.2,1c0.2,0.2,0.5,0.4,0.7,0.6
		c0.4,0.3,0.8,0.6,1.1,0.9c0.2,0.1,0.4,0.2,0.6,0.4c2.8,2.3,5.7,4.5,8.5,6.8c3.7,3.1,7.4,6.3,11.1,9.4c2.8,2.3,5.9,4.2,8.3,7
		c0.3,0.4,0.8,0.8,1.2,0.8c0.7,0.1,1.8,0.3,2.2-0.1c0.7-0.7,0.1-1.4-0.6-2c-1.1-1.1-2.4-2-3-3.3c-0.6-1.2-1.4-1.9-2.6-2.3
		c-4.8-1.6-8.2-5.1-11.7-8.4c-3-2.8-6.1-5.6-9.1-8.4c-0.9-0.8-1.7-1.6-2.6-2.4c-0.2-0.2-0.4-0.4-0.6-0.6c-0.5-0.5-0.9-0.9-1.4-1.4
		c-0.3-0.4-0.7-0.7-1-1.1c-1.2-1.1-2.3-2.2-3.6-3.2c-1.9-1.4-4.1-2.6-6-4.1c-1.8-1.5-3.8-3.1-5.1-5c-1.6-2.3-3.2-4.3-6.1-4.9
		c-0.6-0.1-1-0.6-1.6-0.9c-2.8-1.5-4.7-4.1-6.8-6.4c-2-2.2-3.7-4.7-5.6-7.1c-0.2-0.2-0.5-0.5-0.7-0.7c-1-1.4-1.9-2.9-3.1-4
		c-1.7-1.6-3.6-2.9-5.4-4.4c-1.6-1.3-1.7-2,0.1-3.2c1-0.6,2.2-0.9,3.3-1.6c6.2-3.9,12.3-8.2,16.6-14.4c1.3-2.1,2.8-4.1,3.8-6.4
		c1.8-4.1,2.1-8.5,1.7-13c-0.4-4.6-2-8.3-4.9-11.7c0-0.2-1.5-1.6-1.7-1.8c-0.6-0.6-1.9-1.7-5.6-4.5c-3.7-2.8-9-5.6-13.6-6.2
		c-4.6-0.6-11,0.3-13.7,0.6c-0.5,0-1.1,0.3-1.3,0.6c-1.3,1.7-3.2,1.9-5,2.5c-1.5,0-3-0.1-4.5-0.1c-1.6,0.1-3.1,0.3-4.7,0.4
		c-0.6,0-2,0.2-2.2,0.3c-0.7,0.1-3.3,0.7-3.8,0.9c-2.8,1.3-10.6,4.2-12.2,4.8c-1.6,0.6-2.3,0.6-4.5,1.1c-0.9,0.2-2.1,0.9-3,1.5
		l-0.3,0.2c-1.1,0.5-2.1,1.1-3.2,1.6c-0.6,0.4-1.2,0.7-1.7,1.1c-1,0.4-2.1,0.9-3.1,1.3c-0.4,0.2-1.2,0.3-1.8,0.6
		c-0.5,0.3-2,1.7-2.1,2.4c-0.2,0.7-0.3,1.2-0.4,1.8c-0.1,0.5-0.3,1-0.4,1.4c0,0-0.1,0.2-0.1,0.2c-0.3,0.7-1.5,1.1-2.1,1.4
		c-0.9,0.4-2.1,0.7-2.9,1.4c-0.7,0.6-0.9,1.5-1.2,2.3c-0.3,0.6-0.2,1.6,0.1,2.2c0.3,0.6,1.4,1.7,2,1.8c0.7,0.1,1.8,0.2,2.1,0.3
		c0.3,0.1,1.4,1.3,1.3,1.8s0.3,1.7,1.3,2.1c0.7,0.1,1.4,0.2,2.1,0.3c0.7,0,1.4,0.1,2.1,0.1c0.2,0.2,0.3,0.4,0.5,0.6
		c0.3,0.9,0.8,1.6,1.9,1.3c0.8,0,2.4,0.3,4,0s2.4-0.9,3.6-1.5c1.2-0.6,2.3-1.5,3.5-2.2c0.7-0.5,1.4-0.8,1.4,0.4
		c-0.1,2.4-0.7,4.8-2.1,6.8c-0.1,0.2-0.2,0.4-0.3,0.7c-0.6,3.3-7.9,21.4-8.9,25c-1,3.6-1.9,7.4-2.2,8.1c-0.1,0.3-0.1,0.5-0.2,0.8
		c-0.4,1.2-0.9,2.5-1.1,3.7c-0.2,0.8-0.6,2.9,0,2.6c2-0.9,0.7,1.2-1.1,2.4c-1.1,0.1-4,6.6-4.4,10.1c-0.2,2.1-1.6,5.2-1.1,6
		c0.1,0.2,0.5,0.5,0.3,0.6c-1.5,0.6-2.5,6.6-2.5,6.6s0.5,0.3,0.2,0.5c-0.2,0.2-0.3,0.3-0.4,0.4c-0.3,0.3-1.9,3.7-2.2,4.4
		c-0.1,0.2-1.6,3.3-1.8,3.7c-1.1,1.5-1.4,5.3-1,7.2c0.3,1.2,0.5-0.2,0.5,1c0,0.3-0.1,0.5-0.1,0.8c0,0.6,0.4,4.1,0.9,4.3
		c1,0.4,1-0.6,1.3-1.2c0.1-0.2,0.2-0.3,0.4-0.5c-0.1-0.2,0.9-1.2,1.1-1.3c0.2,0.1-0.9,3.1-0.1,2.9c0.8-0.2,3-7.7,3.2-8.2
		c0.4-0.8,0.9-1.7,1.3-2.5c0.4-0.1,0.7-0.2,1.1-0.3c0.4,0.1,0.8,0.2,1.2,0.3c0.1,0.2,0.3,0.4,0.4,0.6c0,0.6-0.1,1.2,0.1,1.8
		c0.1,0.3,0.4,0.5,0.7,0.8c0.2-0.3,0.5-0.5,0.7-0.8c0.2-0.5,0.4-0.9,0.6-1.4c2-4.8,4-9.6,6.1-14.3c0.4-1,0.7-2.2,1.2-3.2
		c0.1-0.2,1.7-2.7,1.9-2.3c0.2,0.3,0.6,0.6,0.6,1c0.1,0.6-0.2,1.2-0.1,1.8c0.1,0.4,0.4,1.1,0.7,1.1c0.4,0.1,0.9-0.3,1.2-0.6
		c0.4-0.5,0.8-1.2,1-1.9c0.4-1.5,3-14.9,6-28c3-12.8,7.1-26.5,7.5-26.5c0.9,0,1.4-0.4,1.6-1.3c0.4-1.8,0.8-3.7,1.2-5.5
		c0.2-0.7,0.4-1.5,0.6-2.2c0.2-0.5,0.4-1,0.6-1.4c0.6-1.2,1.2-2.3,1.9-3.4c0.5-0.9,1.2-1.2,1.6,0.1c0.3,1,1,1.2,1.4,0.3
		c1-1.9,2.1-3.9,2.6-6c0.3-1.5,1.1-2.3,2.3-2.9c7.3-3.4,14.5-3.1,21.5,0.9c2.9,1.6,4.1,3.9,3.4,6.7c-0.6,2.5-1.6,5-3.2,7.1
		c-2.3,3-4.4,6-6.6,9.1c-1.8,2.5-6.1,3-8.4,0.8c-1.1-1.1-2.2-2.1-3.4-3c-1-0.8-2.5-0.5-2.8,0.6c-0.3,1-0.6,2.2,0.5,3.1
		c1.1,0.9,2.3,1.7,3.2,2.8c0.5,0.6,0.9,1.7,0.7,2.4c-0.1,0.5-1.1,1.2-1.8,1.2c-1.3,0.1-2.6-0.2-3.9-0.3c-0.7,0-1.6,0-1.9,0.4
		c-0.6,0.9-1.7,2.1-1.7,3.2C422.7,76.1,426.3,79.3,427.1,79.6L427.1,79.6z"/>
	<path fill="#FFFFFF" d="M527.2,165.8c-3.2-1.9-6.4-3.7-9.7-5.7c-2.1-1.2-4.3-2.2-6-3.8c-7.8-7.3-15.4-14.9-23.2-22.2
		c-3-2.8-6.1-5.6-10.2-6.9c-1.8-0.6-3.5-1.5-5.2-2.5c-1-0.6-2.1-1.4-2.6-2.4c-2.2-3.8-5.8-6-9-8.7c-3.8-2.9-6.1-7.4-10.5-9.6
		c-0.3-0.2-0.6-0.5-0.9-0.8c-2.9-3.8-6-7.3-9.5-10.5c-3.7-3.2-6.7-7.2-11-9.8c-1-0.6-1.8-1.6-2.6-2.5c-0.1-0.1-1.9-1.8-3-2.4
		c-1.1-0.6-3.8-1.3-5.7-1.9c-2.4-0.7-3.3,0-3.7,2.5c-0.1,0.9-0.2,1.8-0.2,2.7c0,1.9,0.3,2.2,2.3,2.4c0.8,0.1,1.8,0,2.3,0.5
		c1.2,1.2,2.6,1.1,4,0.9c1.4-0.2,2.2,0.3,3,1.4c1.6,2.1,3.2,4.2,5.2,5.8c2.6,2,4.7,4.4,7,6.7c2.6,2.6,4.9,5.7,8.4,7.4
		c1.3,0.6,2.1,2.3,3.2,3.5c1.1,1.2,1.9,2.6,3.2,3.6c2,1.5,4.3,2.7,6.4,4c0.8,0.6,1.6,1.2,2.3,1.9c1.6,1.4,3.4,2.6,4.7,4.2
		c1.1,1.4,2.2,2.4,4,2.9c1.8,0.6,3.6,1.6,5,2.8c4.5,3.8,8.9,7.7,13.3,11.6c3,2.7,5.8,5.6,10,6.6c0.9,0.2,1.7,1.1,2.4,1.7
		c1.7,1.4,3.4,2.8,5.1,4.2c0.5,0.4,1,0.7,1.4,1.1c0.1,0.2,0.2,0.3,0.4,0.5c4.8,4,10.4,7,15,11.3c0.9,0.8,2.7,0.5,3.6,1.3
		c14.7,13.8,15,10.6,15.5,10.4C541.8,177.6,527.5,166.1,527.2,165.8L527.2,165.8z"/>
	<path fill="#FFFFFF" d="M504.1,163.1c-0.5-1.5-1.5-2.1-2.5-2.8c-1.3-0.9-2.8-1.6-4.2-2.4c-2-1.2-4.1-2.2-4.9-4.6
		c-0.2-0.7-1-1.5-1.7-1.6c-2.8-0.5-4.3-3.5-7.2-3.6c-0.4,0-0.7-0.7-1-1c-0.7-0.7-1.5-1.4-2.2-2.1c-1.5-1.7-4-2.4-4.7-4.8
		c-0.1-0.3-1-0.5-1.5-0.7c-2.9-0.6-5.3-2.1-6.4-4.9c-0.8-2.1-2.3-3.5-3.7-5c-1.2-1.3-2.5-1.9-4.3-1.7c-1.4,0.2-2.5-0.2-3.2-1.7
		c-0.3-0.6-0.9-1-1.4-1.6c-0.7-0.8-1.3-1.5-2-2.3c-0.2-0.2-0.3-0.5-0.5-0.7c0-0.2-0.1-0.4-0.2-0.5c-0.3-1.8-1.1-3.1-2.7-4
		c-2.5-2.1-5.1-4-7.4-6.2c-3.1-3-6.1-6.2-7.1-10.7c-0.3-1.4-1.4-2.7-2.5-3.7c-1.8-1.6-3.9-3-6-4.1c-3.2-1.7-6.3-3.7-9.9-4.4
		c-1.2-0.2-2.3-0.7-3.1,0.6c-0.5,0.8,0.1,1.4,0.8,1.9c0.4,0.3,0.9,0.6,1.3,0.6c2.1,0,3,1.5,3.6,3.1c0.7,2.3,2.2,3.3,4.6,3.7
		c2,0.3,4.1,1,4.8,3.2c1.2,3.8,3.8,6.6,6.9,8.9c2.8,2.2,5.3,4.6,7.4,7.5c0.4,0.6,0.8,1.2,1.3,1.6c2.1,1.7,4.2,3.3,6.4,5
		c0.2,0.2,0.4,0.4,0.6,0.6c0.6,0.6,1.2,1.2,1.8,1.8c1.6,2.9,4.1,4.7,7.3,5.4c0.4,0.2,0.8,0.3,1.3,0.5c0.7,0.6,1.5,1.2,2.2,1.9
		c1.1,1.2,2.1,2.6,3.3,3.9c0.8,0.9,1.9,1.5,2.8,2.3c3.3,2.6,6.5,5.2,9.8,7.6c3.4,2.5,7,4.8,10.4,7.2c1.6,1.1,3.1,2.3,4.5,3.5
		c2.4,2.2,4.7,4.4,7.7,5.8c1.2,0.6,2.2,1.6,3.3,2.4c0.2,0,14.2,9.5,15.5,10.6c0.8,0.7,6.5,4.3,11.6,8.3c3.7,2.8,6.8,6.1,9,7.5
		c9.8,6.6,6.1,1.8,6.4,1.8c-0.3-0.4-36.2-26.5-36.5-27C510.8,167.5,504.5,164.3,504.1,163.1L504.1,163.1z"/>
	<path fill="#FFFFFF" d="M397.5,121.3c-0.8,0-1.6,0.6-2.3,1c-0.3,0.2-0.4,0.7-0.5,1.1c-0.3,1.2-0.5,2.4-0.7,3.5
		c-0.3,1.6-0.1,3.4-1.8,4.6c-0.8,0.5-0.3,1.3,0.2,1.8c0.6,0.7,1.4,0.5,1.8-0.1c0.8-1.3,1.5-2.6,2.1-4c0.8-1.9,1.9-4.9,2.2-6.1
		C398.9,122,397.8,121.4,397.5,121.3L397.5,121.3z"/>
	<path fill="#FFFFFF" d="M194,117.3c4.3,1.8,9.2,2.3,14.1,1.3c2-0.4,2.4-0.5,5.7-2.4c3.2-1.9,5.4-6.5,6.1-6.7
		c0.7-0.2,2.7-0.4,3.4,0.2c0.4,0.3,1.4,1.6,2.6,2.6c1.2,1,0,0.9,1,2.2c0.9,1.3,2.3-0.1,2.3,0.5c0,0.7,0.5,1.2,1.6,1.2
		c1.1,0,0.8-4.2,0.6-6.6c-0.2-1.4-0.7-6.8-0.6-8s0.4-3.2,0.6-4.8c-0.1-2.1,1.7-8.9,2-10.4c-0.1-0.2,1.3-4.1,2.1-7.9
		c0.8-3.8,1.5-8.3,1.5-9.7c0.1-2.2,0.5-5.9,0.2-6.6s-1.6-0.4-2.1-0.1c-0.5,0.3-0.3,0.5-0.4,0.7l0,0.1c-0.1,0-0.2,0-0.3,0.1
		c-1.9,0.3-2.9-1.6-3.6-1.8s-1.3-0.3-2.2-0.2c-0.9,0.1-4.3,3.5-5.9,4.3c-1.6,0.8-7.1,3.2-8.9,2.9c-0.2,0.2-0.3,0.2-0.6,0.2
		c-0.7,0.8-1.4,2.1-2.2,2.2c-3.9,0.4-6.2,3.3-8.9,5.5c-0.5,0.6-1.2,1.2-1.4,1.9c-0.7,2.1-1.5,3.5-3.7,4.6c-0.1,0.1-0.2,0.4-0.2,0.5
		c0.1,0.1,0.3,0.2,0.5,0.3c1.3,0,2.9-1.1,2.9-1.1s6.6-2.8,9.9-4.3c1.4-0.6,2.8-1,4.3-0.2c0.6,0.3,1.5-0.1,2.3-0.2l0.9-0.5
		c0.3-0.1,0.6-0.2,0.9-0.2l0.6-0.1c0.4,0.1,0.8,0.1,1.3,0.2c-0.8,2.3-1.1,6.3-1.2,7c-0.1,0.7-0.4,1.1-0.5,1.7
		c-0.2,0.9-0.5,1.7-0.6,2.6c-0.4,2.9-1,5.7-1.1,8.6c-0.1,1.8,1,4.5,1.5,5.2c0.6,0.7,1.2,1.6,0.2,2.4c-1,0.8-1.7,1.5-2.6,2.3
		c-1.1,0.4-3.2,2-6.3,2.5c-3.1,0.5-5.8,0.4-10.2-1.6c-4.4-2-7.9-5.5-10.4-7.7c-2.4-2.2-6-10.6-6.2-14.4c-0.2-3.8,0.1-7.7,0.2-9.2
		c0.1-1.5,1-6.7,2.4-10.3c1.4-3.6,5.4-8.6,6-9.2c2.1-2,4.2-4,6.3-6.1c2.4-1.8,6.1-5.1,11.5-8c1.2-0.6,7.9-4.4,13-4.8
		c1.5-0.1,2.9-0.7,4.4-1.2c1.3-0.5,2-1.4,1.4-2.8c-0.4-1-0.4-2,0.7-2.2c1.4-0.4,0.1-2.5-0.5-2.4c-0.7,0.2-1.4,0.5-2.5-0.2
		c-1.1-0.7-2.1-2.2-2.4-4c-0.2-0.8,1.1-0.7,0.3-1.8c-0.8-1-2.2-0.4-2.9-0.9c-0.2-0.1-0.4-0.1-0.6-0.2c-0.8-0.1-1.6-0.2-2.4-0.3
		c-0.1-0.1-0.2-0.2-0.4-0.3c-0.8-0.9-1.7-1-3-0.9c-3.7,0.3-7,1.7-10.6,2.5c-1.3,0.4-2.5,0.9-3.8,1.3c-0.5,0.4-1.1,0.9-1.6,1.3
		c-1.5,1-3,2-4.5,3.1c-0.2,0.2-0.4,0.4-0.5,0.6l-0.1,0.1c-0.5,0.6-0.9,1.2-1.4,1.8c-0.1,0.2-0.3,0.4-0.4,0.6
		c-0.4,0.4-0.8,0.8-1.2,1.2c-0.2,0.2-0.4,0.4-0.6,0.6c-0.4,0.2-0.7,0.5-1.1,0.7l0,0c-0.2,0.4-0.5,0.8-0.7,1.2l0,0.2
		c-0.3,0.3-0.6,0.7-1,1c-0.3,0.3-0.6,0.7-0.8,1c-0.2,0.3-0.4,0.5-0.6,0.8l-0.6,0.5c-0.4,0.5-0.7,0.9-1.1,1.4l-0.1,0.1
		c-0.5,0.6-0.9,1.1-1.4,1.7l-0.5,0.8l-2.2,3.6c-0.2,0.1-0.3,0.2-0.3,0.5c-0.2,0.5-0.4,0.9-0.6,1.4c-0.2,0.4-0.4,0.7-0.6,1.1v0
		c-2.1,1.6-3.2,3.8-3.8,6.2c-0.1,0.2-0.3,0.4-0.4,0.5c-0.2,0.6-0.5,1.3-0.7,1.9c-0.4,1-0.7,2-1.1,3c-2.2,4.1-2.8,8.6-3.1,13
		c-0.4,5.8-0.3,11.7,1.1,17.5c0.5,1.9,3.7,9.3,5.4,11.7c1.6,2.5,6,7.3,8.7,9.2C187.1,114,189.6,115.5,194,117.3L194,117.3z"/>
	<path fill="#FFFFFF" d="M541,154.9c-2.8-2-5.6-4-8.4-6c-0.6-0.4-1-1.6-1.8-0.8c-0.3,0.3,0.1,1.5,0.4,2.2c0.2,0.5,0.8,0.9,1.3,1.3
		c2.9,2.1,5.9,4.3,8.9,6.3c0.8,0.5,1.9,0.7,2.8,1c0.2,0,0.4-0.2,0.7-0.4c-0.3-0.3-0.4-0.6-0.7-0.8
		C543.2,156.7,542.2,155.8,541,154.9L541,154.9z"/>
	<path fill="#FFFFFF" d="M560.7,167.3c-0.2-0.2-4.1-2.3-4.3-2.5c-0.8-0.6-1.3-0.4-2.2-1c-1.6-1.1-3.1-2.4-4.6-3.6
		c-0.8-0.6-2-1.1-2.2,0.1c-0.1,0.8,0.1,1.8,0.9,2.2c0.3,0.2,0.5,0.3,0.8,0.5c1.6,0.8,3.1,1.6,4.7,2.4c0.7,0.4,10.7,7.4,12.4,7.1
		c1.6-0.3,0.2-2.2,0.2-2.2S561,167.6,560.7,167.3L560.7,167.3z"/>
	<path fill="#FFFFFF" d="M540.5,168c0,0,7.1,4.8,9.7,6c2.7,1.2,4.2,2.3,3.3,0.8c-0.9-1.4,0-1.1-3-2.9c-3-1.7-4.6-2.4-5.9-3.7
		c-1.3-1.3-4-2.5-4.1-1.5C540.4,167.7,540.5,168,540.5,168L540.5,168z"/>
	<path fill="#FFFFFF" d="M546.5,183.7c3,1.7,4.4,3.1,3.4,0.4c-1-2.7-2.7-2.2-4.9-3.3c-2.3-1.1-2.3,0-1.8,0.6L546.5,183.7
		L546.5,183.7z"/>
</g>
</svg>
