<?xml version="1.0" encoding="utf-8"?>
<!-- Generator: Adobe Illustrator 28.6.0, SVG Export Plug-In . SVG Version: 9.03 Build 54939)  -->
<svg version="1.1" baseProfile="tiny" id="Layer_1" xmlns="http://www.w3.org/2000/svg" xmlns:xlink="http://www.w3.org/1999/xlink"
	 x="0px" y="0px" viewBox="0 0 343.6 70.5" overflow="visible" xml:space="preserve">
<g transform="matrix(.81916268 0 0 .81916268 -.000016623689 0)">
	<g>
		<path fill="#FFFFFF" stroke="#FFFFFF" stroke-width="0.8192" stroke-miterlimit="3.2767" d="M333.4,86h34.4l51.7-86h-34.4
			L333.4,86z"/>
		<path fill="#FFFFFF" stroke="#FFFFFF" stroke-width="0.9096" stroke-miterlimit="3.2767" d="M135,23.5v46.9h28.1
			c8.7-1.4,13.8-6.3,15.7-14.1c0-6.3,0-12.5,0-18.7c-1.9-7.7-6.9-12.6-15.7-14.1H135z M146,32.9h12.5c3.9,0.7,7.6,1.9,9.4,7.8
			l0,12.5c-1.8,5.9-5.5,7.1-9.4,7.8H146L146,32.9L146,32.9z"/>
		<path fill="#FFFFFF" stroke="#FFFFFF" stroke-width="0.9096" stroke-miterlimit="3.2767" d="M14.6,70.4V34.4H0.6l0-10.9h43.8
			l-4.7,10.9l-10.9,0v35.9L14.6,70.4z"/>
		<path fill="#FFFFFF" stroke="#FFFFFF" stroke-width="0.9096" stroke-miterlimit="3.2767" d="M49,23.5L31.8,70.3h14.1l5.4-17.2
			l5.5,7.8h9.4l3.1,9.3h14.2L66.2,23.5H49z M57.6,36l5.5,14.1H52.2L57.6,36z"/>
		<path fill="#FFFFFF" stroke="#FFFFFF" stroke-width="0.9096" stroke-miterlimit="3.2767" d="M85,70.4V23.5h17.2l17.2,34.4V23.5
			h10.9l0,46.9h-17.2L95.9,36l0,34.4H85z"/>
		<path fill="#FFFFFF" stroke="#FFFFFF" stroke-width="0.9096" stroke-miterlimit="3.2767" d="M191.3,48.5l-18.7-25h14.1l10.2,15.6
			l10.1-15.6h15.6l-18.8,24.9l0,21.9h-12.5L191.3,48.5L191.3,48.5z"/>
	</g>
	<path fill="#FFFFFF" d="M288.3,86h34.4l51.7-86H340L288.3,86z"/>
	<path fill="#FFFFFF" stroke="#FFFFFF" stroke-width="0.8192" stroke-miterlimit="3.2767" d="M243.1,86h34.4l51.7-86h-34.4L243.1,86
		z"/>
</g>
</svg>
