<?xml version="1.0" encoding="utf-8"?>
<!-- Generator: Adobe Illustrator 28.6.0, SVG Export Plug-In . SVG Version: 9.03 Build 54939)  -->
<svg version="1.1" baseProfile="tiny" id="Layer_1" xmlns="http://www.w3.org/2000/svg" xmlns:xlink="http://www.w3.org/1999/xlink"
	 x="0px" y="0px" viewBox="0 0 566.9 178.6" overflow="visible" xml:space="preserve">
<path fill="#FFFFFF" d="M279.8,91.5v22.9h-65c-7.4,0-7,7.4,0,7.4h42.8c33.4,0,33.3,49.5,0,49.5h-67.2v-22.1h64.2
	c7.7,0,7.2-7.4,0-7.4h-39.9c-34.3,0-34.2-50.2,0-50.2H279.8z M428.9,91.5h76c13.6,0,25.8,10.6,25.8,25.1v54.6h-27.3V124
	c0-7.9-4.7-9.5-10.3-9.6h-36.9v56.8h-27.3L428.9,91.5L428.9,91.5z M357.3,113.8c-7.3,0-10.3,4.6-10.3,10.2v14.8
	c0,6.1,5.3,10.3,10.3,10.3h30.3c3.6,0,9.6-2.4,9.6-10.3V124c0-5-3-10.5-9.6-10.4L357.3,113.8z M347,91.5h50.9
	c16.2,0,26.6,11,26.6,24.4v29.5c0,20.9-18.1,25.8-26.6,25.8H347c-19.1,0-27.3-15.4-27.3-25.8v-29.5C319.6,98.9,334.9,91.5,347,91.5z
	 M287.2,91.5h27.3v79.7h-27.3V91.5z M155.8,91.5h27.3v79.7h-27.3V91.5z M31.7,91.5H62l29.5,51.7l34.7-51.7h25.1l-47.2,79.7H79.3
	L31.7,91.5z M275.3,7.4h86.4v19.9h-59.8v7.4h59.8v19.9h-59.8c0,7.3,5.4,10.3,11.1,10.3h48.7v21.4H299c-14.1,0-23.7-11.7-23.7-24.4
	L275.3,7.4z M205.9,7.4h26.6v47.2c0,6.8,5.1,10.4,11.1,10.3h28.8v21.4H231c-11.7,0-25.1-5.3-25.1-24.4L205.9,7.4z M451,7.4h-59.8
	c-17.2,0-24.3,15.8-24.4,24.4v29.5c0,19.1,15.8,25.9,24.4,25.8H451V65h-45.8c-3.3,0-11.1-2.4-11.1-9.6V39.9
	c0-7.4,5.6-10.3,11.1-10.3H451V7.4z M493.8,29.6c-7.3,0-10.3,4.6-10.3,10.2v14.8c0,6.1,5.3,10.3,10.3,10.3h30.3
	c3.6,0,9.6-2.4,9.6-10.3V39.9c0-5-3-10.5-9.6-10.4L493.8,29.6z M483.5,7.4h50.9c16.2,0,26.6,11,26.6,24.4v29.5
	c0,20.9-18.1,25.8-26.6,25.8h-50.9c-19.1,0-27.3-15.4-27.3-25.8V31.7C456.2,14.7,471.4,7.4,483.5,7.4L483.5,7.4z M133.6,29.6
	c-7.3,0-10.3,4.6-10.3,10.2v14.8c0,6.1,5.3,10.3,10.3,10.3h30.3c3.6,0,9.6-2.4,9.6-10.3V39.9c0-5-3-10.5-9.6-10.4L133.6,29.6z
	 M123.3,7.4h50.9c16.2,0,26.6,11,26.6,24.4v29.5c0,20.9-18.1,25.8-26.6,25.8h-50.9c-19.1,0-26.6-15.4-26.6-25.8V31.7
	C96.7,14.7,111.2,7.4,123.3,7.4z M91.5,7.4H31.7C14.5,7.4,7.4,23.2,7.4,31.7v29.5c0,19.1,15.8,25.9,24.4,25.8h59.8V65H45
	C41.8,65,34,62.5,34,55.4V39.9c0-7.4,5.6-10.3,11.1-10.3h46.5V7.4z"/>
</svg>
