<?xml version="1.0" encoding="utf-8"?>
<!-- Generator: Adobe Illustrator 28.6.0, SVG Export Plug-In . SVG Version: 9.03 Build 54939)  -->
<svg version="1.1" baseProfile="tiny" id="Layer_1" xmlns="http://www.w3.org/2000/svg" xmlns:xlink="http://www.w3.org/1999/xlink"
	 x="0px" y="0px" viewBox="0 0 248 74.3" overflow="visible" xml:space="preserve">
<g transform="translate(-225.984 -495.196)">
	<path fill-rule="evenodd" fill="#FFFFFF" d="M247.3,509.4H260l-4.5,26.6h-12.3L247.3,509.4"/>
	<path fill-rule="evenodd" fill="#FFFFFF" d="M242.4,540h12.5l-0.4,3h10.4l-1.5,10.8h-23.2L242.4,540"/>
	<path fill-rule="evenodd" fill="#FFFFFF" d="M405,511.6h11.5l-1.1,7.6h-11.5L405,511.6"/>
	<path fill-rule="evenodd" fill="#FFFFFF" d="M403.3,522.4h11.5l-2.1,14h-11.5L403.3,522.4"/>
	<path fill-rule="evenodd" fill="#FFFFFF" d="M400.7,540h11.5l-2.1,13.8h-11.5L400.7,540"/>
	<path fill-rule="evenodd" fill="#FFFFFF" d="M348,540h11.5l-2.1,13.8h-11.5L348,540"/>
	<path fill-rule="evenodd" fill="#FFFFFF" d="M277.5,540c-0.1,0.9-0.2,2-0.1,3c0.1,1.2,0.6,2.2,1.8,2.2c1.6,0,2.5-1.4,3-3
		c0.3-0.8,0.5-1.5,0.7-2.3l10.7,0l-2.2,13.9h-9.6l0.6-2.8c-2.4,3-4.3,3.7-8.2,3.7c-7.6,0-8.8-8.4-8.3-14.8L277.5,540"/>
	<path fill-rule="evenodd" fill="#FFFFFF" d="M283.4,536.4c0-0.8,0-1.3,0-1.8c-0.1-1.4-0.6-2.7-2-2.7c-1.5,0-2.4,1.5-3,3.3
		c-0.1,0.3-0.2,0.6-0.5,1.2l-11.7,0c1.5-6.7,5-14.4,12.6-14.6c2.1,0,5.9,0.2,7.5,3.2l0.3,0.1l0.5-2.7h9.4l-2.2,14L283.4,536.4"/>
	<path fill-rule="evenodd" fill="#FFFFFF" d="M297.1,536.4c-0.7-1.4-1-3.1-0.7-5c0.9-6.8,6-10.2,13.7-10.2c3.3,0,5.6,0.8,8.2,2.4
		l-1.3,8.7c-1.9-1.6-5.4-2.5-7.4-2.5c-0.9,0-2,0.2-2.2,1.2c-0.4,1.5,1.3,2.3,3.3,3c1.7,0.6,3.1,1.3,4.3,2.3L297.1,536.4"/>
	<path fill-rule="evenodd" fill="#FFFFFF" d="M317.7,540c0.5,1.4,0.7,3.1,0.4,5c-1,7.4-7.4,10.2-14.2,10.2c-4.5,0-6.4-0.8-9.9-3
		l1.6-9.7c1.2,1.6,5.3,4,8.1,3.9c1.1-0.1,3.2-0.8,3.4-2c0.2-1.2-0.3-2.1-3-2.9c-1.2-0.4-2.4-0.8-3.5-1.5L317.7,540"/>
	<path fill-rule="evenodd" fill="#FFFFFF" d="M330.3,540c-0.5,2.8-0.6,7.1,2,7.5c1.6,0.2,3.3-1.1,3.8-4.5h10.2
		c-1.8,10.5-8,12.4-15.3,12.4c-8-0.1-12.8-6.6-12.2-15.4L330.3,540"/>
	<path fill-rule="evenodd" fill="#FFFFFF" d="M437.8,536.4c1.5-8.3,5.5-15,17-15.3c2.3-0.1,4.1,0.7,5,1.3l-1.5,8.9
		c-4.6-1.9-7,1.8-7.9,5.1L437.8,536.4z"/>
	<path fill-rule="evenodd" fill="#FFFFFF" d="M450.2,540c0.3,2.1,1.5,4,3.8,4l2.5-0.2l-1.5,10c-1.8,0.5-3.5,0.8-5.8,0.7
		c-8.8-0.1-12.4-6.6-11.9-14.5L450.2,540"/>
	<path fill-rule="evenodd" fill="#FFFFFF" d="M385.3,540c-1.4,2.2-2.7,3.9-5.9,3.6l0.5-3.6l-12.1,0l-2.2,13.8h12.3
		c10.2,0,17.1-4.4,20.6-13.8L385.3,540"/>
	<path fill-rule="evenodd" fill="#FFFFFF" d="M380.4,536.4l2.4-15.5c4.9,0,6,3.8,5.1,10.6c-0.2,1.7-0.6,3.5-1,4.9l12.8,0
		c0.5-1.9,0.7-4,0.9-6.3c1.7-17-7.6-20.8-16.8-20.8h-11.5l-1.6,12.1c-1.9,0.4-6.5,0.9-9,4.3c-0.5,0.5-0.8,0.3-0.7-0.3l0.5-3h-10.9
		l-2.1,14h11.5c0.5-2,5.7-4.9,8.9-3.4l-0.5,3.4L380.4,536.4"/>
	<path fill-rule="evenodd" fill="#FFFFFF" d="M415.4,536.4c-0.7-1.4-1-3.1-0.7-5c0.9-6.8,6-10.2,13.7-10.2c3.3,0,5.6,0.8,8.2,2.4
		l-1.3,8.7c-1.9-1.6-5.4-2.5-7.4-2.5c-0.9,0-2,0.2-2.2,1.2c-0.4,1.5,1.3,2.3,3.3,3c1.7,0.6,3.1,1.3,4.3,2.3L415.4,536.4"/>
	<path fill-rule="evenodd" fill="#FFFFFF" d="M436,540c0.5,1.4,0.7,3.1,0.4,5c-1,7.4-7.4,10.2-14.2,10.2c-4.5,0-6.4-0.8-9.9-3
		l1.6-9.7c1.2,1.6,5.3,4,8.1,3.9c1.1-0.1,3.2-0.8,3.4-2c0.2-1.2-0.3-2.1-3-2.9c-1.2-0.4-2.4-0.8-3.5-1.5L436,540"/>
	<path fill-rule="evenodd" fill="#FFFFFF" d="M453.6,515.3h2.4v0.4h-1v2.6h-0.4v-2.6h-1L453.6,515.3z"/>
	<path fill-rule="evenodd" fill="#FFFFFF" d="M458.8,518.3v-1.7c0-0.1,0-0.5,0-0.7h0l-0.8,2.5h-0.4l-0.8-2.5h0c0,0.3,0,0.6,0,0.7
		v1.7h-0.4v-2.9h0.6l0.8,2.5h0l0.8-2.5h0.6v2.9L458.8,518.3"/>
	<path fill-rule="evenodd" fill="#FFFFFF" d="M334.9,521.1c-9.2,0.1-13.8,6.6-15.6,15.3l27.9,0c0.3-4,0.2-8-1.1-9.7
		C344.1,523.6,341.3,521.1,334.9,521.1L334.9,521.1z M335.1,528.4c2.2,0,2.5,2.4,2.3,4.2h-5.7C332,530.9,333,528.4,335.1,528.4"/>
</g>
</svg>
