<?xml version="1.0" encoding="utf-8"?>
<!-- Generator: Adobe Illustrator 28.6.0, SVG Export Plug-In . SVG Version: 9.03 Build 54939)  -->
<svg version="1.1" baseProfile="tiny" id="Layer_1" xmlns="http://www.w3.org/2000/svg" xmlns:xlink="http://www.w3.org/1999/xlink"
	 x="0px" y="0px" viewBox="0 0 559.2 81.2" overflow="visible" xml:space="preserve">
<g>
	<path fill="#FFFFFF" stroke="#FFFFFF" d="M159.9,18.1h22.1c14.6,0,19.8,10.8,19.8,21.8c0,13.4-7.1,22-22.4,22h-19.5L159.9,18.1
		L159.9,18.1z M173.4,50.7h5.3c8.4,0,9.6-6.8,9.6-10.9c0-2.8-0.9-10.4-10.6-10.4h-4.3L173.4,50.7z M206.4,18.1h25.7
		c7.7,0,14.3,4.2,14.3,12.5c0,4.5-2.1,9.3-6.6,11c3.7,1.4,5.9,5.5,6.4,10.9c0.2,2.1,0.2,7.4,1.5,9.4h-13.5c-0.7-2.2-0.9-4.5-1.1-6.7
		c-0.4-4.2-0.7-8.5-6.1-8.5h-7.2v15.3h-13.5L206.4,18.1L206.4,18.1L206.4,18.1z M219.9,37.2h7.1c2.5,0,6-0.4,6-4.4
		c0-2.8-1.5-4.4-6.7-4.4h-6.3V37.2z M266.5,18.1h13.2l15.9,43.8h-14l-1.8-6.3h-13.9l-2,6.3h-13.6L266.5,18.1z M277.1,46.2l-3.9-13.5
		h-0.1l-4.2,13.5H277.1z M329.5,57.4c-3,3.9-7.7,5.5-12.5,5.5c-12.9,0-20.9-10.1-20.9-22.5c0-16.7,11.7-23.4,21.6-23.4
		c11.2,0,18.2,6.1,20.2,16.4H325c-0.5-3.2-3.2-5.5-6.4-5.5c-9.3,0-9,9.8-9,12.8c0,4.1,1.7,11.3,9.9,11.3c3.1,0,6.3-1.6,7-4.8h-5.9
		v-9.4h17.9v24.1h-8.5L329.5,57.4z M367.3,17c13.3,0,22.2,9.6,22.2,22.9s-8.9,22.9-22.2,22.9c-13.3,0-22.2-9.6-22.2-22.9
		C345.1,26.6,354,17,367.3,17z M367.3,52c3.4,0,8.7-2.3,8.7-12c0-9.8-5.3-12-8.7-12c-3.4,0-8.7,2.3-8.7,12
		C358.6,49.7,363.8,52,367.3,52z M395.3,18.1h13.8l12.8,23.4h0.1V18.1h12.8v43.8h-13.1L408.1,38H408v23.9h-12.8V18.1z"/>
	<path fill="#FFFFFF" d="M447.3,33.4c0.1-5,2.1-8.7,5.3-11.2c3.3-2.4,7.7-3.6,12.5-3.6c12.4,0,16.5,7.4,16.5,11c0,9-5.6,9-5.6,9.1
		v0.1c0,0.5,7,0.5,7,10c0,5.2-3.9,13.4-17.9,13.4c-19.2,0-19.3-13.5-19-16.7h11.7c-0.1,2.3,0.5,4,1.7,5.1c1.2,1.4,2.9,1.9,5.1,1.9
		c3.5,0,5.7-1.3,5.7-4.8c0-3.7-2.9-4.4-5.7-4.4c-1.8,0-2.6,0.2-3.6,0.3v-8.3c0.9,0.1,1.9,0.2,3.6,0.2c2.6,0,5.8-0.6,5.8-3.9
		c0-2.7-3.1-3.7-5.6-3.7c-3.3,0-6,1.8-5.9,5.3L447.3,33.4z M485.6,37.2c-0.7-11.7,6.6-18.5,18.1-18.5c10.4,0,17.4,4.4,17.4,13.4
		c0,10.9-10.7,14.4-18.7,19.3v0.1h19.3v10.4h-37c-0.2-4.1,1-7.7,3.1-10.6c3.6-5,9.7-8.2,15.2-11.5c2.2-1.3,5.8-3.1,5.8-6.2
		c0-3.9-2.3-5.2-5.2-5.2c-4.9,0-6.6,3.6-6.4,8.8L485.6,37.2L485.6,37.2L485.6,37.2z"/>
	<path fill="#FFFFFF" d="M373.4,67.4h3.9c2.6,0,3.5,1.9,3.5,3.8c0,2.4-1.2,3.9-3.9,3.9h-3.4L373.4,67.4L373.4,67.4L373.4,67.4z
		 M375.8,73.1h0.9c1.5,0,1.7-1.2,1.7-1.9c0-0.5-0.2-1.8-1.9-1.8h-0.8L375.8,73.1L375.8,73.1z M383.9,67.4h2.3l2.8,7.7h-2.5l-0.3-1.1
		h-2.4l-0.3,1.1h-2.4L383.9,67.4z M385.8,72.3l-0.7-2.4h0l-0.7,2.4L385.8,72.3L385.8,72.3z M390.7,69.3h-2.2v-2h6.7v2H393V75h-2.4
		L390.7,69.3L390.7,69.3L390.7,69.3z M397.4,67.4h2.3l2.8,7.7H400l-0.3-1.1h-2.4l-0.3,1.1h-2.4L397.4,67.4z M399.3,72.3l-0.7-2.4h0
		l-0.7,2.4L399.3,72.3L399.3,72.3z M412.7,67.4h2.4v5.7h3.4v2h-5.8L412.7,67.4L412.7,67.4L412.7,67.4z M419.9,69.3h-2.2v-2h6.7v2
		h-2.2V75h-2.4L419.9,69.3L419.9,69.3L419.9,69.3z M425.3,67.4h3.9c2.6,0,3.5,1.9,3.5,3.8c0,2.4-1.2,3.9-3.9,3.9h-3.4L425.3,67.4
		L425.3,67.4L425.3,67.4z M427.6,73.1h0.9c1.5,0,1.7-1.2,1.7-1.9c0-0.5-0.2-1.8-1.9-1.8h-0.8L427.6,73.1z M433.7,72.9h2.2V75h-2.2
		V72.9z"/>
</g>
<path fill="#FFFFFF" d="M76.1,41.7h-6.6l15.8-27.4C88.3,9,94,5.7,100.1,5.7h32.7l-3.3,5.8h-29.4c-4.1,0-7.9,2.2-9.9,5.7L76.1,41.7z
	 M93.8,19.3c1.3-2.2,3.7-3.6,6.2-3.6H127l1.4-2.5h-28.4c-3.5,0-6.7,1.9-8.4,4.9L78,41.7h2.9L93.8,19.3z M96.4,29.9h22.5l3.9-6.7
	l1.2-2l2.1-3.7h-25.9c-2,0-3.8,1.1-4.8,2.8L82.9,41.7h6.6L96.4,29.9z M45.3,29.9C45.3,29.9,45.3,30,45.3,29.9
	c-0.1,0.2-0.3,0.8-1.1,2.2c-1.8,3-3.6,6.8-3.6,11.8c0,9.4,7.7,17.1,17.1,17.1H123l-6.8,11.7h6.6l5.3-9.2c0.5-0.8,0.8-1.8,0.8-2.8
	c0-3-2.5-5.5-5.5-5.5H57.7c-6.3,0-11.4-5.1-11.4-11.4c0-3.5,1.1-6,2.8-8.9c1.6-2.6,2-3.5,2-5.4c0-3-2.5-5.5-5.5-5.5H26.3l3.3,5.8
	L45.3,29.9L45.3,29.9z M123.4,51.1H57.7c-4,0-7.2-3.2-7.2-7.2c0-2.2,0.6-4,2.2-6.7c1.7-2.9,2.6-4.6,2.6-7.5c0-5.3-4.3-9.7-9.7-9.7
	H19.1l-0.9-1.6l-6.3,2.8l9.7,3.1l-1.1-1.9h25.1c4,0,7.2,3.2,7.2,7.2c0,2.2-0.5,3.4-2.2,6.3c-1.8,3.1-2.6,5.3-2.6,8
	c0,5.3,4.3,9.7,9.7,9.7h65.7c4,0,7.2,3.2,7.2,7.2c0,1.3-0.3,2.6-1,3.7l-4.8,8.3h2.9l4.1-7.1c0.9-1.5,1.4-3.2,1.4-4.9
	C133.1,55.4,128.8,51.1,123.4,51.1z M63.8,62.9h-6.6l-5.7,9.9h6.6L63.8,62.9z M63,72.7l5.7-9.9h-2.9l-5.7,9.9H63z M77.3,62.9h-6.6
	L65,72.7h6.6L77.3,62.9z M123.4,43.6H58c0-0.4,0.2-1.1,1.2-2.6c2-3.4,3.6-6.4,3.6-11.4c0-9.4-7.7-17.1-17.1-17.1h-0.5l-3.8,3.8
	l-3.8-3.8h-18l3.3,5.8h22.7c6.3,0,11.4,5.1,11.4,11.4c0,3.5-1.1,5.5-2.8,8.4c-1.5,2.4-2,4-2,5.9c0,3,2.5,5.5,5.5,5.5h65.7
	c6.3,0,11.4,5.1,11.4,11.4c0,2-0.5,4-1.6,5.8l-3.6,6.2h6.6l1.9-3.3c1.5-2.6,2.4-5.6,2.4-8.7C140.6,51.3,132.9,43.6,123.4,43.6z
	 M47,11.7l-5.7-5.7l-5.7,5.7h2.6l3-3l3,3H47z"/>
</svg>
