<?xml version="1.0" encoding="utf-8"?>
<!-- Generator: Adobe Illustrator 28.6.0, SVG Export Plug-In . SVG Version: 9.03 Build 54939)  -->
<svg version="1.1" baseProfile="tiny" id="Layer_1" xmlns="http://www.w3.org/2000/svg" xmlns:xlink="http://www.w3.org/1999/xlink"
	 x="0px" y="0px" viewBox="0 0 566.9 94.8" overflow="visible" xml:space="preserve">
<g>
	<path fill="#FFFFFF" d="M556.4,78.9h-2.3v-0.8h5.4v0.8h-2.3v6.1h-0.9V78.9z"/>
	<path fill="#FFFFFF" d="M563.2,85.1l-1.9-5.6v5.6h-0.9v-6.9h1.3l2,5.9l2-5.9h1.3v6.9H566v-5.6l-1.9,5.6H563.2z"/>
	<path fill="#FFFFFF" d="M122.8,19.3c0-2.4-0.5-5.5-1.5-6.8c7,0,22,0,28.5,0c14.9,0,37.3,8.2,37.3,36.1c0,20.6-15.8,36-37.3,36
		c-4.7,0-22.7-0.1-29-0.1c1.3-2.4,2.1-5.7,2.1-8.3L122.8,19.3z M133.5,77.5c6.9,0.9,13.2,1.2,18.9,0.3c5.5-0.8,24.2-4.8,24-29.5
		c-0.1-23.4-14.6-28.8-25.7-29.4c-5.8-0.3-11.4-0.1-17.2,0.9L133.5,77.5z"/>
	<path fill="#FFFFFF" d="M193.2,34.6l10.7-1.7v9.4c2.7-6.8,11.3-12.2,23.4-7.5l-2.8,7.4c-11.1-5.3-20.5-0.6-20.5,11.7v25.4
		c0,1.2,0.3,3.6,1,5.2h-11.1c1.1-1.4,1.6-4,1.6-5.2V42.7C195.4,40.1,194.9,36,193.2,34.6L193.2,34.6z"/>
	<path fill="#FFFFFF" d="M530.7,39.7v32.4c0,10.2,7,12.9,12.2,12.9c2.2,0.1,5.3-0.4,7.5-0.9l1.3-6.3c-2.5,1-5.5,1.2-7.2,1.2
		c-3.3,0-5.6-2.2-5.6-5.5c0-3-0.1-32.8,0-33.8h0c0.4,0,7.2,0,7.9,0c2.2,0.1,3.9,0.2,5.4,0.8l0-5.9c0,0-13,0-13.2,0l0.1-15.2
		l-9.8,2.7c1.4,1.3,1.8,5,1.8,7.4c0,0,0,4.5,0,5.1c-0.4,0-5.4,0-6.3,0v5C525.5,39.7,530.7,39.7,530.7,39.7L530.7,39.7z"/>
	<path fill="#FFFFFF" d="M488.2,74c4.2,3,10.9,5.7,15.7,5.7c6.8,0,11.6-3.3,11.6-9.5c0-11.4-26-9.5-26-24c0-9.8,8.8-13.5,17.1-13.5
		c2.7,0,8.8,0.6,12.7,2.1l0,6.7c-3.5-3-8.7-3.7-12.2-3.7c-5.5,0-9.7,2.7-9.7,8.1c0,7.9,26,7.4,26,23.6c0,10.5-9.1,15.4-19.1,15.4
		c-4.9,0-9.9-0.9-14.2-2.1L488.2,74z"/>
	<path fill="#FFFFFF" d="M331.1,39.8c0-0.6,0-5.9,0-6.6l-10.8,1.7c1.3,1.4,2.3,5.6,2.3,8.7V79c0,1.2-0.5,4.1-1.6,5.5h11.8
		c-1.1-1.4-1.6-4.3-1.6-5.5V52.4c0-9.8,6-13.2,12-13.2c5.4,0,10.3,2.4,10.3,13.2V79c0,1.2-0.5,4.1-1.6,5.5h11.4
		c-1.1-1.4-1.6-4.3-1.6-5.5V52.4c0-10.8,6.7-13.2,12.1-13.2c5.4,0,11.1,3.4,11.1,13.2V79c0,1.2-0.5,4.1-1.6,5.5h11
		c-1.1-1.4-1.6-4.3-1.6-5.5V47.3c0-5.4-5.5-14.1-18.4-14.1c-7.5,0-11.8,3.3-15.1,6.2c-2.8-3.3-7.3-6.3-14.6-6.3
		C337.4,33.1,333.2,37.3,331.1,39.8L331.1,39.8z"/>
	<path fill="#FFFFFF" d="M305.6,56.5c-1.5,1.5-4.8,2.6-8.1,3c-8.8,1.1-16.4,2.6-16.4,11.1c0,5.1,5.5,9,9.9,9
		c11.6,0,14.6-8.4,14.6-14.9L305.6,56.5L305.6,56.5z M278.3,35.6c4.4-1.8,11.5-2.6,16-2.6c11.4,0,19,5.7,19,18.9v22
		c0,4.1,0.1,7.9,1.5,10.6h-9.2l-0.3-5.8c-3.5,4.5-7.6,6.5-14.7,6.5c-13.9,0-16.9-9.5-16.9-14.1c0-16.3,15.5-16.5,22.2-17.4
		c3.7-0.5,8.5-1.6,9.2-5.1c1.2-5.8-2.9-10.1-11.4-10.1c-6.2,0-11.3,1.9-15.5,4.4L278.3,35.6z M475.6,56.5c-1.5,1.5-4.8,2.6-8.1,3
		c-8.8,1.1-16.3,2.6-16.3,11.1c0,5.1,5.5,9,9.9,9c11.6,0,14.6-8.4,14.6-14.9V56.5z M448.2,35.6c4.4-1.8,11.6-2.6,16-2.6
		c11.4,0,19,5.7,19,18.9v22c0,4.1-0.9,7.8,1.5,10.6h-9.2l-0.3-5.8c-3.5,4.5-7.6,6.5-14.7,6.5c-13.9,0-16.9-9.5-16.9-14.1
		c0-16.3,15.5-16.5,22.2-17.4c3.7-0.5,8.5-1.6,9.2-5.1c1.2-5.8-2.9-10.1-11.4-10.1c-6.2,0-11.3,1.9-15.5,4.4L448.2,35.6L448.2,35.6
		L448.2,35.6z"/>
	<path fill="#FFFFFF" d="M438.5,42.3c-3.4-2-8.9-3.6-12.7-3.6c-13.3,0-19.4,8.2-19.4,20c0,11.7,6,20.6,19,20.6
		c4.5,0,10.5-2,15.2-4.9l-1.9,8.6c-4.8,1.4-8.8,2.1-14.2,2.1c-18.3,0-26.9-13-26.9-26.5c0-14.9,11.5-25.4,27.1-25.4
		c6.8,0,11.8,1.7,13.8,2.2L438.5,42.3z"/>
	<path fill="#FFFFFF" d="M233.6,59.3c0-1.2,0.2-2.4,0.3-3.5h35.4c0-12.2-6.1-22.6-20.5-22.6c-15,0-23.9,11.7-23.9,26.6
		c0,13.5,9.9,25.6,26.8,25.6c5.4,0,9.8-1.3,14.7-3l1.7-8.6c-4.1,3.4-10.8,5.4-16.8,5.4C240.5,79.1,233.6,71.3,233.6,59.3L233.6,59.3
		z M235.1,50.4c1.1-5.9,6.6-12,13.2-12c10,0,12.9,7.8,12.9,12C261.2,50.4,235.1,50.4,235.1,50.4L235.1,50.4z"/>
</g>
<path fill="#FFFFFF" d="M65.1,1.3c4,0.6,8,2,10.1,2.6c4.3,1.3,11.2,5.4,13.6,7.3c1.2,0.9,3.6,3.3,4.5,4.5c0.9,1.2,2.7,3.7,3.8,5.3
	c1.8,2.6,3.9,6.5,5.6,10c2,4,2.1,5.1,2.7,8.5l1.3,5.9c0.1,1,0.2,4.7-2,5.3c-2.2,0.5-4.2-0.5-5.2-2c-1.3-2-1.1-4.9-2.6-8.2
	c-1.2-2.7-1.7-6.6-3.5-9.4l-1.5-2.5c-2.6-4-5.3-7.1-6.9-9.2c-1.4-1.7-4-4.1-6.5-5.7c-2.3-1.4-6-3-8.7-3.8c-0.9-0.3-4.5-1.4-6.8-1.7
	c-3.1-0.3-5.1-0.8-8.1-1c-3.6-0.3-5.4-0.6-10.1,0c-1.8,0.5-4.6,0.7-7.1,1.6c-2.1,0.8-4.9,2.2-7.7,3.8c-3,1.7-7.6,5-10.6,7.9
	c-3.1,3.3-4.6,5-6.7,9.1c-0.9,2-2.7,5.2-3.5,7.4C9,39.5,8,43.7,8.2,45.8c0.1,3.7-0.2,4.4,0,7.5c0,2.7,0.9,4.6,1.3,6.8
	c0.3,1.5,1.8,6.8,2.7,8.1C16.3,77,21.8,80.8,28,83.6c1.7,0.9,7.2,2.3,8.8,2.8c2.7,0.5,6.2,0.8,9.6,0.9c3.6,0.1,8.5-0.4,11.5-1.5
	c3.2-1.2,7-2.9,7-2.8c1.5-0.8,3.8-2.2,4.5-2.8c1.4-0.9,2.2-1.2,3-2.1c1.2-1,1.9-1.6,2.8-2.9c0.5-0.7,1.3-1.8,2.1-2.8
	c0.8-1.4,1.3-2.8,2.1-4.6c1-2.6,0.8-2.5,1-5.3c0.2-0.8,0-3.5-0.2-4c-0.4-2.5-0.3-4.7-0.9-7.1c-0.8-3.3-1.4-5.7-2.4-8.9
	c-0.9-3.5-3.7-6.8-5.7-9.2c-1.3-1.5-5.2-4.9-10.7-7c-1.5-0.5-4-1.1-5.6-1.4c-3.4-0.4-4-0.1-7.2,0.1c-1.1,0.2-3.7,0.7-4.7,1.1
	c-2.8,1-3.8,1.6-6.7,3.4C35,30.1,34,30.7,32.7,32c-1.1,1-1.9,2.7-2.7,3.7c-1.2,1.6-2.6,3.8-3.5,6.2c-1,2.4-1.3,5.7-1.1,7.8
	c0,1.6,0.4,4.6,0.6,5.2c0.2,0.7,0.6,2.7,0.7,3.1c0.1,0.4,1.1,2.5,1.3,2.9c0.6,1.3,1.7,3.1,3.6,4.9c1.4,1.5,4.1,3.1,6.2,3.6
	c1.8,1,4.9,1.2,6.6,1.2c0.8-0.1,3-0.2,4.1-0.5c2.3-0.5,2.7-0.6,5-1.6c2.1-1,3.5-1.3,5-2.4c0,0,2-1.6,2.9-2.7
	c0.5-0.6,1.3-3.5,1.2-5.3c-0.1-2.5,0.3-3.8-0.2-5.9c-0.5-2-1.4-4.4-2.3-5.8c-0.9-1.5-3-2.9-5.3-4c-1.3-0.6-4.3-1.2-5.6-1.4
	c-2.5-0.3-4.5,0.8-5.8,2.1c-1.1,1.2-3.2,3.8-2.4,6.5c0.8,2.4,1.7,5,5.3,4.8c2.5,0.5,5.3-0.2,6.3,0.2c1.4,0.8,2,2.6,1.4,3.8
	c-0.4,2.4-2.6,2.7-5.1,2.9c-2.2,0.4-7.7-0.7-8.9-1.6c-0.8-0.5-2.1-1.6-2.9-2.4c-0.6-0.6-1.3-1.8-1.8-2.7c-0.6-1.1-0.9-1.9-1.1-2.7
	c-0.2-0.9-0.6-2.5-0.4-4.2c0.1-1.1,0.4-1.6,0.7-3.2c0.6-1.8,1.3-3.2,2.5-4.8c1.5-1.6,3.5-3.4,5.4-4.3c1.7-0.9,4.6-1.2,7.3-1.1
	c2.2,0.2,4.7,0.5,6.4,1c2.9,1,3.7,1.2,6.1,2.7c2,1.2,4,3.5,5.1,5.4c2.4,4.9,3.8,10.3,2.8,17.7c-0.1,1.2-0.5,2.4-1.2,4.1
	c-0.7,1.5-2,3.3-3.8,4.7c-0.8,0.7-1.9,1.6-2.9,2.1c-1.4,0.8-2.3,1.3-3.7,2c-1.3,0.6-2.7,1.3-4.6,1.8c-2.1,0.8-3.7,0.9-6.3,1.2
	c-2.6,0.6-9.6,0.2-13.8-1.7c-2.9-1.2-6.1-3.3-8.5-5.9c-1.4-1.4-2.7-4-3.1-4.5c-1.9-3.7-2.3-7.2-2.6-8c-0.4-1-0.6-3.2-0.9-4.8
	c-0.3-1.7-0.1-8.9,1.6-13.6c1-1.8,1.6-3.5,2.2-4.4c1.2-1.7,1.8-2.8,2.8-4c1.5-1.9,2.6-3.4,4.1-4.4c3.8-3.1,7-4.7,11.2-6.7
	c5.3-2.2,6.9-1.7,12-1.6c2.3,0,5.6,0.7,7.2,1c3,0.4,4.7,1.1,6.8,1.7c2.2,0.6,3.4,1.6,5.2,2.7c1.5,0.9,3.2,2.3,4.3,3.3
	c2.9,2.1,4.3,4.4,6.1,7.2c0.3,0.5,2.5,5,2.8,6.3c0.2,0.6,0.6,2.4,0.9,3.5c0.4,1.7,0.6,3.2,1,5.1c0.4,2,1.1,5.7,1.4,9.1
	c0.5,3-0.3,9-0.8,10.9c-1,3.5-2.8,7.7-6.4,11.8c-1.5,1.8-3.1,3.2-5,4.7c-1.4,1.2-2.7,1.9-4.9,3.2c-3,1.8-5.3,2.9-9.5,4.6
	c-1.7,0.5-3.9,1.3-6.2,1.8c-4.5,0.4-9.1,0.8-14.2,0.2c-5-0.6-10.1-2-13.1-2.9c-1.6-0.6-4.8-2-6.2-2.7c-0.9-0.4-3.8-2.4-4.3-2.9
	c-2-1.2-6.5-5.4-9.4-9.4c-0.6-1.2-2.9-4.9-3.4-6.4c-1.3-2.7-2.2-6-2.8-7.4c-0.6-3.3-1.5-5.3-1.9-8.6c0-0.8-0.2-2.6-0.3-3.6
	c0.3-2.2-0.1-4.3,0.4-6.8c0.4-2.1,0.9-2.9,1-4.8c0.1-0.8,1.1-3.2,1.4-4.2c0.8-1.8,1-3.2,2.1-5.1c1.5-3,3.2-6.6,5.7-9.6
	c0.7-1,2.7-3.2,3.4-4c1.6-1.6,2.6-1.9,4.4-3.5c0.2-0.1,1.4-1.5,2.7-2C23.2,8.9,25,8.3,27,6.8c4-2,5.5-2.7,9.5-4.4
	c2.3-0.8,5.5-1.3,6.7-1.7C45.4,0.6,47.7-0.1,50,0c2.6,0,5.2,0.2,7.9,0.4C59.6,0.5,61.9,0.6,65.1,1.3L65.1,1.3z"/>
</svg>
