<?xml version="1.0" encoding="utf-8"?>
<!-- Generator: Adobe Illustrator 28.6.0, SVG Export Plug-In . SVG Version: 9.03 Build 54939)  -->
<svg version="1.1" baseProfile="tiny" id="Layer_1" xmlns="http://www.w3.org/2000/svg" xmlns:xlink="http://www.w3.org/1999/xlink"
	 x="0px" y="0px" viewBox="0 0 566.9 458.9" overflow="visible" xml:space="preserve">
<g>
	<path fill-rule="evenodd" fill="#FFFFFF" d="M564.9,182.7c0.1-1.4,0-2.7,0-3.9c0-25.8,0-51.6,0-77.5c0-1.3-0.1-2.7-0.4-4
		c-7.5-28-20.9-52.4-43.3-71.2C502.8,10.6,481.7,2,457.5,2c-64,0-128,0-192.1,0C179.2,2,93.1,2,6.9,2C5.3,2,3.7,1.9,2,2v58.7
		c1.2,0.5,2.3,0.9,3.3,1.3c7.9,2.5,15.8,5,23.8,7.5c79.8,25.3,159.6,50.5,239.5,75.8c37.7,11.9,75.4,23.9,113.1,35.8
		c2.4,0.7,4.9,1.4,7.3,1.4c57.3,0.1,114.7,0.1,172,0.1C562.2,182.7,563.5,182.8,564.9,182.7z M342.7,179
		c-51.4-16.3-102.4-32.5-154-48.8v226.7c-22.2,11.2-44.1,22.3-65.9,33.2v66.9h269.5c0-43.3,0-86.4,0-130c-16.6,0-33,0-49.6,0
		C342.7,277.4,342.7,228.4,342.7,179L342.7,179z M360.1,196.7v114h204.5c0-38.1,0-75.9,0-114C496.4,196.7,428.4,196.7,360.1,196.7z"
		/>
	<path fill-rule="evenodd" fill="#FFFFFF" d="M564.9,182.7l-178.8-0.1L2,60.9c0,0,0-39.1,0-58.9c1.7-0.1,177.2,0,263.4,0
		c64,0,128,0,192.1,0c24.3,0,45.4,8.6,63.7,24.1C543.5,45,557,69.4,564.5,97.3c0.3,1.3,0.4,2.7,0.4,4
		C564.9,127.2,564.9,182.7,564.9,182.7z"/>
	<path fill-rule="evenodd" fill="#FFFFFF" d="M342.7,179v148h49.6v130c-89.9,0-179.6,0-269.5,0c0-22.3,0-44.4,0-66.9
		c21.7-11,43.6-22,65.9-33.2c0-75.4,0-150.7,0-226.7C240.3,146.5,291.3,162.7,342.7,179L342.7,179z"/>
</g>
</svg>
