<?xml version="1.0" encoding="utf-8"?>
<!-- Generator: Adobe Illustrator 28.6.0, SVG Export Plug-In . SVG Version: 9.03 Build 54939)  -->
<svg version="1.1" baseProfile="tiny" id="Layer_1" xmlns="http://www.w3.org/2000/svg" xmlns:xlink="http://www.w3.org/1999/xlink"
	 x="0px" y="0px" viewBox="0 0 567.2 100.8" overflow="visible" xml:space="preserve">
<g>
	<g>
		<path fill="#FFFFFF" d="M161.6,35.2c1.7,1.1,2.9,2.4,3.7,3.7c0.9,1.6,1.4,3.4,1.6,5.4v44.2c0,2.7-0.5,4.8-1.5,6.3
			c-1,1.5-2.1,2.7-3.3,3.6c-1.4,1-3,1.7-4.8,2.1h-29.8V33.3h26.9C157.5,33.4,159.9,34,161.6,35.2L161.6,35.2z M163.7,44.1
			c-0.2-1.4-0.6-2.7-1.2-3.8c-0.5-1-1.3-1.8-2.4-2.6s-2.6-1.1-4.4-1l-25,0.1v60.6H156c1.3-0.3,2.6-0.7,3.6-1.3
			c0.9-0.5,1.8-1.3,2.6-2.3c0.8-1,1.3-2.4,1.4-4.2L163.7,44.1L163.7,44.1z M149.6,48c0.6,0.5,1,1.1,1.3,1.8c0.3,0.7,0.5,1.5,0.6,2.4
			v27.8c0.1,1.6-0.1,2.8-0.4,3.7c-0.4,0.9-0.8,1.5-1.3,1.9c-0.6,0.5-1.2,0.8-1.9,0.9h-5.7L141.9,47h5.2
			C148.2,47.1,149,47.4,149.6,48L149.6,48z M148.4,52.2c-0.1-0.5-0.3-0.9-0.6-1.2c-0.6-0.7-1.6-0.9-3-0.6v33
			c0.6,0.2,1.1,0.3,1.6,0.2c0.4-0.1,0.8-0.3,1.2-0.6c0.4-0.3,0.6-0.9,0.7-1.8V52.2z"/>
		<path fill="#FFFFFF" d="M189.7,33.6v66.7h-18.6V33.6H189.7z M186.5,37.4h-12.3v59.2h12.3V37.4z"/>
		<path fill="#FFFFFF" d="M214.2,55.4v-2.8c0.1-1.3-0.2-2-0.9-2.3c-0.3-0.1-0.6-0.1-1.1,0c-0.5,0-0.9,0.1-1.1,0.3s-0.4,0.5-0.4,0.8
			c-0.1,0.3-0.1,0.7,0,1.1v3.6l14.8,9.6c1.9,1,3.3,2.1,4.3,3.3s1.7,2.2,2.1,3.3c0.4,1.1,0.7,2.4,0.7,3.6v14.7
			c-0.1,2.1-0.7,3.8-1.6,5.1c-1,1.3-2,2.3-3.3,3c-1.4,0.8-3,1.4-4.7,1.8h-19.4c-2.4-0.1-4.3-0.7-5.7-1.8c-1.4-1.1-2.4-2.4-3-3.6
			c-0.8-1.5-1.2-3.3-1.4-5.2V68.2l17.4,10.6v3.7c0,0.6,0.1,1,0.2,1.3c0.2,0.3,0.4,0.5,0.6,0.6c0.3,0.2,0.6,0.3,1,0.3
			c1-0.1,1.5-0.4,1.6-1.1c0.1-0.3,0-0.6-0.1-1.1v-4.4l-12.7-7.7c-2.2-1.2-3.9-2.5-5-3.9c-1.1-1.4-1.9-2.6-2.4-3.7
			c-0.6-1.3-0.9-2.6-0.9-3.8V43.3c0.1-2.4,0.7-4.3,1.7-5.7c1-1.3,2.2-2.3,3.4-3c1.5-0.7,3.1-1.1,4.9-1.2h17.1
			c2.9,0.1,5.2,0.7,6.8,1.6c1.6,1,2.8,2,3.6,3.3c0.9,1.4,1.5,3,1.7,4.7v24.4L214.2,55.4z M212.6,47.1c1,0.1,1.8,0.4,2.3,0.7
			s1,0.8,1.3,1.2c0.3,0.5,0.5,1.1,0.7,1.7v2.8l12.5,7.5l-0.2-16.4c0.1-1.7-0.3-3-1.1-4.1c-0.8-1.1-1.7-1.9-2.6-2.4
			c-1.1-0.7-2.5-1.1-3.9-1.3H203c-1.5,0.1-2.6,0.5-3.4,1.2c-0.8,0.7-1.5,1.4-1.9,2.1c-0.5,0.9-0.9,1.9-1.1,2.9v15.5
			c-0.1,1.3,0.2,2.4,0.8,3.4c0.6,1,1.2,1.8,1.9,2.5c0.8,0.8,1.7,1.6,2.8,2.2l15.7,10.2v6.2c0,1.2-0.3,2.2-0.8,2.8
			c-0.5,0.7-1.1,1.2-1.7,1.5c-0.7,0.4-1.5,0.6-2.5,0.8c-1.2-0.1-2.1-0.4-2.8-0.8c-0.6-0.4-1.1-0.9-1.4-1.4c-0.4-0.6-0.6-1.2-0.8-2
			v-3.1l-11.2-6.7l-0.2,15.7c0.1,1.9,0.5,3.3,1.2,4.3s1.5,1.7,2.4,2.3c1,0.6,2.2,0.9,3.5,1.1h18.7c1.9-0.1,3.2-0.5,4.2-1.2
			c0.9-0.8,1.6-1.6,2.1-2.5c0.5-1.1,0.8-2.3,0.8-3.6V75.5c0.1-0.8-0.1-1.5-0.6-2.3c-0.4-0.8-1-1.4-1.5-2c-0.7-0.7-1.5-1.4-2.3-2
			l-17.1-11v-7.1c0.1-1.1,0.4-1.9,0.9-2.4s1.1-0.9,1.7-1.1C211,47.3,211.8,47.1,212.6,47.1L212.6,47.1z"/>
		<path fill="#FFFFFF" d="M273.6,58.7l-6.9,8l6.9,8.4v25.2h-17.7V81.7l-2.5-2.3v21.1h-17.9v-67h17.9v21.1l2.5-3V33.5h17.7V58.7z
			 M270.5,37.3h-11.1l-0.1,16l-9,9.2l-0.4-25.6h-11.2v59.6h11.1V71.8l8.7,8.2v16.6h11.8V75.4l-7.6-8.8l7.8-9L270.5,37.3z"/>
		<path fill="#FFFFFF" d="M325.6,55.4v-2.8c0.1-1.3-0.2-2-0.9-2.3c-0.3-0.1-0.6-0.1-1.1,0c-0.5,0-0.9,0.1-1.1,0.3
			c-0.2,0.2-0.4,0.5-0.4,0.8c-0.1,0.3-0.1,0.7,0,1.1v3.6l14.8,9.6c1.9,1,3.3,2.1,4.3,3.3s1.7,2.2,2.1,3.3c0.4,1.1,0.7,2.4,0.7,3.6
			v14.7c-0.1,2.1-0.7,3.8-1.6,5.1c-1,1.3-2,2.3-3.3,3c-1.4,0.8-3,1.4-4.7,1.8H315c-2.4-0.1-4.3-0.7-5.7-1.8c-1.4-1.1-2.4-2.4-3-3.6
			c-0.8-1.5-1.2-3.3-1.4-5.2V68.2l17.4,10.6v3.7c0,0.6,0.1,1,0.2,1.3c0.2,0.3,0.4,0.5,0.6,0.6c0.3,0.2,0.6,0.3,1,0.3
			c1-0.1,1.5-0.4,1.6-1.1c0.1-0.3,0-0.6-0.1-1.1v-4.4l-12.7-7.7c-2.2-1.2-3.9-2.5-5-3.9s-1.9-2.6-2.4-3.7c-0.6-1.3-0.9-2.6-0.9-3.8
			V43.3c0.1-2.4,0.7-4.3,1.7-5.7c1-1.3,2.2-2.3,3.4-3c1.5-0.7,3.1-1.1,4.9-1.2h17.1c2.9,0.1,5.2,0.7,6.8,1.6c1.6,1,2.8,2,3.6,3.3
			c0.9,1.4,1.5,3,1.7,4.7v24.4L325.6,55.4z M324.1,47.1c1,0.1,1.8,0.4,2.3,0.7s1,0.8,1.3,1.2c0.3,0.5,0.5,1.1,0.7,1.7v2.8l12.5,7.5
			l-0.2-16.4c0.1-1.7-0.3-3-1.1-4.1c-0.8-1.1-1.7-1.9-2.6-2.4c-1.1-0.7-2.5-1.1-3.9-1.3h-18.6c-1.5,0.1-2.6,0.5-3.5,1.2
			c-0.8,0.7-1.5,1.4-1.9,2.1c-0.5,0.9-0.9,1.9-1.1,2.9v15.5c-0.1,1.3,0.2,2.4,0.8,3.4c0.6,1,1.2,1.8,1.9,2.5
			c0.8,0.8,1.7,1.6,2.8,2.2l15.7,10.2v6.2c0,1.2-0.3,2.2-0.8,2.8c-0.5,0.7-1.1,1.2-1.7,1.5c-0.7,0.4-1.5,0.6-2.5,0.8
			c-1.2-0.1-2.1-0.4-2.8-0.8c-0.6-0.4-1.1-0.9-1.4-1.4c-0.4-0.6-0.6-1.2-0.8-2v-3.1L308,73.9l-0.2,15.7c0.1,1.9,0.5,3.3,1.2,4.3
			s1.5,1.7,2.4,2.3c1,0.6,2.2,0.9,3.5,1.1h18.7c1.9-0.1,3.2-0.5,4.2-1.2c0.9-0.8,1.6-1.6,2.1-2.5c0.5-1.1,0.8-2.3,0.8-3.6V75.5
			c0.1-0.8-0.1-1.5-0.6-2.3c-0.4-0.8-1-1.4-1.5-2c-0.7-0.7-1.5-1.4-2.3-2l-17.1-11v-7.1c0.1-1.1,0.4-1.9,0.9-2.4s1.1-0.9,1.7-1.1
			C322.5,47.3,323.2,47.1,324.1,47.1L324.1,47.1z"/>
		<path fill="#FFFFFF" d="M387.1,33.7v56.9c-0.1,2.2-0.5,4-1.4,5.3c-0.9,1.3-1.8,2.3-2.9,3c-1.2,0.8-2.6,1.3-4.2,1.6h-28.3V84.3h18
			v-3.2h-12.3c-2.4-0.1-4.2-0.7-5.4-1.7c-1.2-1-2.1-2.2-2.6-3.4c-0.6-1.5-1-3.1-1-4.9V33.7h18.4v30.6h3.2V33.7L387.1,33.7z
			 M384,37.2h-11.6v26.2c-0.1,0.8-0.3,1.6-0.7,2.2c-0.3,0.6-0.8,1.1-1.5,1.5c-0.7,0.4-1.6,0.7-2.9,0.8c-1,0.1-1.8,0-2.5-0.3
			c-0.6-0.3-1.2-0.7-1.7-1.3s-0.8-1.7-0.9-3.1v-26H351v34c0.1,1.3,0.4,2.4,0.9,3.4c0.4,0.9,1.1,1.7,2.1,2.4s2.3,1.1,4.1,1.1h14.3v5
			c-0.1,0.8-0.4,1.6-0.9,2.2c-0.4,0.5-1,1-1.7,1.4c-0.8,0.4-1.8,0.7-3.1,0.7h-12.8V97h24.4c1.1-0.1,2-0.4,2.9-1c0.7-0.4,1.4-1.1,2-2
			s0.9-2.1,0.9-3.6L384,37.2z"/>
		<path fill="#FFFFFF" d="M411.5,55.4v-2.8c0.1-1.3-0.2-2-0.9-2.3c-0.3-0.1-0.6-0.1-1.1,0c-0.5,0-0.9,0.1-1.1,0.3
			c-0.2,0.2-0.4,0.5-0.4,0.8c-0.1,0.3-0.1,0.7,0,1.1v3.6l14.8,9.6c1.9,1,3.3,2.1,4.3,3.3s1.7,2.2,2.1,3.3c0.4,1.1,0.7,2.4,0.7,3.6
			v14.7c-0.1,2.1-0.7,3.8-1.6,5.1c-1,1.3-2,2.3-3.3,3c-1.4,0.8-3,1.4-4.7,1.8h-19.4c-2.4-0.1-4.3-0.7-5.7-1.8
			c-1.4-1.1-2.4-2.4-3-3.6c-0.8-1.5-1.2-3.3-1.4-5.2V68.2l17.4,10.6v3.7c0,0.6,0.1,1,0.2,1.3s0.4,0.5,0.6,0.6c0.3,0.2,0.6,0.3,1,0.3
			c1-0.1,1.5-0.4,1.6-1.1c0.1-0.3,0-0.6-0.1-1.1v-4.4l-12.7-7.7c-2.2-1.2-3.9-2.5-5-3.9c-1.1-1.4-1.9-2.6-2.4-3.7
			c-0.6-1.3-0.9-2.6-0.9-3.8V43.3c0.1-2.4,0.7-4.3,1.7-5.7s2.2-2.3,3.4-3c1.5-0.7,3.1-1.1,4.9-1.2h17.1c2.9,0.1,5.2,0.7,6.8,1.6
			s2.8,2,3.6,3.3c0.9,1.4,1.5,3,1.7,4.7v24.4L411.5,55.4z M409.9,47.1c1,0.1,1.8,0.4,2.3,0.7s1,0.8,1.3,1.2c0.3,0.5,0.5,1.1,0.7,1.7
			v2.8l12.5,7.5l-0.2-16.4c0.1-1.7-0.3-3-1.1-4.1s-1.7-1.9-2.6-2.4c-1.1-0.7-2.5-1.1-3.9-1.3h-18.6c-1.5,0.1-2.6,0.5-3.4,1.2
			c-0.8,0.7-1.5,1.4-1.9,2.1c-0.5,0.9-0.9,1.9-1.1,2.9v15.5c-0.1,1.3,0.2,2.4,0.8,3.4c0.6,1,1.2,1.8,1.9,2.5
			c0.8,0.8,1.7,1.6,2.8,2.2L415,76.6v6.2c0,1.2-0.3,2.2-0.8,2.8c-0.5,0.7-1.1,1.2-1.7,1.5c-0.7,0.4-1.5,0.6-2.5,0.8
			c-1.2-0.1-2.1-0.4-2.8-0.8c-0.6-0.4-1.1-0.9-1.4-1.4c-0.4-0.6-0.6-1.2-0.8-2v-3.1l-11.2-6.7l-0.2,15.7c0.1,1.9,0.5,3.3,1.2,4.3
			s1.5,1.7,2.4,2.3c1,0.6,2.2,0.9,3.5,1.1h18.7c1.9-0.1,3.2-0.5,4.2-1.2c0.9-0.8,1.6-1.6,2.1-2.5c0.5-1.1,0.8-2.3,0.8-3.6V75.5
			c0.1-0.8-0.1-1.5-0.6-2.3c-0.4-0.8-1-1.4-1.5-2c-0.7-0.7-1.5-1.4-2.3-2l-17.1-11v-7.1c0.1-1.1,0.4-1.9,0.9-2.4s1.1-0.9,1.7-1.1
			C408.3,47.3,409.1,47.1,409.9,47.1L409.9,47.1z"/>
		<path fill="#FFFFFF" d="M468.1,33.9v17.4h-8.2v49.2h-19.4V51.3h-7.9V33.5L468.1,33.9z M464.3,37.3h-28.3v10.2h8V97h11.7V47.7h8.5
			L464.3,37.3L464.3,37.3z"/>
		<path fill="#FFFFFF" d="M489.9,51.1v7.8h12.3v17.4h-12.6v7.4h12.6v17.1l-31.1-0.2V33.5h31.5v17.6L489.9,51.1L489.9,51.1z
			 M486.2,62.4V47.6h12.6V37.4h-24.2V98h24.2V87.3H486V72.8h13V62.4H486.2z"/>
		<path fill="#FFFFFF" d="M563.6,35.9c1.3,1.1,2.2,2.2,2.7,3.3c0.6,1.3,0.9,2.8,0.9,4.4v57.2h-18.2V52.7c-0.1-0.7-0.3-1.1-0.8-1.3
			c-0.3-0.1-0.5-0.1-0.8-0.1c-0.4,0-0.7,0.1-0.9,0.3c-0.2,0.2-0.4,0.4-0.5,0.6c-0.2,0.3-0.3,0.5-0.3,0.8v47.7h-18V53
			c0-0.7-0.3-1.2-0.8-1.6c-0.3-0.2-0.5-0.3-0.8-0.4c-0.4,0-0.8,0.1-1.1,0.3s-0.4,0.4-0.6,0.7c-0.2,0.3-0.3,0.6-0.3,1v47.4h-17.4
			V33.6h22.3c1.4-0.1,2.6,0,3.7,0.3c1.1,0.4,2,0.8,2.7,1.3c0.8,0.6,1.6,1.2,2.3,2c0.4-0.7,0.9-1.3,1.4-1.7c0.6-0.4,1.1-0.8,1.7-1
			c0.6-0.3,1.3-0.5,2-0.7h15C560.5,34.2,562.3,34.9,563.6,35.9L563.6,35.9z M563.8,43.1c-0.1-1.1-0.3-2-0.8-2.9c-0.4-0.7-1-1.4-2-2
			c-0.9-0.6-2.2-0.9-3.9-0.9h-13.1c-1,0.1-2,0.3-2.9,0.8c-0.8,0.4-1.5,1-2.3,1.7c-0.8,0.8-1.4,1.8-1.9,3.1c-0.5-1.2-1.1-2.3-1.8-3.2
			c-0.7-0.8-1.6-1.5-2.6-2.1c-1-0.6-2.4-0.9-4-0.9L510.6,37v60h10.6V52.5c-0.1-0.9,0.1-1.7,0.5-2.4c0.3-0.6,0.8-1.2,1.6-1.7
			c0.7-0.5,1.8-0.8,3.3-0.8c0.8,0,1.5,0.2,2.2,0.6c0.5,0.3,1,0.9,1.5,1.7s0.7,2,0.7,3.5V97h11.3V52.5c0-0.8,0.2-1.5,0.6-2.2
			c0.3-0.6,0.8-1.1,1.5-1.6c0.7-0.5,1.8-0.7,3.2-0.7c0.8-0.1,1.5,0,2.2,0.3c0.6,0.3,1.1,0.7,1.6,1.3s0.7,1.7,0.7,3.1V97h11.7
			L563.8,43.1z"/>
	</g>
	<path fill="#FFFFFF" d="M127.8,0h11.7v4.1h-7.6v5h7.6v4.2h-7.6v8.8h-4.1V0z"/>
	<path fill="#FFFFFF" d="M152.8,22.1h-4v-3.4h-7.7l-2.3,3.4h-4.7L149.6,0h3.3V22.1z M148.8,14.5V8l-4.7,6.4H148.8z"/>
	<path fill="#FFFFFF" d="M154.4,0h4.6l6.5,14.8L172.1,0h4.7v22.1h-4.1V11l-5.1,11.1h-4.2L158.5,11v11.1h-4.1L154.4,0z"/>
	<path fill="#FFFFFF" d="M253.8,0h4.6l6.5,14.8L271.5,0h4.7v22.1h-4.1V11L267,22.1h-4.2L257.9,11v11.1h-4.1V0z"/>
	<path fill="#FFFFFF" d="M178.1,0h4.3v22.1h-4.3V0z"/>
	<path fill="#FFFFFF" d="M183.6,0h4.3v18.1h5.6v4h-9.8V0z"/>
	<path fill="#FFFFFF" d="M188.7,0h4.7l4.5,9l4.4-9h4.7l-7.1,14v8h-4.1v-8L188.7,0z"/>
	<path fill="#FFFFFF" d="M230.2,6.1c-1.9-3.6-5.6-6-9.9-6c-6.2,0-11.2,5-11.2,11.2s5,11.2,11.2,11.2c4.3,0,8.1-2.5,10-6.1l-5.1,0
		c-1.3,1.2-2.9,1.9-4.8,1.9c-3.9,0-7-3.1-7-7s3.1-7,7-7c1.8,0,3.5,0.7,4.7,1.8L230.2,6.1z"/>
	<path fill="#FFFFFF" d="M241.3,22.6c-6.2,0-11.3-5-11.3-11.3S235,0,241.3,0c6.2,0,11.3,5,11.3,11.3
		C252.5,17.5,247.5,22.6,241.3,22.6z M248.4,11.3c0-3.9-3.2-7.1-7.1-7.1s-7.1,3.2-7.1,7.1c0,3.9,3.2,7.1,7.1,7.1
		C245.3,18.4,248.4,15.2,248.4,11.3z"/>
	<path fill="#FFFFFF" d="M285,0c3.7,0.3,6.7,3.4,6.7,7.2c0,3.8-2.9,6.9-6.7,7.2l-3.2,0v7.6h-4.1V0h4.1L285,0z M281.8,4.3v6l3.2,0
		c1.4-0.3,2.5-1.5,2.5-3c0-1.5-1.1-2.7-2.5-3L281.8,4.3z"/>
	<path fill="#FFFFFF" d="M337.2,22.4h-4.1V0.2l5.7,0l3.2,0c3.7,0.3,6.7,3.4,6.7,7.2c0,3.1-2,5.8-4.7,6.8l4.8,8.1h-4.5l-6.7-11.4
		h-0.4L337.2,22.4z M342,10.4c1.4-0.3,2.5-1.5,2.5-3c0-1.5-1.1-2.7-2.5-3h-4.8v6L342,10.4z"/>
	<path fill="#FFFFFF" d="M297.1,12.8l0,3.2c0.3,1.4,1.5,2.5,3,2.5s2.7-1.1,3-2.5l0-3.2l0-12.6h4.2v12.6l0,3.2
		c-0.3,3.7-3.4,6.7-7.2,6.7c-3.8,0-6.9-2.9-7.2-6.7l0-3.2l0-12.6h4.3L297.1,12.8z"/>
	<path fill="#FFFFFF" d="M311.6,22.4h4.2v-18h3.8V0.2h-11.6v4.2h3.6V22.4z"/>
	<path fill="#FFFFFF" d="M332,22.4h-11.5V0.2H332v4.1h-7.4v5.3h7.4v4.1h-7.4v4.6h7.4V22.4z"/>
	<g>
		<g>
			<path fill="#FFFFFF" d="M56.4,86.8c6.3,0,11.5,5.1,11.5,11.5h30.3c4.9,0,9-4,9-9c0-4.1-2.7-7.5-6.4-8.6l0,0c0-2.8,0-5.9,0-9.3
				l0-0.1c5.5-2.5,9.4-8,9.4-14.5c0-6.4-3.8-12-9.3-14.5l-0.1-0.1c0-14.5,0-27,0-29.3c0-5.6-4.6-10.2-10.2-10.2H22.2
				c-5.6,0-10.2,4.6-10.2,10.2v29.3l-0.1,0.1c-5.5,2.5-9.3,8-9.3,14.5c0,6.5,3.9,12,9.4,14.5l0,0.1v9.3l0,0
				c-3.7,1.1-6.4,4.5-6.4,8.6c0,4.9,4,9,9,9h30.3c0-6.3,5.1-11.5,11.5-11.5L56.4,86.8z"/>
			<path fill="#FFFFFF" d="M3,89.4c0-4.5,2.6-8.5,6.4-10.3l0,0c0-1.9,0-4,0-6.2l0,0C3.8,69.7,0,63.7,0,56.8l0,0
				c0-6.9,3.8-12.9,9.4-16.1l0,0c0-13.8,0-25.6,0-27.8l0,0c0-7,5.7-12.7,12.7-12.7l0,0h68.3c7,0,12.7,5.7,12.7,12.7l0,0v27.8l0,0
				c5.6,3.1,9.4,9.2,9.4,16.1l0,0c0,6.9-3.8,12.9-9.4,16.1l0,0V79l0,0c3.8,1.9,6.4,5.8,6.4,10.3l0,0c0,6.3-5.1,11.5-11.5,11.5l0,0
				H65.3v-2.5c0-4.9-4-9-9-9l0,0v-2.5v-2.5c6.9,0,12.6,5,13.8,11.5l0,0h28.1c3.6,0,6.4-2.9,6.4-6.4l0,0c0-2.9-2-5.4-4.6-6.2l0,0
				l-1-0.3l-0.8-1.5v-0.6c0-2.8,0-5.9,0-9.3l0,0v-0.6l0.7-1.4l0.9-0.4c4.7-2.1,7.9-6.8,7.9-12.2l0,0c0-5.4-3.2-10.1-7.8-12.2l0,0
				l-0.2-0.1l-1.4-0.9v-1.4c0-14.5,0-27,0-29.3l0,0c0-4.3-3.4-7.7-7.7-7.7l0,0H22.2c-4.3,0-7.7,3.4-7.7,7.7l0,0v29.3l0,0v1.4
				l-1.1,0.7L13,44.6l-0.2,0.1C8.2,46.7,5,51.4,5,56.8l0,0c0,5.4,3.2,10.1,7.9,12.2l0,0l0.9,0.4l0.7,1.4v0.6v9.3l0,0v0.6l-0.8,1.5
				l-1,0.3C10,84,8,86.4,8,89.4l0,0c0,3.6,2.9,6.4,6.4,6.4l0,0h28.1c1.2-6.5,6.9-11.5,13.8-11.5l0,0h0.1v2.5v2.5h-0.1
				c-4.9,0-9,4-9,9l0,0v2.5H14.5C8.1,100.8,3,95.7,3,89.4L3,89.4z"/>
		</g>
		<path fill="#FFFFFF" d="M16.6,38.3c0-10.4,8.5-18.9,18.9-18.9l0,0c10.4,0,18.9,8.5,18.9,18.9l0,0c0,10.4-8.5,18.9-18.9,18.9l0,0
			C25.1,57.2,16.6,48.8,16.6,38.3L16.6,38.3z M19.8,38.3c0,8.7,7.1,15.8,15.8,15.8l0,0c8.7,0,15.8-7.1,15.8-15.8l0,0
			c0-8.7-7.1-15.8-15.8-15.8l0,0C26.8,22.6,19.8,29.6,19.8,38.3z"/>
		<circle fill="#FFFFFF" cx="47.7" cy="38.4" r="4.4"/>
		<path fill="#FFFFFF" d="M58.2,38.3L58.2,38.3c0-10.4,8.5-18.9,18.9-18.9l0,0c10.4,0,18.9,8.5,18.9,18.9l0,0
			c0,10.4-8.5,18.9-18.9,18.9l0,0C66.7,57.2,58.2,48.8,58.2,38.3L58.2,38.3z M77.1,54.1c8.7,0,15.8-7.1,15.8-15.8l0,0
			c0-8.7-7.1-15.8-15.8-15.8l0,0c-8.7,0-15.8,7.1-15.8,15.8l0,0C61.4,47,68.4,54.1,77.1,54.1z"/>
		<circle fill="#FFFFFF" cx="64.9" cy="38.4" r="4.4"/>
	</g>
</g>
</svg>
