<?xml version="1.0" encoding="utf-8"?>
<!-- Generator: Adobe Illustrator 28.6.0, SVG Export Plug-In . SVG Version: 9.03 Build 54939)  -->
<svg version="1.1" baseProfile="tiny" id="Layer_1" xmlns="http://www.w3.org/2000/svg" xmlns:xlink="http://www.w3.org/1999/xlink"
	 x="0px" y="0px" viewBox="0 0 566.9 67.6" overflow="visible" xml:space="preserve">
<g>
	<g>
		<path fill="#FFFFFF" d="M213.3,56.3c-4.8,6.5-9.5,8.3-11.6,9.3c-2.1,1-5.2,1.8-7.9,1.8c-7.7,0-13.7-2.5-18-7.5
			c-4.3-5-6.5-12-6.5-21.2c0-10.8,2.7-19.9,8.2-27.5C182.9,3.7,190.2,0,199.2,0c6.8,0,12.4,1.9,16.8,5.8c4.4,3.8,6.6,9.9,6.6,18.1
			h-13.2c0-3.9-0.9-6.7-2.6-8.3c-1.7-1.6-4.2-2.4-7.5-2.4c-5.3,0-9.4,2.6-12.4,7.8c-2.9,5.2-4.4,11.1-4.4,17.7c0,4.5,1,8.2,2.8,11.1
			c1.9,2.9,4.7,4.3,8.5,4.3c3.9,0,7-1.1,9.2-3.4c2.2-2.2,3.8-5.1,4.8-8.6h-12.3l2-12h24l-2,11.6C219.6,41.9,218.1,49.8,213.3,56.3z"
			/>
		<path fill="#FFFFFF" d="M327.6,1.7l-10.8,64.2h-11.6l9.1-49.7l-20.1,49.7h-9.5l-4.4-49.7l-6.9,49.7h-11.7l10.7-64.2h16.4l3.7,45.2
			l18.5-45.3L327.6,1.7z"/>
		<path fill="#FFFFFF" d="M339.9,26.5h18.9l-2,12.4h-18.9l-2.4,13.7h21.4l-2.1,13.2h-33.7l10.6-64.2H365l-2,13.3H342L339.9,26.5z"/>
		<path fill="#FFFFFF" d="M239.1,1.5l-25.9,64.3h12.6l4.6-12.5h16.5l1.1,12.5h12.2l-7.3-64.3L239.1,1.5L239.1,1.5z M234.4,42.3
			l9.4-25.6l2.2,25.6H234.4z"/>
	</g>
	<g>
		<path fill="#FFFFFF" d="M430.3,56.3c-4.8,6.5-9.5,8.3-11.6,9.3c-2.1,1-5.2,1.8-7.9,1.8c-7.7,0-13.7-2.5-18-7.5
			c-4.3-5-6.5-12-6.5-21.2c0-10.8,2.7-19.9,8.2-27.5C399.9,3.8,407.2,0,416.2,0c6.8,0,12.4,1.9,16.8,5.8c4.4,3.8,6.6,9.9,6.6,18.1
			h-13.2c0-3.9-0.9-6.7-2.6-8.3c-1.7-1.6-4.2-2.4-7.5-2.4c-5.3,0-9.4,2.6-12.4,7.8c-2.9,5.2-4.4,11.1-4.4,17.7c0,4.5,1,8.2,2.8,11.1
			c1.9,2.9,4.7,4.3,8.5,4.3c3.9,0,7-1.1,9.2-3.4c2.2-2.2,3.8-5.1,4.8-8.6h-12.3l2-12h24l-2,11.6C436.6,41.9,435,49.8,430.3,56.3
			L430.3,56.3z"/>
		<path fill="#FFFFFF" d="M455,26.5h18.9L471.9,39H453l-2.5,13.7h21.4l-2.1,13.2h-33.7l10.6-64.3h33.3l-2,13.3h-20.9L455,26.5z"/>
		<path fill="#FFFFFF" d="M496.8,1.6l-25.9,64.3h12.6l4.6-12.5h16.5l1.1,12.5h12.2l-7.3-64.3C510.6,1.6,496.8,1.6,496.8,1.6z
			 M492.2,42.3l9.4-25.6l2.2,25.6H492.2z"/>
		<path fill="#FFFFFF" d="M537.5,29.8l2.8-15.8h6.8c2.5,0,4.3,0.4,5.6,1.3c1.2,0.9,1.9,2.7,1.9,5.4c0,3-1,5.3-3,6.8
			c-2,1.5-4.6,2.2-7.7,2.2L537.5,29.8L537.5,29.8z M529.9,1.6l-10.6,64.3h12.3l4.1-24.5h5.7l9.5,24.5H565l-10.5-27.1
			c3.7-1.9,6.8-5,9-8.2c2.3-3.4,3.4-7.3,3.4-11.7c0-6.1-1.4-10.4-4.1-13.1c-2.7-2.7-6.6-4-11.6-4L529.9,1.6L529.9,1.6z"/>
	</g>
	<path fill="#FFFFFF" d="M10.3,26.3C21.1,8.1,36.1-3.3,43.7,0.9c7.6,4.2,4.9,22.3-6,40.5C26.8,59.6,11.9,70.9,4.3,66.8
		C-3.3,62.6-0.6,44.5,10.3,26.3z"/>
	<path fill="#FFFFFF" d="M58.8,26.3C69.7,8.1,84.6-3.3,92.2,0.9c7.6,4.2,4.9,22.3-6,40.5C75.4,59.6,60.4,70.9,52.9,66.8
		C45.3,62.6,48,44.5,58.8,26.3z"/>
	<path fill="#FFFFFF" d="M107.4,26.3c10.9-18.2,25.8-29.6,33.4-25.4c7.6,4.2,4.9,22.3-6,40.5C124,59.6,109,70.9,101.5,66.8
		C93.9,62.6,96.6,44.5,107.4,26.3L107.4,26.3z"/>
</g>
</svg>
