<?xml version="1.0" encoding="utf-8"?>
<!-- Generator: Adobe Illustrator 28.6.0, SVG Export Plug-In . SVG Version: 9.03 Build 54939)  -->
<svg version="1.1" baseProfile="tiny" id="Layer_1" xmlns="http://www.w3.org/2000/svg" xmlns:xlink="http://www.w3.org/1999/xlink"
	 x="0px" y="0px" viewBox="0 0 566.9 98.6" overflow="visible" xml:space="preserve">
<g transform="translate(.0055519 -.00064086)">
	<path fill="#FFFFFF" d="M542.3,0.9h24.6l-34.7,54L526.6,97h-22.2l6.5-48.1L488.6,0.9h24l11.9,27.3L542.3,0.9z"/>
	<path fill="#FFFFFF" d="M283,59.1h29.4l3-21.4h-29.1l2.1-15.4h33.8l3.3-21.4h-56.1L256,97h55.8l3-21.4H281L283,59.1z"/>
	<path fill="#FFFFFF" d="M112.2,49.6l7.4-19.9l2.4,19.9H112.2L112.2,49.6z M104.1,68.6h20.2l3.6,28.5h36.5l16.9-52.2l8.3,52.2h19.3
		l21.4-55.2l3.6,55.2h21.4l-5.9-96.1h-25.5l-19.9,50.7l-7.7-50.7h-22.8l-26.1,78.9l-9.8-78.9h-28.5L77.1,80.7l4.2-31.1H42.7l-2.7,19
		H57l-1.2,6.5c-3,1.8-9.8,2.1-12.5,2.1S20.8,75.4,21.7,54C22.5,32.7,51,12.8,84.8,23.8l3.3-20.5C65.6-4.4,6.3-0.1,0.3,52.8
		c-3.6,31.1,24.9,46,43.9,45.7c11,0.6,23.4-3.6,27.9-5.9L70.6,97h22.5L104.1,68.6L104.1,68.6z"/>
	<path fill="#FFFFFF" d="M464.6,0c-15.4-0.6-37.7,8.3-45.1,44.2c-7.4,35.9,12.5,50.4,30.9,52.8c18.4,2.4,44.2-9.2,49-43.6
		C504,19,487.1,0.9,464.6,0L464.6,0z M462.2,20.5c6.2,0,19.6,4.2,16.3,29.1c-3.3,24.9-18.7,27.9-24.3,27.3
		c-5.6-0.6-17.2-4.4-13.9-27.3C443.5,26.7,455.7,20.2,462.2,20.5L462.2,20.5z"/>
	<path fill="#FFFFFF" d="M370.8,37.7h12.5c9.2,0,11-5.9,11.3-8.3c0.3-2.4-2.4-7.1-7.1-7.1h-14.5L370.8,37.7L370.8,37.7z M365.5,75.7
		h16.9c9.2,0,11.3-7.1,11.6-9.5c0.3-2.4-2.4-7.1-7.1-7.1h-19L365.5,75.7L365.5,75.7z M340.6,97l13.4-96.1h40.9
		c9.8,0,24,11.3,22.3,26.4c-1.8,15.1-6.5,16-9.8,18.4c5,4.4,10.1,11.6,8,24.9C413.3,84,402.3,97,383,97L340.6,97L340.6,97z"/>
	<path fill="#FFFFFF" d="M538.6,82.5c-3.7,0-6.6,3-6.6,6.6c0,3.7,3,6.6,6.6,6.6c3.6,0,6.6-3,6.6-6.6
		C545.2,85.4,542.3,82.5,538.6,82.5l0-0.9c4.2,0,7.5,3.4,7.5,7.5c0,4.2-3.3,7.5-7.5,7.5c-4.2,0-7.5-3.4-7.5-7.5
		c0-4.1,3.4-7.5,7.5-7.5L538.6,82.5L538.6,82.5z"/>
	<path fill="#FFFFFF" d="M536.8,85.6h2.4c1,0,2.2,0.2,2.2,1.5c0,1.7-1.8,1.5-3,1.5l-1.6,0v0.8h1.9l2.4,3.9h1.2l-2.5-3.9
		c1.5,0,2.7-0.6,2.7-2.3c0-0.7-0.3-1.5-0.9-1.8c-0.6-0.4-1.3-0.4-2-0.4h-3.7v8.4h1L536.8,85.6L536.8,85.6L536.8,85.6z"/>
</g>
</svg>
