<?xml version="1.0" encoding="utf-8"?>
<!-- Generator: Adobe Illustrator 28.6.0, SVG Export Plug-In . SVG Version: 9.03 Build 54939)  -->
<svg version="1.1" baseProfile="tiny" id="Layer_1" xmlns="http://www.w3.org/2000/svg" xmlns:xlink="http://www.w3.org/1999/xlink"
	 x="0px" y="0px" viewBox="0 0 566.9 66" overflow="visible" xml:space="preserve">
<g>
	<path fill="#FFFFFF" d="M313,16.6h-8.3l-19.6,33h23.3v-7.3h-9.5l9.5-17.1l13.8,24.4h10.6v-0.1h16.6C363.8,49.5,371,44,371,33
		c0-1.9-0.2-3.7-0.7-5.3l13.2,21.8h6.4L409,16.6h-10.1L387,38.2l-12.6-21.6h-10.9l3,4.9c-3.5-3.3-8.6-4.9-15.1-4.9h-21.8V44
		L313,16.6z M339,24h12.5c6.5,0,9.8,2.9,9.8,8.6c0,3.4-1,5.9-3,7.2c-1.9,1.3-5.5,2-10.5,2H339L339,24L339,24z"/>
	<path fill="#FFFFFF" d="M423,16.6h-8.4l-19.5,33h9.9v-0.1h13.5v-7.4h-9.4l9.4-17l13.8,24.4h10.7v-0.1h5.5V29.6l24.9,19.9h6.5V16.6
		h-8.6v19.7L446,16.6h-6.4v27.4L423,16.6z"/>
	<path fill="#FFFFFF" d="M484.7,18.4c-1.3,1.2-2,3.4-2,6.4v16.3c0,3.2,0.7,5.3,2,6.5c1.3,1.2,3.6,1.8,7,1.8H511c3.4,0,5.8-0.6,7-1.8
		c1.3-1.2,2-3.4,2-6.5v-4.6l-9.5-0.2v5.1h-18.4V24.2h18.4v4.5h9.5v-3.9c0-3.2-0.7-5.4-2-6.4c-1.3-1.3-3.5-1.9-7-1.9h-19.4
		C488.3,16.6,486,17.1,484.7,18.4z"/>
	<path fill="#FFFFFF" d="M532.8,28.8V24h25.7v-7.5h-35.2v32.9h35.6v-7.6h-26.1V36h15.1v-7.2L532.8,28.8z"/>
	<path fill="#FFFFFF" d="M50.8,10.4C40.5,6.6,30.5,7.8,21,13.7C11.6,19.5,7.4,28.3,8.6,39.8c0.3,3.4,1.6,6.4,3.7,9.1
		c2.2,2.7,4.9,4.6,8.2,6.1c3.4,1.5,6.9,2.1,10.6,1.9c4.1-0.2,7.9-1.4,11.5-3.4l0.4-0.2l-1.4,3.2h10l6.4-14h11.1l2.5,14h16.4
		l8.4-26.2l5.4,26.2h6.5l12.6-29l1.3,29h9.6l-2-46.9h-11.7l-10.9,25.7l-4.7-25.7h-9.6L80.5,47.5L74.2,9.5H62.4L44.3,50.5l2.6-17.1
		H29l-1.3,8.8h7.5l-0.7,4.7l-7.9,0.5c-3.2-0.8-5.4-2.5-6.9-5.1c-1.3-2.5-1.9-5-1.6-7.9c0.4-4,2.3-7.5,6-10.8
		c3.3-2.9,7.6-4.6,12.6-5.2c4.9-0.7,9.1-0.2,12.7,1.3L50.8,10.4z M67.8,33.3h-5.9l4.1-9.1L67.8,33.3z"/>
	<path fill="#FFFFFF" d="M166.8,9.5h-26.7l-7.5,47h26.9l1.7-10h-16.9l1.3-8.4h14.7l1.6-10.1H147l1.3-8.4h16.9L166.8,9.5z"/>
	<path fill="#FFFFFF" d="M284.9,9.5h-11.2l-9.6,15.4l-6-15.4h-11.1l11.5,24.8l-3.6,22.2h9.7l2.9-19.6L284.9,9.5z"/>
	<path fill="#FFFFFF" d="M237.9,10c-5.5-1.3-10.5,0-15.3,3.7c-4.9,3.6-8,8.7-9.7,15.3c-1.4,6.4-0.7,12.5,1.9,17.9
		c2.8,5.5,6.7,8.9,12.2,10.1c5.4,1.3,10.4,0,15.3-3.7c4.9-3.7,8.1-8.9,9.6-15.4c1.5-6.4,0.8-12.4-1.9-17.9
		C247.2,14.5,243.2,11.2,237.9,10z M237.1,19.3c2.6,1,4.3,3.4,5.2,7c0.9,3.6,0.7,7.3-0.6,11.3c-1.3,3.9-3.4,6.8-6,8.7
		c-2.8,2-5.4,2.4-7.9,1.3c-2.6-1-4.4-3.4-5.2-7c-1-3.7-0.6-7.4,0.7-11.3c1.3-3.8,3.4-6.8,6-8.8C231.8,18.6,234.5,18.1,237.1,19.3z"
		/>
	<path fill="#FFFFFF" d="M205,11.6c-1.9-1.2-3.7-1.8-5.5-1.8h-17.9l-7.4,46.6h21.6c2.3,0,4.7-0.7,7.2-2.2c2.5-1.5,4.4-3.4,5.9-5.6
		c1.6-2.6,2.2-5.2,1.9-7.9c-0.3-2.9-1.9-5.7-4.6-8.3c5.5-5.6,6.7-10.9,3.9-16C208.7,14.5,207.1,12.9,205,11.6L205,11.6z M188.3,28.4
		l1.5-8.7h6.3c1.6,0,2.8,0.5,3.6,1.3c0.7,0.8,1,1.8,0.8,3c-0.2,1.2-0.7,2.2-1.7,3c-1,0.9-2.3,1.3-3.8,1.3L188.3,28.4l10.9,11.1
		c0.9,0.9,1.4,2,1.3,3.3c-0.1,1.3-0.7,2.3-1.8,3.2c-1.1,0.9-2.7,1.4-4.9,1.4h-8.5l1.5-9.4h8.1c1.8,0,3.2,0.5,4.3,1.5L188.3,28.4z"/>
	<path fill="#FFFFFF" d="M276.4,52.3c0-1.3-0.5-2.4-1.4-3.3c-0.9-0.9-2-1.4-3.3-1.4c-1.3,0-2.4,0.5-3.3,1.4c-0.9,0.9-1.3,2-1.3,3.3
		c0,1.3,0.5,2.3,1.3,3.2c0.9,0.9,2,1.4,3.3,1.4c1.3,0,2.4-0.5,3.3-1.4C275.9,54.6,276.4,53.5,276.4,52.3z M274.5,49.5
		c0.7,0.7,1.1,1.7,1.1,2.8c0,1-0.5,2-1.1,2.8c-0.7,0.7-1.7,1-2.8,1c-1.1,0-2.1-0.4-2.8-1c-0.8-0.8-1.2-1.7-1.2-2.8
		c0-1.1,0.4-2.1,1.2-2.8c0.7-0.8,1.7-1.2,2.8-1.2C272.9,48.3,273.9,48.6,274.5,49.5z"/>
	<path fill="#FFFFFF" d="M273.4,49.9l-1.3-0.3h-2.2v5.2h0.7v-2.4h1l1.4,2.4h0.8l-1.6-2.4c1,0,1.7-0.5,1.7-1.5
		C274,50.5,273.9,50,273.4,49.9z M273.3,50.9c0,0.6-0.6,0.9-1.7,0.9h-0.9v-1.7h1.4C272.9,50.1,273.3,50.5,273.3,50.9z"/>
</g>
</svg>
