<?xml version="1.0" encoding="utf-8"?>
<!-- Generator: Adobe Illustrator 28.6.0, SVG Export Plug-In . SVG Version: 9.03 Build 54939)  -->
<svg version="1.1" baseProfile="tiny" id="Layer_1" xmlns="http://www.w3.org/2000/svg" xmlns:xlink="http://www.w3.org/1999/xlink"
	 x="0px" y="0px" viewBox="0 0 566.9 65.4" overflow="visible" xml:space="preserve">
<g>
	<path fill="#FFFFFF" d="M437,26.4c-1.2-3.6-4.3-7-4.3-7s-4.7-6.1-14-8.2c-8-1.7-14.2,1.8-14.2,1.8s-5.7,2.3-9.9,7
		c-6.8,6.5-8.7,16.1-8.7,16.1s-2.6,8.3,1.5,14.9l4.5,5.4c6.3,5.3,13.1,5.8,13.1,5.8s5.5,1.2,11.8-0.4c5.6-1.1,9.6-3.9,9.6-3.9
		s9.2-5.1,11.7-15.5L437,26.4z M422.7,43.7c0,0-3.7,6.4-11.8,5.7c-9.5-1-10.6-9.3-10.6-9.3s-1.3-6.1,4.6-11.5
		c5.9-5,12.1-4.2,12.1-4.2s4.2,0.4,6.3,7.3C426,40.3,422.7,43.7,422.7,43.7"/>
	<path fill="#FFFFFF" d="M467.8,43.8c-3-0.7-7.9,0.6-7.9,0.6s-6.8,2.5-7.8,2.5c-0.4-0.6-1.3-11.7-1-16.1c0.1-7.8-0.5-14.2-0.5-14.2
		s-0.3-7.6-4.4-12c-4.8-4.8-8.1-2.7-10-1.6c-4.6,4.1-2.5,9.1-2.5,9.1l2.4,6.8c0,0,1.2,2.9,1,7.6l1,15.9c0,2.1,1.7,16.5,1.7,16.5
		s0.2,4.7,4.7,5.5c4.6,0.8,9.1-1.5,11-2.4c1.9-0.9,4.4-1.7,4.4-1.7s2.1-0.5,4.2-0.7c4.9-0.5,6.7-1.3,6.7-1.3s1.9-0.3,3.2-2.1
		C475.3,54.3,476.8,45.8,467.8,43.8"/>
	<path fill="#FFFFFF" d="M387.3,50.9c-3.2-1-6.9-0.3-6.9-0.3s-10.5,1-15.9-0.1c-8.5-1.5-8.2-10.6-8.2-10.6s-0.3-6,4.8-14.2
		c6.3-10.1,13.2-11.9,13.2-11.9s1.7-0.6,3.4,0.2c1,5.9,6.7,5.8,6.7,5.8s8.2,0.5,7.8-9.4c-0.9-8.1-8.8-9.3-12.1-10
		c-9.9-1.8-16.3,3.5-16.3,3.5s-6.6,3.6-14.5,16.1c-5.4,7.7-6,13.8-6,13.8s-0.6,1.4-0.4,7.9c-0.1,5,1.7,8.7,1.7,8.7
		s2.9,8.6,11.9,12.2c5.5,2.3,13.5,2.2,13.5,2.2s7.8-0.1,13.7-0.4c3.3,0.3,4.8-1.4,4.8-1.4s3.6-2.4,3.3-6.5
		C391.8,56.3,391.1,52,387.3,50.9"/>
	<path fill="#FFFFFF" d="M152.8,62.5h-12l-1.6-36l-15.5,36h-8l-6.6-32.6L98.7,62.5H78.4l-3.1-17.4H61.5l-7.8,17.4H41.2L66.8,4.3
		h14.7l7.8,47l15.3-47h11.8l5.8,31.9l13.6-31.9h14.4L152.8,62.5z M73.5,33.8l-2.2-11.3l-5,11.3H73.5z"/>
	<path fill="#FFFFFF" d="M187.1,62.5l2-12.5h-20.9l1.7-10.4H188l2-12.5h-18.3l1.6-10.4h20.9l2-12.5H163l-9.3,58.2L187.1,62.5z"/>
	<path fill="#FFFFFF" d="M342.4,4.3h-14l-11.8,19l-7.4-19h-13.7L309.6,35l-4.3,27.5h12l3.7-24.3L342.4,4.3z"/>
	<path fill="#FFFFFF" d="M253.3,28.4C257,12.3,270.8,1.7,284,4.8c13.3,3.1,21,18.6,17.3,34.7c-3.7,16.1-17.5,26.7-30.7,23.6
		C257.3,60,249.6,44.5,253.3,28.4L253.3,28.4z M271.4,51.4c6.3,2.8,14.1-2.7,17.3-12.4c3.2-9.7,0.7-19.8-5.6-22.7
		c-6.3-2.8-14.1,2.7-17.3,12.4C262.6,38.4,265.1,48.6,271.4,51.4"/>
	<path fill="#FFFFFF" d="M224.6,16.9h7.8c8.4,0,6.7,10.8-1.3,10.8c-6.6,0-8.3,0-8.3,0L224.6,16.9z M220.9,39.6h10
		c9.5,0,9.2,11.6-1.3,11.6c-6.6,0-10.6,0-10.6,0L220.9,39.6z M214.3,4.6l-9.2,57.8H232c11.1,0,27.3-16.3,12.5-29.7
		c15.2-15.7,0.1-28-7.9-28.1c-6.5-0.1-22.4,0-22.4,0L214.3,4.6z"/>
	<path fill="#FFFFFF" d="M15.6,9.5C4.3,16.5-1.2,27.3,0.2,41.9c1.7,17,23.7,27.6,42.3,16.9c1.6-0.9,1-0.8,1.6-1.3l3.7-23.7H25.6
		l-1.7,10.9h9.3l-1.1,5.8c-5.3,2.1-14.4,1.3-18.2-5.6c-2.4-4.4-4.7-14.1,5.6-23.1c8.4-7.3,22.9-8.6,31.2-4.8c0,0,1.1-6.1,1.9-11.8
		C36.5-0.4,24,4.3,15.6,9.5"/>
	<path fill="#FFFFFF" d="M518.6,24.4c-6.3-10.3-17.5-11.9-17.5-11.9s-3.5-1.2-11.1-0.2C475.8,15.1,470.8,26,470.8,26
		s-5.1,8-3.1,17.8l6.2,12.3c4.6,4.3,6.5,4.3,6.8,4.6c6.1,2.7,13.1,1.2,13.1,1.2s8.9-0.9,17-7.2c6.5-4.8,9.3-11.8,9.3-11.8l0.9-9.4
		L518.6,24.4z M501.3,45.6c-10.2,6.1-16.7-0.6-16.7-0.6s-2.9-1.9-3.5-7.6c-0.4-6.6,6.1-10,6.1-10s3.5-2.1,7.8-1.8
		c4.3,0.3,5.7,0,9.2,2.6c3.3,3,3.1,5.2,3.1,5.2S508.7,40.8,501.3,45.6"/>
	<path fill="#FFFFFF" d="M520.2,42.8c0,0,0.2,5.8-0.7,7.2c-1.2,2.6-1,5.2-1,5.2s-0.8,7.8,8.2,9.1c6.2,0,7-5.2,7.1-7.4
		c0.4-1.7,0.2-9.8,0.2-9.8l8.1,6.6c0,0,5.9,4.9,9.3,7.8c3.6,2.8,4.5,3.3,4.5,3.3s0.8,0.9,3.5,0.6c2.2,0,4.2-2,4.2-2s2.6-1.9,3.2-5.2
		c0.8-3.9-2.2-5.8-2.2-5.8s-11.2-9-18.8-15.3c5.1-2.8,7.6-4.7,7.6-4.7s7.1-4.7,8.6-11.9c2.1-7.9-3.9-11-3.9-11s-3.7-2.7-6.9-4.1
		c-7.9-3.9-15.3-3.1-15.3-3.1s-10.5-0.7-17.3,7.7c-3.1,4.1-1.2,9.4-1.2,9.4s0.4,0.9,1.3,4.9C520.4,32.6,520.2,42.8,520.2,42.8z
		 M534,26.8l-0.7-9.4c0,0,6.6-0.1,9.4,0.3c5.4,0.8,5.1,2.4,5.1,2.4s-0.2,1.9-4.3,3.8C539,26,534,26.8,534,26.8"/>
</g>
</svg>
