<?xml version="1.0" encoding="utf-8"?>
<!-- Generator: Adobe Illustrator 28.0.0, SVG Export Plug-In . SVG Version: 6.00 Build 0)  -->
<svg version="1.1" baseProfile="tiny" id="Layer_1" xmlns="http://www.w3.org/2000/svg" xmlns:xlink="http://www.w3.org/1999/xlink"
	 x="0px" y="0px" viewBox="0 0 537.9 122.8" overflow="visible" xml:space="preserve">
<g display="none">
	
		<image display="inline" width="1023" height="769" xlink:href="310FC733.jpeg"  transform="matrix(0.6078 0 0 0.6078 -62.5309 -171.8)">
	</image>
</g>
<g display="none">
	<image display="inline" width="45" height="48" xlink:href="310FC730.png"  transform="matrix(1 0 0 1 -29 96.75)">
	</image>
	<g id="L24bxG_1_" display="inline">
		
			<image width="635" height="636" id="L24bxG" xlink:href="310FC737.jpeg"  transform="matrix(0.9984 0 0 0.9984 -29.022 -445.5592)">
		</image>
	</g>
</g>
<g>
	<g id="GAMECUBE">
		<path fill="#FFFFFF" d="M165.4,61.7v8.8h-36.3v22.4h26.4v-6.2h-15.2v-9.4h25.7v17.1c-0.1,2.9-5.8,8.6-9,8.6h-29.5
			c-4.2,0-9.9-5.7-9.9-8.6V69.6c0-4.8,3.1-8,7.2-8L165.4,61.7L165.4,61.7z"/>
		<polygon fill="#FFFFFF" points="193.5,92.6 193.5,102.3 163.6,102.3 187.9,61.2 197.5,61.2 216.1,92.6 216.1,61.2 226.6,61.2 
			243.3,89.3 259.9,61.2 270.3,61.2 270.3,102.3 259.9,102.3 259.8,81.4 247.7,102.3 238.8,102.3 226.7,81.4 226.6,102.3 
			208.8,102.3 192.3,74.1 181.4,92.6 		"/>
		<polygon fill="#FFFFFF" points="274.2,61.2 274.2,102.3 316.4,102.3 316.4,92.6 285.6,92.6 285.6,85.5 303.4,85.5 303.4,76.5 
			285.6,76.5 285.6,70 316.4,70 316.4,61.2 		"/>
		<path fill="#FFFFFF" d="M358.5,77.4H369v-8.9c0,0,1.1-7.3-6.5-7.3h-33.2c-3.3,0-4.8,1.6-4.8,4v29.1c0,4.1,3.9,8,6.4,8h32.5
			c0,0,5.7,0.8,5.7-5.6V84.6h-10.5v8h-23.5V70.8h22.6v6.5L358.5,77.4L358.5,77.4z"/>
		<path fill="#FFFFFF" d="M373.1,61.1h11.3v31.5h23.4V61.1h11.3v34c0,0,0.7,7.3-9.7,7.3s-27.5,0-27.5,0s-8.9,0.8-8.9-7.3
			C373.1,89.5,373.1,61.1,373.1,61.1z"/>
		<g id="XMLID_1_">
			<g>
				<path fill="#FFFFFF" d="M467.7,85.4v10.6c0,3.7-2.8,6.5-11.3,6.5h-33.2V61.1h38.8c3.6,0,5.6,2.1,5.6,5.7v11.3
					c0,0.9-1.2,2.4-4,2.4c0,0.2,0,0,0,0.8C465.6,81.3,467.7,83.5,467.7,85.4L467.7,85.4z M457.2,91.9v-4.8c0-1.3-0.3-1.7-0.8-1.7
					h-21.8v7.3h21C456.7,92.7,457.2,92.2,457.2,91.9z M457.2,75.7v-4.8c0-1.3-0.3-1.6-0.8-1.6h-21.8v7.3h21
					C456.7,76.5,457.2,76.1,457.2,75.7z"/>
			</g>
		</g>
		<polygon fill="#FFFFFF" points="471.7,102.4 513.8,102.4 513.8,92.6 482.2,92.6 482.2,85.5 500,85.5 500,76.5 482.2,76.5 
			482.2,70 513,70 513,61.1 471.7,61.1 		"/>
		<polygon fill="#FFFFFF" points="518.7,92.7 518.7,94.3 521.1,94.3 521.1,102.4 523.5,102.4 523.5,94.3 525.9,94.3 525.9,92.7 		
			"/>
		<polygon fill="#FFFFFF" points="526.8,102.4 529.2,102.4 529.2,97.6 530.8,102.4 532.4,102.4 534,97.6 534,102.4 536.5,102.4 
			536.5,92.7 533.2,92.7 531.6,98.3 530,92.7 526.8,92.7 		"/>
	</g>
	<g id="NINTENDO">
		<polygon fill="#FFFFFF" points="126.4,19.1 126.4,49.8 132.1,49.8 132.1,27.2 144.2,49.8 150.6,49.8 150.6,19.1 144.1,19.1 
			144.1,37.6 134.4,19.1 		"/>
		<polygon fill="#FFFFFF" points="223.4,19.1 223.4,49.8 229.1,49.8 229.1,27.2 241.2,49.8 247.7,49.8 247.7,19.1 241.2,19.1 
			241.2,37.6 231.5,19.1 		"/>
		<rect x="183.8" y="19.1" fill="#FFFFFF" width="6.5" height="30.7"/>
		<polygon fill="#FFFFFF" points="274.4,19.1 274.4,23.9 284,23.9 284,49.8 290.6,49.8 290.6,23.9 300.2,23.9 300.2,19.1 		"/>
		<path fill="#FFFFFF" d="M330.2,30.4v0.8H348v4.9h-17.8v6.5c0,0.7,1.7,2.4,2.4,2.4H348v4.9h-17.8c-3.3,0-5.7-2.9-5.7-5.7V24.7
			c0-3.5,2.1-5.6,5.6-5.6H348v4.9h-14.6c-1.6,0-3.2,1.7-3.2,2.5"/>
		<polygon fill="#FFFFFF" points="377.1,49.8 382.7,49.8 382.7,27.3 394.9,49.8 400.5,49.8 400.5,19.1 394.9,19.1 394.9,37.6 
			384.5,19.1 377.1,19.1 		"/>
		<g id="XMLID_5_">
			<g>
				<path fill="#FFFFFF" d="M454,24.7v19.5c0,1.5-4.2,5.6-6.6,5.6h-17.7V19.1h16.1C450.8,19.1,454,22.3,454,24.7L454,24.7z
					 M448.3,42.6V26.4c0-0.6-1.9-2.5-3.2-2.5h-9.7v21.8h9.7C446.1,45.8,448.3,43.6,448.3,42.6L448.3,42.6z"/>
			</g>
		</g>
		<g id="XMLID_4_">
			<g>
				<path fill="#FFFFFF" d="M506.6,26.4v16.1c0,4.7-3.5,8.1-8.8,8.1h-0.1h-8.1h-0.1c-5.2,0-8.6-3.2-8.8-7.7c0-0.2,0-0.3,0-0.5V26.4
					v-0.9c0-3.1,3.3-6.4,7.3-6.4h11.3C504,19.1,506.6,21.6,506.6,26.4z M500,41.8V27.2c0-1.2-2.1-3.3-3.2-3.3h-6.4
					c-1.7,0-3.3,1.6-3.3,3.1v14.7c0,2.3,0.9,3.2,2.5,3.2h7.3C498.4,44.9,500,43.3,500,41.8L500,41.8z"/>
			</g>
		</g>
	</g>
	<g id="_x33_D_PART">
		<polygon fill="#FFFFFF" points="87.3,61.3 87.3,80.6 53,100.4 19,80.6 17.5,81.7 53,102.5 88.8,81.8 88.8,60.4 		"/>
	</g>
	<g id="black_line_thing">
		<polygon fill="#FFFFFF" points="87.3,80.6 88.8,81.7 88.8,81.8 88.7,81.9 87.1,80.7 87.3,80.6 		"/>
	</g>
	<g id="dark_purple_top_line">
		<polygon fill="#FFFFFF" points="53.3,61.1 29.2,47 28.8,47.3 53,61.7 		"/>
		<polygon fill="#FFFFFF" points="53.2,61.1 53.4,61.1 53.4,61.3 53.1,61.3 		"/>
	</g>
	<g id="top_black_line">
		<polygon fill="#FFFFFF" points="53.3,61.7 53.3,61.1 104.7,31.4 104.8,31.8 		"/>
	</g>
	<g id="LOGO_DARK_LINES">
		<polygon fill="#FFFFFF" points="53.3,120.5 53.6,102.8 89.3,82.2 89.4,60.2 88.8,60.2 88.8,81.8 53,102.5 52.9,120.5 		"/>
	</g>
	<path fill="#FFFFFF" d="M53.3,61.7v27.2l23.8-14v-7.7l12-6.9V82l-35.8,20.6v17.9l51.5-29.7v-59L53.3,61.7z M102.8,89.6l-47.5,27.4
		v-13.3l35.8-20.6V56.8l-16,9.2v7.7L55.3,85.4V62.9l47.5-27.6V89.6z"/>
	<g id="BOTTOM_LAIN_LEFT_LIGHT_LINE">
		<polyline fill="#FFFFFF" points="52.7,120.5 53,120.5 53,102.5 52,101.9 52.7,120.5 		"/>
	</g>
	<g id="underneath">
		<polyline fill="#FFFFFF" points="17.4,40.5 17.6,40.7 17.7,81.5 17.5,81.7 17.4,81.6 17.4,40.5 		"/>
	</g>
	<g id="LEFT_3D_PURPLE_SHADOW">
		<polygon fill="#FFFFFF" points="19,80.6 17.5,81.7 17.5,40.5 53.3,19.9 53.3,21.9 19.1,41.7 		"/>
	</g>
	<g id="MAIN_DARK_PURPLE_LINE">
		<polygon fill="#FFFFFF" points="53.3,61 53.3,88.9 53,89.1 53,61.7 53,60.9 		"/>
	</g>
	<g id="logo_LEFT_side">
		<path fill="#FFFFFF" d="M28.8,47.3v27.7l24.2,14V61.7L28.8,47.3z M51,85.6L30.8,73.9V50.8l20.2,12V85.6z"/>
		<path fill="#FFFFFF" d="M17.5,81.7V40.7L1.6,31.4v59.5l51.2,29.6v-0.3v-17.9L17.5,81.7z M50.7,117L3.6,89.7V34.9l11.9,7v40.9
			l35.2,20.7V117z"/>
	</g>
	<g id="left_purple_line">
		<rect x="17.2" y="40.5" fill="#FFFFFF" width="0.3" height="41.1"/>
		<polygon fill="#FFFFFF" points="17.5,40.5 1.8,31.2 1.6,31.4 17.4,40.7 		"/>
	</g>
	<g id="BOTTOM_PURPLE_LINE">
		<polygon fill="#FFFFFF" points="52.7,102.3 52.7,102.7 17.2,82 17.2,81.7 17.5,81.7 		"/>
	</g>
	<g id="top_middle_light_line">
		<polygon fill="#FFFFFF" points="53.3,19.9 76.2,33.2 76.2,35.2 53.3,21.9 		"/>
	</g>
	<g id="top_right">
		<polygon fill="#FFFFFF" points="76.2,33.2 76.2,35.2 92.1,25.9 92.1,24 		"/>
	</g>
	<g id="MAIN_TOP">
		<path fill="#FFFFFF" d="M1.6,31.4"/>
		<path fill="#FFFFFF" d="M1.8,31.2"/>
		<path fill="#FFFFFF" d="M53.1,1.5L1.8,31.2l15.7,9.4l35.8-20.7l22.9,13.4L92.1,24L53.1,1.5z M53.3,17.5L17.5,38.2l-11.8-7
			L53.1,3.8L88.1,24l-11.9,6.9L53.3,17.5z"/>
		<path fill="#FFFFFF" d="M103.3,30.4L75.7,46.3L53,33.5L29.2,47l24.1,14.1l51.4-29.7L103.3,30.4z M53.3,58.8L33.2,47L53,35.8
			l20.3,11.4L53.3,58.8z"/>
	</g>
</g>
</svg>
