<?xml version="1.0" encoding="utf-8"?>
<!-- Generator: Adobe Illustrator 28.6.0, SVG Export Plug-In . SVG Version: 9.03 Build 54939)  -->
<svg version="1.1" baseProfile="tiny" id="Layer_1" xmlns="http://www.w3.org/2000/svg" xmlns:xlink="http://www.w3.org/1999/xlink"
	 x="0px" y="0px" viewBox="0 0 120 114.2" overflow="visible" xml:space="preserve">
<g>
	<g transform="translate(24.134 67.476)">
		<path fill-rule="evenodd" fill="#FFFFFF" d="M11.6,5.8h-14c-1.1,0-2,0.9-2,2l0,0l0,0v10l0,0l0,0c0,1.1,0.9,2,2,2h14v6.6H-5.8l0,0
			c-2.8,0-5.2-2.3-5.2-5.1v-17c0-2.8,2.3-5.1,5.2-5.1h17.4L11.6,5.8z"/>
	</g>
	<g transform="translate(25.187 71.342)">
		<path fill-rule="evenodd" fill="#FFFFFF" d="M15.6-16.5c0,2.9-2.3,5.2-5.2,5.2H-12V-18H6.9c1.1,0,2-0.9,2-2v-22.3c0-1.1-0.9-2-2-2
			H-3.3c-1.1,0-2,0.9-2,2v10.1c0,1.1,0.9,2,2,2h8.1v6.7H-6.8c-2.9,0-5.2-2.3-5.2-5.2v-17.2c0-2.9,2.3-5.2,5.2-5.2h17.2
			c2.9,0,5.2,2.3,5.2,5.2V-16.5z"/>
	</g>
	<g transform="translate(38.985 63.174)">
		<path fill-rule="evenodd" fill="#FFFFFF" d="M67.8,30.7h-6.6V10.1h-4.7c-1.1,0-2,0.9-2,2v18.6h-6.6V10.1h-4.7c-1.1,0-2,0.9-2,2
			v18.6h-6.6V8.6c0-2.8,2.3-5.1,5.1-5.1h28.1V30.7z"/>
	</g>
	<g transform="translate(38.989,71.342)">
		<path fill-rule="evenodd" fill="#FFFFFF" d="M67.8-16.5c0,2.9-2.3,5.2-5.2,5.2H40.2V-18h18.9c1.1,0,2-0.9,2-2v-22.3
			c0-1.1-0.9-2-2-2H49c-1.1,0-2,0.9-2,2v10.1c0,1.1,0.9,2,2,2h8.1v6.7H45.4c-2.9,0-5.2-2.3-5.2-5.2v-17.2c0-2.9,2.3-5.2,5.2-5.2
			h17.2c2.9,0,5.2,2.3,5.2,5.2V-16.5z"/>
	</g>
	<g transform="translate(30.677,76.727)">
		<path fill-rule="evenodd" fill="#FFFFFF" d="M36.4-47.7v10.1c0,1.1-0.9,2-2,2H24.3c-1.1,0-2-0.9-2-2v-10.1c0-1.1,0.9-2,2-2h10.1
			C35.5-49.7,36.4-48.8,36.4-47.7L36.4-47.7z M37.9-56.4H20.7c-2.9,0-5.2,2.3-5.2,5.2V-34c0,2.9,2.3,5.2,5.2,5.2h17.2
			c2.9,0,5.2-2.3,5.2-5.2v-17.2C43.1-54.1,40.8-56.4,37.9-56.4"/>
	</g>
	<g transform="translate(29.547 67.059)">
		<path fill-rule="evenodd" fill="#FFFFFF" d="M32.1,8.2v10c0,1.1-0.9,2-2,2l0,0l0,0h-10l0,0l0,0c-1.1,0-2-0.9-2-2v-10
			c0-1.1,0.9-2,2-2h10C31.2,6.3,32.1,7.1,32.1,8.2L32.1,8.2z M33.6-0.4H16.7c-2.9,0-5.2,2.3-5.2,5.1v16.9c0,2.8,2.3,5.1,5.2,5.1
			h16.9c2.8,0,5.1-2.3,5.1-5.1V4.7C38.7,1.9,36.4-0.4,33.6-0.4"/>
	</g>
	<g transform="translate(41.208 60.756)">
		<path fill="#FFFFFF" d="M76.2,44.7c0,1.7-0.7,3.2-1.8,4.4c-1.1,1.1-2.7,1.8-4.4,1.8H-32.5c-1.7,0-3.2-0.7-4.4-1.8
			c-1.1-1.1-1.8-2.7-1.8-4.4V-52c0-1.7,0.7-3.2,1.8-4.4c1.1-1.1,2.7-1.8,4.4-1.8H70.1c1.7,0,3.2,0.7,4.4,1.8
			c1.1,1.1,1.8,2.7,1.8,4.4v96.7H76.2z M76.2-58.2c-1.6-1.6-3.8-2.6-6.2-2.6H-32.5c-2.4,0-4.6,1-6.2,2.6c-1.6,1.6-2.6,3.8-2.6,6.2
			v96.7c0,2.4,1,4.6,2.6,6.2c1.6,1.6,3.8,2.6,6.2,2.6H70.1c2.4,0,4.6-1,6.2-2.6s2.6-3.8,2.6-6.2V-52C78.8-54.4,77.8-56.6,76.2-58.2"
			/>
	</g>
</g>
</svg>
