<?xml version="1.0" encoding="utf-8"?>
<!-- Generator: Adobe Illustrator 28.6.0, SVG Export Plug-In . SVG Version: 9.03 Build 54939)  -->
<svg version="1.1" baseProfile="tiny" id="Layer_1" xmlns="http://www.w3.org/2000/svg" xmlns:xlink="http://www.w3.org/1999/xlink"
	 x="0px" y="0px" viewBox="0 0 566.9 89.3" overflow="visible" xml:space="preserve">
<g transform="translate(-6.84376 -490.88)">
	<path fill="#FFFFFF" d="M429,490.9c-0.6,0-1,0.5-1,1.2l-0.1,13.1c0,0.6,0.5,1,1.2,1l6,0c0.7,0,1.2-0.4,1.2-1v-2.4
		c0-0.6-0.5-1-1.2-1l-3.9,0c-0.7,0-1.2-0.3-1.2-1v-8.6C430,491.4,429.7,490.9,429,490.9L429,490.9z M458.4,490.9c-0.1,0-0.2,0-0.2,0
		c-0.5,0.1-0.8,0.6-0.8,1.2l-0.1,13.1c0,0.4,0.2,0.7,0.5,0.8c0.1,0,0.1,0.1,0.2,0.1c0.1,0,0.1,0,0.2,0s0.2,0,0.2,0l6,0
		c0.7,0,1.2-0.4,1.2-1v-2.4c0-0.6-0.5-1-1.2-1l-3.9,0c-0.7,0-1.2-0.3-1.2-1l0-8.6C459.4,491.4,459.1,490.9,458.4,490.9L458.4,490.9z
		 M364.4,490.9c-0.7,0-1.2,0.4-1.2,1l0.1,2l-0.1,11c0,0.7,0.3,1.2,1,1.2c0.1,0,0.1,0,0.2,0c0.5-0.1,0.8-0.6,0.8-1.2v-8.6
		c0-0.6,0.5-1,1.2-1h0.8c0.7,0,1.2,0.4,1.2,1l0.8,4.6c0,0.7,0.3,1.2,1,1.2h2.1c0.1,0,0.2,0,0.2,0c0.5-0.1,0.8-0.5,1.1-1.1
		c0,0,2.5-5.9,2.6-6.1c0.2-0.5,0.8-0.4,0.8,0.1v8.8l0,1.3c0,0.7,0.3,1.2,1,1.2l2.5,0c0.1,0,0.1,0,0.2,0s0.1,0,0.2-0.1
		c0.3-0.2,0.5-0.6,0.8-1.1l1.9-4c0.3-0.6,0.7-1,1.2-1h3.1c0.7,0,1.2,0.4,1.2,1l0.2,4.3c0,0.4,0.2,0.7,0.6,0.8c0.1,0,0.3,0.1,0.4,0.1
		c0.6,0.1,1.3,0.1,1.9,0.1c0.6,0,1.4-0.4,1.4-1l0-13.4c0-0.6-0.5-1-1.2-1h-6.5c-0.7,0-1,0.3-1.2,1c0,0-4.3,10.8-4.4,11
		c0,0,0,0.1-0.1,0.1c-0.1,0.1-0.2,0.1-0.3,0.1c-0.2,0.1-0.5,0-0.5-0.3c0-0.5,0-10.5,0-10.5c0-0.7-0.3-1.3-0.9-1.3h-2.3
		c-0.6,0-0.9,0.4-1.3,1.2c0,0-2.7,6.7-2.9,7c0,0.1-0.1,0.1-0.2,0.2c-0.1,0.1-0.1,0.1-0.2,0.1c-0.2,0-0.3,0-0.3-0.3
		c-0.1-0.4-1.3-7.3-1.3-7.3c0-0.6-0.5-1-1.2-1L364.4,490.9z M482.8,490.9c-0.7,0-1.2,0.3-1.2,1l-0.1,13.2c0,0.2,0.1,0.4,0.2,0.6
		c0.1,0.2,0.3,0.3,0.5,0.3c0.1,0,0.1,0,0.2,0c0.1,0,0.2,0,0.2,0l2.1,0v0h5c0.1,0,0.2,0,0.2,0c0.1,0,0.2,0,0.2,0
		c0.4-0.1,0.7-0.4,0.7-0.9c0-0.6-0.5-1-1.2-1h-5v0c-0.6,0-1.2-0.4-1.2-1l0.1-7c0-0.6,0.5-1,1.2-1h5c0.7,0,1.2-0.3,1.2-1v-2.3
		c0-0.6-0.6-1-1.2-1L482.8,490.9z M504.5,490.9c-0.1,0-0.2,0-0.2,0c-0.6,0.1-1,0.4-1,1c0,0.3,0,0.7,0,1c0,3.8-0.1,7.5,0,11.3
		c0,0.2,0,0.5-0.1,0.7c0,0.1,0,0.2,0,0.4c0,0.1,0.1,0.2,0.1,0.3c0.2,0.3,0.4,0.4,0.6,0.5c0.3,0.1,0.5,0.1,0.8,0.1c0.4,0,0.9,0,1.3,0
		c0.1,0,0.3,0,0.4,0c0.5-0.1,0.9-0.3,1.2-1l0.2-4.3c0-0.6,0.5-1,1.2-1h3.3c0.7,0,1.2,0.4,1.2,1l0,4c0,0.7,0.3,1.2,1,1.2
		c0.1,0,0.2,0,0.2,0c0.5-0.1,0.8-0.6,0.8-1.2v-3.5v-2c0-1-0.8-1.3-1.5-1.6c-0.2-0.1-0.4-0.2-0.5-0.3c-0.1-0.1-0.2-0.2-0.2-0.4
		c0-0.8,0-5.3,0-5.3c0-0.6-0.5-1-1.2-1L504.5,490.9z M519,490.9c-0.1,0-0.2,0-0.2,0c-0.6,0.1-1,0.4-1,1l-0.1,13.2
		c0,0.3,0.1,0.6,0.4,0.7c0.1,0,0.1,0.1,0.2,0.1c0.2,0.1,0.4,0.1,0.7,0.1h8.4c0.7,0,1.2-0.4,1.2-1l-0.1-13.2c0-0.6-0.5-1-1.2-1
		L519,490.9z M532.1,490.9c-0.1,0-0.2,0-0.2,0c-0.2,0-0.3,0.1-0.4,0.1c-0.3,0.2-0.5,0.5-0.5,0.9l0.1,2l-0.1,11
		c0,0.6,0.3,1.1,0.8,1.2c0.1,0,0.1,0,0.2,0c0.1,0,0.2,0,0.2,0c0.5-0.1,0.8-0.6,0.8-1.2v-8.6c0-0.6,0.5-1,1.2-1h4.4
		c0.7,0,1.2,0.4,1.2,1l0,8.6c0,0.7,0.3,1.2,1,1.2c0.1,0,0.2,0,0.2,0c0.5-0.1,0.8-0.6,0.8-1.2l0-9.6l0-3.3c0-0.6-0.6-1-1.2-1
		L532.1,490.9z M552.9,490.9c-0.5,0-0.9,0.2-1.1,0.6c-0.1,0.1-0.1,0.3-0.1,0.4l-0.1,13.2c0,0.2,0.1,0.4,0.2,0.6
		c0.2,0.3,0.6,0.4,1,0.4l7.1,0c0.7,0,1.2-0.3,1.2-1c0-0.6-0.5-1-1.2-1l-5,0c-0.7,0-1.2-0.4-1.2-1l0.1-7c0-0.6,0.5-1,1.2-1h5
		c0.7,0,1.2-0.3,1.2-1v-2.3c0-0.6-0.6-1-1.2-1L552.9,490.9z M547,490.9c-0.4,0-0.7,0.2-0.8,0.5c-0.1,0.1-0.1,0.3-0.1,0.4
		c0,0.1,0,0.2,0,0.2l0.1,8.7c0,0.5-0.2,0.8-0.7,0.9c-0.1,0-0.1,0-0.2,0s-0.2,0-0.2,0h-0.5c-0.7,0-1.3,0.3-1.3,1v2.3
		c0,0.3,0.2,0.6,0.4,0.7c0.1,0,0.1,0.1,0.2,0.1c0.2,0.1,0.5,0.1,0.7,0.1h4c0.7,0,1.2-0.4,1.2-1v-2.3c0-0.1,0-0.2,0-0.3
		c-0.1-0.6-0.5-0.6-0.9-0.7c-0.2,0-0.3-0.1-0.5-0.1c-0.2-0.1-0.4-0.3-0.4-0.9v-8.7C548,491.5,547.6,490.9,547,490.9z M396.5,490.9
		c-0.7,0-1.2,0.4-1.2,1v2.3c0,0.6,0.6,1,1.2,1h1.5c0.7,0,1.2,0.3,1.2,1l-0.1,8.7c0,0.7,0.3,1.2,1,1.2c0.1,0,0.1,0,0.2,0
		c0.5-0.1,0.8-0.6,0.8-1.2v-8.7c0-0.6,0.4-0.9,1-0.9c0.1,0,0.2,0,0.2,0h4.2c0.7,0,1.2,0.3,1.2,1v8.7c0,0.7,0.4,1.2,1,1.2
		c0.1,0,0.2,0,0.2,0c0.5-0.1,0.7-0.6,0.7-1.2l-0.1-8.7c0-0.6,0.4-0.9,1-0.9c0.1,0,0.2,0,0.2,0h1.5c0.7,0,1.2-0.3,1.2-1v-2.3
		c0-0.6-0.5-1-1.2-1H396.5z M493.3,490.9c-0.2,0-0.3,0-0.5,0.1c-0.1,0-0.1,0-0.2,0.1c-0.3,0.2-0.5,0.5-0.5,0.9v2.3
		c0,0.6,0.6,1,1.2,1h1.5c0.7,0,1.2,0.3,1.2,1l-0.1,8.7c0,0.3,0.1,0.6,0.2,0.9c0,0.1,0.1,0.1,0.1,0.1c0.1,0.1,0.2,0.1,0.4,0.2
		c0.1,0,0.1,0,0.2,0c0.1,0,0.1,0,0.2,0c0.5-0.1,0.8-0.6,0.8-1.2v-8.7c0-0.6,0.4-0.9,1-0.9c0.1,0,0.2,0,0.2,0h1.5
		c0.7,0,1.2-0.3,1.2-1v-2.3c0-0.6-0.5-1-1.2-1L493.3,490.9L493.3,490.9L493.3,490.9z M571.7,490.9l-7.2,0c-0.1,0-0.2,0-0.2,0
		c-0.6,0.1-1,0.4-1,1l0.1,6.7c0,0.6,0.5,1,1.2,1l3.5,0.1c0.7,0,1.2,0.4,1.2,1l-0.1,2.4c0,0.2,0,0.3-0.1,0.4
		c-0.1,0.2-0.3,0.4-0.6,0.5c-0.1,0-0.2,0-0.2,0s-0.2,0-0.2,0l-5,0c-0.1,0-0.2,0-0.2,0c-0.6,0.1-1,0.4-1,1c0,0.3,0.1,0.6,0.3,0.7
		c0.2,0.2,0.5,0.3,0.9,0.3h9.4c0.3,0,0.6-0.1,0.9-0.2s0.4-0.4,0.4-0.7l0.1-6.6c0-0.6-0.6-1-1.2-1h-5.8c-0.7,0-1.2-0.3-1.2-1
		l-0.1-2.8c0-0.6,0.6-1,1.2-1l5.1,0c0.7,0,1.2-0.4,1.2-1C572.9,491.3,572.4,490.9,571.7,490.9L571.7,490.9z M418.2,491.1
		c-0.7,0-1.2,0.3-1.2,1v4.6c0,0.7-0.3,1.2-1,1.2l-1.3,0c-0.7,0-1.2,0.3-1.2,1l-0.1,6.3c0,0.5,0.3,0.8,0.8,0.9c0.1,0,0.1,0,0.2,0
		s0.2,0,0.2,0l9.8,0c0.7,0,1.2-0.3,1.2-1s-0.5-1-1.2-1l-7.7,0c-0.7,0-1.2-0.4-1.2-1l0.1-2.3c0-0.6,0.5-1,1.2-1l7.6,0
		c0.1,0,0.2,0,0.2,0c0.1,0,0.1,0,0.2,0c0.4-0.1,0.8-0.4,0.8-0.9c0-0.6-0.4-0.9-1-1c-0.1,0-0.2,0-0.2,0l-1.7,0c-0.1,0-0.2,0-0.2,0
		c-0.3,0-0.6-0.2-0.8-0.4c-0.1-0.2-0.2-0.4-0.2-0.6l0.1-2.9c0-0.6,0.6-1,1.2-1h1.6c0.7,0,1.2-0.3,1.2-1c0-0.6-0.5-1-1.2-1
		L418.2,491.1z M447.6,491.1c-0.4,0-0.8,0.1-1,0.4c0,0-0.1,0.1-0.1,0.2c-0.1,0.1-0.1,0.2-0.1,0.4v4.6c0,0.7-0.3,1.2-1,1.2l-1.3,0
		c-0.7,0-1.2,0.3-1.2,1l-0.1,6.3c0,0.2,0.1,0.4,0.2,0.6c0.1,0.2,0.3,0.3,0.5,0.3c0.1,0,0.1,0,0.2,0s0.2,0,0.2,0l9.8,0
		c0.7,0,1.2-0.3,1.2-1s-0.5-1-1.2-1l-7.7,0c-0.7,0-1.2-0.4-1.2-1l0.1-2.3c0-0.6,0.6-1,1.2-1l7.6,0c0.1,0,0.2,0,0.2,0
		c0.1,0,0.2,0,0.2,0c0.4-0.1,0.7-0.4,0.7-0.9c0-0.6-0.4-0.9-1-1c-0.1,0-0.2,0-0.2,0l-1.7,0c-0.1,0-0.2,0-0.2,0
		c-0.3,0-0.6-0.2-0.8-0.4c-0.1-0.2-0.2-0.4-0.2-0.6l0.1-2.9c0-0.6,0.5-1,1.2-1h1.6c0.7,0,1.2-0.3,1.2-1c0-0.6-0.5-1-1.2-1
		L447.6,491.1z M471.9,491.1c-0.4,0-0.8,0.1-1,0.4c0,0-0.1,0.1-0.1,0.2c-0.1,0.1-0.1,0.2-0.1,0.4l0,4.6c0,0.7-0.3,1.2-1,1.2l-1.3,0
		c-0.7,0-1.2,0.3-1.2,1l-0.1,6.3c0,0.2,0.1,0.4,0.2,0.6c0.1,0.2,0.3,0.3,0.5,0.3c0.1,0,0.1,0,0.2,0c0.1,0,0.2,0,0.2,0l9.8,0
		c0.7,0,1.2-0.3,1.2-1s-0.6-1-1.2-1l-7.7,0c-0.7,0-1.2-0.4-1.2-1l0.1-2.3c0-0.6,0.5-1,1.2-1l7.6,0c0.1,0,0.2,0,0.2,0
		c0.1,0,0.2,0,0.2,0c0.4-0.1,0.8-0.4,0.8-0.9c0-0.6-0.4-0.9-1-1c-0.1,0-0.2,0-0.2,0l-1.7,0c-0.1,0-0.2,0-0.2,0
		c-0.3,0-0.6-0.2-0.8-0.4c-0.1-0.2-0.2-0.4-0.2-0.6l0.1-2.9c0-0.6,0.5-1,1.2-1h1.6c0.7,0,1.2-0.3,1.2-1c0-0.6-0.6-1-1.2-1
		L471.9,491.1z M387.5,493.1h2.7c0.7,0,1.2,0.3,1.2,1l0.1,2.8c0,0.6-0.5,1-1.2,1h-4c-1.4,0-1.2-1-1.1-1.3l1.1-2.5
		C386.6,493.5,386.8,493.1,387.5,493.1z M506.6,493.1h3.3c0.7,0,1.2,0.3,1.2,1l0.1,2.8c0,0.6-0.6,1-1.2,1h-3.5c-0.7,0-1.2-0.4-1.2-1
		l0.1-2.8C505.4,493.4,505.9,493.1,506.6,493.1L506.6,493.1z M520.9,493.1h4.4c0.7,0,1.2,0.3,1.2,1l0.1,7c0,0.6-0.5,1-1.2,1h-4.5
		c-0.7,0-1.2-0.4-1.2-1l0.1-7C519.7,493.4,520.2,493.1,520.9,493.1z"/>
	<path fill="#FFFFFF" d="M340.8,496.7c0,0-15.5,59.5-15.9,60.9c-0.5,1.8-2.2,2.3-3.1,0.3c-1.1-2.2-12.8-42.4-12.8-42.4h-21.4
		c0,0,16,52.4,16.7,53.9c7.6,16.2,24.3,9.8,27.7-2.2c3.5-12.3,18.6-70.6,18.6-70.6H340.8z M120,501.2l-33.2,21.2c0-4.1,0-6.7,0-6.7
		H76.3v29.2c0,0.7-1.4,2.1-2.6,0.3c0,0-14.1-20.2-19.1-26.2c-4.2-5.1-19-4.8-19,7.2c0,7.6,0,52.2,0,52.2h10.6v-36.8
		c0-2,1.8-1.3,2.9-0.1c0.5,0.6,23.1,35,24.1,36.4c2.3,3.1,13.7,5.4,13.7-6.4c0-8.4,0-33.4,0-46.8h10.3c1.1,0,2.5,1.2,2.5,1.2
		c0,1-0.2,33.1-0.2,37.4c0,9.5,7.9,16,16.4,16h19v-9.3h-8.8c-3.1,0-5.6-2.3-5.6-5.4v-36.1c0-1.9,1.6-4.7,4.7-4.7
		c3.1,0,9.8-0.1,9.8-0.1v-8h-13.1c-1.2,0-1.9-1-1.9-1.9L120,501.2z M7,501.5c0,0-0.2,73.3-0.2,77.7l20.5,0v-77.6L7,501.5z
		 M485.7,514.8c-9.8,0-18.7,4.1-24.8,10.6c-0.4,0.4-0.7,0.8-1,1.2c-4.8,5.6-7.7,12.8-7.7,20.6c0,4.5,1,8.8,2.7,12.7
		c0.2,0.5,0.4,1,0.7,1.4c4,8,11.3,14.2,20.2,16.9c0.5,0.2,1.1,0.3,1.6,0.4c2.7,0.7,5.5,1,8.4,1c18.5,0,33.6-14.5,33.6-32.5
		C519.2,529.3,504.2,514.8,485.7,514.8L485.7,514.8z M396.2,515.2c-12.3,0-21.9,8.8-21.9,21.3c0,12.9,14.2,17,21.7,17.8
		c4.7,0.5,9.3,3.8,9.3,8.4c0,3.7-3.2,6.7-6.7,6.7l-22-0.1v9.3H401c0.4,0,0.8,0,1.1,0c11.8-0.6,21.1-10,21.1-21.7
		c0-1.9-0.1-3.6-0.4-5.2c-0.1-0.4-0.1-0.7-0.2-1.1c-2.1-9.8-9.8-11.6-21.7-14.8c0,0-6.3-2-6.3-5.8c0-2.4,1.4-4,3.3-4.9
		c0.2-0.1,0.4-0.2,0.6-0.2c1-0.4,2.1-0.5,3.1-0.5l14.9,0.1v-9.2H396.2z M262.4,515.3c0,0-0.2,6.5-0.2,10.9l20.5-0.1v-10.8
		L262.4,515.3L262.4,515.3z M349.3,515.3c0,0-0.1,6.5-0.1,10.9l20.4-0.1v-10.8L349.3,515.3L349.3,515.3z M427.6,515.3
		c0,0-0.1,6.5-0.1,10.9l20.4-0.1v-10.8L427.6,515.3L427.6,515.3z M153,515.4c-5.9,0-10.1,3-12.2,8c-0.2,0.5-0.3,0.9-0.5,1.4
		c-0.6,1.9-0.9,4.1-0.9,6.5v31.2c0,9.5,5.1,16.3,13.7,16.3h30.7v-9.2h-18.3c-3.1,0-5.6-2.7-5.6-5.8v-12.2h21v-9.2l-21-0.1l-0.1-12.3
		c0-3.1,2.5-5.4,5.6-5.4h18.3v-9.3L153,515.4z M187.9,515.5c0,0-0.2,43.2-0.2,47.6c0,1.8,0.3,3.5,0.7,5c0.2,0.5,0.3,1,0.5,1.5
		c2.2,5.3,7.2,8.8,12.9,9.4c0.5,0,1.1,0.1,1.6,0.1h19v-9.3h-8.4c-3.1,0-5.6-2.3-5.6-5.4v-48.9H187.9z M224.2,515.5
		c0,0-0.1,43.2-0.1,47.6c0,8.9,6.4,15.1,14.2,15.9c0.5,0,1,0.1,1.6,0.1h19v-9.3h-8.7c-3.1,0-5.6-2.3-5.6-5.4v-48.9H224.2z
		 M563.2,515.6v29.2c0,0.7-1.4,2.1-2.6,0.3c0,0-14-20.2-19.1-26.2c-4.2-5.1-19-4.8-19.1,7.2c0,7.6,0,52.2,0,52.2H533v-36.8
		c0-2,1.8-1.3,2.9-0.1c0.5,0.6,23.2,35,24.2,36.4c0.4,0.6,1.2,1.1,2.1,1.6c0.3,0.1,0.6,0.3,1,0.4c4.2,1.4,10.6,0.5,10.6-8.3
		c0-11.8,0-55.7,0-55.7L563.2,515.6z M485.7,522.3c8.1,0,11.4,11.1,11.4,24.9c0,13.7-3.8,24.9-11.4,24.9c-2.1,0-3.8-0.7-5.2-1.9
		c-0.2-0.2-0.4-0.3-0.5-0.5c-0.5-0.5-1-1.1-1.4-1.8c-0.1-0.2-0.3-0.5-0.4-0.7c-2.6-4.5-3.7-11.8-3.7-20c0-0.9,0-1.7,0-2.5
		c0.1-7.5,1-14.1,3.6-18.1c0.1-0.2,0.3-0.4,0.4-0.6C480.1,523.7,482.4,522.3,485.7,522.3L485.7,522.3z M262.4,530.2
		c0,0-0.2,44.6-0.2,49l20.5,0v-49L262.4,530.2z M349.3,530.2c0,0-0.1,44.6-0.1,49l20.4,0v-49L349.3,530.2z M427.6,530.2
		c0,0-0.1,44.6-0.1,49l20.4,0v-49L427.6,530.2z"/>
</g>
</svg>
