<?xml version="1.0" encoding="utf-8"?>
<!-- Generator: Adobe Illustrator 28.6.0, SVG Export Plug-In . SVG Version: 9.03 Build 54939)  -->
<svg version="1.1" baseProfile="tiny" id="Layer_1" xmlns="http://www.w3.org/2000/svg" xmlns:xlink="http://www.w3.org/1999/xlink"
	 x="0px" y="0px" viewBox="0 0 239.8 78.8" overflow="visible" xml:space="preserve">
<g transform="matrix(.4237353 0 0 .4237353 -53.58646 -83.348259)">
	<g>
		<path fill="#FFFFFF" d="M502.5,236.4c1,0.1,1.9,0.1,2.9,0.2c7.3,0.5,14.3,2.2,20.9,5.6c4.7,2.4,8.8,5.6,12.5,9.3
			c4,4.1,7.3,8.6,9.8,13.8c1.8,3.8,3.1,7.8,4,11.9c1.1,5,1.4,10.1,1.2,15.3c-0.3,8.2-2.2,16.1-6,23.4c-2.7,5.1-6.2,9.6-10.4,13.6
			c-6.7,6.4-14.6,10.5-23.7,12.4c-3.4,0.7-6.7,1.2-10.2,1.3c-0.2,0-0.3,0.1-0.5,0.1h-4c-0.9-0.1-1.8-0.1-2.6-0.2
			c-10.5-0.8-20.1-4-28.4-10.6c-6.6-5.2-11.7-11.6-15.2-19.2c-1.8-3.9-3-7.9-3.8-12.1c-0.9-4.7-1.2-9.5-0.9-14.3
			c0.5-10.1,3.2-19.6,9-27.9c6.9-9.8,15.9-16.8,27.4-20.1c3.5-1,7.1-1.7,10.8-2c1.2-0.1,2.3-0.1,3.5-0.2c0.2,0,0.4,0,0.6-0.1
			L502.5,236.4L502.5,236.4z M500.9,329.4c3.7,0,7.3-0.3,10.9-1.2c7.7-1.9,14.1-5.9,19.2-12c5.2-6.2,7.9-13.5,8.6-21.5
			c0.3-2.7,0.3-5.5,0.1-8.2c-0.2-3-0.6-5.9-1.4-8.8c-2.5-9-7.5-16.2-15.3-21.4c-5.8-3.9-12.3-5.7-19.3-6c-3.8-0.2-7.6,0-11.3,0.7
			c-6.5,1.2-12.4,3.9-17.4,8.3c-4.9,4.3-8.4,9.4-10.6,15.5c-1.6,4.6-2.3,9.4-2.4,14.3c-0.1,3.8,0.2,7.5,1,11.2
			c1.5,6.7,4.5,12.6,9.2,17.6c4.1,4.4,9.1,7.6,14.8,9.6C491.7,328.9,496.3,329.4,500.9,329.4"/>
		<path fill="#FFFFFF" d="M692.3,340.8c-0.4,1-0.7,1.1-1.8,1.1c-3.5,0-7,0-10.6,0c-1.2,0-1.7-0.5-1.7-1.7V239.4
			c0-1.3,0.5-1.7,1.8-1.7c3.5,0,7,0,10.6,0c0.4,0,0.9,0.2,1.3,0.4c0.2,0.1,0.3,0.5,0.4,0.8L692.3,340.8L692.3,340.8z"/>
		<path fill="#FFFFFF" d="M405.1,279.9c1.8,2.4,3.5,4.7,5.3,7c3.7,5,7.5,9.9,11.2,14.9c4.8,6.4,9.6,12.8,14.4,19.1
			c4.7,6.2,9.4,12.5,14.1,18.7c0.4,0.5,0.5,0.9,0.3,1.5c-0.3,0.5-0.7,0.7-1.3,0.7c-0.3,0-0.5,0-0.8,0c-4.3,0-8.7,0-13,0
			c-0.7,0-1.3-0.2-1.8-0.9c-8.2-10.9-16.4-21.9-24.6-32.8c-4.7-6.2-9.3-12.4-14-18.6c0-0.1-0.1-0.1-0.1-0.2c-0.6,0.5-1.1,1-1.7,1.6
			c-3.8,3.5-7.5,7.1-11.3,10.6c-2.1,1.9-4.2,3.9-6.3,5.8c-0.3,0.2-0.4,0.5-0.4,0.9c0,10.6,0,21.1,0,31.7c0,0.1,0,0.3,0,0.4
			c0,1-0.5,1.5-1.5,1.5c-3.7,0-7.4,0-11.1,0c-0.9,0-1.4-0.5-1.5-1.5c0-0.1,0-0.2,0-0.3V239.5v-0.1c0-1.3,0.5-1.7,1.7-1.7
			c3.4,0,6.8,0,10.1,0c0.2,0,0.4,0,0.7,0c1,0,1.5,0.5,1.5,1.5c0,0.1,0,0.3,0,0.4v48.8v0.7c0.8-0.8,1.6-1.5,2.3-2.2
			c4.5-4.2,8.9-8.4,13.4-12.5c5.8-5.5,11.7-11,17.5-16.4c4.9-4.6,9.8-9.2,14.7-13.8c2.1-1.9,4.1-3.9,6.2-5.8
			c0.4-0.4,0.9-0.6,1.5-0.6c5.2,0,10.3,0,15.5,0c0.9,0,1.4,0.3,1.6,1c0.2,0.5-0.1,1-0.4,1.3c-1.5,1.4-3,2.8-4.5,4.3
			c-2.7,2.5-5.3,5-8,7.5c-3.7,3.5-7.4,6.9-11,10.4c-3.8,3.6-7.5,7.1-11.3,10.7C410.2,275.2,407.7,277.5,405.1,279.9"/>
		<path fill="#FFFFFF" d="M569.9,289.8v-50.2c0-0.1,0-0.3,0-0.4c0-0.9,0.5-1.4,1.4-1.5c0.1,0,0.1,0,0.2,0c14.4,0,28.7,0,43.1,0
			c6.6,0,12.9,1.5,18.9,4.2c5.2,2.3,9.8,5.6,13.9,9.7c6.5,6.7,10.9,14.6,13,23.7c1.2,5.2,1.7,10.6,1.6,15.9
			c-0.2,7.2-1.4,14.2-4.1,20.9c-2.3,5.6-5.6,10.6-9.7,15c-6.3,6.8-14,11.2-23,13.4c-3.9,0.9-7.8,1.4-11.8,1.4c-13.9,0-27.8,0-41.7,0
			c-0.2,0-0.5,0-0.7-0.1c-0.5-0.1-0.8-0.4-0.9-0.9c0-0.3-0.1-0.5-0.1-0.8C569.9,323.4,569.9,306.6,569.9,289.8 M584,328.5h0.6
			c9.3,0,18.7,0,28,0c1.7,0,3.4-0.1,5-0.2c3.5-0.3,6.8-1.2,9.9-2.6c4.1-1.9,7.6-4.7,10.6-8.1c2.8-3.2,5-6.7,6.6-10.6
			c1.7-4.2,2.7-8.5,3-13c0.3-4.1,0.2-8.2-0.4-12.2c-0.7-4.8-2.3-9.3-4.7-13.5c-2.7-4.7-6.1-8.7-10.5-11.8
			c-5.3-3.7-11.3-5.4-17.7-5.5c-10,0-20,0-30,0H584L584,328.5L584,328.5z"/>
	</g>
	<g>
		<path fill="#FFFFFF" d="M313.1,291.2c-0.6,2-1.9,3.4-3.3,4.8c-9.5,9.4-18.9,18.9-28.3,28.3c-3.4,3.4-7,3.4-10.5,0
			c-9.7-9.8-19.5-19.5-29.2-29.3c-3.3-3.3-3.3-7,0-10.3c9.8-9.8,19.6-19.6,29.4-29.4c3.2-3.2,6.9-3.2,10.1,0
			c9.5,9.5,19,19,28.5,28.5c1.4,1.4,2.7,2.8,3.3,4.8L313.1,291.2z"/>
		<path fill="#FFFFFF" d="M219.1,382.6c-1.9-0.6-3.4-2-4.8-3.4c-9.4-9.5-18.9-18.9-28.3-28.4c-3.4-3.4-3.4-7,0-10.4
			c9.8-9.8,19.5-19.6,29.3-29.3c3.3-3.3,7-3.3,10.2,0c9.8,9.8,19.5,19.6,29.3,29.3c3.4,3.4,3.4,7,0,10.4
			c-9.5,9.5-19.1,19.1-28.6,28.6c-1.4,1.4-2.8,2.6-4.7,3.1L219.1,382.6L219.1,382.6z"/>
		<path fill="#FFFFFF" d="M184.8,266.5c0-10.9,0.1-21.8-0.1-32.6c0-3.1,0.7-5.6,3.1-7.7c1.9-1.7,3.6-3.6,5.5-5.4
			c7.2-7.2,14.3-14.3,21.5-21.5c3.4-3.4,7-3.4,10.4,0c9.7,9.8,19.5,19.5,29.2,29.3c3.4,3.4,3.3,7,0,10.4
			c-11.5,11.5-23.1,23.1-34.6,34.6c-10.2,10.2-20.4,20.4-30.5,30.6c-1.9,1.9-3.6,1.5-4.2-1.2c-0.2-0.8-0.2-1.7-0.2-2.5
			C184.8,289.1,184.8,277.8,184.8,266.5"/>
		<path fill="#FFFFFF" d="M161.5,290c0,10,0,20,0,29.9c0,0.9-0.2,2-0.5,2.8c-0.7,1.7-1.9,1.9-3.2,0.6c-4.6-4.6-9.2-9.2-13.8-13.8
			c-5.3-5.3-10.6-10.6-15.9-15.9c-2.2-2.2-2.2-5.2,0-7.5c9.7-9.9,19.5-19.7,29.3-29.6c0.6-0.7,1.3-1.5,2.4-1.1
			c1,0.4,1.5,1.3,1.6,2.4c0.1,0.6,0.2,1.3,0.2,2C161.5,270,161.5,280,161.5,290L161.5,290L161.5,290z"/>
	</g>
</g>
</svg>
