<?xml version="1.0" encoding="utf-8"?>
<!-- Generator: Adobe Illustrator 28.6.0, SVG Export Plug-In . SVG Version: 9.03 Build 54939)  -->
<svg version="1.1" baseProfile="tiny" id="Layer_1" xmlns="http://www.w3.org/2000/svg" xmlns:xlink="http://www.w3.org/1999/xlink"
	 x="0px" y="0px" viewBox="0 0 712 860" overflow="visible" xml:space="preserve">
<g>
	<path fill="#FFFFFF" d="M373.4,1c-5.5,0-11.3,0.2-17.2,0.7C204.7,13.9,244.8,173.9,242.6,227.5c-2.8,39.2-10.7,70.1-37.7,108.4
		c-31.6,37.6-76.2,98.6-97.3,162c-10,29.9-14.7,60.4-10.3,89.3c-1.4,1.2-2.7,2.5-3.9,3.8c-9.3,9.9-16.2,21.9-23.8,30
		c-7.2,7.1-17.3,9.9-28.5,13.9c-11.2,4-23.5,9.9-31,24.3c0,0,0,0,0,0c0,0,0,0,0,0.1c-3.5,6.5-4.7,13.6-4.7,20.8c0,6.6,1,13.3,2,19.8
		c2.1,13.5,4.1,26.2,1.4,34.8c-8.9,24.2-10,41-3.8,53.1c6.3,12.2,19.1,17.5,33.6,20.6c29.1,6.1,68.4,4.6,99.4,21l2.7-5l-2.6,5
		c33.2,17.4,66.9,23.5,93.7,17.4c19.5-4.4,35.3-16,43.4-33.9c21-0.1,44-9,81-11c25-2,56.3,8.9,92.3,6.9c0.9,3.9,2.3,7.7,4.2,11.2
		c0,0,0,0.1,0.1,0.1c13.9,27.9,39.9,40.7,67.5,38.5c27.7-2.2,57.1-18.5,80.9-46.8l-4.4-3.7l4.4,3.6c22.7-27.5,60.3-38.9,85.2-53.9
		c12.5-7.5,22.6-16.9,23.4-30.6c0.8-13.7-7.3-29-25.7-49.5c0,0,0,0,0,0c-6.1-6.8-9-19.5-12.1-33.1c-3.1-13.5-6.6-28.1-17.7-37.6
		c0,0-0.1,0-0.1-0.1c-2.2-1.9-4.5-3.5-6.7-4.9c-2.3-1.3-4.6-2.5-6.9-3.3c15.4-45.8,9.4-91.3-6.2-132.5
		c-19.1-50.5-52.5-94.6-78-124.7c-28.5-36-56.4-70.1-55.9-120.6C501.3,144,508.9,1.2,373.4,1L373.4,1z M391.3,119.6h0.4
		c7.7,0,14.2,2.3,21,7.1c6.9,5,11.8,11.2,15.8,19.9c3.9,8.5,5.8,16.8,6,26.6c0,0.3,0,0.5,0.1,0.7c0.1,10.1-1.7,18.7-5.5,27.5
		c-2.2,5-4.7,9.2-7.7,12.8c-1-0.5-2.1-1-3.2-1.4c-3.8-1.6-7.2-3-10.2-4.1c-3-1.1-5.4-1.9-7.8-2.8c1.8-2.1,5.2-4.6,6.5-7.8
		c2-4.8,2.9-9.4,3.1-14.9c0-0.2,0.1-0.4,0.1-0.7c0.1-5.3-0.6-9.8-2.1-14.5c-1.6-4.9-3.7-8.4-6.7-11.3c-3-2.9-6-4.2-9.6-4.3
		c-0.2,0-0.3,0-0.5,0c-3.4,0-6.3,1.2-9.3,3.7c-3.2,2.6-5.5,6-7.5,10.8c-2,4.7-2.9,9.4-3.1,15c0,0.2,0,0.4,0,0.6
		c-0.1,3.1,0.1,5.9,0.6,8.6c-6.9-3.4-15.7-5.9-21.8-7.4c-0.4-2.6-0.5-5.3-0.6-8.2v-0.8c-0.1-10.1,1.5-18.7,5.4-27.4
		c3.9-8.8,8.7-15.1,15.4-20.2C376.8,122.1,383.5,119.7,391.3,119.6L391.3,119.6z M286.4,128c5.1,0,9.7,1.7,14.4,5.5
		c5.1,4.1,9,9.3,12.2,16.7c3.2,7.4,5,14.7,5.5,23.4v0.1c0.2,3.6,0.2,7.1-0.1,10.4c-1,0.3-2,0.6-3,0.9c-5.5,1.9-9.9,4-14.1,6.8
		c0.4-2.9,0.5-5.9,0.2-9.2c0-0.2,0-0.3,0-0.5c-0.4-4.4-1.4-8.1-2.9-11.8c-1.6-3.9-3.5-6.6-5.9-8.7c-2.2-1.9-4.3-2.8-6.6-2.8
		c-0.2,0-0.5,0-0.7,0c-2.6,0.2-4.7,1.5-6.8,3.9c-2,2.5-3.4,5.5-4.3,9.6c-1,4.1-1.2,8-0.8,12.6c0,0.2,0,0.3,0,0.5
		c0.4,4.4,1.3,8.1,2.9,11.8c1.6,3.8,3.5,6.6,5.9,8.7c0.4,0.4,0.8,0.7,1.2,0.9c-2.5,1.9-4.2,3.3-6.3,4.9c-1.3,1-2.9,2.1-4.8,3.5
		c-4-3.8-7.1-8.5-9.9-14.7c-3.2-7.4-5-14.7-5.5-23.4v-0.1c-0.5-8.7,0.4-16.2,2.8-23.9c2.4-7.7,5.6-13.3,10.2-17.9
		c4.6-4.6,9.3-6.9,15-7.2C285.6,128,286,128,286.4,128L286.4,128z M334.3,188.3c11.9-0.1,26.1,3.8,43.4,14.9
		c10.6,6.9,18.9,7.5,37.9,15.6l0,0l0,0c9.1,3.8,14.5,8.6,17.1,13.8c2.6,5.1,2.7,10.7,0.5,16.6c-4.4,11.8-18.4,24.1-38.1,30.3l0,0
		l0,0c-9.6,3.1-18,10-27.8,15.6c-9.9,5.6-21,10.2-36.2,9.3c-6.5-0.4-11.6-1.7-16-3.5s-8.1-4.4-11.6-7.2c-7-5.6-13.1-12.7-22-17.9
		l0,0l0,0c-14.3-8.1-22.2-17.5-24.6-25.6c-2.5-8.1-0.2-15.1,7-20.4c8-6,13.6-10.1,17.3-12.8c3.7-2.7,5.2-3.7,6.4-4.8c0,0,0,0,0,0
		l0,0c6-5.7,15.6-16.1,30.1-21C322.6,189.4,328.1,188.3,334.3,188.3L334.3,188.3z M434.5,260.6c12.9,50.9,43,124.5,62.3,160.4
		c10.3,19,30.7,59.5,39.5,108.2c5.6-0.2,11.8,0.6,18.3,2.3c23.1-59.8-19.6-124.2-39.1-142.2c-7.9-7.6-8.2-11.1-4.3-10.9
		c21.1,18.7,48.9,56.3,59,98.8c4.6,19.4,5.6,39.7,0.7,59.8c2.4,1,4.9,2.1,7.4,3.3c37,18,50.7,33.7,44.1,55.1c-2.2-0.1-4.3-0.1-6.4,0
		c-0.2,0-0.4,0-0.6,0c5.4-17-6.5-29.5-38.2-43.8c-32.8-14.4-59-13-63.4,16.3c-0.3,1.5-0.5,3.1-0.7,4.7c-2.5,0.9-4.9,1.9-7.4,3.3
		c-15.4,8.4-23.8,23.7-28.5,42.5c-4.7,18.8-6,41.4-7.3,66.9v0c-0.8,12.8-6.1,30.2-11.4,48.5c-53.8,38.4-128.4,55-191.8,11.7
		c-4.3-6.8-9.2-13.5-14.3-20.2c-3.2-4.2-6.6-8.5-9.9-12.6c6.5,0,12-1.1,16.5-3.1c5.6-2.5,9.5-6.6,11.4-11.8
		c3.9-10.4,0-25.1-12.4-41.8c-12.4-16.7-33.3-35.6-64.1-54.5v0c-22.6-14.1-35.3-31.3-41.2-50c-5.9-18.7-5.1-39-0.5-59
		c8.8-38.4,31.3-75.7,45.6-99.1c3.9-2.8,1.4,5.3-14.5,34.8c-14.3,27-40.9,89.4-4.4,138.1c1-34.6,9.3-70,23.1-103
		c20.2-45.9,62.5-125.4,65.9-188.8c1.7,1.3,7.7,5.3,10.3,6.8c0,0,0,0,0,0c7.8,4.6,13.6,11.2,21.1,17.3c7.6,6.1,17,11.3,31.3,12.2
		c1.4,0.1,2.7,0.1,4,0.1c14.7,0,26.2-4.8,35.8-10.3c10.4-5.9,18.7-12.5,26.6-15.1c0,0,0,0,0,0C413.8,280.5,427,271.3,434.5,260.6
		L434.5,260.6z M512.9,585.1c1.4,22,12.3,44.5,31.5,49.4c21.1,5.6,51.5-12.5,64.4-27.3c2.6-0.1,5.1-0.2,7.5-0.3
		c11.3-0.3,20.7,0.4,30.4,8.8l0,0l0,0c7.4,6.3,11,18.2,14,31.5c3.1,13.3,5.5,27.8,14.7,38.1l0,0l0,0c17.6,19.6,23.3,32.8,22.8,41.2
		c-0.5,8.4-6.6,14.7-17.9,21.5c-22.6,13.6-62.6,25.5-88.1,56.4c-22.2,26.4-49.2,40.9-73,42.8s-44.4-8-56.5-32.3l0-0.1l0-0.1
		c-7.5-14.3-4.4-36.8,1.9-60.6c6.3-23.8,15.4-48.2,16.6-68.1V686c1.3-25.4,2.7-47.7,7-64.8c4.3-17.2,11-28.7,22.9-35.3
		C511.8,585.6,512.3,585.3,512.9,585.1L512.9,585.1z M125.3,586.7c0.1,0,0.2,0,0.3,0c1.8,0,3.7,0.2,5.7,0.5
		c13.5,2,25.3,11.5,36.6,26.9l32.7,59.7l0,0l0,0c8.7,18.2,27.1,38.2,42.7,58.6c15.6,20.4,27.7,40.9,26.1,56.6l0,0.1v0.1
		c-2,26.7-17.1,41.3-40.3,46.6c-23.1,5.3-54.5,0-85.9-16.4c0,0,0,0,0,0c-34.7-18.4-75.9-16.5-102.4-22.1
		c-13.2-2.8-21.9-6.9-25.8-14.6c-4-7.7-4.1-21.2,4.4-44.2l0-0.1l0-0.1c4.2-12.8,1.1-26.9-0.9-40.1c-2-13.2-3-25.2,1.5-33.6l0-0.1
		c5.8-11.1,14.2-15.1,24.7-18.9c10.5-3.8,23-6.7,32.8-16.6l0.1-0.1l0.1-0.1c9.1-9.6,15.9-21.6,23.9-30.1
		C108.4,591.6,115.1,586.8,125.3,586.7L125.3,586.7z"/>
	<path fill="#FFFFFF" d="M382.9,261.7c-15.6,8.2-33.9,18-53.4,18c-19.4,0-34.8-9-45.8-17.7c-5.5-4.4-10-8.7-13.4-11.9
		c-5.9-4.6-5.2-11.1-2.8-10.9c4,0.5,4.6,5.8,7.2,8.2c3.4,3.2,7.8,7.4,13,11.5c10.4,8.3,24.4,16.3,41.8,16.3
		c17.4,0,37.7-10.2,50.1-17.2c7-3.9,16-11,23.3-16.4c5.6-4.1,5.4-9,10-8.5c4.6,0.5,1.2,5.5-5.3,11.1
		C401.2,250,391.1,257.4,382.9,261.7L382.9,261.7z"/>
	<path fill="#FFFFFF" d="M344.1,204.9c0.6,2.1,4,1.7,5.9,2.7c1.7,0.9,3.1,2.8,5,2.8c1.8,0.1,4.7-0.6,4.9-2.4
		c0.3-2.4-3.2-3.9-5.4-4.8c-2.9-1.1-6.6-1.7-9.3-0.2C344.6,203.4,343.9,204.2,344.1,204.9L344.1,204.9z"/>
	<path fill="#FFFFFF" d="M324.3,204.9c-0.6,2.1-4,1.7-5.9,2.7c-1.7,0.9-3.1,2.8-5,2.8c-1.8,0.1-4.7-0.6-4.9-2.4
		c-0.3-2.4,3.2-3.9,5.4-4.8c2.9-1.1,6.6-1.7,9.3-0.2C323.9,203.4,324.5,204.2,324.3,204.9L324.3,204.9z"/>
</g>
</svg>
