<?xml version="1.0" encoding="utf-8"?>
<!-- Generator: Adobe Illustrator 28.6.0, SVG Export Plug-In . SVG Version: 9.03 Build 54939)  -->
<svg version="1.1" baseProfile="tiny" id="Layer_1" xmlns="http://www.w3.org/2000/svg" xmlns:xlink="http://www.w3.org/1999/xlink"
	 x="0px" y="0px" viewBox="0 0 270 82.3" overflow="visible" xml:space="preserve">
<g>
	<path fill="#FFFFFF" d="M27.1,67.6c-6.3-7.2-9.4-17-9.4-27.4l0,0c0-7,1.4-14.4,4.1-21.8l0,0c1.1-2.9,4.3-4.4,7.2-3.3l0,0
		c2.9,1.1,4.4,4.3,3.3,7.2l0,0c-2.3,6.3-3.4,12.4-3.4,17.9l0,0c0,8.3,2.4,15.3,6.6,20l0,0c4.2,4.7,10.1,7.7,18.6,7.7l0,0
		c2.8,0,5.8-0.3,9.2-1.1l0,0c3-0.7,6,1.2,6.7,4.3l0,0c0.7,3-1.2,6-4.3,6.7l0,0c-4.1,0.9-7.9,1.3-11.6,1.3l0,0c-0.1,0-0.1,0-0.2,0
		l0,0C42.8,79.1,33.3,74.8,27.1,67.6L27.1,67.6z"/>
	<path fill="#FFFFFF" d="M66,47.7c0-17.6,14.3-31.9,31.9-31.9l0,0c17.6,0,31.9,14.3,31.9,31.9l0,0h0c0,17.6-14.3,31.9-31.9,31.9l0,0
		C80.2,79.6,66,65.3,66,47.7z M77.2,47.7c0,11.4,9.2,20.6,20.6,20.6l0,0c11.4,0,20.6-9.2,20.6-20.6l0,0h0c0-11.4-9.2-20.6-20.6-20.6
		l0,0C86.5,27.1,77.2,36.3,77.2,47.7z"/>
	<path fill="#FFFFFF" d="M154.6,76.8c-1.9-1.1-3.6-2.5-5.1-4.1l0,0c-3-3.3-5.6-7.4-8.3-12.4l0,0c-5.3-9.9-10.7-23.1-16.9-37.6l0,0v0
		c-1.2-2.8,0.1-6.2,2.9-7.4l0,0c2.8-1.2,6.2,0.1,7.4,2.9l0,0c4.1,9.6,7.9,18.5,11.3,26l0,0c3.4,7.6,6.7,13.8,9.5,17.9l0,0
		c1.9,2.7,3.6,4.3,4.6,4.9l0,0c0.5,0.3,0.8,0.3,0.9,0.3l0,0c0,0,0,0,0,0l0,0c0.1-0.1,0.4-0.2,0.8-0.5l0,0c0.8-0.6,1.9-1.7,3.2-3.2
		l0,0c2.5-3,5.4-7.7,8.2-13l0,0c5.6-10.6,11-23.4,14.9-32l0,0c1.3-2.8,4.6-4.1,7.4-2.8l0,0c2.8,1.3,4.1,4.6,2.8,7.4l0,0
		c-2.5,5.5-5.7,13.1-9.3,20.8l0,0c-3.6,7.7-7.6,15.5-11.7,21.8l0,0c-2.8,4.2-5.6,7.7-9,10.2l0,0c-2,1.4-4.4,2.6-7.3,2.6l0,0
		c0,0,0,0,0,0l0,0C158.7,78.6,156.5,77.9,154.6,76.8L154.6,76.8z"/>
	<path fill="#FFFFFF" d="M201.4,68.8c-5.4-6.2-7.4-14-7.4-21.5l0,0c0-8.9,4-16.6,9.3-22l0,0c5.3-5.4,11.9-9.1,18.7-9.5l0,0
		c0.5,0,1,0,1.4,0l0,0c4.4,0,9.2,1,13.7,2.8l0,0c4.5,1.9,8.7,4.6,11.7,8.9l0,0c2,2.8,3.3,6.3,3.3,10.2l0,0c0,3.3-0.5,6.4-1.9,9.2
		l0,0c-1.3,2.8-3.4,5.1-5.8,6.8l0,0c-4.8,3.5-10.5,5.3-17.9,7.9l0,0h0c-2.9,1-6.1-0.5-7.1-3.5l0,0c-1-2.9,0.6-6.1,3.5-7.1l0,0
		c5.5-1.9,9.8-3.4,12.6-4.9l0,0c2.9-1.5,4-2.7,4.6-4l0,0c0.4-0.9,0.8-2.2,0.8-4.4l0,0c0-1.4-0.4-2.5-1.2-3.7l0,0
		c-0.8-1.2-2.2-2.4-4-3.5l0,0c-3.5-2.1-8.5-3.4-12.2-3.4l0,0c-0.3,0-0.6,0-0.9,0l0,0c-2.8,0.1-7.6,2.3-11.2,6.1l0,0
		c-3.7,3.8-6.2,8.8-6.2,14.2l0,0c0,5.5,1.5,10.5,4.6,14.1l0,0c3.1,3.5,7.9,6.1,16.5,6.2l0,0c1.8,0,3.8-0.1,5.9-0.4l0,0
		c3.1-0.4,5.9,1.8,6.3,4.9l0,0c0.4,3.1-1.8,5.9-4.9,6.3l0,0c-2.6,0.3-5,0.5-7.3,0.5l0,0c-0.1,0-0.2,0-0.2,0l0,0
		C215.2,78.8,206.7,75,201.4,68.8z"/>
	<circle fill="#FFFFFF" cx="90.6" cy="9.5" r="6.4"/>
	<circle fill="#FFFFFF" cx="106.3" cy="9.5" r="6.4"/>
</g>
</svg>
