<?xml version="1.0" encoding="utf-8"?>
<!-- Generator: Adobe Illustrator 28.6.0, SVG Export Plug-In . SVG Version: 9.03 Build 54939)  -->
<svg version="1.1" baseProfile="tiny" id="Layer_1" xmlns="http://www.w3.org/2000/svg" xmlns:xlink="http://www.w3.org/1999/xlink"
	 x="0px" y="0px" viewBox="0 0 566.9 234.7" overflow="visible" xml:space="preserve">
<path fill="#FFFFFF" d="M37.2,201.5L80.3,32h39.9l20.7,74l21.5-74H200l35.2,124.9l86-0.2c9-0.1,9.6-18.7-0.7-18.7l-50.1-0.7
	c-21.5,0.2-44.2-23.1-43.1-54c0.2-28.4,25-50.8,56.7-50.8l127.7-0.1l32.5,44.2L476,32l52.9,0.4L471,113.8l62.6,88.3l-52.6-0.2
	l-36.5-50.7l-34.7,50.7l-53.6,0l61.1-87.3l-26.6-38.8l-111,0.2c-12.1,0.1-11.7,19.2,0.1,18.8l46.8,0.7c19.8,0.1,47.6,20.7,46.9,52.7
	c0.3,37.3-33.3,54.3-49.4,53.4l-122.4,0.2l-20.4-76.3l-20.4,76.1h-38.6L101,125.9l-18.7,75.8L37.2,201.5z"/>
</svg>
