<?xml version="1.0" encoding="utf-8"?>
<!-- Generator: Adobe Illustrator 28.0.0, SVG Export Plug-In . SVG Version: 6.00 Build 0)  -->
<svg version="1.1" baseProfile="tiny" id="Layer_1" xmlns="http://www.w3.org/2000/svg" xmlns:xlink="http://www.w3.org/1999/xlink"
	 x="0px" y="0px" viewBox="0 0 566.9 102.8" overflow="visible" xml:space="preserve">
<g>
	<g>
		<path fill="none" stroke="#FFFFFF" stroke-width="2" stroke-linejoin="round" stroke-miterlimit="10" d="M51.5,11.1L39.6,32.3
			l11.9-4.6l11.3,4.3l3-3.4V5.6L51.5,11.1z"/>
		<path fill="none" stroke="#FFFFFF" stroke-width="2" stroke-linejoin="round" stroke-miterlimit="10" d="M88.4,87.3l-21.5-28v37
			l-15.4,6.5V39.6l15.4-5.9l21.5,30.7v-39l14.6-5.6v61.4L88.4,87.3z"/>
		<path fill="none" stroke="#FFFFFF" stroke-width="2" stroke-linejoin="round" stroke-miterlimit="10" d="M14.6,87.3l13.7-6.1
			L14.6,54.7L14.6,87.3z"/>
	</g>
	<g>
		<path fill="none" stroke="#FFFFFF" stroke-width="2" stroke-linejoin="round" stroke-miterlimit="10" d="M29.2,19.7L36,33.7
			l3.6-1.4l11.9-21.2L37.1,5.5L29.2,19.7z"/>
		<path fill="none" stroke="#FFFFFF" stroke-width="2" stroke-linejoin="round" stroke-miterlimit="10" d="M62.8,32.1l11-12.4
			l14.6,5.6v39L66.9,33.7L62.8,32.1z"/>
		<path fill="none" stroke="#FFFFFF" stroke-width="2" stroke-linejoin="round" stroke-miterlimit="10" d="M14.6,25.4L0,19.7v61.4
			l14.6,6.1V54.7L36,96.3l15.4,6.5V39.6L36,33.7v32.1L14.6,25.4z"/>
	</g>
	<g>
		<path fill="none" stroke="#FFFFFF" stroke-width="2" stroke-linejoin="round" stroke-miterlimit="10" d="M36,33.7v32.1L14.6,25.4
			l14.6-5.6L36,33.7z"/>
		<path fill="none" stroke="#FFFFFF" stroke-width="2" stroke-linejoin="round" stroke-miterlimit="10" d="M88.4,87.3l-21.5-28v15.3
			l4.4,6.1L88.4,87.3z"/>
	</g>
	<g>
		<path fill="none" stroke="#FFFFFF" stroke-width="2" stroke-linejoin="round" stroke-miterlimit="10" d="M66.9,33.7l-15.4,5.9
			L36,33.7l15.4-5.9L66.9,33.7z"/>
		<path fill="none" stroke="#FFFFFF" stroke-width="2" stroke-linejoin="round" stroke-miterlimit="10" d="M73.8,19.7l14.6-5.6
			l14.6,5.6l-14.6,5.6L73.8,19.7z"/>
		<path fill="none" stroke="#FFFFFF" stroke-width="2" stroke-linejoin="round" stroke-miterlimit="10" d="M0,19.7l14.6-5.6
			l14.6,5.6l-14.6,5.6L0,19.7z"/>
		<path fill="none" stroke="#FFFFFF" stroke-width="2" stroke-linejoin="round" stroke-miterlimit="10" d="M65.9,5.6L51.5,0
			L37.1,5.5l14.4,5.6L65.9,5.6z"/>
	</g>
</g>
<g>
	<g>
		<path fill="#FFFFFF" d="M154.1,81.3h21.4V33.8H161V61h-0.1l-9.5-27.2h-21.4v47.5h14.5V53.8h0.1L154.1,81.3z"/>
		<path fill="#FFFFFF" d="M234.7,81.3h21.4V33.8h-14.5V61h-0.1L232,33.8h-21.4v47.5h14.5V53.8h0.1L234.7,81.3z"/>
		<path fill="#FFFFFF" d="M373.6,81.3H395V33.8h-14.5V61h-0.1l-9.5-27.2h-21.4v47.5h14.5V53.8h0.1L373.6,81.3z"/>
		<path fill="#FFFFFF" d="M184.2,33.8H202v47.5h-17.8V33.8z"/>
		<path fill="#FFFFFF" d="M272.6,46.7h-11.3V33.8h40.5v12.9h-11.4v34.6h-17.8V46.7z"/>
		<path fill="#FFFFFF" d="M307,33.7h35.3v12.6h-17.7v5h16.3v12.2h-16.3v5.3h18.3v12.5H307V33.7z"/>
	</g>
	<g>
		<path fill="#FFFFFF" d="M402.6,33.8h21.1c18,0,23.8,10.2,23.8,24.3c0,14.3-8.8,23.2-22.7,23.2h-22.2V33.8z M420.1,70.5h1.7
			c2.9,0,4.8-0.9,5.9-2.8c1.2-2,1.3-5.6,1.3-10.2c0-4.6-0.1-8.2-1.3-10.2c-1.1-1.9-3-2.8-5.9-2.8h-1.7V70.5z"/>
		<path fill="#FFFFFF" d="M475.5,32.5c15.5,0,23.2,10.2,23.2,25c0,14.8-7.7,25-23.2,25c-15.5,0-23.2-10.2-23.2-25
			C452.2,42.7,459.9,32.5,475.5,32.5z M475.5,70.5c2.7,0,4.8-1.3,4.8-13c0-11.4-1.9-13-4.8-13c-2.9,0-4.8,1.6-4.8,13
			C470.6,69.1,472.7,70.5,475.5,70.5z"/>
		<path fill="#FFFFFF" d="M507,71.2c-3.1,0-5.6,2.5-5.6,5.6c0,3.1,2.5,5.6,5.6,5.6c3.1,0,5.6-2.5,5.6-5.6
			C512.7,73.8,510.1,71.2,507,71.2L507,71.2z M507,81.5c-2.6,0-4.6-2.1-4.6-4.7c0-2.6,2.1-4.6,4.6-4.6c2.6,0,4.7,2.1,4.7,4.6
			C511.7,79.4,509.6,81.5,507,81.5z"/>
		<path fill="#FFFFFF" d="M506.1,80h-1.3v-6.2h2.6c1.1,0,2.2,0.4,2.2,1.6c0,0.8-0.5,1.3-1.3,1.5v0c1,0.1,1,0.7,1.1,1.6
			c0.1,0.4,0.1,1.1,0.4,1.5h-1.5c-0.1-0.5-0.2-1.1-0.2-1.7c0-0.3-0.1-0.8-0.6-0.8h-1.4L506.1,80z M506.1,76.4h1.1
			c0.6,0,0.9-0.3,0.9-0.8c0-0.5-0.3-0.8-0.9-0.8h-1.1V76.4z"/>
		<path fill="#FFFFFF" d="M154.1,81.3h21.4V33.8H161V61h-0.1l-9.5-27.2h-21.4v47.5h14.5V53.8h0.1L154.1,81.3z"/>
		<path fill="#FFFFFF" d="M234.7,81.3h21.4V33.8h-14.5V61h-0.1L232,33.8h-21.4v47.5h14.5V53.8h0.1L234.7,81.3z"/>
		<path fill="#FFFFFF" d="M373.6,81.3H395V33.8h-14.5V61h-0.1l-9.5-27.2h-21.4v47.5h14.5V53.8h0.1L373.6,81.3z"/>
		<path fill="#FFFFFF" d="M184.2,33.8H202v47.5h-17.8V33.8z"/>
		<path fill="#FFFFFF" d="M272.6,46.7h-11.3V33.8h40.5v12.9h-11.4v34.6h-17.8V46.7z"/>
		<path fill="#FFFFFF" d="M307,33.7h35.3v12.6h-17.7v5h16.3v12.2h-16.3v5.3h18.3v12.5H307V33.7z"/>
	</g>
	<g>
		<path fill="#FFFFFF" d="M530.6,27.4c-0.9-0.1-1.9,0-3.2,0c-7.5,0.3-10.6,3.6-11.6,7.2h0.2c1.9-1.6,4.2-2.4,7.3-2.4
			c6,0,11.4,4.3,11.4,12.5c0,7.8-6,13.9-14,13.9c-10.6,0-15.2-8.1-15.2-16.8c0-7,2.5-13,6.6-16.9c3.9-3.6,8.9-5.4,15.1-5.6
			c1.6-0.1,2.6,0,3.4,0.1V27.4z M520.6,50.9c2.4,0,3.9-2.5,3.9-5.7c0-2.7-1.2-5.6-4.5-5.6c-2,0-3.6,1.3-4.1,2.8
			c-0.2,0.5-0.3,1.1-0.3,2.3C515.7,47.7,517.2,50.9,520.6,50.9L520.6,50.9L520.6,50.9z"/>
		<path fill="#FFFFFF" d="M553.4,57.9v-8.5h-15.8v-6.8l12.7-22.7h12.7v21.7h4v7.8h-4v8.5L553.4,57.9z M553.4,41.6V35
			c0-2.4,0.1-4.9,0.3-7.6h-0.2c-1.2,2.6-2.2,5-3.5,7.7l-3.1,6.3l0,0.1L553.4,41.6z"/>
	</g>
</g>
</svg>
