<?xml version="1.0" encoding="utf-8"?>
<!-- Generator: Adobe Illustrator 28.6.0, SVG Export Plug-In . SVG Version: 9.03 Build 54939)  -->
<svg version="1.1" baseProfile="tiny" id="Layer_1" xmlns="http://www.w3.org/2000/svg" xmlns:xlink="http://www.w3.org/1999/xlink"
	 x="0px" y="0px" viewBox="0 0 566.9 96.8" overflow="visible" xml:space="preserve">
<g transform="matrix(.93403196 0 0 .93403196 -613.862018 -328.537019)">
	<g transform="translate(.000015605469)">
		<path fill="#FFFFFF" stroke="#FFFFFF" stroke-width="0.934" stroke-miterlimit="3.7361" d="M1036,414.1h2.4c2.2,0,6.1,0.5,7.7,1.4
			c1.6,0.9,2.6,2,3.1,3.1c0.5,1.1,0.8,3.7,0.8,7.6v15.3c0,4.6-4.9,7-7.2,7.5c-2.4,0.5-4.6,0.8-6.9,0.8c-6.4,0-12-1.7-16.7-5
			c-4.7-3.4-8.1-8.6-10.2-15.7c-2.1-7.1-3.1-15.4-3.1-24.9c0-7.8,1-15.4,2.9-22.9c1.9-7.4,5.2-13.2,9.8-17.4
			c4.6-4.1,10.4-6.2,17.3-6.2c7.3,0,11.5,1.8,16.9,7.4c5.5,5.7,10.7,12.1,13.8,21.6h4.5v-34.8h-2.5c-0.9,2.8-1.9,4.7-3,5.7
			c-1.1,1-2.3,1.5-3.6,1.5c-0.8,0-3.5-0.9-8-2.7c-4.5-1.8-7.8-2.9-9.8-3.3c-3.7-0.8-6.6-1.2-11.2-1.2c-14.9,0-27.3,5.1-37.1,15.4
			c-9.8,10.2-14.7,22.8-14.7,37.6c0,8.3,1.6,15.8,4.8,22.5c2.5,5.2,6,9.9,10.5,14c4.5,4.1,9.6,7.5,15.4,10c5.8,2.5,13.2,3.8,22,3.8
			c6.9,0,13.6-0.7,20-2.1c6.4-1.4,12.6-3.5,18.6-6.4v-20.5c0-3.6,0.2-5.9,0.6-6.8c0.7-1.8,1.8-3,3.1-3.8c1.3-0.8,5-1.2,8.4-1.5v-3.4
			H1036L1036,414.1L1036,414.1z"/>
		<path fill="#FFFFFF" stroke="#FFFFFF" stroke-width="0.934" stroke-miterlimit="3.7361" d="M1147.5,440.6
			c-5.5,4.2-12.9,6.3-22.1,6.3h-5.2c-2.8,0-4.8-0.4-6.1-1.2c-1.2-0.8-2.1-1.8-2.6-3c-0.5-1.2-0.7-4.5-0.7-9.9v-27.6
			c4.7,0,10.2,0.6,12.7,1.8c2.5,1.2,4.6,3.6,6.5,7.2c1.9,3.6,3.1,7.5,3.7,13.1h4v-50.7h-4c-0.8,7.6-2.6,12.7-5.4,16.6
			c-2.8,3.9-7.4,5.9-13.6,5.9h-3.9v-34c0-5.9,5.2-5.2,5.2-5.2h6.2c7.4,0,12.5,0.4,15.2,1.3c4.6,1.4,8.2,3.7,10.8,6.8
			c2.5,3.1,4.5,8.2,5.9,15.2h3.3v-29h-82.9v4h2.6c3.2,0,5.7,0.7,7.5,2c1.3,0.9,2.2,2.2,2.7,3.9c0.2,1,0.4,3.7,0.4,8.2v61.3
			c0,4.9-0.3,7.9-0.8,9.1c-0.7,1.6-1.6,2.8-2.9,3.5c-1.7,1-4,1.5-6.9,1.5h-2.6v4.6h84.3l5.1-31.2h-4.6
			C1156.9,430,1153,436.4,1147.5,440.6"/>
		<path fill="#FFFFFF" stroke="#FFFFFF" stroke-width="0.934" stroke-miterlimit="3.7361" d="M1212.7,352.9
			c-14.1-0.6-26,4-35.7,13.8c-9.7,9.8-14.5,22-14.5,36.7c0,13.1,3.7,24.4,11.2,33.9c9.4,12.1,22.7,18.1,40,18.1
			c17.2,0,30.5-6.3,39.9-19c7.1-9.5,10.7-20.6,10.7-33.1c0-14.7-4.8-26.9-14.3-36.7C1240.4,356.9,1228,352.3,1212.7,352.9
			 M1235.2,431.3c-2.3,6.8-5.5,11.8-9.7,14.9c-3.2,2.4-7.3,3.6-12.2,3.6c-7.2,0-12.8-2.8-16.8-8.5c-5.7-8.1-8.6-20.5-8.6-37.4
			c0-14.2,1.9-25.1,5.6-32.7c4.6-9.2,11.2-13.8,20-13.8c4.8,0,9,1.3,12.6,4c3.6,2.7,6.7,7.3,9,13.7c2.4,6.5,3.5,16.3,3.5,29.3
			C1238.7,415.6,1237.5,424.5,1235.2,431.3"/>
	</g>
	<path fill="#FFFFFF" stroke="#FFFFFF" stroke-width="0.934" stroke-miterlimit="3.7361" d="M899.7,454.8c17.2,0,30.5-6.3,39.9-19
		c7.1-9.5,10.7-20.6,10.7-33.1c0-14.7-4.8-26.9-14.3-36.7c-9.5-9.8-21.9-14.4-37.2-13.8c-14.1-0.6-26,4-35.7,13.8
		c-9.7,9.8-14.5,22-14.5,36.7c0,13.1,3.7,24.4,11.2,33.9C869.2,448.8,882.5,454.8,899.7,454.8 M879.5,370.9
		c4.6-9.2,11.2-13.8,20-13.8c4.8,0,9,1.3,12.6,4c3.6,2.7,6.7,7.3,9,13.7c2.4,6.5,3.5,16.3,3.5,29.3c0,11-1.2,19.9-3.5,26.7
		c-2.3,6.8-5.5,11.8-9.7,14.9c-3.2,2.4-7.3,3.6-12.2,3.6c-7.2,0-12.8-2.8-16.8-8.5c-5.7-8.1-8.6-20.5-8.6-37.4
		C873.9,389.4,875.8,378.5,879.5,370.9"/>
	<path fill="#FFFFFF" stroke="#FFFFFF" stroke-width="0.934" stroke-miterlimit="3.7361" d="M849.9,420.5h-4.6
		c-2.4,8.7-6.4,15.1-11.9,19.4c-5.5,4.2-12.9,6.3-22,6.3h-5.2c-2.8,0-4.8-0.4-6.1-1.1c-1.3-0.8-2.1-1.8-2.6-3
		c-0.5-1.2-0.7-4.5-0.7-9.9v-27.6c4.7,0,10.2,0.6,12.7,1.8c2.5,1.2,4.6,3.6,6.5,7.2c1.9,3.6,3.1,7.5,3.7,13.1h4V376h-4
		c-0.8,7.6-2.6,12.7-5.4,16.6c-2.8,3.9-7.4,5.9-13.6,5.9h-3.9v-34c0-5.9,5.2-5.2,5.2-5.2h6.2c7.5,0,12.5,0.4,15.2,1.3
		c4.6,1.4,8.2,3.7,10.8,6.8c2.5,3.1,4.5,8.2,5.9,15.2h3.3v-29h-82.9v4h2.6c3.2,0,5.7,0.7,7.5,2c1.3,0.9,2.2,2.2,2.7,3.9
		c0.2,1,0.4,3.7,0.4,8.2V433c0,4.9-0.3,7.9-0.8,9.1c-0.7,1.6-1.6,2.8-2.9,3.5c-1.7,1-4,1.5-6.9,1.5h-2.6v4.6h84.3L849.9,420.5
		L849.9,420.5z"/>
	<path fill="#FFFFFF" stroke="#FFFFFF" stroke-width="0.934" stroke-miterlimit="3.7361" d="M690.8,447h-2.2c-3.2,0-6.1-1-8.6-3
		c-2.5-2-3.7-5.8-3.7-11.4v-59.2l64.1,80l4.2,0v-81.5c0-4.6,0.4-6,1.2-7.9s1.8-3.3,3.2-4.1c1.4-0.8,4-1.5,8-2.1v-4.1h-31.8v4.1
		c5.2-0.1,9,1.3,11.2,4.1c1.6,2.1,2.4,4.1,2.4,10v42.7l-49.9-60.9h-30.4v3.3c2.9,0.1,3,1.1,4.5,1.9l8.1,8.2l0,65.7
		c0,5.2-1,8.9-3.1,11c-2,2.2-5.7,3.3-10.9,3.3v4h33.6L690.8,447L690.8,447z"/>
	<path fill="#FFFFFF" stroke="#FFFFFF" stroke-width="0.1242" stroke-miterlimit="3.7361" d="M977.7,403.6c0,6.5-5.3,11.8-11.8,11.8
		c-6.5,0-11.8-5.3-11.8-11.8c0-6.5,5.3-11.8,11.8-11.8C972.4,391.8,977.7,397.1,977.7,403.6z"/>
</g>
</svg>
