<?xml version="1.0" encoding="utf-8"?>
<!-- Generator: Adobe Illustrator 28.6.0, SVG Export Plug-In . SVG Version: 9.03 Build 54939)  -->
<svg version="1.1" baseProfile="tiny" id="Layer_1" xmlns="http://www.w3.org/2000/svg" xmlns:xlink="http://www.w3.org/1999/xlink"
	 x="0px" y="0px" viewBox="0 0 340.2 126.1" overflow="visible" xml:space="preserve">
<g>
	<path fill="#FFFFFF" d="M277.7,70.5H62.6c-19.4,0-35.2-15.8-35.2-35.2S43.2,0,62.6,0h215.1C297.1,0,313,15.8,313,35.2
		C312.9,54.6,297.1,70.5,277.7,70.5z M62.6,8.3c-14.8,0-26.9,12.1-26.9,26.9c0,14.8,12.1,26.9,26.9,26.9h215.1
		c14.8,0,26.9-12.1,26.9-26.9c0-14.8-12.1-26.9-26.9-26.9H62.6z"/>
	<path fill="#FFFFFF" d="M90.2,51.6V19h-9.8v22.7L66,19H55.5v32.5h9.8V28.1l15.2,23.5H90.2z"/>
	<path fill="#FFFFFF" d="M106.1,51.6v-22h-9.8v22H106.1z"/>
	<path fill="#FFFFFF" d="M106.1,24.9V19h-9.8v5.9H106.1z"/>
	<path fill="#FFFFFF" d="M140.3,51.6V36.4c0-3.2-6.1-7.6-9.3-7.6h-2.9c-2.2,0-4.6,2-6.8,2.9v-2.2h-9.8v22h9.8V36.4
		c0-1.5,3.4-3.2,4.9-3.2c1.5,0,4.2,1.7,4.2,3.2v15.2L140.3,51.6L140.3,51.6z"/>
	<path fill="#FFFFFF" d="M222.1,52.3V37.2c0-3.2-6.1-7.6-9.3-7.6h-2.9c-2.2,0-4.6,2-6.8,2.9v-2.2h-9.8v22h9.8V37.2
		c0-1.5,3.4-3.2,4.9-3.2c1.5,0,4.2,1.7,4.2,3.2v15.2H222.1z"/>
	<path fill="#FFFFFF" d="M156.2,51.6v-22h5.1v-2.9h-5.1V22h-10v4.6h-5.1v2.9h5.1v22H156.2z"/>
	<path fill="#FFFFFF" d="M175,28.8c-7.8,0-14.4,5.4-14.4,12c0,6.8,6.6,12.2,14.4,12.2c6.8,0,12.5-3.9,13.9-9h-10v2.9
		c0,2.4-1.7,3.2-3.9,3.2c-2.2,0-3.7-0.7-3.7-3.2v-6.1h18.1C189.5,34.2,183.1,28.8,175,28.8z M175,31c2.2,0,3.9,1.5,3.9,3.9v2.2h-7.6
		v-2.2C171.4,32.5,172.8,31,175,31z"/>
	<path fill="#FFFFFF" d="M271.4,28.8c-8.1,0-14.4,5.4-14.4,12c0,6.8,6.4,12.2,14.4,12.2c7.8,0,14.4-5.4,14.4-12.2
		C285.8,34.2,279.2,28.8,271.4,28.8z M271.4,31c2.2,0,3.7,1.5,3.7,3.9v12c0,2.4-1.5,3.2-3.7,3.2c-2.4,0-3.9-0.7-3.9-3.2v-12
		C267.4,32.5,268.9,31,271.4,31z"/>
	<path fill="#FFFFFF" d="M243.2,19v12c0,0-2.9-2.2-6.8-2.2c-6.1,0-11.2,5.4-11.2,11.2c0,6.1,5.1,12.2,11.2,12.2
		c3.9,0,6.8-1.5,6.8-1.5v0.7h9.8V19L243.2,19z M239.6,32.5c2.2,0,3.7,1.7,3.7,3.9v9c0,2.2-1.5,2.9-3.7,2.9c-2.4,0-3.9-0.7-3.9-2.9
		v-9C235.7,34.2,237.1,32.5,239.6,32.5z"/>
	<path fill="#FFFFFF" d="M287,29.2c-2.8,0-5-2.3-5-5c0-3,2.2-5.3,5-5.3c2.7,0,5,2.4,5,5.3C292,26.9,289.7,29.2,287,29.2z M287,19.7
		c-2.4,0-4.3,1.9-4.3,4.5c0,2.3,1.9,4.3,4.3,4.3c2.2,0,4.3-2,4.3-4.3C291.3,21.8,289.3,19.7,287,19.7z M287.9,26.3l-0.9-1.5h-1.1
		v1.3h-0.8v-4.5h2.1c1,0,1.5,0.8,1.5,1.6c0,0.6-0.3,1.2-0.9,1.5l0.7,1.2L287.9,26.3z M285.9,24h1.3c0.2,0,0.4-0.1,0.5-0.2
		c0.1-0.1,0.2-0.4,0.2-0.6c0-0.3-0.2-0.8-0.7-0.8h-1.3L285.9,24z"/>
	<path fill="#FFFFFF" d="M51.8,99.2V85.1c0-2.7-2.7-5.4-5.4-5.4H25.9v19.6h6.4V86c0-1,0.7-2,1.7-2h9.8c1,0,2,1,2,2v13.2H51.8z"/>
	<path fill="#FFFFFF" d="M221.5,99.2V85.1c0-2.7-2.7-5.4-5.4-5.4h-20.5v19.6h6.4V86c0-1,0.7-2,1.7-2h9.8c1,0,2,1,2,2v13.2H221.5z"/>
	<path fill="#FFFFFF" d="M314.3,99.2V85.1c0-2.7-2.7-5.4-5.4-5.4h-20.5v19.6h6.4V86c0-1,0.7-2,1.7-2h9.8c1,0,2,1,2,2v13.2H314.3z"/>
	<path fill="#FFFFFF" d="M258.9,99.2V85.1c0-2.7-2.7-5.4-5.4-5.4h-27.6v19.6h6.4V86c0-1,0.7-2,1.7-2h3.7c0.7,0,1.7,1,1.7,2v13.2h6.4
		V86c0-1,0.7-2,1.7-2h3.7c0.7,0,1.7,1,1.7,2v13.2H258.9z"/>
	<path fill="#FFFFFF" d="M21.5,99.2H5.4c-2.7,0-5.4-1.7-5.4-4.4V79.4h21.5v4.6H7.1c-0.7,0-1.7,0.7-1.7,1.7c0,1,1,1.7,1.7,1.7h13.4
		v3.9H7.1c-0.7,0-1.7,1-1.7,1.7c0,1,1,2,1.7,2h14.4L21.5,99.2z"/>
	<path fill="#FFFFFF" d="M101,99.5H84.8c-2.7,0-5.4-1.7-5.4-4.4V79.7H101v4.6H86.6c-0.7,0-1.7,0.7-1.7,1.7s1,1.7,1.7,1.7H100v3.9
		H86.6c-0.7,0-1.7,1-1.7,1.7c0,1,1,2,1.7,2H101V99.5z"/>
	<path fill="#FFFFFF" d="M284.9,99.2h-16.1c-2.7,0-5.4-1.7-5.4-4.4V79.4h21.5v4.6h-14.4c-0.7,0-1.7,0.7-1.7,1.7c0,1,1,1.7,1.7,1.7
		h13.4v3.9h-13.4c-0.7,0-1.7,1-1.7,1.7c0,1,1,2,1.7,2h14.4L284.9,99.2L284.9,99.2L284.9,99.2z"/>
	<path fill="#FFFFFF" d="M54.5,79.7v4.4h6.4c1.7,0,1.7,0,1.7,2v13.2h6.1V86c0-2,0-2,2-2h6.1v-4.4H54.5z"/>
	<path fill="#FFFFFF" d="M132.2,79.7v4.4h6.4c1.7,0,1.7,0,1.7,2v13.2h6.1V86c0-2,0-2,2-2h6.1v-4.4H132.2z"/>
	<path fill="#FFFFFF" d="M317.9,79.7v4.4h6.4c1.7,0,1.7,0,1.7,2v13.2h6.1V86c0-2,0-2,2-2h6.1v-4.4H317.9z"/>
	<path fill="#FFFFFF" d="M105.4,79.7v19.6h6.4v-3.4c0-1,0.7-2,1.7-2h8.1c1,0,1.7,1,1.7,2v3.4h5.4v-5.4c0-0.7-0.7-1.7-0.7-2.7
		c0-0.7,1.7-2.4,1.7-4.4v-1.7c0-1.7-2.7-5.4-4.4-5.4L105.4,79.7z M113.4,84.1h8.1c1,0,1.7,1,1.7,2v1.7c0,1-0.7,1.7-1.7,1.7h-8.1
		c-1,0-1.7-0.7-1.7-1.7V86C111.7,85.1,112.5,84.1,113.4,84.1z"/>
	<path fill="#FFFFFF" d="M161.6,79.7c-1.7,0-4.4,3.7-4.4,5.4v14.2h6.4v-5.4H175v5.4h6.4V85.1c0-1.7-2.7-5.4-4.6-5.4H161.6z
		 M165.3,84.1h8.1c0.7,0,1.7,1,1.7,2v3.4h-11.5V86C163.5,85.1,164.3,84.1,165.3,84.1z"/>
	<path fill="#FFFFFF" d="M191.9,99.2V79.7h-6.1v19.6L191.9,99.2L191.9,99.2z"/>
	<path fill="#FFFFFF" d="M250.9,126v-14.2c0-2.7-2.7-5.4-5.4-5.4h-27.6V126h6.4v-13.2c0-1,0.7-2,1.7-2h3.7c0.7,0,1.7,1,1.7,2V126
		h6.4v-13.2c0-1,0.7-2,1.7-2h3.7c0.7,0,1.7,1,1.7,2V126L250.9,126L250.9,126z"/>
	<path fill="#FFFFFF" d="M213.5,126h-16.1c-2.7,0-5.4-1.7-5.4-4.4v-15.4h21.5v4.6h-14.4c-0.7,0-1.7,0.7-1.7,1.7c0,1,1,1.7,1.7,1.7
		h13.4v3.9h-13.4c-0.7,0-1.7,1-1.7,1.7c0,1,1,2,1.7,2h14.4L213.5,126z"/>
	<path fill="#FFFFFF" d="M167,106.5v4.4h6.4c1.7,0,1.7,0,1.7,2V126h6.1v-13.2c0-2,0-2,2-2h6.1v-4.4H167z"/>
	<path fill="#FFFFFF" d="M94.6,106.6c-1.7,0-5.4,2.7-5.4,4.4v2.7c0,1.7,3.7,4.4,5.4,4.4h10.8c1,0,2,1,2,1.7c0,1-1,2-2,2H89.2v4.4
		h18.1c1.7,0,5.1-2.7,5.1-4.4V119c0-2-3.4-4.6-5.1-4.6H96.6c-1,0-2-0.7-2-1.7c0-1,1-1.7,2-1.7h15.9v-4.4L94.6,106.6L94.6,106.6z"/>
	<path fill="#FFFFFF" d="M146.4,106.6c-1.7,0-5.4,2.7-5.4,4.4v2.7c0,1.7,3.7,4.4,5.4,4.4h10.8c1,0,2,1,2,1.7c0,1-1,2-2,2H141v4.4
		h18.1c1.7,0,5.1-2.7,5.1-4.4V119c0-2-3.4-4.6-5.1-4.6h-10.8c-1,0-2-0.7-2-1.7c0-1,1-1.7,2-1.7h15.9v-4.4L146.4,106.6L146.4,106.6z"
		/>
	<path fill="#FFFFFF" d="M114.4,106.6v8.8c0,1.7,2.7,4.4,4.4,4.4h4.4v6.4h6.4v-6.4h4.4c1.7,0,4.4-2.7,4.4-4.4v-8.8h-6.1v7.1
		c0,0.7-1,1.7-2,1.7h-7.8c-1,0-2-1-2-1.7v-7.1H114.4z"/>
</g>
</svg>
