<?xml version="1.0" encoding="UTF-8"?>
<svg xmlns="http://www.w3.org/2000/svg" version="1.1" viewBox="0 0 537.9 122.8">
  <defs>
    <style>
      .cls-1 {
        fill: #fff;
      }
    </style>
  </defs>
  <!-- Generator: Adobe Illustrator 28.6.0, SVG Export Plug-In . SVG Version: 1.2.0 Build 709)  -->
  <g>
    <g id="Layer_1">
      <g>
        <g id="GAMECUBE">
          <path class="cls-1" d="M165.4,61.7v8.8h-36.3v22.4h26.4v-6.2h-15.2v-9.4h25.7v17.1c-.1,2.9-5.8,8.6-9,8.6h-29.5c-4.2,0-9.9-5.7-9.9-8.6v-24.8c0-4.8,3.1-8,7.2-8h40.6Z"/>
          <polygon class="cls-1" points="193.5 92.6 193.5 102.3 163.6 102.3 187.9 61.2 197.5 61.2 216.1 92.6 216.1 61.2 226.6 61.2 243.3 89.3 259.9 61.2 270.3 61.2 270.3 102.3 259.9 102.3 259.8 81.4 247.7 102.3 238.8 102.3 226.7 81.4 226.6 102.3 208.8 102.3 192.3 74.1 181.4 92.6 193.5 92.6"/>
          <polygon class="cls-1" points="274.2 61.2 274.2 102.3 316.4 102.3 316.4 92.6 285.6 92.6 285.6 85.5 303.4 85.5 303.4 76.5 285.6 76.5 285.6 70 316.4 70 316.4 61.2 274.2 61.2"/>
          <path class="cls-1" d="M358.5,77.4h10.5v-8.9s1.1-7.3-6.5-7.3h-33.2c-3.3,0-4.8,1.6-4.8,4v29.1c0,4.1,3.9,8,6.4,8h32.5s5.7.8,5.7-5.6v-12.1h-10.5v8h-23.5v-21.8h22.6v6.5h.8Z"/>
          <path class="cls-1" d="M373.1,61.1h11.3v31.5h23.4v-31.5h11.3v34s.7,7.3-9.7,7.3h-27.5s-8.9.8-8.9-7.3c.1-5.6.1-34,.1-34Z"/>
          <path class="cls-1" d="M467.7,85.4v10.6c0,3.7-2.8,6.5-11.3,6.5h-33.2v-41.4h38.8c3.6,0,5.6,2.1,5.6,5.7v11.3c0,.9-1.2,2.4-4,2.4v.8c2,0,4.1,2.2,4.1,4.1h0ZM457.2,91.9v-4.8c0-1.3-.3-1.7-.8-1.7h-21.8v7.3h21c1.1,0,1.6-.5,1.6-.8ZM457.2,75.7v-4.8c0-1.3-.3-1.6-.8-1.6h-21.8v7.3h21c1.1,0,1.6-.5,1.6-.9Z"/>
          <polygon class="cls-1" points="471.7 102.4 513.8 102.4 513.8 92.6 482.2 92.6 482.2 85.5 500 85.5 500 76.5 482.2 76.5 482.2 70 513 70 513 61.1 471.7 61.1 471.7 102.4"/>
          <polygon class="cls-1" points="518.7 92.7 518.7 94.3 521.1 94.3 521.1 102.4 523.5 102.4 523.5 94.3 525.9 94.3 525.9 92.7 518.7 92.7"/>
          <polygon class="cls-1" points="526.8 102.4 529.2 102.4 529.2 97.6 530.8 102.4 532.4 102.4 534 97.6 534 102.4 536.5 102.4 536.5 92.7 533.2 92.7 531.6 98.3 530 92.7 526.8 92.7 526.8 102.4"/>
        </g>
        <g id="NINTENDO">
          <polygon class="cls-1" points="126.4 19.1 126.4 49.8 132.1 49.8 132.1 27.2 144.2 49.8 150.6 49.8 150.6 19.1 144.1 19.1 144.1 37.6 134.4 19.1 126.4 19.1"/>
          <polygon class="cls-1" points="223.4 19.1 223.4 49.8 229.1 49.8 229.1 27.2 241.2 49.8 247.7 49.8 247.7 19.1 241.2 19.1 241.2 37.6 231.5 19.1 223.4 19.1"/>
          <rect class="cls-1" x="183.8" y="19.1" width="6.5" height="30.7"/>
          <polygon class="cls-1" points="274.4 19.1 274.4 23.9 284 23.9 284 49.8 290.6 49.8 290.6 23.9 300.2 23.9 300.2 19.1 274.4 19.1"/>
          <path class="cls-1" d="M330.2,30.4v.8h17.8v4.9h-17.8v6.5c0,.7,1.7,2.4,2.4,2.4h15.4v4.9h-17.8c-3.3,0-5.7-2.9-5.7-5.7v-19.5c0-3.5,2.1-5.6,5.6-5.6h17.9v4.9h-14.6c-1.6,0-3.2,1.7-3.2,2.5"/>
          <polygon class="cls-1" points="377.1 49.8 382.7 49.8 382.7 27.3 394.9 49.8 400.5 49.8 400.5 19.1 394.9 19.1 394.9 37.6 384.5 19.1 377.1 19.1 377.1 49.8"/>
          <path class="cls-1" d="M454,24.7v19.5c0,1.5-4.2,5.6-6.6,5.6h-17.7v-30.7h16.1c5,0,8.2,3.2,8.2,5.6h0ZM448.3,42.6v-16.2c0-.6-1.9-2.5-3.2-2.5h-9.7v21.8h9.7c1,.1,3.2-2.1,3.2-3.1h0Z"/>
          <path class="cls-1" d="M506.6,26.4v16.1c0,4.7-3.5,8.1-8.8,8.1h-8.3c-5.2,0-8.6-3.2-8.8-7.7v-17.4c0-3.1,3.3-6.4,7.3-6.4h11.3c4.7,0,7.3,2.5,7.3,7.3ZM500,41.8v-14.6c0-1.2-2.1-3.3-3.2-3.3h-6.4c-1.7,0-3.3,1.6-3.3,3.1v14.7c0,2.3.9,3.2,2.5,3.2h7.3c1.5,0,3.1-1.6,3.1-3.1h0Z"/>
        </g>
        <g id="_x33_D_PART">
          <polygon class="cls-1" points="87.3 61.3 87.3 80.6 53 100.4 19 80.6 17.5 81.7 53 102.5 88.8 81.8 88.8 60.4 87.3 61.3"/>
        </g>
        <g id="black_line_thing">
          <polygon class="cls-1" points="87.3 80.6 88.8 81.7 88.8 81.8 88.7 81.9 87.1 80.7 87.3 80.6"/>
        </g>
        <g id="dark_purple_top_line">
          <polygon class="cls-1" points="53.3 61.1 29.2 47 28.8 47.3 53 61.7 53.3 61.1"/>
          <polygon class="cls-1" points="53.2 61.1 53.4 61.1 53.4 61.3 53.1 61.3 53.2 61.1"/>
        </g>
        <g id="top_black_line">
          <polygon class="cls-1" points="53.3 61.7 53.3 61.1 104.7 31.4 104.8 31.8 53.3 61.7"/>
        </g>
        <g id="LOGO_DARK_LINES">
          <polygon class="cls-1" points="53.3 120.5 53.6 102.8 89.3 82.2 89.4 60.2 88.8 60.2 88.8 81.8 53 102.5 52.9 120.5 53.3 120.5"/>
        </g>
        <g id="LOGO">
          <polygon class="cls-1" points="53.3 88.9 53.3 61.7 104.8 31.8 104.8 90.8 53.3 120.5 53.3 102.6 89.1 82 89.1 60.2 77.1 67.2 77.1 74.9 53.3 88.9"/>
        </g>
        <g id="BOTTOM_LAIN_LEFT_LIGHT_LINE">
          <polyline class="cls-1" points="52.7 120.5 53 120.5 53 102.5 52 101.9 52.7 120.5"/>
        </g>
        <g id="underneath">
          <polyline class="cls-1" points="17.4 40.5 17.6 40.7 17.7 81.5 17.5 81.7 17.4 81.6 17.4 40.5"/>
        </g>
        <g id="LEFT_3D_PURPLE_SHADOW">
          <polygon class="cls-1" points="19 80.6 17.5 81.7 17.5 40.5 53.3 19.9 53.3 21.9 19.1 41.7 19 80.6"/>
        </g>
        <g id="MAIN_DARK_PURPLE_LINE">
          <polygon class="cls-1" points="53.3 61 53.3 88.9 53 89.1 53 61.7 53 60.9 53.3 61"/>
        </g>
        <g id="logo_LEFT_side">
          <polygon class="cls-1" points="28.8 47.3 28.8 75.1 53 89.1 53 61.7 28.8 47.3"/>
          <polygon class="cls-1" points="52.7 120.2 52.7 102.3 17.5 81.7 17.5 40.7 1.6 31.4 1.6 90.9 52.7 120.5 52.7 120.2"/>
        </g>
        <g id="left_purple_line">
          <rect class="cls-1" x="17.2" y="40.5" width=".3" height="41.1"/>
          <polygon class="cls-1" points="17.5 40.5 1.8 31.2 1.6 31.4 17.4 40.7 17.5 40.5"/>
        </g>
        <g id="BOTTOM_PURPLE_LINE">
          <polygon class="cls-1" points="52.7 102.3 52.7 102.7 17.2 82 17.2 81.7 17.5 81.7 52.7 102.3"/>
        </g>
        <g id="top_middle_light_line">
          <polygon class="cls-1" points="53.3 19.9 76.2 33.2 76.2 35.2 53.3 21.9 53.3 19.9"/>
        </g>
        <g id="top_right">
          <polygon class="cls-1" points="76.2 33.2 76.2 35.2 92.1 25.9 92.1 24 76.2 33.2"/>
        </g>
        <g id="MAIN_TOP">
          <path class="cls-1" d="M1.6,31.4"/>
          <path class="cls-1" d="M1.8,31.2"/>
          <polygon class="cls-1" points="53.1 1.5 92.1 24 76.2 33.2 53.3 19.9 17.5 40.5 1.8 31.2 53.1 1.5"/>
          <polygon class="cls-1" points="29.2 47 53 33.5 75.7 46.3 103.3 30.4 104.7 31.4 53.3 61.1 29.2 47"/>
        </g>
      </g>
    </g>
  </g>
</svg>