<?xml version="1.0" encoding="utf-8"?>
<!-- Generator: Adobe Illustrator 28.6.0, SVG Export Plug-In . SVG Version: 9.03 Build 54939)  -->
<svg version="1.1" baseProfile="tiny" id="Layer_1" xmlns="http://www.w3.org/2000/svg" xmlns:xlink="http://www.w3.org/1999/xlink"
	 x="0px" y="0px" viewBox="0 0 566.9 167.5" overflow="visible" xml:space="preserve">
<g>
	<g>
		<path fill="#FFFFFF" d="M34,108.9l-0.1-41.6h5.4v49.8h-5.4L5.2,75.2l0.1,41.9H0V67.3h5.7L34,108.9z"/>
		<path fill="#FFFFFF" d="M45.3,67.3h26.4v4.9H50.8v17.3h20.8v4.9H50.8v17.8h20.9v4.9H45.3L45.3,67.3z"/>
		<path fill="#FFFFFF" d="M74.2,92.4c0-15.3,11.9-25.9,26-25.9c14.6,0,26,11.2,26,25.8c0,14.6-11.3,25.8-26,25.8
			C85.5,118,74.2,106.6,74.2,92.4L74.2,92.4z M79.8,92.2c0,11.7,8.8,20.9,20.5,20.9c11.8,0,20.4-9.5,20.4-20.9
			c0-11.4-8.6-20.9-20.5-20.9C88.5,71.4,79.8,80.7,79.8,92.2L79.8,92.2z"/>
		<path fill="#FFFFFF" d="M172.2,80.3c-1.5-2.2-3.4-4-5.6-5.4c-3.2-2.2-7.1-3.5-11.6-3.5c-10.9,0-20.4,8.3-20.4,20.8
			c0,12.7,9.6,21,20.5,21c5.2,0,9.9-1.8,13.3-4.5c3.5-2.8,5.9-6.5,6.7-10.4H148v-4.6h33.6c-0.1,2.9-0.7,6.5-2.2,9.6
			c-4.3,9.4-14.3,14.8-24.3,14.8c-14.5,0-26-11.2-26-25.9c0-14.9,11.7-25.7,26.1-25.7c10.1,0,19.4,5.7,23.4,13.8L172.2,80.3
			L172.2,80.3z"/>
		<path fill="#FFFFFF" d="M184.2,67.3h27.6v4.9h-22.1v17.3h21.9v4.9h-21.9v17.8h22.1v4.9h-27.6V67.3z"/>
		<path fill="#FFFFFF" d="M214.1,92.4c0-15.3,11.9-25.9,26-25.9c14.6,0,26,11.2,26,25.8c0,14.6-11.3,25.8-26,25.8
			C225.3,118,214.1,106.6,214.1,92.4L214.1,92.4z M219.6,92.2c0,11.7,8.8,20.9,20.5,20.9c11.8,0,20.4-9.5,20.4-20.9
			c0-11.4-8.6-20.9-20.5-20.9C228.3,71.4,219.6,80.7,219.6,92.2L219.6,92.2z"/>
	</g>
	<g>
		<path fill="#FFFFFF" d="M327.5,92.4c0-15.3,11.9-25.9,26-25.9c14.6,0,26,11.2,26,25.8c0,14.6-11.3,25.8-26,25.8
			C338.7,118,327.5,106.6,327.5,92.4L327.5,92.4z M333.1,92.2c0,11.7,8.8,20.9,20.5,20.9c11.8,0,20.4-9.5,20.4-20.9
			c0-11.4-8.6-20.9-20.5-20.9C341.7,71.4,333.1,80.7,333.1,92.2L333.1,92.2z"/>
		<path fill="#FFFFFF" d="M435,103.7c-3.2,7.7-11.9,14.3-22.9,14.3c-14.7,0-26-11.4-26-25.8c0-14.2,11-25.8,25.9-25.8
			c12.3,0,20.1,8.2,22.9,14.5h-6c-1.7-3-7.3-9.6-17-9.6c-11.6,0-20.4,9.2-20.4,20.8c0,11.8,8.8,20.9,20.4,20.9
			c10.4,0,15.7-7.5,17-9.4L435,103.7z"/>
		<path fill="#FFFFFF" d="M489.6,67.3h27.6v4.9h-22.1v17.3h21.9v4.9h-21.9v17.8h22.1v4.9h-27.6V67.3z"/>
		<path fill="#FFFFFF" d="M545.2,72.3h-16v-4.9h37.7v4.9h-16.1v44.9h-5.6V72.3z"/>
	</g>
	<path fill="#FFFFFF" d="M214.2,155.5c-2.1,7-8.6,12-16.5,12c-10.3,0-17.7-8.2-17.7-17.6c0-9,7-17.5,17.7-17.5
		c9.7,0,15.2,7.2,16.6,12.1h-7.2c-1-2.3-4.1-6.1-9.4-6.2c-6.6,0-10.8,5.5-10.8,11.5c0,6.2,4.4,11.6,10.9,11.6c6,0,8.8-4.7,9.4-6
		L214.2,155.5z"/>
	<path fill="#FFFFFF" d="M232.5,150.2c0-10.8,8.3-17.8,17.7-17.8c10.2,0,17.8,7.9,17.8,17.5s-7.5,17.5-17.8,17.5
		C239.8,167.5,232.5,159.3,232.5,150.2L232.5,150.2z M239.3,149.9c0,6.2,4.4,11.5,11,11.5c6.8,0,10.9-5.9,10.9-11.5
		c0-5.7-4-11.6-10.9-11.6C243.5,138.4,239.3,144,239.3,149.9L239.3,149.9z"/>
	<path fill="#FFFFFF" d="M288,133.1h6.8v27.8h11.1v6H288V133.1z"/>
	<path fill="#FFFFFF" d="M322.6,150.2c0-10.8,8.3-17.8,17.7-17.8c10.2,0,17.8,7.9,17.8,17.5s-7.5,17.5-17.8,17.5
		C329.9,167.5,322.6,159.3,322.6,150.2L322.6,150.2z M329.4,149.9c0,6.2,4.4,11.5,11,11.5c6.8,0,10.9-5.9,10.9-11.5
		c0-5.7-4-11.6-10.9-11.6C333.6,138.4,329.4,144,329.4,149.9L329.4,149.9z"/>
	<path fill="#FFFFFF" d="M475.6,117.1h6.9l-25.9-25l23.8-24.8h-6.1l-26.1,27v-6.4V67.3h-5.5v49.8h5.5v-16.2l5.1-5.3L475.6,117.1z"/>
	<path fill="#FFFFFF" d="M385.8,133.1c3.8,0.1,7.2,0.3,10.2,2.8c0.8,0.6,1.5,1.5,2,2.3c1.6,2.4,1.7,5.1,1.7,6c0,0.8-0.1,3.1-1.4,5.2
		c-0.3,0.5-0.8,1.3-1.8,2.2c-1.1,1-2.3,1.5-2.7,1.7c-0.8,0.3-1.7,0.6-3.5,1l9.9,13.2h-7.6l-9.5-13v13h-6.9v-34.4L385.8,133.1z
		 M383.1,149.4h3.4c0.4,0,0.7,0,1.1,0c0.7,0,3.2-0.1,4.8-2c0.4-0.5,1.1-1.5,1.1-3.2c0-0.5,0-1.9-0.9-3.1c-1.5-2-3.8-2.2-6.2-2.3
		h-3.3L383.1,149.4L383.1,149.4z"/>
	<path fill="#FFFFFF" d="M302.8,120.9c-10.8-21.6-21.6-43-32.5-64.6c0.1,0,0.1-0.1,0.2-0.1c2.7-1.4,5.4-2.8,8.1-4.1
		c3.8-1.9,7.6-3.9,11.4-5.8c4-2.1,8.2-3.3,12.8-3.1c3.1,0.1,5.9,1,8.4,2.9c2.2,1.7,3.7,3.8,4.9,6.3c1.1,2.3,1.9,4.8,2,7.4
		c0.1,3.6-1,6.9-3,10c-1.3,2-2.8,3.9-4.5,5.6c-1.2,1.1-2.5,2.2-3.7,3.3c-4.6-3.2-9-6.4-13.5-9.6c0.9-3.1,1.7-6.2,2.5-9.3h12.9
		c0-3.3,0-6.5,0-9.8c-6.7,0.1-13.3,0.1-19.9,0.2c-2.4,6.8-4.8,13.6-7.2,20.3c7.7,6.4,15.4,12.8,23.2,19.2c3.1-1.2,6-2.6,8.7-4.4
		c4.4-2.8,8-6.4,10.7-10.9c2.5-4.2,3.7-8.7,3.8-13.6c0-3-0.4-5.9-1.3-8.8c-1.2-3.8-3-7.3-5.8-10.2c-5.2-5.4-11.6-8.4-19.1-8.6
		c-4.5-0.2-8.7,0.8-12.6,2.8c-1.8,0.9-3.5,1.9-5.3,2.7c-4,1.9-8,3.8-12.1,5.7c-3.5,1.7-7.1,3.4-10.6,5c-1.2,0.6-2.4,1.1-3.6,1.7
		c12,24.6,24.1,49.1,36.1,73.6C296.8,123.5,299.7,122.3,302.8,120.9z"/>
	<path fill="#FFFFFF" d="M302.8,120.9c-3,1.3-6,2.6-9.1,3.9c-12-24.5-24.1-49.1-36.1-73.6c1.2-0.6,2.4-1.1,3.6-1.7
		c3.5-1.7,7.1-3.4,10.6-5c4-1.9,8.1-3.8,12.1-5.7c1.8-0.9,3.6-1.8,5.3-2.7c4-2,8.2-3,12.6-2.8c7.5,0.3,13.9,3.2,19.1,8.6
		c2.8,2.9,4.6,6.3,5.8,10.2c0.9,2.9,1.3,5.8,1.3,8.8c-0.1,4.8-1.3,9.4-3.8,13.6c-2.7,4.5-6.3,8-10.7,10.9c-2.7,1.8-5.6,3.2-8.7,4.4
		c-7.7-6.4-15.4-12.8-23.2-19.2c2.4-6.8,4.8-13.5,7.2-20.3c6.6-0.1,13.2-0.1,19.9-0.2v9.8c-4.3,0-8.6,0-12.9,0
		c-0.8,3.1-1.7,6.2-2.5,9.3c4.5,3.2,9,6.4,13.5,9.6c1.2-1.1,2.5-2.2,3.7-3.3c1.7-1.7,3.2-3.5,4.5-5.6c2-3.1,3-6.3,3-10
		c0-2.6-0.9-5-2-7.4c-1.2-2.5-2.7-4.6-4.9-6.3c-2.5-1.9-5.3-2.8-8.4-2.9c-4.5-0.1-8.7,1.1-12.8,3.1c-3.8,2-7.6,3.9-11.4,5.8
		c-2.7,1.4-5.4,2.8-8.1,4.1c-0.1,0-0.1,0.1-0.2,0.1C281.1,77.9,292,99.4,302.8,120.9L302.8,120.9z"/>
	<path fill="#FFFFFF" d="M310.4,26.5c-2.2-0.4-4.3-0.9-6.4-1.3c1.3-8.4,2.5-16.8,3.8-25.2c3.9,0.6,7.8,1.1,11.8,1.7
		C316.5,10,313.5,18.3,310.4,26.5z"/>
	<path fill="#FFFFFF" d="M345.5,19.7c2.1,3.4,4.1,6.7,6.2,10.1c-6.8,4.2-13.6,8.4-20.5,12.7c-1.4-2.1-2.8-4.2-4.3-6.4
		C333.2,30.6,339.3,25.2,345.5,19.7L345.5,19.7z"/>
	<path fill="#FFFFFF" d="M329.1,6.5c3,2.1,6,4.1,9,6.2c-5.4,6.4-10.7,12.8-16.1,19.2c-1.9-1.2-3.8-2.3-5.7-3.5
		C320.5,21.1,324.8,13.8,329.1,6.5z"/>
	<g>
		<path fill="#FFFFFF" d="M412.1,158.4h-2v-1.6h5.8v1.6h-2v7.5h-1.8L412.1,158.4z"/>
		<path fill="#FFFFFF" d="M416.9,166v-9.2h2.5l2.4,6.6l2.3-6.6h2.5v9.2h-1.7l0.1-7.3l-2.6,7.3h-1.2l-2.6-7.3l0.1,7.3H416.9z"/>
	</g>
</g>
</svg>
