<?xml version="1.0" encoding="utf-8"?>
<!-- Generator: Adobe Illustrator 28.6.0, SVG Export Plug-In . SVG Version: 9.03 Build 54939)  -->
<svg version="1.1" baseProfile="tiny" id="Layer_1" xmlns="http://www.w3.org/2000/svg" xmlns:xlink="http://www.w3.org/1999/xlink"
	 x="0px" y="0px" viewBox="0 0 566.9 180.9" overflow="visible" xml:space="preserve">
<g>
	<path fill="#FFFFFF" d="M82.5,36.6c-9.2-12.4-11.4-11.2-16.7-11.2H42.4H16.3c-4,0-4.9,3-2.7,6c1.2,1.7,3.9,4.4,6.1,6.5l51.7,51.9
		h51C110.7,74.5,97.5,56.9,82.5,36.6z M90,77.1c-1.6,0-4.1,0.1-5.6,0.1c-1.7,0-2.2-0.4-3.3-1.6L57.4,49.2c-1.1-1.2-0.9-2.5,1-2.5
		l7.3,0c1,0,1.5,0.1,3.3,2.3l21.3,25.7C91.4,76.2,90.6,77.1,90,77.1z"/>
	<path fill="#FFFFFF" d="M87.8,25.5H114h16.3c5.3,0,10.5-1.9,16.7,11.1l25.4,53.2h-45l-23.7-32.7c-1-1.3-1.1-1.5-1.7-2.6
		c-0.5-0.9,0.1-1.9,1.5-2c5.8-0.1,11.5-0.1,17.2-0.2c2.8,0.1,3.8,0.1,5.4,2.7c4.5,6.7,8.6,13.7,13.1,20.4c0.9,1.7,2.2,1.7,4.9,1.8
		c3.1,0,5-0.3,3.1-3.6l-14.9-24.9c-2.2-3.7-8.9-3.1-9.8-3.1h-22.3c-2.6,0-4.6,0.2-6.3-2l-8.9-12.2C83,28.4,83.8,25.5,87.8,25.5z"/>
	<path fill="#FFFFFF" d="M153.2,25.5h20.9c1.1,0.1,1.7,0.4,1.8,1c3.1,7.7,5.5,15.5,8.6,23.2c0.6,1.5,1.1,2.2,1.9,2
		c1.7,0,3.2,0,4.9,0c1.6-0.1,2-1,1.5-2.7c-2-7.4-4.3-14.3-6.3-21.6c-0.5-1.8,0.6-2,2.4-2h14.3c7.2,0,8.3-1,11,11.1
		c2.1,9.6,4,19.2,6.1,28.9c0.5,3.2-0.8,5.8-4.3,5.7l-6.7,0l5.1,18.7h-24.8l-7.5-18.7c-2.9,0-4.4,0-7.3,0c-4.4,0-6.5-2.9-8.3-6.7
		l-15.7-33C149.5,28.4,149.2,25.5,153.2,25.5L153.2,25.5z"/>
	<path fill="#FFFFFF" d="M225.1,25.5h27.5h23.3c5.3,0,9.2-0.5,8.5,7.3l-0.6,7.3c-0.1,1.2-0.2,2.3-0.5,3.4c-0.7,2.5-3,2.8-5.5,2.9
		H249c-1.3,0-1.7,0.1-1.7,1l0,4.5c0,1,0.7,0.9,2.3,0.9h22c1.6,0,3.2-0.1,4.8,0.3c3,0.7,4.5,2.4,5.4,4.7c0.7,1.9,0.4,3.4,0.2,5.3
		l-2.2,26.9h-49.5l-1.6-9c-0.3-1.6,0.2-2.5,2.1-2.5H257c4.5-0.7,4.7-3.8,4.2-7.3h-27.8c-2.9,0.1-4.7-0.7-5.9-2.2
		c-1.1-1.3-1.2-2.5-1.5-4.2l-5.5-31.4C219.7,28.7,221.1,25.5,225.1,25.5z"/>
	<path fill="#FFFFFF" d="M298.9,25.5h25.8h22.7c5.2,0,9-0.5,6.5,7.1l-2.6,7.7c-0.4,1.2-0.8,2.2-1.3,3.3c-1.3,2.4-3.6,2.8-6.1,2.8
		h-25.7c-1.3,0-1.7,0.1-1.9,0.9l-1.3,4.9c-0.3,1,0.5,0.9,2,0.9h19.1c1.6,0,3.1-0.1,4.6,0.3c2.7,0.7,3.8,2.4,4.1,4.5
		c0.2,1.8-0.4,3.3-1.1,5.2l-9.5,26.7h-47.4l1-8.7c0.1-1.5,0.8-2.5,2.7-2.5h19.6c4.6-0.6,5.5-3.7,5.9-7.1h-17.7
		c-6.4,0.3-9.4-3.9-8.9-9.5l2.1-29C291.8,28.6,295,25.5,298.9,25.5L298.9,25.5L298.9,25.5L298.9,25.5z"/>
	<path fill="#FFFFFF" d="M370.3,25.5h27.2h24c5.5,0,9.7-0.5,4.9,7.1l-4.8,7.7c-0.7,1.2-1.4,2.2-2.3,3.3c-2,2.4-4.5,2.8-7.2,2.8
		h-20.5c-1.3,0-3.1-0.1-3.1,0.6l0.2,4.1c0,0.9,0.9,1.5,2.6,1.5h11.2l7.8,0.1c1.7,0,2.4,1.6,1.6,2.9l-3.1,5.2L401.8,72
		c-0.3,0-0.6,0-0.9,0H379c-1.4,0-3.2-0.1-3.2,0.8l0.2,3.9c0,0.9,1,1.5,2.7,1.5h12.2l6.8,0l-7.5,11.5h-49.7
		c4.8-12,4.6-12.8,19.9-56.7C362,28.6,366.2,25.5,370.3,25.5L370.3,25.5z"/>
	<path fill="#FFFFFF" d="M505.3,25.5c-7.5,0-15.5,0-23,0c-1.2,0.1-2,0.4-2.4,1c-6.7,7.7-12.6,15.5-19.2,23.2c-1.3,1.5-2.1,2.2-2.9,2
		c-1.9,0-3.5,0-5.4,0c-1.7-0.1-1.8-1-0.5-2.7c5.3-7.4,10.7-14.3,16-21.6c1.4-1.8,0.2-2-1.8-2h-17.3c-7.9,0-8.7-1-16.8,11.1
		c-6.4,9.6-12.6,19.2-19,28.9c-1.9,3.2-1.6,5.8,2.3,5.7l9,0l-13.5,18.7h27.2l16.2-18.7c3.2,0,4.8,0,8,0c4.8,0,8.4-2.9,12-6.7
		l31.2-33C508.1,28.4,509.6,25.5,505.3,25.5z"/>
	<path fill="#FFFFFF" d="M540.4,38.5c-1.5,1.4-2.9,2.8-4.4,4.2c-1.2,1.1-2,0.9-3.7,0.9h-23.9c-1.4,0-2.4-0.1-2.9-0.5
		c-0.8-0.6-0.6-1.7,0.4-2.7c3.7-3.9,7.4-7.9,11.2-11.8c1.8-1.6,3.4-3.3,6.8-4.4c2.1-0.7,3.9-0.8,6-0.8h9.9c2.4,0.2,4.7-4.6,2.1-5.5
		h-16.1c-2.1,0.2-2.7-0.6-1.8-2.3c1.8-2,2.8-3.3,3.6-3.2h18.7c1.9,0,4.6,0.2,6.1,1.5c3.3,2.7,2.3,7.8,0.1,11.1
		c-1.9,2.8-6.3,4.8-9.6,4.9H530c-3.1,0.2-7.2,6.7-1.6,6.8h11.3C541.4,36.8,541.4,37.6,540.4,38.5"/>
</g>
<path fill="#FFFFFF" d="M118.7,85c14.7,19.4,30.5,40.2,40.6,53.5c11.3,14.9,20.7,27.4,28.7,38h-30.2c-8.8-8.9-19-19-30.7-30.8
	L66.5,85H118.7z M441.6,85.6L414.2,85L348,176.5h14.9L441.6,85.6z M342.5,85c-4,10.1-13.4,33.1-36.6,91.5h28.3l58.5-90.3L342.5,85z
	 M335.3,86.7l-48.2,0.2l-10.6,89.5h26.8L335.3,86.7z M280,87.2l-50,0.5l15.4,88.7h27.3L280,87.2z M213.6,86.5h-25.2l36.3,90h13.5
	l-23.7-86.6L213.6,86.5z M170.1,85h-46.2l66.2,91.5h23.8l-41.4-86.6"/>
</svg>
