<?xml version="1.0" encoding="utf-8"?>
<!-- Generator: Adobe Illustrator 28.6.0, SVG Export Plug-In . SVG Version: 9.03 Build 54939)  -->
<svg version="1.1" baseProfile="tiny" id="Layer_1" xmlns="http://www.w3.org/2000/svg" xmlns:xlink="http://www.w3.org/1999/xlink"
	 x="0px" y="0px" viewBox="0 0 566.9 274.3" overflow="visible" xml:space="preserve">
<g>
	<path fill="#FFFFFF" d="M57.9,201.7c-0.4,0-0.8-0.1-1.2-0.3C18.8,183-0.8,161.5,0,139.2c0.7-18.3,15.6-35.6,43.2-50
		c26.1-13.7,63-24.5,106.6-31.3c1.5-0.2,2.8,0.8,3,2.2c0.2,1.5-0.8,2.8-2.2,3C62.3,77.1,6.6,106.3,5.3,139.5
		c-0.8,19.7,18.3,40,53.7,57.1c1.3,0.6,1.9,2.2,1.2,3.6C59.8,201.1,58.9,201.7,57.9,201.7z"/>
	<path fill="#FFFFFF" d="M389,65.2c-0.1,0-0.3,0-0.4,0c-28.1-4.6-57.7-7.7-88-9.1c-1.5-0.1-2.6-1.3-2.5-2.8c0.1-1.5,1.3-2.6,2.8-2.5
		c30.6,1.5,60.4,4.6,88.6,9.2c1.4,0.2,2.4,1.6,2.2,3.1C391.4,64.2,390.3,65.2,389,65.2L389,65.2z"/>
	<path fill="#FFFFFF" d="M305.2,247c-0.7,0-1.5,0-2.2,0c-1.5,0-2.7-1.2-2.7-2.7c0-1.5,1.2-2.7,2.7-2.7h0c0.7,0,1.5,0,2.2,0
		c142.5,0,255-37,256.4-84.6c0.5-16.7-12.9-33.6-38.7-48.9c-25.7-15.3-62.6-28.2-106.7-37.6c-1.4-0.3-2.4-1.7-2.1-3.2
		c0.3-1.4,1.7-2.4,3.2-2.1c44.6,9.5,82,22.7,108.3,38.2c27.6,16.4,41.9,34.9,41.3,53.6c-0.8,25.3-28.8,48.4-78.7,65
		C439.8,238.2,374.9,247,305.2,247L305.2,247z"/>
	<path fill="#FFFFFF" d="M353.4,108.4l70.3-53.6l-82.6,33l-23.2-24.2l7.4,33.5L255,150.7l82.6-33l23.2,24.2L353.4,108.4z"/>
	<g>
		<path fill="#FFFFFF" d="M265.3,175.3c1-5,2.8-4.2,7.9-5l4.7-0.7l-1.5,7.8l-4.7,0.7C266.7,178.9,264.5,180.2,265.3,175.3z
			 M255.2,168.1l-3.6,19.6c-1,5.4,0.6,7.1,5.8,6.3l29.8-4.7l6.4-34.4l-29.8,4.7C258.6,160.4,256.2,162.8,255.2,168.1L255.2,168.1z
			 M444.6,137.2l-0.3,1.9l30.8-4.9c2.4-0.4,4.8-2.8,5.3-5.5c0.5-2.7-1.1-4.5-3.5-4.1l-7.9,1.2l-12.6,2l-3.2,0.5
			C449.4,129,445.3,133.2,444.6,137.2L444.6,137.2z M228.7,225.9l0.2-1.4c1.1,0.1,2.5,0.5,3.7,0.3l32-5c-1.2,6.4-9.6,8-22.5,10
			l-14.6,2.3l-7.8,42.2l19.2-3c47.3-4.7,65.4-29.1,71.1-58.3l57.7-9.2l9.3-50l4.7-0.8c5.1-0.8,4.4-1.7,3.4,3.6l-8.5,45.8l41.4-6.6
			l0.6-3c3.1,1.4,6.8,1.9,10.6,1.3l71.6-11.4l6.7-36l-4.6-3.3c4-4.8,7.2-10.6,8.1-15.5l1.1-5.7c3.6-21.2-16-26.8-24.9-25.4
			l-41.1,6.5c-7.3,1.2-15.3,6.2-21.1,12.9c-5.4-5.3-13.7-7.4-18.6-6.6l-45.8,7.3l5.1,11.3l41.3-6.5c6-0.9,9.9,1.4,11,6.1
			c-0.4,1.2-11,57.6-11,57.6l-14.8,2.3l7.9-42.6c1-5.3-0.6-7.1-5.8-6.2l-28.4,4.5l-9.3,50l-16.3,2.6l10.6-57.3L337.7,123l-48.2,17.4
			l22.8-3.6l0.4-0.1l-14.5,78.2c-3.7,19.9-24.9,38.8-43.7,41.8l-19.2,3l2.9-15.6l14.6-2.3c12.9-2,27.3-14.9,29.8-28.4l1.6-8.5
			l-38.1,6c-8.2,1.3-12.6-3.7-11-12.3l6.8-36.7c1.2-6.5,5.3-11.9,10.7-14.8l0.1-1l19.1-14.7l-11.2,1.9c-5.9,0.9-17,5.4-24,14.3
			c-5.3-6.3-14.5-8.8-19.8-8l-41.1,6.5l6.7-36l30-4.8c15.9-2.5,33.6-20.5,36.7-37.3l4.5-24.2c3.1-16.9-8.7-30.1-24.7-27.6
			l-65.5,10.4l-13.9,75l-60.3,9.6c-5.1,0.8-10.1,5.8-11.1,11.2L55.9,243.8c-1,5.4,2.3,9.1,7.4,8.3l115-18.3l9.3-50l4.7-0.7
			c5.2-0.8,4.4-1.7,3.4,3.6l-8.5,45.8L228.7,225.9z M143.3,198.4l-38.5,6.1l1.4-7.8l31.1-4.9l7.6-40.6l-31.1,4.9l1.4-7.8l38.5-6.1
			L143.3,198.4z M141,211l-3.2,17.2l-68,10.8L91,124.8l56.2-8.9l-2.9,15.6l-39.9,6.3l-6.1,32.8l32.5-5.2l-2.9,15.6l-32.5,5.2
			l-6.1,32.8L141,211z M219.2,215.2l-16.3,2.6l7.9-42.6c1-5.3-0.6-7.1-5.8-6.3l-28.4,4.5l-9.3,50l-16.3,2.6l12.2-65.7l0.4-0.1
			l54-8.6c8.2-1.3,12.6,3.7,11,12.3L219.2,215.2z M324.9,134.7l15.9-2.5l-12.2,65.7l-16.3,2.6l12.2-65.6L324.9,134.7z M423.6,165.7
			l5.6-30.4c1.8-9.6,12.1-19,20.9-20.4l38-6c6.4-1,10.9,6.1,9.6,13.1l-1.9,9.8c-1.3,7-8.5,14.5-14.9,15.5l-39.5,6.3l-0.6,3.5
			c-0.8,4,1.9,7.2,5.6,6.6l44.1-7l-3,16l-49.8,7.9C429.2,181.9,421.8,175.3,423.6,165.7L423.6,165.7z M188.2,80.6l5.5-29.7l20.7-3.3
			c2.7-0.4,4.1,1.1,3.6,4l-3.8,20.3c-0.5,2.9-2.6,5-5.3,5.4L188.2,80.6z"/>
		<g>
			<path fill="#FFFFFF" d="M320.6,94.5l-4.4-17.4l-2.5,0.3l-0.8,4.3c-0.6,3-2.9,5.4-5.8,5.9l-17,2.7c-2.8,0.4-4.4-1.3-3.9-4.3
				l8.6-46.1c0.5-3,2.9-5.4,5.7-5.8l17-2.7c2.8-0.4,4.4,1.3,3.9,4.3l-1.1,5.9l34.4-5.5l1.3-7c3.3-17.7-8.8-31.2-25.6-28.6l-32.9,5.2
				c-16.8,2.7-34.8,20.9-38,38.7l-9.2,49.2c-3.3,17.7,8.8,31.2,25.6,28.6l11-1.7L320.6,94.5z"/>
			<path fill="#FFFFFF" d="M344.9,84c0.9-2.4,1.5-3.3,2-5.8l1.2-6.3l-13.7,2.2L344.9,84z"/>
		</g>
	</g>
</g>
</svg>
