<?xml version="1.0" encoding="utf-8"?>
<!-- Generator: Adobe Illustrator 28.6.0, SVG Export Plug-In . SVG Version: 9.03 Build 54939)  -->
<svg version="1.1" baseProfile="tiny" id="Layer_1" xmlns="http://www.w3.org/2000/svg" xmlns:xlink="http://www.w3.org/1999/xlink"
	 x="0px" y="0px" viewBox="0 0 566.9 150.8" overflow="visible" xml:space="preserve">
<g>
	<path fill="#FFFFFF" d="M79.8,76c8.3-9.7,20.7-15.9,34.5-15.9c2.8,0,5.5,0.3,8.1,0.7c1.8-4.9,2.7-10.1,2.7-15.6
		c0-25-20.3-45.3-45.3-45.3c-25,0-45.3,20.3-45.3,45.3c0,5.5,1,10.7,2.8,15.6c2.7-0.5,5.4-0.8,8.2-0.8C59.1,60.2,71.5,66.3,79.8,76z
		 M122.4,60.9c-5.4,14.9-18.5,26.1-34.4,29c1.8,4.9,2.7,10.1,2.7,15.6c0,11.3-4.1,21.5-10.9,29.5c8.3,9.7,20.7,15.9,34.5,15.9
		c25,0,45.3-20.3,45.3-45.3C159.6,83.2,143.5,64.7,122.4,60.9z M71.7,89.9c-16-2.9-29-14.1-34.5-29C16,64.8,0,83.3,0,105.5
		c0,25,20.3,45.3,45.3,45.3c13.8,0,26.1-6.2,34.5-15.9c-6.8-7.9-10.9-18.2-10.9-29.5C68.9,100,69.9,94.8,71.7,89.9z M71.7,89.9
		c2.6,0.5,5.3,0.7,8.1,0.7c2.8,0,5.5-0.3,8.2-0.7c-1.9-5.1-4.7-9.8-8.1-13.9C76.3,80.1,73.5,84.8,71.7,89.9z"/>
	<g>
		<path fill="#FFFFFF" d="M253.2,55.9c0,8.9-3,15.7-9.1,20.5c-6,4.7-14.6,7.1-25.7,7.1h-14.2v38.1h-6.4V29.5h22.6
			C242.2,29.5,253.2,38.3,253.2,55.9L253.2,55.9z M204.2,78h12.7c10.4,0,17.9-1.7,22.5-5.1c4.6-3.4,6.9-9,6.9-16.7
			c0-7.1-2.2-12.4-6.6-15.8c-4.4-3.4-11.1-5.1-20.3-5.1h-15.2L204.2,78z"/>
		<path fill="#FFFFFF" d="M350.7,75.4c0,14.6-3.7,26.2-11,34.7c-7.3,8.5-17.4,12.8-30.2,12.8c-12.8,0-22.9-4.3-30.2-12.8
			c-7.3-8.5-11-20.1-11-34.8c0-14.7,3.7-26.2,11.1-34.6c7.4-8.4,17.4-12.6,30.2-12.6c12.9,0,22.9,4.2,30.2,12.7
			C347,49.2,350.7,60.7,350.7,75.4z M275.3,75.4c0,13.2,2.9,23.4,8.8,30.6c5.9,7.2,14.3,10.8,25.3,10.8c11.1,0,19.6-3.6,25.4-10.7
			c5.9-7.1,8.8-17.4,8.8-30.7c0-13.3-2.9-23.4-8.8-30.5c-5.9-7.1-14.3-10.6-25.3-10.6c-11,0-19.4,3.6-25.4,10.7
			C278.3,52.1,275.3,62.2,275.3,75.4L275.3,75.4z"/>
		<path fill="#FFFFFF" d="M378.2,81.4v40.1h-6.4V29.5h21.9c11.4,0,19.9,2.1,25.3,6.3c5.5,4.2,8.2,10.6,8.2,19.1
			c0,6.2-1.6,11.4-4.9,15.6c-3.3,4.2-8.2,7.3-14.8,9.1l25,42h-7.7l-23.8-40.1L378.2,81.4z M378.2,75.9h17.6c7.8,0,13.8-1.7,18.1-5.2
			c4.3-3.5,6.4-8.6,6.4-15.3c0-7-2.1-12.1-6.3-15.3c-4.2-3.2-11.1-4.8-20.5-4.8h-15.2V75.9z"/>
		<path fill="#FFFFFF" d="M472.5,121.6H466V35.5h-29.9v-6h66.3v6h-29.9L472.5,121.6z"/>
		<path fill="#FFFFFF" d="M566.9,97.8c0,7.7-2.8,13.8-8.5,18.3c-5.6,4.5-13.2,6.7-22.5,6.7c-11.3,0-19.9-1.2-25.9-3.7v-6.4
			c6.6,2.8,15.1,4.2,25.4,4.2c7.6,0,13.6-1.7,18-5.2c4.4-3.5,6.6-8,6.6-13.6c0-3.5-0.7-6.4-2.2-8.7c-1.5-2.3-3.9-4.4-7.2-6.3
			c-3.3-1.9-8.2-3.9-14.6-6.1c-9.4-3.2-15.9-6.7-19.5-10.5c-3.6-3.8-5.4-8.8-5.4-15c0-6.9,2.7-12.5,8.1-16.9
			c5.4-4.3,12.3-6.5,20.8-6.5c8.7,0,16.8,1.6,24.4,4.9l-2.3,5.5c-7.6-3.2-15-4.8-21.9-4.8c-6.8,0-12.2,1.6-16.3,4.7
			c-4,3.1-6,7.4-6,12.9c0,3.4,0.6,6.2,1.9,8.4c1.2,2.2,3.3,4.1,6.1,5.9c2.8,1.7,7.6,3.8,14.5,6.3c7.2,2.5,12.6,4.9,16.2,7.2
			c3.6,2.3,6.2,5,7.9,7.9C566.1,90,566.9,93.6,566.9,97.8L566.9,97.8z"/>
	</g>
</g>
</svg>
