<?xml version="1.0" encoding="utf-8"?>
<!-- Generator: Adobe Illustrator 28.6.0, SVG Export Plug-In . SVG Version: 9.03 Build 54939)  -->
<svg version="1.1" baseProfile="tiny" id="Layer_1" xmlns="http://www.w3.org/2000/svg" xmlns:xlink="http://www.w3.org/1999/xlink"
	 x="0px" y="0px" viewBox="0 0 667 279.5" overflow="visible" xml:space="preserve">
<g>
	<path fill="#FFFFFF" d="M521,224.8c6.2-0.3,12.7,0.7,12.7,8.2c0,5.5-4,8.5-9.3,8.5c-6.1,0-9.3-4.4-9-10.2h-7.9
		c0.2,10.1,5.8,16.8,16.9,16.8c9.3,0,17-5.6,17-14.7c0-6.2-3.3-11-8.7-12.1v-0.1c4.6-1.7,6.8-5.6,6.8-10.4c0-8.5-7.7-12.8-15.1-12.8
		c-9.7,0-15.6,7-16,16.4h7.8c-0.1-5,2.6-9.9,8-9.9c4.3,0,7.5,2.8,7.5,6.9c0,5.9-5.4,7.7-10.7,7.6L521,224.8L521,224.8z"/>
	<path fill="#FFFFFF" d="M125.5,247.2h8.7v-18.9h13.1c14.1,0.1,16.8-9.1,16.8-15.2c0-6.1-2.7-15.2-16.8-15.2h-21.8V247.2
		L125.5,247.2z M134.2,205h12.8c4.6,0,8.5,1.7,8.5,8.2c0,6.2-4.7,8.2-8.6,8.2h-12.6L134.2,205L134.2,205z"/>
	<rect x="169.2" y="198" fill="#FFFFFF" width="7.9" height="49.3"/>
	<path fill="#FFFFFF" d="M215.8,221c0-7.6-7.4-10.4-14.4-10.4c-7.9,0-15.7,2.7-16.3,11.9h7.9c0.2-3.9,3.4-5.6,7.8-5.6
		c3.2,0,7.4,0.8,7.4,4.8c0,4.6-5.1,3.9-10.7,5c-6.5,0.8-13.7,2.2-13.7,11.1c0,6.9,5.8,10.4,12.2,10.4c4.2,0,9.2-1.3,12.4-4.4
		c0.6,3.3,2.9,4.4,6,4.4c1.3,0,3.9-0.5,5-0.9v-5.5c-0.8,0.1-1.4,0.1-1.8,0.1c-1.5,0-1.8-0.8-1.8-2.7L215.8,221L215.8,221z
		 M207.8,235.3c0,5-5.4,6.8-8.8,6.8c-2.8,0-7.2-1-7.2-4.6c0-4.2,3-5.4,6.4-5.9c3.4-0.6,7.2-0.6,9.6-2.2V235.3L207.8,235.3z"/>
	<path fill="#FFFFFF" d="M232.6,247.2l-0.9,2.8c-0.9,3-1.9,5-5.6,5c-1.2,0-2.5-0.3-3.7-0.6v6.7c1.8,0.2,3.7,0.4,5.5,0.4
		c8.3,0,10.1-5.8,12.7-12.2l13.9-37.7h-8.3l-9,26.7H237l-9.3-26.7h-8.5L232.6,247.2z"/>
	<path fill="#FFFFFF" d="M256.1,230.9c0.2,12.3,9.3,17.6,20.6,17.6c9.8,0,19.6-4.4,19.6-15.4c0-5.1-3.1-10.6-9.6-12.7
		c-2.5-0.7-13.4-3.5-14.2-3.7c-3.5-1-5.9-2.9-5.9-6.4c0-5,5-6.5,9.1-6.5c5.9,0,10.2,2.3,10.7,8.8h8.6c0-10.4-8.6-15.8-18.9-15.8
		c-8.9,0-18.1,4.6-18.1,14.5c0,5.1,2.5,10.3,10.9,12.5c6.8,1.8,11.3,2.8,14.7,4.1c2,0.8,4.1,2.3,4.1,6c0,3.8-2.9,7.5-10.5,7.5
		c-6.9,0-12.5-3-12.5-10.6L256.1,230.9L256.1,230.9z"/>
	<path fill="#FFFFFF" d="M299.1,211.6h5.9v-10.7h7.9v10.7h7.1v5.9H313v19.1c0,3.3,0.3,4.9,3.8,4.9c1.1,0,2.2,0,3.3-0.2v6
		c-1.7,0.2-3.4,0.4-5.1,0.4c-8.2,0-9.8-3.1-10-9.1v-21.1h-5.9L299.1,211.6L299.1,211.6z"/>
	<path fill="#FFFFFF" d="M356.3,221c0-7.6-7.4-10.4-14.4-10.4c-7.8,0-15.7,2.7-16.2,11.9h7.9c0.3-3.9,3.4-5.6,7.9-5.6
		c3.2,0,7.4,0.8,7.4,4.8c0,4.6-5,3.9-10.7,5c-6.6,0.8-13.7,2.2-13.7,11.1c0,6.9,5.8,10.4,12.2,10.4c4.2,0,9.3-1.3,12.4-4.4
		c0.6,3.3,2.9,4.4,6.2,4.4c1.2,0,3.7-0.5,4.9-0.9v-5.5c-0.8,0.1-1.5,0.1-2,0.1c-1.4,0-1.9-0.8-1.9-2.7L356.3,221L356.3,221z
		 M348.4,235.3c0,5-5.4,6.8-8.9,6.8c-2.7,0-7.2-1-7.2-4.6c0-4.2,3-5.4,6.4-5.9c3.5-0.6,7.3-0.6,9.7-2.2V235.3L348.4,235.3z"/>
	<path fill="#FFFFFF" d="M360.9,211.6h5.9v-10.7h7.9v10.7h7.1v5.9h-7.1v19.1c0,3.3,0.3,4.9,3.8,4.9c1.1,0,2.2,0,3.3-0.2v6
		c-1.7,0.2-3.4,0.4-5.1,0.4c-8.2,0-9.8-3.1-9.9-9.1v-21.1h-5.9L360.9,211.6L360.9,211.6z"/>
	<rect x="388.6" y="211.6" fill="#FFFFFF" width="7.9" height="35.7"/>
	<path fill="#FFFFFF" d="M420.4,248.3c11.5,0,18-7.9,18-18.8c0-10.9-6.6-18.8-18-18.8c-11.5,0-18,7.9-18,18.8
		C402.4,240.4,408.9,248.3,420.4,248.3z M420.4,242.1c-7.1,0-10.2-6.4-10.2-12.6c0-6.2,3.1-12.6,10.2-12.6c7,0,10.1,6.4,10.1,12.6
		C430.6,235.7,427.4,242.1,420.4,242.1z"/>
	<path fill="#FFFFFF" d="M444.4,247.2h7.9v-21c0-5.2,3.4-9.3,8.7-9.3c4.6,0,6.8,2.4,6.9,7.9v22.5h7.9v-24.5c0-8-4.9-12.2-12.7-12.2
		c-4.7,0-8.8,2.4-11.1,6.4l-0.2-0.1v-5.3h-7.4L444.4,247.2L444.4,247.2z"/>
	<rect x="388.6" y="198" fill="#FFFFFF" width="7.9" height="7.5"/>
	<g>
		<path fill="#FFFFFF" d="M421.7,19.6h-82.6c-25.5,0-38,15.7-38,36.2v62.1c0,12.7-6,21.8-18.6,21.8h-72.2c-0.5,0-0.9,0.4-0.9,0.9
			V153c0,0.5,0.4,0.9,0.9,0.9H292c25.5,0,38-15.7,38-36.1V55.7c0-12.7,5.9-21.8,18.7-21.8h73c0.6,0,1-0.4,1-0.9V20.5
			C422.7,20,422.2,19.6,421.7,19.6L421.7,19.6z"/>
		<path fill="#FFFFFF" d="M178.5,19.6H19.6c-0.6,0-1,0.4-1,0.9V33c0,0.5,0.4,0.9,1,0.9H169c12.6,0,18.6,9.1,18.6,21.8
			c0,12.6-6,21.7-18.6,21.7H50.8c-18.4,0-32.2,15.4-32.2,35.9V153c0,0.5,0.4,1,1,1h26.9c0.5,0,1-0.4,1-1v-39.7
			c0-12.6,7.2-21.5,17.8-21.5h113.3c25.4,0,37.9-15.6,37.9-36.1C216.4,35.3,204,19.6,178.5,19.6L178.5,19.6z"/>
		<path fill="#FFFFFF" d="M636.4,85.1c-0.4-0.4-0.4-1.1,0-1.5c7.9-6.6,11.8-16.4,11.8-27.9c0-20.4-12.4-36.2-37.9-36.2H451.4
			c-0.5,0-0.9,0.4-0.9,1V33c0,0.5,0.4,0.9,0.9,0.9h149.3c12.6,0,18.7,9.1,18.7,21.8c0,12.6-6,21.7-18.7,21.7h-0.2l-149.2,0
			c-0.5,0-0.9,0.4-0.9,1v12.5c0,0.5,0.4,0.9,0.9,0.9h149.4c16.5,0.2,18.6,16.2,18.6,24.4l0,1.5c0,12.7-6.1,21.9-18.7,21.9H451.4
			c-0.5,0-0.9,0.4-0.9,0.9V153c0,0.5,0.4,0.9,0.9,0.9h158.9c25.5,0,37.9-16.9,37.9-36.2v-1.5C648.2,104,644.3,92.2,636.4,85.1
			L636.4,85.1z"/>
	</g>
</g>
</svg>
