<?xml version="1.0" encoding="utf-8"?>
<!-- Generator: Adobe Illustrator 28.6.0, SVG Export Plug-In . SVG Version: 9.03 Build 54939)  -->
<svg version="1.1" baseProfile="tiny" id="Layer_1" xmlns="http://www.w3.org/2000/svg" xmlns:xlink="http://www.w3.org/1999/xlink"
	 x="0px" y="0px" viewBox="0 0 568.9 116.1" overflow="visible" xml:space="preserve">
<g>
	<path fill="#FFFFFF" d="M111.9,78.2c-3.1-4.4,1.8-7.7,6.8-12.4c5-4.7,6-19.5-3.6-26.8s-31-8.4-39.4-7.4c-8.4,1-8.4,6.7-7.7,14.1
		c0.7,7.4,0.7,20.9-0.3,50.1c-0.3,8.8,5.3,7,11.2,7.1s7.5-1.6,7.7-5.6c0.1-4,1.3-9.8,5.6-10.1c4.3-0.3,6.7,5.4,8.8,10.7
		c2.1,5.3,5.3,5,17.5,4.6C130.8,102.1,115,82.6,111.9,78.2z M92.7,66.2c-7.7-0.3-7.8-6.4-7.7-8.8s2.7-8.8,7.1-8.7
		c4.3,0,7,1.3,8.4,5.7C101.9,58.8,100.4,66.5,92.7,66.2z"/>
	<path fill="#FFFFFF" d="M164.6,85c-2.3-3.6-8.1-1.7-16.2,1.3c-3.8,1.3-6,2-6.8,0.4c-0.9-1.6,3.6-3.3,10.1-5.3
		c6.5-2,13.7-5.8,14.4-12c0.7-6.1-5.3-14.4-19.9-14.9C131.4,54,125.3,66.1,123,72.8c-2.3,6.7,0.4,19.6,8.5,25.6
		c8.1,6,17.9,3.4,27-1.1S166.8,88.6,164.6,85z M139.4,74c-2.3-3.8,0-7.4,2.7-9.1c2.7-1.7,7.8-1.4,9.3,1.6c1.4,3,0,6.5-3.1,8
		S140.5,75.9,139.4,74L139.4,74z"/>
	<path fill="#FFFFFF" d="M196.4,70.1c4.8,3.7,10.5,4.6,12,2.4c1.4-2.1,2.8-8-2.1-12c-5-4-15.4-6-23.9-3.1
		c-8.5,2.8-12.5,10.1-10.8,16.1c1.7,6,11,8.7,13.9,10.1c3.6,1.7,5.1,3,4.3,4.3c-0.9,1.3-4.1-0.3-7.3-1.7c-3.1-1.4-8.1-3.7-10.1-1
		s-3.7,8.5,3.4,12.7c7.1,4.1,16.8,6,25,2.3c8.3-3.7,9.1-10.7,7.3-15.4c-1.9-4.7-8.3-7.8-12.2-10.2c-4-2.4-7.1-3.4-6.4-5.1
		C190.2,67.6,194,68.2,196.4,70.1z"/>
	<path fill="#FFFFFF" d="M214.2,66.6c-0.9-3.3,1.9-7.8,6.8-8.3c5-0.4,8.8,3.1,8.5,7.1c-0.3,4-1.9,12.8-1.9,18.6
		c0,5.8,1.7,10.8,1.6,13.8s-3.6,5.4-8,5.4c-4.4,0-8-0.1-8.3-5.7c-0.3-5.6,1.3-14.1,1.6-18.8C214.9,74.2,214.4,69.5,214.2,66.6z"/>
	<ellipse fill="#FFFFFF" cx="222.1" cy="46.9" rx="8.8" ry="8.1"/>
	<path fill="#FFFFFF" d="M275.3,72.8c0.1-8.8,2.1-21.6,2.1-30.7s-5-10.7-9.4-10.2c-4.4,0.4-5.6,5.4-4.7,11.8c0,9.8-2.4,8.4-5.3,8.5
		c-19.5,1.3-22.9,11.7-25.3,20.9c-2.4,9.2,0.9,18.1,6.4,24.3c5.6,6.3,21.1,6,22.2,4.7c1.1-1.3,2.4-3.1,4.1-1.1
		c1.7,2,5.3,2.3,7.8,0.7s3.7-5.7,2.8-8.4C275.3,90.6,275.1,81.6,275.3,72.8L275.3,72.8z M253.4,86.4c-4.1,0-7.4-4.1-7.4-9.1
		c0-5,3.3-9.1,7.4-9.1s7.4,4.1,7.4,9.1C260.8,82.3,257.5,86.4,253.4,86.4L253.4,86.4z"/>
	<path fill="#FFFFFF" d="M280.4,85.1c0.3-21.5,0.3-21.1,0.3-23.8c0-2.7,4.4-7.8,8.8-8.3c4.4-0.4,8.5-0.9,8.5,5.7s-0.3,19.4-0.3,21.8
		c0,2.4,4.1,5.8,4.6,0.3c0.4-5.6,0.4-18.9,0.6-22.6c0.1-3.7,3.8-5.3,7.7-5.4c3.8-0.1,9.4,1.4,8.4,7.8c-1,6.4-1,12.7-1,18.1
		c0,5.4,2,12.8,1.6,17.5c-0.4,4.7-3.7,7-7.1,6.8c-3.4-0.1-5.8-2-7.1-2.4c-1.3-0.4-9,4.8-16.1,0.1C282.1,96.1,280.1,90.3,280.4,85.1z
		"/>
	<path fill="#FFFFFF" d="M361.4,89.6c-1.5-9.1-0.9-15.1-0.3-21.6c0.6-6.5-2.3-10.7-8.3-13c-6-2.3-18.4-0.1-22.8,5.3
		c-4.4,5.4-7.5,16.1-6.7,22.8c0.9,6.7,1.3,15.4,12.2,19.1c11,3.7,12-2.4,14.4-2.6c2.4-0.1,3.7,3.1,6.5,3.3c2.8,0.1,6-2.8,6.7-5.8
		C363.9,94,361.8,92.1,361.4,89.6z M343,87c-3.9,0-7-4.2-7-9.3c0-5.1,3.1-9.3,7-9.3c3.9,0,7,4.2,7,9.3S346.9,87,343,87z"/>
	<path fill="#FFFFFF" d="M386.9,31.5c-3.1-8.8,8.4-17.2,13.8-6c5.4,11.2,21.3,41.7,23.6,45.1c2.3,3.4,5,3,4.6-4.6
		c-0.4-7.5,0.4-43.3,0.4-46.5s3.1-7.7,8.7-7.8c5.5-0.1,8.7,3.3,8,11.4s-2.1,54.2-2.8,65.9c-0.7,11.7-14.5,25.8-25.5,6.3
		C406.6,75.8,389.4,37.6,386.9,31.5L386.9,31.5z"/>
	<path fill="#FFFFFF" d="M451.6,35.8c-1.1-9.7,2.4-13.4,6.1-13.8s17.5,14.4,25.2,27.2c4.4,6.4,5.5,8.4,6.8-1.7s5.7-24.1,7.8-28.5
		s12.2-10.4,14.5,2.8c2.3,13.2,11.8,50.7,12.8,57.2c1,6.5,2.3,13.2-2.1,14.8s-11.7,4-13.8-5.1c-2.1-9.1-4.6-32.9-5.4-34.6
		c-0.9-1.7-2.1-0.7-2.6,3.7c-0.4,4.4-2,20.8-2.6,23.9S490.7,92,485,81.2s-11-19.8-12.2-21.2c-1.3-1.4-1.9,0.9-1.4,4
		c0.4,3.1,3.6,16.1,6.5,23.2c3,7.1,2.7,15.7-3.3,17.2c-6,1.6-10.4,2.1-13.2-13.5C458.6,75.2,452.6,44,451.6,35.8L451.6,35.8z"/>
	<path fill="#FFFFFF" d="M365.2,41.3c0-4.6,2.8-7.3,7.2-7.2c4.5,0.1,11.3,0.5,10.9,6.9c-0.4,6.5-1.2,30.3-1,39.3
		c0.2,9,0.4,15.4,0.4,17.8c0,2.5-2.1,4.2-6.6,4.2s-9.1,1.3-9.6-4.8c-0.5-6.2,0.3-23.8,0.3-31C366.7,59.2,365.1,45.8,365.2,41.3z"/>
	<path fill="#FFFFFF" d="M69.4,53c-0.7-7.2-0.6-13.5,0.8-16.2c1.5-2.6,5.1-5.6,16.6-4.4s20.1,2.7,28.2,6.8
		c-11.3-3.8-29.5-4.9-36.2-4.4C72.1,35.5,69.9,37.4,69.4,53z"/>
	<path fill="#FFFFFF" d="M101.5,58.3c-0.8,4.4-2.1,7.3-5.3,8.3c-3.2,1-8.2-0.2-9.6-1.8c2.2,3.1,7.8,3.3,11.1,2.4
		C101,66.3,101.4,59.8,101.5,58.3z"/>
	<path fill="#FFFFFF" d="M124.8,70.2c5.5-9.5,9.3-12.5,13.5-13.9c4.3-1.4,8.1-1.4,15.7,0.2c-8.3-0.6-14.9,0.1-18.2,2.2
		C132.6,60.8,126.2,68,124.8,70.2z"/>
	<path fill="#FFFFFF" d="M152.3,70.4c-0.9,3.1-4.6,7-12.2,5.1C147,79,152.2,74.9,152.3,70.4z"/>
	<path fill="#FFFFFF" d="M141.8,87.8c0.9,0.9,3.3,0.6,6.1-0.5c2.8-1.1,8.4-3.6,11.8-3.4c-2.7,0.3-4.1,1.2-6.3,2.1
		C151.3,86.9,145.2,90.4,141.8,87.8L141.8,87.8z"/>
	<path fill="#FFFFFF" d="M172.1,70c1.6-9.5,11.4-13.9,21.3-13.2C186.4,56.4,174.8,61.3,172.1,70z"/>
	<path fill="#FFFFFF" d="M171.2,90.8c0.8-4.5,2.1-8,8-5.4C176.3,84.3,172.7,85.2,171.2,90.8z"/>
	<path fill="#FFFFFF" d="M224.9,59.6c-3.2-1.6-10.9,0.4-9.8,8.7C215.7,60.8,221.4,58.6,224.9,59.6z"/>
	<path fill="#FFFFFF" d="M214,48.1c-0.1-4.5,4.2-10.8,11.7-7.8C220.2,38.8,214.4,42.7,214,48.1z"/>
	<path fill="#FFFFFF" d="M234.5,69.7c6.3-13.5,11.7-16.2,25-16.9C247.1,54.3,239.7,60.3,234.5,69.7z"/>
	<path fill="#FFFFFF" d="M248.8,85.1c4.7,4.3,10.9,1.1,12.1-4.2C260,88.9,251.6,89.8,248.8,85.1z"/>
	<path fill="#FFFFFF" d="M270.5,32.5c-2.6-0.6-6.4,0.9-6.5,7.5C265,34.2,268,32.7,270.5,32.5z"/>
	<path fill="#FFFFFF" d="M281.4,66.7c0.4-10.7,5.1-12.7,11-12.9C286.8,54.2,282.3,58.1,281.4,66.7z"/>
	<path fill="#FFFFFF" d="M298.6,83.8c1.9,1.7,4.5,1.1,4.8-4.9C303.9,85.6,300.3,86.9,298.6,83.8z"/>
	<path fill="#FFFFFF" d="M303.5,61.3c0-6.3,3.6-8,6.8-7.7C307.3,53.9,303.9,56.8,303.5,61.3z"/>
	<path fill="#FFFFFF" d="M325.3,71.5c4.7-11.5,8.8-15.8,21.5-16.7C338.8,56.1,332.2,58.4,325.3,71.5z"/>
	<path fill="#FFFFFF" d="M338,85.4c3.5,3.3,9.4,3.5,11.7-2.5C349,88.4,342.8,91,338,85.4z"/>
	<path fill="#FFFFFF" d="M366,46.5c-0.2-7.5,0.3-12.7,9.9-11.5C371.2,34.7,366.4,35.5,366,46.5z"/>
	<path fill="#FFFFFF" d="M387.2,28.4c0.4-5.4,4.8-9.4,10.4-6.1C393.8,21,389.3,21.8,387.2,28.4z"/>
	<path fill="#FFFFFF" d="M429.6,25.3c0.4-8.5,2.8-12.4,8-12.8C433.1,13.4,430.3,19.2,429.6,25.3z"/>
	<path fill="#FFFFFF" d="M452.5,29.2c1.9-6,4.7-8.4,10-3.3C457.7,22,454.8,24.1,452.5,29.2z"/>
	<path fill="#FFFFFF" d="M491.9,39.3c5.6-19.4,6.9-22.1,10.3-23.7c3.4-1.6,6.4,0.7,6.4,0.7c-3.2-1.6-6.6-0.6-8.7,2.9
		C497.9,22.7,492.3,37.8,491.9,39.3z"/>
	<path fill="#FFFFFF" d="M485.9,54.8c1.7,1.1,3.6,0.7,4.7-5.5C489.9,54.4,489.6,57.4,485.9,54.8z"/>
	<path fill="#FFFFFF" d="M424.2,72.3c3,2.3,5.3,2.2,5.8-6.2C431.1,75.3,427.4,76.2,424.2,72.3z"/>
</g>
</svg>
