<?xml version="1.0" encoding="utf-8"?>
<!-- Generator: Adobe Illustrator 28.6.0, SVG Export Plug-In . SVG Version: 9.03 Build 54939)  -->
<svg version="1.1" baseProfile="tiny"
	 id="Layer_1" xmlns:rdf="http://www.w3.org/1999/02/22-rdf-syntax-ns#" xmlns:dc="http://purl.org/dc/elements/1.1/" xmlns:cc="http://creativecommons.org/ns#"
	 xmlns="http://www.w3.org/2000/svg" xmlns:xlink="http://www.w3.org/1999/xlink" x="0px" y="0px" viewBox="0 0 965.7 232.1"
	 overflow="visible" xml:space="preserve">
<g transform="translate(275.01 -304.43)">
	<path fill="none" stroke="#FFFFFF" stroke-width="8" stroke-linecap="round" stroke-linejoin="round" stroke-miterlimit="8" d="
		M675.3,517.2L640.5,474c-1.4-1.7-4.3-3.1-6.5-3.1h-36.2c-2.2,0-4-1.8-4-4v-3c0-2.2-1.8-4-4-4h-33c-2.2,0-4-1.8-4-4v-18.8
		c0-2.2,1.8-4,4-4h33c2.2,0,4-1.8,4-4v-3c0-2.2-1.8-4-4-4h-33c-2.2,0-4-1.8-4-4v-17.5c0-2.2,1.8-4,4-4h33c2.2,0,4-1.8,4-4v-3
		c0-2.2-1.8-4-4-4h-44c-2.2,0-4,1.8-4,4v77.3c0,2.2-1.8,4-4,4h-22.2c-2.2,0-4-1.8-4-4v-86.1c0-2.2-1.8-4-4-4h-4.4c-2.2,0-4,1.8-4,4
		v86.1c0,2.2-1.8,4-4,4h-65.7c-2.2,0-4-1.8-4-4v-55.3c0-2.2,1.8-4,4-4h35.8c2.2,0,4-1.8,4-4v-48.8c0-2.2-1.8-4-4-4h-48.8
		c-2.2,0-4,1.8-4,4v112.1c0,2.2-1.8,4-4,4H359c-2.2,0-4-1.8-4-4v-9.4c0-2.2,1.8-4,4-4h19.5c2.2,0,4-1.8,4-4v-59.8c0-2.2-1.8-4-4-4
		l-59.9,0c-2.2,0-4,1.8-4,4v59.8c0,2.2,1.8,4,4,4h18.8c2.2,0,4,1.8,4,4v9.4c0,2.2-1.8,4-4,4H288c-2.2,0-5.2-1.3-6.7-3L250,433.3
		c-1.5-1.6-0.9-3,1.3-3h30.1c2.2,0,4-1.8,4-4v-36.7c0-2.2-1.8-4-4-4h-42.9c-2.2,0-4,1.8-4,4v77.3c0,2.2-1.8,4-4,4h-22.6
		c-2.2,0-4-1.8-4-4V365.8c0-2.2,1.8-4,4-4h37.8c2.2,0,4-1.8,4-4v-3c0-2.2-1.8-4-4-4H151c-2.2,0-4,1.8-4,4v3c0,2.2,1.8,4,4,4h37
		c2.2,0,4,1.8,4,4v101.1c0,2.2-1.8,4-4,4l-21.7,0c-2.2,0-4-1.8-4-4v-3c0-2.2-1.8-4-4-4h-33c-2.2,0-4-1.8-4-4v-18.8c0-2.2,1.8-4,4-4
		h33c2.2,0,4-1.8,4-4v-3c0-2.2-1.8-4-4-4h-33c-2.2,0-4-1.8-4-4v-17.5c0-2.2,1.8-4,4-4h33c2.2,0,4-1.8,4-4v-3c0-2.2-1.8-4-4-4h-44
		c-2.2,0-4,1.8-4,4v77.3c0,2.2-1.8,4-4,4H78.7c-2.2,0-4.9-1.5-6-3.4L39.1,411c-1.1-1.9-0.2-3.4,2-3.4h36.1c2.2,0,4-1.8,4-4v-48.8
		c0-2.2-1.8-4-4-4H28.3c-2.2,0-4,1.8-4,4v112.1c0,2.2-1.8,4-4,4h-36c-2.2,0-5.2-1.4-6.6-3.1L-57.7,425"/>
	<path fill-rule="evenodd" fill="#FFFFFF" d="M504.9,360l-0.2,0l-0.2,0l-0.2,0l-0.2,0l-0.2,0l-0.2,0l-0.2,0l-0.2,0l-0.2,0l-0.2,0
		l-0.2-0.1l-0.2-0.1l-0.2-0.1l-0.2-0.1l-0.2-0.1l-0.2-0.1l-0.2-0.1l-0.1,0l-0.1,0l-0.1,0l-0.1,0l-0.1,0l-0.1,0l-0.1,0l-0.1-0.1
		l-0.1-0.1l-0.1-0.1l-0.1-0.1l-0.1-0.1l-0.1-0.1l-0.1-0.1l-0.1-0.1l-0.1-0.1l-0.1-0.1l-0.1-0.1l-0.1-0.1l-0.1-0.1l-0.1-0.1l-0.1-0.1
		l-0.1-0.1l-0.1-0.1l-0.1-0.1l-0.1-0.1l-0.1-0.1l-0.1-0.1l-0.1-0.1l-0.1-0.1l-11.8-11.8l-0.1-0.1l-0.1-0.1l-0.1-0.1l-0.1-0.1
		l-0.1-0.1l-0.1-0.1l-0.1-0.1l-0.1-0.1l-0.1-0.1l-0.1-0.1l-0.1-0.1l-0.1-0.1l-0.1-0.1l-0.1-0.1l-0.1-0.1l-0.1-0.1l-0.1-0.1l-0.1-0.1
		l-0.1-0.1l-0.1-0.1l-0.1-0.1l-0.1-0.1l-0.1-0.1l0-0.1l0-0.1l0-0.1l0-0.1l0-0.1l0-0.1l0-0.1l-0.1-0.2l-0.1-0.2l-0.1-0.2l-0.1-0.2
		l-0.1-0.2l-0.1-0.2l0-0.2l0-0.2l0-0.2l0-0.2l0-0.2l0-0.2l0-0.2l0-0.2l0-0.2l0-0.2v-0.2v-0.2l0-0.2l0-0.2l0-0.2l0-0.2l0-0.2l0-0.2
		l0-0.2l0-0.2l0-0.2l0.1-0.2l0.1-0.2l0.1-0.2l0.1-0.2l0.1-0.2l0.1-0.2l0.1-0.2l0-0.1l0-0.1l0-0.1l0-0.1l0-0.1l0-0.1l0.1-0.1l0.1-0.1
		l0.1-0.1l0.1-0.1l0.1-0.1l0.1-0.1l0.1-0.1l0.1-0.1l0.1-0.1l0.1-0.1l0.1-0.1l0.1-0.1l0.1-0.1l0.1-0.1l0.1-0.1l0.1-0.1l0.1-0.1
		l0.1-0.1l0.1-0.1l0.1-0.1l0.1-0.1l0.1-0.1l0.1-0.1l0.1-0.1l11.8-11.8l0.1-0.1l0.1-0.1l0.1-0.1l0.1-0.1l0.1-0.1l0.1-0.1l0.1-0.1
		l0.1-0.1l0.1-0.1l0.1-0.1l0.1-0.1l0.1-0.1l0.1-0.1l0.1-0.1l0.1-0.1l0.1-0.1l0.1-0.1l0.1-0.1l0.1-0.1l0.1-0.1l0.1-0.1l0.1-0.1
		l0.1-0.1l0.1,0l0.1,0l0.1,0l0.1,0l0.1,0l0.1,0l0.1,0l0.2-0.1l0.2-0.1l0.2-0.1l0.2-0.1l0.2-0.1l0.2-0.1l0.2-0.1l0.2,0l0.2,0l0.2,0
		l0.2,0l0.2,0l0.2,0l0.2,0l0.2,0l0.2,0l0.2,0l0.2,0l0.2,0l0.2,0l0.2,0l0.2,0l0.2,0l0.2,0l0.2,0l0.2,0l0.2,0l0.2,0.1l0.2,0.1l0.2,0.1
		l0.2,0.1l0.2,0.1l0.2,0.1l0.2,0.1l0.1,0l0.1,0l0.1,0l0.1,0l0.1,0l0.1,0l0.1,0l0.1,0l0.1,0.1l0.1,0.1l0.1,0.1l0.1,0.1l0.1,0.1
		l0.1,0.1l0.1,0.1l0.1,0.1l0.1,0.1l0.1,0.1l0.1,0.1l0.1,0.1l0.1,0.1l0.1,0.1l0.1,0.1l0.1,0.1l0.1,0.1l0.1,0.1l0.1,0.1l0.1,0.1
		l0.1,0.1l0.1,0.1l11.8,11.8l0.1,0.1l0.1,0.1l0.1,0.1l0.1,0.1l0.1,0.1l0.1,0.1l0.1,0.1l0.1,0.1l0.1,0.1l0.1,0.1l0.1,0.1l0.1,0.1
		l0.1,0.1l0.1,0.1l0.1,0.1l0.1,0.1l0.1,0.1l0.1,0.1l0.1,0.1l0.1,0.1l0.1,0.1l0.1,0.1l0,0.1l0,0.1l0,0.1l0,0.1l0,0.1l0,0.1l0,0.1
		l0,0.1l0.1,0.2l0.1,0.2l0.1,0.2l0.1,0.2l0.1,0.2l0.1,0.2l0,0.2l0,0.2l0,0.2l0,0.2l0,0.2l0,0.2l0,0.2l0,0.2l0,0.2l0,0.2v0.2v0.2
		l0,0.2l0,0.2l0,0.2l0,0.2l0,0.2l0,0.2l0,0.2l0,0.2l0,0.2l0,0.2l-0.1,0.2l-0.1,0.2l-0.1,0.2l-0.1,0.2l-0.1,0.2l-0.1,0.2l0,0.1l0,0.1
		l0,0.1l0,0.1l0,0.1l0,0.1l-0.1,0.1l0,0.1l-0.1,0.1l-0.1,0.1l-0.1,0.1l-0.1,0.1l-0.1,0.1l-0.1,0.1l-0.1,0.1l-0.1,0.1l-0.1,0.1
		l-0.1,0.1l-0.1,0.1l-0.1,0.1l-0.1,0.1l-0.1,0.1l-0.1,0.1l-0.1,0.1l-0.1,0.1l-0.1,0.1l-0.1,0.1l-0.1,0.1l-0.1,0.1l-0.1,0.1
		l-11.8,11.8l-0.1,0.1l-0.1,0.1l-0.1,0.1l-0.1,0.1l-0.1,0.1l-0.1,0.1l-0.1,0.1l-0.1,0.1l-0.1,0.1l-0.1,0.1l-0.1,0.1l-0.1,0.1
		l-0.1,0.1l-0.1,0.1l-0.1,0.1l-0.1,0.1l-0.1,0.1l-0.1,0.1l-0.1,0.1l-0.1,0.1l-0.1,0.1l-0.1,0.1l-0.1,0.1l-0.1,0l-0.1,0l-0.1,0
		l-0.1,0l-0.1,0l-0.1,0l-0.1,0l-0.2,0.1l-0.2,0.1l-0.2,0.1l-0.2,0.1l-0.2,0.1l-0.2,0.1l-0.2,0.1l-0.2,0l-0.2,0l-0.2,0l-0.2,0l-0.2,0
		l-0.2,0l-0.2,0l-0.2,0l-0.2,0L504.9,360L504.9,360z M504.9,351.1l11.2-11.2l-11.2-11.2l-11.2,11.2L504.9,351.1L504.9,351.1z"/>
	<g transform="matrix(.53788 0 0 .53788 -535.47 275.33)">
		<g>
			<path fill="#FFFFFF" d="M533.2,373.7c6.7,17.9,14.6,39,15.9,42.7c12,32.2,55.7,48.2,99.4,48.2c44.1,0,88.4-16.2,100.6-48.4
				c1.5-3.9,9.3-24.5,16-42.1c-4.9,1.3-10,0.4-15.1,1.1c-7.2,0.9-7.4,9.6-13.4,13.4c-8.3,5.2-16.9,3.3-25.8,1.8
				c-10.2-1.7-13.1,4.2-20.9,8.5c-11.1,6-21.1,2.4-31.8-1.8c-9.8-3.8-16.4,1.7-25.4,4.1c-9.8,2.6-21.7,0.6-28.6-7.3
				c-6-6.8-16.8-2.2-24.2-1.6c-9.1,0.7-20.2-2.7-23.7-12c-3.1-8.2-14.2-4-21.2-5.9C534.4,374.1,533.8,373.9,533.2,373.7L533.2,373.7
				z"/>
			<path fill="#FFFFFF" d="M617.3,249.1c-1,0-2,0-3,0.1c-5.2,0.4-9.6,3.2-14.8,3.2c-4.8,0-9.9-0.1-14.3,2.2
				c-7.2,3.8-17.9,1.4-23.9,7.6c-4.8,5-13.9,2.5-19.4,7.7c-1.4,1.4-1.6,3.6-3.5,4.2c-2,0.7-4.2,1.1-6.2,1.8c-4,1.3-8.3,3.7-9.8,7.9
				c-1,2.7,0.4,3.1-2.4,4.2c-1.9,0.8-3.7,1.7-5.3,2.9c-3,2.3-3.8,5.5-4.2,9.2c0,0.3,0,5.1,0,5.1c-1.4,1.2-2.7,2.6-3.6,4.2
				c-2.2,3.8-1.7,7.9-0.1,11.8c1.7,4.3,3.2,5.9,3.4,10.3c-0.2,2.1,0.8,4.3,1.6,6.2c3.3,8.1,5.2,14.2,15,14.4c2,0,2.9,7.8,3.6,9.8
				c1.8,4.8,6.2,8.2,11.1,9.5c6.6,1.8,17.1-2.2,20.1,5.6c3.4,8.8,13.8,12,22.4,11.3c7-0.6,17.2-5,22.9,1.5c6.6,7.5,17.7,9.4,27,6.9
				c8.5-2.2,14.8-7.4,24-3.9c10.2,3.9,19.6,7.4,30.1,1.7c7.4-4,10.1-9.6,19.7-8c8.5,1.4,16.6,3.2,24.4-1.7
				c5.7-3.6,5.9-11.9,12.7-12.7c6-0.7,11.9,0.7,17.6-2.3c6.9-3.6,8.5-11.4,10-18.4c6.1-0.9,11.3-2.6,13.6-9c1.4-3.1,2.8-6.4,3.3-9.7
				c0.2-1.3,0.1-2.7-0.2-4c1-1.3,2-2.4,2.7-3.9c3.4-7.2,2.6-15.6-4.3-20.3c1.8-6.6-0.2-11.3-6.3-14.8c-3-1.8-4.7-1.5-5.6-4.8
				c-0.9-3.1-2.3-5.5-5-7.1c-3.5-2-7.4-2.4-11.1-3.9c-1.5-3.9-5.3-6.2-9.2-7.5c-3.2-1-6.5-1.2-9.6-2c-3.3-0.9-5.1-3.9-8.5-5.2
				c-3.6-1.3-7.5-1.4-11.3-1.8c-4.1-0.4-7-2.9-10.8-3.9c-4.1-1.1-8.1-0.8-12.3-1.1c-4.2-0.3-7.7-2.4-11.8-3c-3.3-0.4-6.5-0.1-9.8,0
				c-1.5,0.1-3-0.1-4.5-0.3c-0.8,10.1-1.6,19.8-2.2,27.5c8.7,3,14.3,7.7,14.3,13c0,9-15.9,16.2-35.6,16.2s-35.6-7.3-35.6-16.2
				c0-5.5,6-10.3,15.2-13.3c-0.5-7.6-1.3-17.1-2-27C622.6,249.4,620,249.1,617.3,249.1L617.3,249.1z M730.6,284.5
				c5.2,0,10.2,1,14.5,2.8c0.4,0.2,1,0.4,1.6,0.7c5.7,2.9,8.8,7.1,8.8,11.9c0,1-0.2,2.1-0.5,3l-0.4,6.5c-0.1,1-0.1,1.4-0.2,1.9
				c0,0.3-0.1,0.5-0.1,1.2c-0.2,4.7-3.3,8.9-8.5,11.8c-4.4,2.4-9.6,3.7-15.1,3.7c-4.2,0-8.5-0.8-12.2-2.2c-2.8-1.1-5.2-2.5-7.1-4.2
				c0,0.3,0,0.5,0,0.8c0,1-0.2,2-0.4,3l-0.4,6.6c-0.1,1-0.1,1.5-0.2,1.9c0,0.3-0.1,0.5-0.1,1.2c-0.2,4.7-3.3,8.9-8.5,11.8
				c-4.4,2.4-9.6,3.7-15.1,3.7c-4.2,0-8.5-0.8-12.2-2.2c-4.8-1.8-8.3-4.7-10.2-8.1c-0.2-0.3-0.3-0.5-0.4-0.7
				c-0.9-1.6-1.1-2.4-1.2-4.4l-0.1-1.3c0-0.7-0.1-1.3-0.1-2l-0.3-6.5c-0.4-1.4-0.5-2.8-0.4-4.2c0.5-4.8,4.2-8.9,10.3-11.4
				c4.3-1.8,9.3-2.8,14.5-2.8c5.2,0,10.2,1,14.5,2.8c0.4,0.2,1,0.4,1.6,0.7c1.5,0.8,2.9,1.6,4,2.6c0-0.1,0-0.3,0-0.4
				c-0.1-1.1-0.1-2.2-0.2-3.2l-0.3-6.6c-0.4-1.3-0.5-2.7-0.4-4.1c0.5-4.8,4.2-8.9,10.3-11.4C720.4,285.4,725.4,284.5,730.6,284.5
				L730.6,284.5z M730.6,288.9c-4.6,0-9,0.8-12.8,2.4c-4.6,1.9-7.3,4.7-7.6,7.9c0,0.1,0,0.2,0,0.4h0l0,0.3c0,0.3,0,0.7,0.1,1
				L711,311c0,0.5,0,0.9,0.1,1.4c0.1,1.9,0.1,1.5,1.1,3.2c1.7,3,4.9,5,8,6.2c3.3,1.3,7,1.9,10.7,1.9c4.6,0,9.1-1,13-3.1
				c3-1.7,6.1-4.5,6.2-8.1c0.1-1.6,0.2-1.5,0.3-2.8c0,0,0,0,0,0l0.8-8.9h0c0-0.2,0.1-0.5,0.1-0.7c0-4.1-3.8-6.8-6.5-8.1
				c-0.3-0.2-0.7-0.4-1.1-0.5C739.7,289.7,735.2,288.9,730.6,288.9L730.6,288.9z M686.6,311.3c-4.6,0-9,0.8-12.8,2.4
				c-4.5,1.9-7.3,4.7-7.6,7.9c-0.1,0.7,0,1.3,0.1,2l0.8,12.1h0c0.1,1,0.2,1,1,2.4c1.7,3,4.9,5,8,6.2c3.3,1.3,7,1.9,10.7,1.9
				c4.6,0,9.1-1,13-3.1c3-1.7,6.1-4.5,6.2-8.1c0,0,0,0,0-0.1h0l0.1-1.7c0-0.3,0.1-0.5,0.1-1c0,0,0,0,0,0l0.7-8.5
				c0.1-0.4,0.1-0.8,0.1-1.2c0-4.1-3.8-6.8-6.5-8.1c-0.3-0.2-0.7-0.4-1.1-0.5C695.7,312.2,691.3,311.3,686.6,311.3L686.6,311.3z"/>
			<path fill="#FFFFFF" d="M623.7,190.1c2,23.7,6.9,83.2,7.4,96.3c0.3,8.5,8.7,12.2,16.9,12.2c3.9,0,7.5-0.8,10.3-2.4
				c3.6-2,6-5,6.5-8.2c0.5-2.9,6.5-80.1,7.8-98c-7.5,3.2-15.8,5.1-24.5,5.1C639.5,195.2,631.2,193.3,623.7,190.1L623.7,190.1z"/>
			<path fill="#FFFFFF" d="M648.2,75.2c-32.2,0-58.3,26.1-58.3,58.3c0,32.2,26.1,58.3,58.3,58.3c32.2,0,58.3-26.1,58.3-58.3
				C706.4,101.3,680.3,75.2,648.2,75.2z M663.6,88.6C537,360.3,600.3,224.5,663.6,88.6z"/>
		</g>
		<rect x="684.3" y="329.8" fill-rule="evenodd" fill="#FFFFFF" width="0.5" height="2.1"/>
	</g>
</g>
</svg>
