<?xml version="1.0" encoding="utf-8"?>
<!-- Generator: Adobe Illustrator 28.6.0, SVG Export Plug-In . SVG Version: 9.03 Build 54939)  -->
<svg version="1.1" baseProfile="tiny" id="Layer_1" xmlns="http://www.w3.org/2000/svg" xmlns:xlink="http://www.w3.org/1999/xlink"
	 x="0px" y="0px" viewBox="0 0 566.9 154.1" overflow="visible" xml:space="preserve">
<path fill="none" d="M436.8,14.1l-17.3,116.3c-0.1,0.9,0.1,1.9,0.7,2.6s1.4,1.2,2.4,1.3l16,1.4c1.9,0.2,3.7-1.2,3.9-3.1
	c0,0,8.8-63.3,9.4-67.4c1.2,4,20.7,71.1,20.7,71.1c0.5,1.7,2.3,3.2,4.1,3.4l10.7,1.1c1.8,0.2,3.9-0.9,4.8-2.4
	c0,0,34.2-59.3,36.1-62.6c-0.3,3.8-5.6,64.9-5.6,64.9c0,0.1,0,0.2,0,0.3c0,1.8,1.4,3.4,3.2,3.6l19.2,2c0.9,0.1,1.9-0.2,2.6-0.8
	c0.7-0.6,1.2-1.4,1.3-2.4l10.4-116.9c0.1-0.9-0.2-1.9-0.8-2.6c-0.6-0.7-1.5-1.2-2.4-1.2l-18.1-1.6c-1.8-0.2-3.8,1-4.7,2.5
	l-44.7,81.7c0,0,0,0,0,0c0,0,0,0,0,0l-23.9-88.8c-0.5-1.7-2.2-3.3-4-3.4l-19.9-2C438.9,10.9,437.1,12.2,436.8,14.1L436.8,14.1z"/>
<path fill="#FFFFFF" d="M564.3,19c-1.9-2.3-4.6-3.7-7.5-3.9l-18-1.6c-4.8-0.4-9.7,2.2-12,6.4c0,0-24.2,44.2-35.7,65.2
	c-6.2-23-19-70.6-19-70.6c-1.3-4.8-5.6-8.5-10.6-9l-19.9-2c-6-0.6-11.3,3.6-12.2,9.5L412,129.3c-0.4,3,0.4,6,2.2,8.4
	c1.9,2.4,4.6,3.9,7.7,4.1l16,1.4c6,0.5,11.3-3.7,12.1-9.6c0,0,2.3-16.3,4.5-32.4c5.4,18.6,10.8,37.2,10.8,37.2
	c1.4,4.7,5.7,8.3,10.5,8.8l10.7,1.1c4.7,0.5,9.7-2,12.1-6.2c0,0,9.6-16.6,19.1-33.1c-1.3,15.4-2.7,30.9-2.7,30.9c0,0.3,0,0.6,0,0.9
	c0,5.6,4.3,10.5,10,11.1l19.2,2c3,0.3,5.9-0.6,8.2-2.5c2.3-1.9,3.7-4.6,4-7.6l10.4-116.9C567.2,24.2,566.2,21.3,564.3,19L564.3,19z
	 M534.3,24c0.7-1.2,2.3-2.1,3.7-2l5.9,0.5l-6.1,18.3h-12.8L534.3,24z M440.7,12.1l19.9,2c1.4,0.1,2.8,1.3,3.2,2.7l5.5,20.4h-23.1
	h-0.6l-0.2,0.5l-3,9.4h-9.5l4.9-32.7C438,12.9,439.3,11.9,440.7,12.1L440.7,12.1z M431.1,102.8l3.5,1.9l0.2,0.1h0.2h10.4l-1.5,10.5
	l-20.8-2.5l1.5-10L431.1,102.8z M438.7,134.7l-16-1.4c-1.4-0.1-2.3-1.3-2.1-2.7l2.4-16.2l20.8,2.5l-2.2,15.6
	C441.3,133.8,440,134.8,438.7,134.7L438.7,134.7z M452.2,62.7c-0.4-1.3-0.9-1.3-1.1,0.1l-5.6,40.5h-10.4l-3.5-1.9l-0.2-0.1l-0.2,0
	l-6.5,0l7.9-52.8H443h0.6l0.2-0.5l3-9.4h22.9l11,41h-10.8h-0.8v0.8V108h-3.7L452.2,62.7z M545.2,145.5l-9.3-1l0.9-13.3l4.8-0.6
	l0.4-0.1l0.2-0.4l1.2-2.5h5.9l-1.4,15.5C547.8,144.6,546.6,145.6,545.2,145.5z M549.4,126.2H543h-0.5l-0.2,0.4l-1.3,2.5l-5,0.7
	l-0.6,0.1l0,0.6l-1,13.9l-8.4-0.9c-1.4-0.1-2.4-1.4-2.3-2.8l3.4-39.6h10.4h0.8l0-0.8l0.1-24.1l4.3-15.6l12.6,0.1L549.4,126.2z
	 M555.4,59.2l-13.4-0.1l-0.6,0l-0.2,0.6l-4.5,16.3l0,0.1v0.1l-0.1,23.5h-9.5l2.2-25.8c0.1-1.4-0.4-1.5-1-0.3l-37.1,64.4
	c-0.7,1.2-2.4,2.1-3.8,1.9l-10.7-1.1c-1.4-0.1-2.8-1.4-3.2-2.7l-7.7-26.5h4h0.8v-0.8V81.1h10.4l6.6,24.4c0.4,1.3,1.2,1.4,1.9,0.2
	l34.7-63.4h14.1h0.5l0.2-0.5l6.4-19.1l10.6,0.9c1.4,0.1,2.4,1.4,2.3,2.7L555.4,59.2z"/>
<path fill="none" d="M421.9,8.1L421.9,8.1l-18.5,3.7c-1.8,0.4-3.4,2.1-3.6,3.8c0,0-10.3,74.9-10.4,75.8c-0.5-0.8-37.7-67-37.7-67
	c-0.9-1.6-3-2.6-4.8-2.2l-21.3,4.4c-1,0.2-1.7,0.8-2.1,1.6c-0.4,0.8-0.3,1.8,0.2,2.6l61.7,104c0.9,1.6,3,2.5,4.8,2.2l10.8-2
	c1.8-0.3,3.4-2,3.7-3.8l20.3-120c0.2-1-0.1-1.9-0.7-2.5C423.8,8.1,422.9,7.9,421.9,8.1L421.9,8.1z"/>
<path fill="#FFFFFF" d="M430.5,2.4c-2-2-4.9-2.8-7.7-2.3l-23.4,4.7c-3.6,0.7-6.3,3.6-6.8,7.2c0,0-4.4,32-7.7,56
	c-11.9-21.2-27.9-49.6-27.9-49.6c-1.8-3.3-5.6-5-9.2-4.2l-26.2,5.4c-2.7,0.6-5,2.4-6.1,4.9c-1.1,2.5-0.9,5.5,0.5,7.8l64.3,108.4
	c1.8,3.1,5.4,4.7,9,4.1l15.7-3c3.5-0.7,6.3-3.5,6.9-7L433,10C433.5,7.2,432.6,4.4,430.5,2.4L430.5,2.4z M400.8,15.8
	c0.2-1.4,1.5-2.7,2.8-3l7-1.4v5.4l-1.8,1.6l-0.3,0.2v4.2l-1.8,1.9l-0.2,0.2v12.1l-2.4,2h-6.7L400.8,15.8z M341.5,46.6h0.8V36.5h7.1
	l0.2-0.3l1.3-1.8h5.1L379,75.1l-18.6,15.5l-26.1-44L341.5,46.6z M325.8,27.6l21.3-4.4c1.4-0.3,3,0.5,3.7,1.7l4.5,7.9h-5l-0.2,0.3
	l-1.3,1.8h-7.9v10.1h-7.4l-8.8-14.8C323.9,29.1,324.5,27.9,325.8,27.6z M403.8,131.1c-0.2,1.4-1.5,2.7-2.9,3l-10.8,2
	c-1.4,0.3-3.1-0.5-3.8-1.7l-7.6-12.8l15.3-5.6l0.5-0.2v-7.4l3.8-2.9l5.4,0l0.3,0l0.2-0.2l4.6-3.6L403.8,131.1z M406.1,66.7l2-1.9
	l0.2-0.2v-3.9h7.4l-3.5,21H406L406.1,66.7z M424.1,11.1L416,59.1h-9.2v4.8l-2,1.9l-0.2,0.2l0,0.3l0,16l0,0.8h7.4l-2.8,16.3l-5.7,4.5
	l-5.4,0l-0.3,0l-4.5,3.4l-0.3,0.2v7.1l-15,5.6l-16.8-28.3l18.6-15.5l9,15.9c0.7,1.2,1.4,1.1,1.6-0.3l7.1-51.5h7.4l0.2-0.2l2.8-2.4
	l0.3-0.2V25.5l1.8-1.9l0.2-0.2v-4.2l1.8-1.6l0.3-0.2v-6.3l9.9-2C423.4,8.8,424.4,9.7,424.1,11.1L424.1,11.1z"/>
<path fill="#FFFFFF" d="M65.2,95.1c1.6,3.1,2.3,6.7,2.3,10.9c0,4.1-0.9,7.6-2.6,10.6c-1.7,3-3.9,5.4-6.6,7.4
	c-2.7,1.9-5.8,3.4-9.3,4.3c-3.4,0.9-6.9,1.4-10.4,1.4c-7,0-12.8-1.3-17.6-3.9c-4.7-2.6-9-6.5-12.8-11.7l8.1-10.2
	c0.7-0.9,2-1,2.8-0.1c0,0,0.9,1,2.5,2.3c1.6,1.2,3.3,2.3,5.2,3.3c1.9,0.9,3.8,1.7,5.7,2.3s3.7,0.9,5.4,0.9c1.7,0,2.9-0.3,3.8-0.9
	c0.9-0.6,1.3-1.7,1.3-3.4c0-1.4-0.8-2.8-2.3-4.1c-1.6-1.3-3.5-2.6-5.8-4c-2.3-1.4-4.8-2.9-7.5-4.5c-2.7-1.6-5.2-3.5-7.5-5.7
	c-2.3-2.2-4.2-4.7-5.8-7.5c-1.6-2.8-2.3-6.1-2.3-9.8c0-3.6,0.7-6.8,2-9.5c1.4-2.7,3.2-5,5.5-6.9c2.3-1.9,5-3.2,8-4.2
	c3-0.9,6.2-1.4,9.7-1.4c6.1,0,11.5,1.1,16.3,3.3c4.8,2.2,9.4,5.5,13.7,9.9L60.5,74c-0.7,1-1.9,1.2-2.8,0.4c0,0-1.6-1.4-3.5-2.6
	c-1.8-1.2-3.6-2.2-5.3-3c-1.7-0.8-3.4-1.5-4.9-1.9c-1.5-0.4-2.8-0.6-4-0.6c-1.4,0-2.4,0.3-3,1c-0.6,0.7-1,1.6-1,2.6
	c0,1.4,0.8,2.6,2.3,3.8c1.6,1.2,3.5,2.4,5.9,3.6c2.3,1.2,4.9,2.6,7.6,4.2c2.7,1.6,5.2,3.4,7.6,5.6C61.7,89.4,63.6,92,65.2,95.1z
	 M95,90.7c0.9-0.9,1.8-1.7,2.9-2.1c1.1-0.5,2.2-0.7,3.2-0.7c3.2,0,5.5,0.8,7.1,2.4c1.5,1.6,2.2,3.2,2.2,3.2c0.5,1.1,1.8,1.8,3,1.5
	l13.7-3.4c-1.4-6.2-4.3-11.3-8.7-15.1c-4.4-3.8-10.3-5.8-17.7-5.8c-4.5,0-8.6,0.7-12.1,2.1s-6.5,3.4-8.9,6c-2.4,2.6-4.2,5.7-5.5,9.4
	c-1.2,3.7-1.9,7.7-1.9,12.3c0,3.9,0.6,7.6,1.7,11.2s2.9,6.6,5.3,9.3c2.4,2.7,5.4,4.8,9,6.4c3.6,1.6,8,2.4,13,2.4
	c2.9,0,5.7-0.4,8.4-1.3c2.7-0.9,5.2-2.2,7.5-4c2.3-1.8,4.2-4,5.9-6.7c1.7-2.7,3.2-7.5,3.2-7.5c0.3-1.1-0.3-2.4-1.5-2.7l-13.3-3.8
	c-0.2,1.2-0.7,2.3-1.5,3.3c-0.8,1-1.6,1.8-2.5,2.5c-0.9,0.7-1.9,1.3-2.9,1.7s-1.9,0.6-2.7,0.6c-2.9,0-5.3-1.1-7.2-3.4
	C92.9,106,92,103,92,99.3c0-2,0.3-3.6,0.8-5.1C93.4,92.8,94.1,91.6,95,90.7L95,90.7z M189.3,100.3c-0.2-4.7-0.4-9.5-0.6-14.3
	s-0.4-13.5-0.4-13.5c0-1.2-1-2.2-2.2-2.1l-18.6,0.4c0.2,3.6,0.4,6.8,0.6,9.4c0.2,2.6,0.3,5.2,0.5,7.6s0.2,4.9,0.2,7.5
	c0,2.6,0.1,5.6,0.1,9.1c0,2.6-0.9,4.7-2.6,6.3c-1.7,1.5-3.8,2.3-6.2,2.3c-2.6,0-4.5-0.8-5.8-2.3c-1.3-1.5-1.9-3.4-1.9-5.6
	c0-3.9,0.2-7.6,0.6-11.4c0.4-3.8,0.8-7.2,1.1-10.4c0.5-3.6,1.2-8.3,1.2-8.3c0.2-1.2-0.6-2.1-1.8-2.1L134,72.8
	c-0.5,3.8-1,7.6-1.4,11.3c-0.4,3.2-0.7,6.7-1,10.3c-0.3,3.6-0.4,6.9-0.4,9.7c0,4.1,0.5,7.8,1.5,11c1,3.3,2.5,6.1,4.5,8.3
	s4.7,4.1,7.9,5.3c3.2,1.2,7.1,1.9,11.5,1.9c1.3,0,2.6-0.2,4-0.5c1.4-0.3,2.7-0.8,3.9-1.4c1.2-0.6,2.4-1.3,3.5-2.1
	c0.5-0.4,1.3-1.5,2-1.2c0.9,0.3,0.4,2.3,0.4,3c0,1.2,1,2.2,2.2,2.1l17.8-0.4c-0.2-5.6-0.3-10.8-0.5-15.6
	C189.7,109.7,189.5,104.9,189.3,100.3L189.3,100.3z M271.8,81.2c-1.7-2.7-4.1-4.8-7.1-6.3c-3-1.5-6.9-2.3-11.8-2.3
	c-3.6,0-6.7,0.8-9.3,2.4c-0.7,0.4-1.4,0.9-2,1.4c-0.6,0.4-1.2,0.9-1.7,1.4c-0.4,0.4-0.7,0.9-1.3,1c-0.1,0-0.3,0.1-0.5,0
	c-0.5,0-0.7-0.4-0.9-0.8c-0.8-1.1-1.7-2-2.8-2.8c-1.9-1.3-4.3-2-7.1-2c-1.4,0-2.8,0.2-4.1,0.7c-1.3,0.5-2.4,1-3.5,1.8
	c-0.9,0.6-1.6,1.3-2.4,2c-0.4,0.3-0.6,0.8-1.1,0.7c-0.6,0-0.5-0.8-0.5-1.2c0-0.5-0.1-0.9-0.1-1.4c0-0.3-0.1-0.7-0.1-1
	c-0.1-1.2-1.2-2.1-2.4-2.1l-16.3,0.4c0.2,4.6,0.4,9,0.5,13.2c0.1,4.2,0.2,8.5,0.2,12.8c0,4.3,0,8.9,0,13.7c0,4.8-0.1,13.8-0.1,13.8
	c0,1.2,1,2.2,2.2,2.1l15.8-0.3c1.2,0,2.2-1,2.2-2.2l0.6-31c0-1.1,0.3-2.1,0.8-3.2c0.5-1.1,1.8-1.6,3.7-1.6c0.9,0,1.6,0.3,2.2,1
	c0.5,0.7,1,1.6,1.3,2.7c0.3,1.1,0.6,2.4,0.7,3.9c0.1,1.5,0.2,3,0.2,4.6v9.6c0,2.5,0,4.6-0.1,6.5c0,1.9-0.1,3.6-0.2,5.2
	c-0.1,1.6-0.1,3.4-0.1,3.4c0,1.2,0.9,2.2,2.1,2.2l18.5,0.4c-0.2-1.1-0.3-2.5-0.4-4.2c-0.1-1.7-0.2-3.4-0.2-5.1c0-1.7-0.1-3.4-0.1-5
	s-0.1-2.9-0.1-3.8c0-7.2,0.3-12.6,0.9-16.2c0.6-3.5,2.2-5.3,4.8-5.3c1.6,0,2.8,0.7,3.7,2c0.9,1.3,1.3,3.5,1.3,6.6
	c0,2.9-0.4,6.7-1.1,11.2c-0.7,4.6-3,14.4-3,14.4c-0.3,1.2,0.5,2.2,1.7,2.4l18.7,2.3c0.8-4.7,1.5-9.2,2.1-13.6
	c0.6-4.4,0.9-8.6,0.9-12.8c0-4.4-0.3-8.5-1-12.3C274.8,87.1,273.6,83.9,271.8,81.2z M360.9,90.8c-0.6-3.7-1.8-6.9-3.6-9.6
	c-1.7-2.7-4.1-4.8-7.1-6.3c-3-1.5-6.9-2.3-11.8-2.3c-3.6,0-6.7,0.8-9.3,2.4c-0.7,0.4-1.3,0.8-1.9,1.3c-0.6,0.4-1.2,0.9-1.7,1.4
	c-0.4,0.4-1,1.4-1.7,1.2c-0.5-0.1-0.9-0.7-1.2-1.1c-0.7-1-1.6-1.8-2.6-2.5c-1.9-1.3-4.3-2-7.1-2c-1.4,0-2.8,0.2-4.1,0.7
	c-1.3,0.5-2.4,1-3.5,1.8c-1,0.7-1.9,1.5-2.5,2.3c-0.1,0.1-0.2,0.3-0.3,0.4c-0.2,0.2-0.4,0.4-0.7,0.3c-0.3-0.1-0.5-0.5-0.5-0.8
	c-0.1-0.4-0.1-0.9-0.2-1.4c-0.1-0.6-0.1-1.2-0.2-1.8c-0.1-1.2-1.2-2.1-2.4-2.1l-16.3,0.4c0.2,4.6,0.4,9,0.5,13.2
	c0.1,4.2,0.2,8.5,0.2,12.8c0,4.3,0,8.9,0,13.7c0,4.8-0.1,13.8-0.1,13.8c0,1.2,1,2.2,2.2,2.1l15.8-0.3c1.2,0,2.2-1,2.2-2.2l0.6-31
	c0-1.1,0.3-2.1,0.8-3.2c0.5-1.1,1.8-1.6,3.7-1.6c0.9,0,1.6,0.3,2.1,1c0.5,0.7,1,1.6,1.3,2.7s0.6,2.4,0.7,3.9c0.1,1.5,0.2,3,0.2,4.6
	v9.6c0,2.5,0,4.6-0.1,6.5c0,1.8-0.1,3.6-0.2,5.2c-0.1,1.6-0.1,3.4-0.1,3.4c0,1.2,0.9,2.2,2.1,2.2h0c0.6,0,1.2,0,1.8,0
	c1.3,0,2.6,0.1,3.9,0.1c1.6,0,3.2,0.1,4.7,0.1c1.5,0,3,0.1,4.5,0.1c0.9,0,2,0.2,2.9,0c0.8-0.2,0.6-0.8,0.6-1.4
	c0-0.9-0.2-1.8-0.3-2.7c-0.1-1.7-0.2-3.4-0.2-5.1c0-1.7-0.1-3.4-0.1-5c0-1.6-0.1-2.9-0.1-3.8c0-7.2,0.3-12.6,0.9-16.2
	s2.2-5.3,4.8-5.3c1.6,0,2.8,0.7,3.7,2c0.9,1.3,1.3,3.5,1.3,6.6c0,2.9-0.4,6.7-1.1,11.2c-0.7,4.6-3,14.4-3,14.4
	c-0.3,1.2,0.5,2.2,1.7,2.4c0.5,0.1,1,0.1,1.5,0.2c2.6,0.3,5.1,0.6,7.7,1c1.6,0.2,3.2,0.4,4.9,0.6c1,0.1,2,0.3,2.9,0.4
	c0.6,0.1,1.4,0.4,1.9-0.2c0.5-0.5,0.4-1.5,0.5-2.1c0.2-1,0.3-1.9,0.3-2.9c0.1-1.5,0.3-3,0.5-4.4c0.2-1.2,0.3-2.5,0.5-3.7
	c0.6-4.4,0.9-8.6,0.9-12.8C361.8,98.6,361.5,94.5,360.9,90.8L360.9,90.8z"/>
</svg>
