<?xml version="1.0" encoding="utf-8"?>
<!-- Generator: Adobe Illustrator 28.6.0, SVG Export Plug-In . SVG Version: 9.03 Build 54939)  -->
<svg version="1.1" baseProfile="tiny" id="Layer_1" xmlns="http://www.w3.org/2000/svg" xmlns:xlink="http://www.w3.org/1999/xlink"
	 x="0px" y="0px" viewBox="0 0 566.9 77.2" overflow="visible" xml:space="preserve">
<g>
	<g>
		<path fill="#FFFFFF" d="M76.5,26.6L75,25.9c0.1-0.3,0.2-0.7,0.2-1.1c0-1-9.1-6.6-25-6.6c-15.1,0-21.7,3.8-21.7,8.8
			c0,13.1,57.2-6.1,57.2,22.9c0,10.5-12.4,18.7-37.3,18.7c-23.7,0-30.5-6.2-32.7-6.2c-0.6,0-0.9,0.4-1.4,0.6L13,62.8l8.1-13.6
			l1.6,0.6c0,0.3-0.2,0.6-0.2,1.3c0,4.7,12.5,8.1,25,8.1c17.7,0,23.7-4.2,23.7-8.5c0-15.7-56.4,3.8-56.4-22.8c0-13.4,17.2-19,36-19
			c16.9,0,28.7,6.1,29.9,6.1c1.3,0,1.5-0.3,1.7-0.6l1.6,0.4L76.5,26.6z"/>
		<path fill="#FFFFFF" d="M93.2,66.6c2.1,0,2.5-0.6,2.5-2.4V13c0-1.8-0.4-2.4-2.5-2.4V9.5h63c2.3,0,3.3-0.6,3.3-1.8h1.4V21h-1.4
			c0-1.4-1-2.1-3.3-2.1h-46.7v14.2H140c2.3,0,3.3-0.6,3.3-2.1h1.4v13.4h-1.4c0-0.6-0.2-1.1-0.8-1.4c-0.5-0.3-1.4-0.5-2.5-0.5h-30.5
			v15.7h47.6c2.3,0,3.3-0.6,3.3-1.9h1.4v13.1h-1.4c0-1.1-1-1.8-3.3-1.8H93.2V66.6z"/>
		<path fill="#FFFFFF" d="M247.9,37v1.1c-1,0.2-1.8,0.8-1.8,2.6v15.7c0,1.3,0.5,1.8,1.7,2v1.1c-6.1,2.9-21.1,9-37.9,9
			c-22.3,0-41.9-9.1-41.9-29.9s22.9-29.9,43.1-29.9c8,0,15.5,1.5,21.1,3c5.1,1.8,8.9,3.3,9.6,3.3c0.9,0,1.7-0.4,2.1-0.9l1.4,0.5
			l-9.4,13.1l-1.4-0.7c0.1-0.3,0.2-0.8,0.2-1.4c0-2.5-10.5-7.4-23.4-7.4c-16.3,0-29.5,6.6-29.5,20.1c0,14.1,13.2,20.8,28.2,20.8
			c12.2,0,19.4-3.4,22.3-5.2v-6.6h-16.7c-1.9,0-3.1,0.8-3.1,1.9h-1.4V35.1h1.4c0,1.1,1.2,1.9,3.1,1.9H247.9z"/>
		<path fill="#FFFFFF" d="M252.7,67.7v-1.1c1.7-0.1,2.3-0.5,3.7-3l26.5-49.1c0.5-0.8,1.1-1.7,1.1-2.4c0-0.9-0.8-1.3-2-1.4V9.5h21.2
			v1.1c-1.5,0.2-2,0.6-2,1.2c0,0.6,0.4,1.3,0.9,2.1l28.2,49.6c1.4,2.5,1.7,3,3.8,3v1.1h-19.3v-1.1c1.3,0,1.7-0.4,1.7-0.8
			c0-0.9-0.9-2-7.4-13.4h-33.3c-5.6,10.4-7.1,12-7.1,13c0,0.7,0.6,1.1,1.5,1.2v1.1L252.7,67.7L252.7,67.7z M303.3,43.2l-11.7-20.9
			l-11.5,20.9H303.3z"/>
	</g>
	<path fill="#FFFFFF" d="M546.5,77.2H0V0h546.5V77.2z M4.9,72.3h536.6V4.9H4.9V72.3z"/>
	<g>
		<path fill="#FFFFFF" d="M548.2,1.4h3.3v8.8h1.6V1.4h3.3V0h-8.3v1.4H548.2z"/>
		<path fill="#FFFFFF" d="M564.9,0l-3,8.1l-3-8.1h-2.1v10.3h1.6V2.6l2.9,7.7h1.3l2.9-7.7v7.7h1.6V0H564.9z"/>
	</g>
	<path fill="#FFFFFF" d="M350.7,9.5v58.2h186.9V9.5H350.7z M358.7,50.3c-1.6-10.4,32.9-24.2,77.7-31.4c-1,0.3-3,0.8-3,0.8
		s-4.4,1.1-5.6,1.4c-22.9,5.6-38.9,15.7-37.5,24.6c1.4,9.1,20.5,14.1,44.8,12.4c1.4-0.1,6.1-0.3,7.2-0.4
		C397.1,63.8,360.2,60.7,358.7,50.3z M470.7,52.6c-9.9,2.3-22.3,4.2-22.3,4.2v-26l6.4,21.1c0,0,15.2-2.5,26.8-7.3
		c10.1-4.2,16.3-9.5,15.9-15.1c-0.7-9.1-20.1-14-44-12.4c-1.6,0.1-6.9,0.4-7.9,0.4c45-6.2,81.9-3.1,83.5,7.3
		C530.4,33.6,505.7,44.9,470.7,52.6L470.7,52.6z"/>
</g>
</svg>
