<?xml version="1.0" encoding="utf-8"?>
<!-- Generator: Adobe Illustrator 28.6.0, SVG Export Plug-In . SVG Version: 9.03 Build 54939)  -->
<svg version="1.1" baseProfile="tiny" id="Layer_1" xmlns="http://www.w3.org/2000/svg" xmlns:xlink="http://www.w3.org/1999/xlink"
	 x="0px" y="0px" viewBox="0 0 1924.7 277.3" overflow="visible" xml:space="preserve">
<g transform="translate(-4.3835455 -772.49433)">
	<path fill="#FFFFFF" stroke="#FFFFFF" d="M262.1,994.1c0,16.5-5,29.8-15,39.9c-10,10.1-23.5,15.2-40.6,15.2H9.4v-55.2h197.1v-55.2
		H59.7c-16.2,0-29.4-5.1-39.6-15.4C10,913.2,4.9,900,4.9,883.7v-55.6c0-7.8,1.5-15.1,4.5-21.9c3-6.8,7-12.6,12-17.4
		c5-4.9,10.8-8.7,17.4-11.6c6.6-2.8,13.6-4.3,20.9-4.3h183.8v55.2H59.7v55.6h146.8c7.8,0,15.1,1.4,21.9,4.3
		c6.8,2.8,12.6,6.7,17.6,11.6c5,4.9,8.9,10.7,11.8,17.4c2.8,6.8,4.3,14.1,4.3,21.9L262.1,994.1z"/>
	<path fill="#FFFFFF" stroke="#FFFFFF" d="M582.6,1049.2H361.5c-36.8,0-55.2-18.4-55.2-55.2V828.2c0-7.8,1.5-15.1,4.5-21.9
		c3-6.8,7-12.6,12-17.4c5-4.9,10.8-8.7,17.4-11.6c6.6-2.8,13.7-4.3,21.3-4.3h211.8v55.2H361.5v165.9H527v-55.2H417.1v-55.2h165.5
		L582.6,1049.2z"/>
	<path fill="#FFFFFF" stroke="#FFFFFF" d="M790.1,938.9H624.6v-55.2h165.5V938.9z"/>
	<path fill="#FFFFFF" stroke="#FFFFFF" d="M982.3,1049.2H816.8v-55.2h55.6V828.2h-55.6V773h110.7v221.1h54.8V1049.2z"/>
	<g transform="translate(4.3835455 772.49433)">
		<path fill="#FFFFFF" stroke="#FFFFFF" d="M1069.7,0.5c-7.3,0-14.2,1.4-20.9,4.2c-6.6,2.8-12.4,6.7-17.4,11.6
			c-5,4.9-9,10.7-12,17.4c-3,6.8-4.5,14.1-4.5,21.9v165.9c0,36.8,18.2,55.2,54.8,55.2h165.5c36.8,0,55.2-18.4,55.2-55.2V55.7
			c0-7.6-1.4-14.7-4.2-21.5c-2.8-6.8-6.7-12.7-11.8-17.7c-5-5-10.9-8.9-17.7-11.8c-6.8-2.8-13.9-4.2-21.5-4.2H1069.7z M1069.7,55.7
			h165.5v165.9h-165.5V55.7z"/>
		<path fill="#FFFFFF" stroke="#FFFFFF" d="M1386.6,0.5c-7.3,0-14.2,1.4-20.9,4.2c-6.6,2.8-12.4,6.7-17.4,11.6
			c-5,4.9-9,10.7-12,17.4c-3,6.8-4.5,14.1-4.5,21.9v165.9c0,36.8,18.2,55.2,54.8,55.2h165.5c36.8,0,55.2-18.4,55.2-55.2V55.7
			c0-7.6-1.4-14.7-4.2-21.5c-2.8-6.8-6.8-12.7-11.8-17.7c-5-5-10.9-8.9-17.7-11.8c-6.8-2.8-13.9-4.2-21.5-4.2H1386.6z M1386.6,55.7
			h165.5v165.9h-165.5V55.7z"/>
		<path fill="#FFFFFF" stroke="#FFFFFF" d="M1703.5,0.5c-7.3,0-14.3,1.4-20.9,4.2c-6.6,2.8-12.4,6.7-17.4,11.6
			c-5,4.9-9,10.7-12,17.4c-3,6.8-4.5,14.1-4.5,21.9v165.9c0,36.8,18.3,55.2,54.8,55.2H1869c36.8,0,55.2-18.4,55.2-55.2V55.7
			c0-7.6-1.4-14.7-4.2-21.5c-2.8-6.8-6.7-12.7-11.8-17.7c-5-5-10.9-8.9-17.7-11.8c-6.8-2.8-13.9-4.2-21.5-4.2H1703.5z M1703.5,55.7
			H1869v165.9h-165.5V55.7z"/>
	</g>
</g>
</svg>
