<?xml version="1.0" encoding="utf-8"?>
<!-- Generator: Adobe Illustrator 28.6.0, SVG Export Plug-In . SVG Version: 9.03 Build 54939)  -->
<svg version="1.1" baseProfile="tiny" id="Layer_1" xmlns="http://www.w3.org/2000/svg" xmlns:xlink="http://www.w3.org/1999/xlink"
	 x="0px" y="0px" viewBox="0 0 566.9 98.4" overflow="visible" xml:space="preserve">
<g>
	<g>
		<path fill="#FFFFFF" d="M59.3,59.9c0,8.2-13.3,14.8-29.7,14.8C13.3,74.8,0,68.1,0,59.9c0,0,0,0,0,0c0-8.2,13.3-14.8,29.7-14.8
			C46,45.1,59.3,51.7,59.3,59.9L59.3,59.9z"/>
		<path fill="#FFFFFF" d="M110.4,83.4c0,8.2-13.3,14.8-29.7,14.8c-16.4,0-29.7-6.6-29.7-14.8c0,0,0,0,0,0c0-8.2,13.3-14.8,29.7-14.8
			C97.1,68.5,110.4,75.2,110.4,83.4L110.4,83.4z"/>
		<path fill="#FFFFFF" d="M60.4,0.3c-14.9,0-27.1,11.9-27.4,26.8c0.6,0,1.2-0.1,1.9-0.1C50,27,62.3,39.3,62.3,54.5
			c0,0.2,0,0.4,0,0.7c14.3-1,25.6-12.9,25.6-27.4C87.9,12.6,75.6,0.3,60.4,0.3z"/>
		<path fill="#FFFFFF" d="M112.4,24.3c-15.2,0-27.5,12.3-27.5,27.5c0,0.3,0,0.7,0,1c0.4,0,0.7,0,1.1,0c14.8,0,26.9,11.8,27.4,26.5
			c14.7-0.6,26.4-12.6,26.4-27.4C139.9,36.6,127.6,24.3,112.4,24.3z"/>
	</g>
	<path fill="#FFFFFF" d="M186.9,0c-3.8,0-7.4,3.1-8.1,6.9V7v0.1v0.1l-0.1,0.1v0.1v0.1l-0.1,0.1v0.1l-0.1,0.1V8l-0.1,0.1v0.2
		l-0.1,0.2l-0.1,0.2l-0.1,0.4l-0.1,0.5l-0.1,0.5l-0.1,0.5l-0.1,0.5l-0.1,0.5l-0.1,0.6l-0.1,0.5l-0.2,1.2l-0.1,0.6l-0.1,0.5l-0.1,0.5
		l-0.1,0.5l-0.1,0.5l-0.1,0.5l-0.1,0.5l-0.1,0.4l-0.1,0.5V19l-0.1,0.1v0.2v0.1l-0.1,0.2v0.1v0.1l-0.1,0.1v0.1v0.1
		c-0.1,1.7,0.2,4,0.7,4.4c0.7,3.7,13,20.8,12.6,23.4c-0.3,2.6-1.8,10.3-1.8,10.3c-0.4,2.6-2.2,4.7-4.8,4.7c-2.6,0-4.4-2.1-3.9-4.7
		l2.3-12.7h-9.2L169,63.2c-0.6,3.6,1.8,6.4,5.4,6.4h13.1c3.6,0,7.1-2.8,7.7-6.4c0,0,3.4-16.5,3.4-17.7c0-1.2-0.3-1.3-0.3-1.3
		c0-1.3-10.9-19.4-12.1-20.1c-0.5-0.3-0.9-2.1-0.9-3.1c0-1.1,1.4-8.3,1.4-8.3c0.4-2.6,2.9-4.7,5.5-4.7c2.6,0,3.7,2.1,3.2,4.7
		l-2,11.4h9.2l3.2-17.2c0.7-3.8-1.7-6.9-5.5-6.9L186.9,0z M212.1,0l-11,63.2c-0.6,3.6,1.8,6.4,5.4,6.4h13.1c3.6,0,7.1-2.8,7.8-6.4
		L239.2,0h-8.2l-11.2,61.4c-0.2,0.9-1,1.6-1.9,1.6h-6.5c-0.9,0-1.5-0.7-1.4-1.6L220.9,0H212.1z M243.6,0l-13.2,69.6h8.8l6-31.5h11.2
		c3.6,0,7.1-2.9,7.7-6.4l4.8-24.7c0.7-3.8-1.7-6.9-5.5-6.9h-11L243.6,0z M274.9,0l-13.7,69.6h19.7l1.4-8.6h-9.7l4-23.5h9.7l1.4-7.3
		h-9.7l4.3-21.6h9.7l1.4-8.6L274.9,0z M298.5,0l-13.2,69.6h8.8l6-31.5h6.2c0.8,0.8,0.9,2.2,1,2.9c0.2,1,0.3,2.3,0.2,3.4
		c-0.1,1-4.8,25.3-4.8,25.3h8.8c0,0,4.9-26.4,4.9-26.9c0-0.4,0-1.8-0.5-2.5c-0.3-0.5-0.9-1.6-1.5-2c-1.2-0.8-2.6-1.3-2.6-1.3h-0.6
		c2.5-1,7.2-2.6,7.7-5.3l4.8-24.7c0.7-3.8-1.7-6.9-5.5-6.9L298.5,0z M345.4,0l-13.2,69.6h10.1l8.1-40.3l3.2,40.3h8.8L375.6,0h-10.1
		l-6.9,36.4L354.2,0H345.4z M380.2,0L367,69.6h8.8L389,0H380.2z M393.6,0l-13.2,69.6h10.1l8.2-40.3l3.2,40.3h8.8L423.8,0h-10.1
		l-6.8,36.4L402.4,0H393.6z M427.5,0l-1.6,8.6h5.5l-10.8,61h10l11-61h5.3l1.4-8.6H427.5z M451.6,0L438,69.6h19.7L459,61h-9.7l4-23.5
		h9.7l1.4-7.3h-9.7L459,8.6h9.7l1.4-8.6L451.6,0z M473.9,0l-13.2,69.6h10.1l8.2-40.3l3.2,40.3h8.8L504.2,0h-10.1l-6.8,36.4L482.7,0
		H473.9z M508.8,0l-13.2,69.6h20c3.6,0,7.1-2.8,7.8-6.4L534,6.9c0.7-3.8-1.7-6.9-5.5-6.9L508.8,0z M546.4,0c-3.8,0-7.3,3.1-8,6.9
		l-9.8,56.2c-0.6,3.6,1.7,6.4,5.3,6.4h14.5c3.6,0,7.1-2.8,7.8-6.4l10.6-56.2c0.7-3.8-1.7-6.9-5.5-6.9L546.4,0z M516.2,8h4
		c2.6,0,4.3,2.1,3.9,4.7l-8.6,45.6c-0.5,2.6-3,4.7-5.5,4.7h-4L516.2,8z M551.5,8h0.3c2.6,0,4.3,2.1,3.8,4.7l-8.2,45.6
		c-0.4,2.6-2.8,4.7-5.4,4.7c-2.6,0-3.7-2.1-3.2-4.7l8.2-45.6l0.1-0.2l0.1-0.2l0.1-0.3l0.1-0.2l0.1-0.3l0.1-0.2l0.1-0.2l0.1-0.2
		l0.1-0.2l0.1-0.2l0.1-0.2l0.1-0.2l0.1-0.1l0.1-0.2l0.1-0.2l0.2-0.1l0.1-0.1l0.1-0.1l0.2-0.1l0.2-0.1l0.1-0.1l0.2-0.1l0.2-0.1
		l0.2-0.1l0.1-0.1l0.3-0.1l0.2-0.1h0.2l0.2-0.1h0.3L551.5,8z M252,8.3h4.2c0.9,0,2.9,2.1,2.7,3.1l-3.6,17.2
		c-0.2,0.9-1.4,2.9-2.3,2.9H248h-0.1h-0.1l-0.1-0.1h-0.1h-0.1h-0.1h-0.1v-0.1h-0.1h-0.1l-0.1-0.1h-0.1l-0.1-0.1l-0.1-0.1H247v-0.1
		L247,31l-0.1-0.1v-0.1l-0.1-0.1l-0.1-0.1v-0.1v-0.1l-0.1-0.1v-0.1v-0.1l-0.1-0.1v-0.1c0-0.1,0-0.3,0-0.4l4.1-21
		C251.1,8.5,251.6,8.3,252,8.3L252,8.3z M306.6,8.3L306.6,8.3h0.1h0.1h0.1h4c0.9,0,2.9,2.1,2.7,3.1L310,28.5c-0.2,0.9-2.4,3-3.3,3
		h-3.8c-0.8,0-1.3-0.5-1.4-1.2c0-0.1,0-0.3,0-0.4l4-21l0.1-0.1l0.1-0.1l0.1-0.1h0.1l0.1-0.1l0.1-0.1h0.1l0.1-0.1h0.1l0.1-0.1h0.1
		L306.6,8.3L306.6,8.3L306.6,8.3L306.6,8.3z M167.4,75.6v22.8h391V75.6L167.4,75.6z M454.9,78L454.9,78h0.1h0.1h0.1h0.1h3
		c0.8,0,1.4,0.7,1.2,1.5l-0.8,3.8h-1.8l0.4-2.5c0.1-0.6-0.2-1-0.8-1c-0.6,0-1.1,0.5-1.2,1l-0.3,1.8c-0.1,0.1,0.1,0.6,0.2,0.7
		c0.3,0.1,2.7,4.2,2.7,4.5c0.1,0.1,0.1,0.2,0.1,0.3c-0.1,0.5-0.8,3.9-0.8,3.9c-0.1,0.8-0.9,1.4-1.7,1.4h-2.9c-0.8,0-1.3-0.7-1.2-1.4
		l0.7-3.9h2l-0.5,2.8c-0.1,0.6,0.2,1.1,0.8,1.1c0.6,0,1.1-0.5,1.2-1.1l0.4-2.3c-0.4-0.9-2.8-4.4-2.9-5.2c-0.1-0.1-0.2-0.6-0.1-1
		c0-0.4,0.5-2.9,0.5-2.9h0.1v-0.1v-0.1v-0.1l0.1-0.1v-0.1l0.1-0.1V79l0.1-0.1v-0.1l0.1-0.1l0.1-0.1v-0.1h0.1l0.1-0.1l0.1-0.1
		l0.1-0.1v-0.1h0.1l0.1-0.1l0.1-0.1h0.1l0.1-0.1h0.1l0.1-0.1h0.1L454.9,78L454.9,78z M470.6,78h2.5l0.3,5.8l3.1-5.8h2.5l-5.1,8.9
		l-1.2,6.5h-2.2l1.1-7L470.6,78z M493,78L493,78h0.1h0.1h0.1h0.1h3c0.8,0,1.4,0.7,1.2,1.5l-0.8,3.8H495l0.4-2.5c0.1-0.6-0.2-1-0.8-1
		c-0.6,0-1.1,0.5-1.2,1l-0.3,1.8c-0.1,0.1,0.1,0.6,0.2,0.7c0.2,0.1,2.7,4.2,2.7,4.5C496,88,496,88,496,88.1
		c-0.1,0.5-0.7,3.9-0.7,3.9c-0.1,0.8-0.9,1.4-1.7,1.4h-2.9c-0.8,0-1.3-0.7-1.2-1.4l0.7-3.9h2l-0.5,2.8c-0.1,0.6,0.3,1.1,0.8,1.1
		c0.6,0,1.1-0.5,1.2-1.1l0.4-2.3c-0.4-0.9-2.8-4.4-2.9-5.2c-0.1-0.1-0.1-0.6-0.1-1c0-0.4,0.5-2.9,0.5-2.9l0.1-0.1v-0.1v-0.1l0.1-0.1
		v-0.1l0.1-0.1V79l0.1-0.1v-0.1l0.1-0.1l0.1-0.1v-0.1h0.1l0.1-0.1l0.1-0.1l0.1-0.1l0.1-0.1l0.1-0.1l0.1-0.1h0.1l0.1-0.1h0.1l0.1-0.1
		h0.1L493,78L493,78z M509,78h4.6l-0.3,1.9h-1.2l-2.4,13.6h-2.3l2.4-13.6h-1.2L509,78z M526.9,78h4.1l-0.3,1.9h-2.1l-1,4.9h2.2
		l-0.3,1.6h-2.1l-0.9,5.2h2.1l-0.3,1.9h-4.4L526.9,78z M543.9,78h2.5l0.4,8.9l3.9-8.8l2.5-0.1l-2.6,15.4h-1.9l1.2-8.2l-3.4,8.2h-1.4
		l-0.4-8.4l-1.5,8.4h-2.3L543.9,78z M175.9,78.6h4l-0.3,1.9h-2.2l-0.9,4.8h2.1l-0.3,1.6h-2.2l-0.8,5.2h2.1l-0.3,1.9h-4.4L175.9,78.6
		z M194.8,78.6h1.9l1,8.1l1.5-8.1h2.3l-2.9,15.5h-1.9l-0.8-9l-1.8,9h-2.3L194.8,78.6z M215.4,78.6h4.5l-0.3,1.9h-1.2L216,94.1h-2.2
		l2.4-13.6H215L215.4,78.6z M235.3,78.6h4.1l-0.3,1.9H237l-1,4.8h2.1l-0.3,1.6h-2.1l-0.9,5.2h2.1l-0.3,1.9h-4.4L235.3,78.6z
		 M254.6,78.6h4.4c0.8,0,1.3,0.7,1.2,1.6l-1,5.5c-0.1,0.6-1.2,1.1-1.7,1.3h0.1h0.1h0.1V87h0.1h0.1h0.1h0.1l0.1,0.1h0.1h0.1h0.1v0.1
		h0.1h0.1v0.1h0.1c0.1,0.2,0.1,0.7,0.1,0.8c0,0.1-1.1,6.1-1.1,6.1h-2c0,0,1.1-5.4,1.1-5.6c0-0.2,0-0.5-0.1-0.8c0-0.2,0-0.4-0.2-0.6
		H255l-1.3,7h-2L254.6,78.6z M274.2,78.6h4.6l-0.3,1.9h-1.2l-2.5,13.6h-2.2l2.4-13.6h-1.2L274.2,78.6z M297,78.6h2.6l-0.8,15.5h-2.6
		l0.3-3.6H295l-1.3,3.6h-2.3L297,78.6z M315.3,78.6h2l-2.9,15.5h-1.9L315.3,78.6z M332.9,78.6h1.9l1,8.1l1.5-8.1h2.2l-2.9,15.5h-2
		l-0.7-9l-1.8,9H330L332.9,78.6z M355.6,78.6h2.5l0.4,9l3.9-8.9h2.5l-2.6,15.4h-1.9l1.2-8.2l-3.4,8.2h-1.4l-0.4-8.4l-1.5,8.4h-2.2
		L355.6,78.6z M380.5,78.6h4l-0.3,1.9h-2.2l-0.9,4.8h2.1l-0.3,1.6h-2.2l-0.9,5.2h2.2l-0.3,1.9h-4.3L380.5,78.6z M400.3,78.6h1.9
		l1,8.1l1.5-8.1h2.2l-2.9,15.5h-1.9l-0.8-9l-1.8,9h-2.3L400.3,78.6z M420.7,78.6h4.6l-0.3,1.9h-1.2l-2.4,13.6h-2.2l2.4-13.6h-1.2
		L420.7,78.6z M256.5,80.4c-0.1,0-0.2,0.1-0.3,0.1l-0.9,4.7v0.1c0,0.1,0.1,0.3,0.3,0.3h0.8c0.2,0,0.7-0.4,0.8-0.6l0.8-3.8
		c0-0.2-0.3-0.7-0.5-0.7L256.5,80.4L256.5,80.4z M297,85.1l-1.4,3.9h1.1L297,85.1z"/>
</g>
</svg>
