<?xml version="1.0" encoding="utf-8"?>
<!-- Generator: Adobe Illustrator 28.6.0, SVG Export Plug-In . SVG Version: 9.03 Build 54939)  -->
<svg version="1.1" baseProfile="tiny" id="Layer_1" xmlns="http://www.w3.org/2000/svg" xmlns:xlink="http://www.w3.org/1999/xlink"
	 x="0px" y="0px" viewBox="0 0 621.3 151.2" overflow="visible" xml:space="preserve">
<path fill="#FFFFFF" d="M87,139.2h19.6c18,0,32.6-14.6,32.6-32.6v-62c0-18-14.6-32.6-32.6-32.6H86.9c-0.5,0-0.8,0.4-0.8,0.8v125.5
	C86.1,138.8,86.5,139.2,87,139.2L87,139.2z M111.2,69.1c7.1,0,12.9,5.8,12.9,12.9s-5.8,12.9-12.9,12.9S98.3,89.1,98.3,82
	C98.4,74.9,104.1,69.1,111.2,69.1z M31.8,50.2c0,6.6,5.4,12,12,12s12-5.4,12-12s-5.4-12-12-12C37.1,38.2,31.8,43.5,31.8,50.2z
	 M72.4,12H44.6C26.6,12,12,26.6,12,44.6v62c0,18,14.6,32.6,32.6,32.6h27.8c0.5,0,0.9-0.4,0.9-0.9V12.9C73.3,12.4,72.9,12,72.4,12z
	 M63.1,129H44.6c-6,0-11.6-2.3-15.8-6.6c-4.2-4.2-6.6-9.8-6.6-15.8v-62c0-6,2.3-11.6,6.6-15.8c4.2-4.2,9.8-6.6,15.8-6.6h18.5V129z
	 M342.1,136.7h15.3V68.2h-15.3V136.7z M262.7,25.2l18,24.2h7.1V13.1h-7.3v24l-17.8-23.8h-7.3v36.3h7.3L262.7,25.2z M344.4,13.1
	h-30.8v7.8h11.6v28.5h7.8V20.9h11.4V13.1z M297.1,117.7l-14.6-49.8h-12.1L256,117.5l-13.2-49.6H228l19.4,68.5h16.4l12.8-45.2
	l12.8,45.2h16.4l19.4-68.5h-14.8L297.1,117.7z M227.9,13.1h-8v36.3h8V13.1z M167.2,25.2l18,24.2h7.1V13.1H185v24l-17.8-23.8h-7.3
	v36.3h7.3V25.2z M188.7,95.1h-0.5c-8.4-1.4-15.5-2.7-16.2-7.5c0-0.7,0-2.3,1.1-3.9c2.3-2.7,7.5-3.9,15.3-3.9c8.9,0,17.8,3.4,21,4.8
	l4.8-11.9c-3.4-1.4-14.4-5.3-26.5-5.3c-14.8,0-30.6,7.3-30.6,20.6c0,10.7,7.5,16.4,27.2,19.9c13.9,2.3,21.5,3.7,21.2,9.6
	c-0.2,3.2-2.7,8.7-18.3,8.7c-12.6,0-21.5-4.6-24.4-6.4l-6.4,11.6c3.4,1.8,15.1,7.3,29.9,7.3c21.7,0,33.3-7.5,33.3-21.9
	C219.9,106.5,214.9,99.7,188.7,95.1z M399.2,42.8h-20.8v-8.4h19.2v-6.6h-19.2V20h20.8v-6.6h-28.3v36.3h28.3V42.8z M569.1,12
	c-10.7,0-19.4,8.7-19.4,19.4s8.7,19.4,19.4,19.4s19.4-8.7,19.4-19.4C588.3,20.7,579.6,12,569.1,12z M569.1,42.6
	c-6.2,0-11.2-5-11.2-11.2s5-11.2,11.2-11.2s11.2,5,11.2,11.2S575.3,42.6,569.1,42.6z M571.4,95.1h-32V68.2h-14.2v68.5h14.2v-27.4h32
	v27.4h14.2V68.2h-14.2V95.1z M591.3,129.6h3v7.1h1.6v-7.1h2.7V128h-7.3V129.6z M607,127.8l-2.3,6.4l-2.3-6.4h-2.5v8.7h1.6v-6.6
	l2.3,6.6h1.6l2.3-6.6v6.6h1.6v-8.7H607z M479.8,81.2c7.8,0,14.8,4.1,18.7,10.7l11.2-9.6c-6.9-10-18-16.2-30.4-16.2
	c-20.1,0-36.5,16.4-36.5,36.5s16.4,36.5,36.5,36.5c12.3,0,23.5-5.9,30.4-16.2l-11.2-9.6c-3.9,6.4-11,10.7-18.7,10.7
	c-11.9,0-21.7-9.6-21.7-21.2S467.7,81.2,479.8,81.2L479.8,81.2z M374.1,82.6H396v53.9h14.8V82.6h21.5V67.9h-58v14.6L374.1,82.6
	L374.1,82.6z M461.8,49.5V13.1h-7.3v24l-17.8-23.8h-7.3v36.3h7.3V25.5l18,24.2h7.1L461.8,49.5L461.8,49.5z M507.5,13.1h-15.1v36.3
	h15.1c10.3,0,18.7-8.2,18.7-18C526.2,21.4,517.7,13.1,507.5,13.1z M507.9,41.9h-8v-21h8c5.7,0,10.5,4.8,10.5,10.5
	S513.6,41.9,507.9,41.9L507.9,41.9z"/>
</svg>
