<?xml version="1.0" encoding="utf-8"?>
<!-- Generator: Adobe Illustrator 28.6.0, SVG Export Plug-In . SVG Version: 9.03 Build 54939)  -->
<svg version="1.1" baseProfile="tiny" id="Layer_1" xmlns="http://www.w3.org/2000/svg" xmlns:xlink="http://www.w3.org/1999/xlink"
	 x="0px" y="0px" viewBox="0 0 566.9 121.8" overflow="visible" xml:space="preserve">
<g>
	<path fill="#FFFFFF" d="M0,0h28.1v8.3h-8.2v112.2H9.9V8.3H0V0z"/>
	<path fill="#FFFFFF" d="M53.5,112.2h11V33.6h9.6v78.6c0,5.1-4.6,8.7-9.4,8.7H53.5c-5,0-9.5-4.1-9.5-8.8V33.6h9.5V112.2z"/>
	<path fill="#FFFFFF" d="M259.7,52.8h14.6V121h-20.6c-4.4,0-9.8-3.4-9.8-8.5V9.5c0-4.3,4.5-8.9,9.6-8.9h11.3c5,0,9.5,4.6,9.5,8.8
		v24.4h-9.9V9.7h-11.2v102.9h11.5V61.2h-5V52.8z"/>
	<path fill="#FFFFFF" d="M401.3,79.2v41.3H392V41.3c0-3.6,3.6-7.5,8-7.5h15.2v7.6h-14v29.2h11.6v8.5L401.3,79.2z"/>
	<path fill="#FFFFFF" d="M434,33.9h9.7v31.5l5.5,5.5l5.4-5.4V33.9h9.6v30c0,3.7-9.5,13.3-9.5,13.3s9.6,9.6,9.6,13.5v29.9h-9V89.5
		l-5.8-5.9l-5.8,5.8v31.2H434V90.8c0-3.7,10.2-13.7,10.2-13.7S434,67.6,434,63.7V33.9z"/>
	<path fill="#FFFFFF" d="M115.6,79.3c3.3,0,7.6-3.9,7.6-9.1V41.8c0-4.1-4.7-7.9-10-7.9H93.5v86.9h9.1V80h3.4l10.1,40.7h8.9
		L115.6,79.3z M113.8,70.9h-10.9V42.3h10.9V70.9z"/>
	<path fill="#FFFFFF" d="M316.5,79.1c3.3,0,7.6-3.9,7.6-9.1V41.6c0-4.1-4.7-7.9-10-7.9h-19.7v86.9h9.1V79.8h3.4l10.1,40.7h8.9
		L316.5,79.1z M314.5,70.5h-10.9V42h10.9V70.5z"/>
	<path fill="#FFFFFF" d="M171.7,81.4c0-3.9-4.1-6.4-4.1-6.4s4.1-2.7,4.1-6.4V42.2c0-5-4.4-8.3-8.9-8.3h-20.7v86.7h20.7
		c4.2,0,8.9-2.6,8.9-8.3C171.7,112.4,171.8,85.3,171.7,81.4z M162.4,112.1h-10.9V79.8h10.9V112.1z M162.4,70.8h-10.9V42.3h10.9V70.8
		z"/>
	<path fill="#FFFFFF" d="M211.4,33.3h-5.5h-5.3c-5.4,0-9.4,4.6-9.4,8.2v70.4c0,4.6,5.1,8.7,9.4,8.7h11.7c4.6,0,9.2-4.7,9.2-8.5V41.2
		C221.5,38,217.1,33.3,211.4,33.3z M211.7,111.6h-10.5V41.8h10.5V111.6z"/>
	<path fill="#FFFFFF" d="M363.7,33.9h-12c-5.4,0-8.6,4.4-8.6,7.9v78.6h9.1V79.2h11.5v41.3h9.1V42.3
		C372.8,37.1,369.2,33.9,363.7,33.9L363.7,33.9z M363.4,70.6h-10.9v-28h10.9V70.6z"/>
	<g>
		<path fill="#FFFFFF" d="M518.9,79.9H547v10.5h-28.1V79.9z"/>
		<path fill="#FFFFFF" d="M522.4,32.7c-24.6,0-44.6,19.9-44.6,44.6s19.9,44.6,44.6,44.6c24.6,0,44.6-19.9,44.6-44.6
			C566.9,52.6,547,32.7,522.4,32.7z M507.2,95.5h-14.1v-4.9h4.6V64.4h-4.5v-5.1h9.6v31.2h4.5L507.2,95.5z M551.9,68.8h-4.5v-4.5
			h-28.7v10.9h30.6l2.6,2.6v14.4l-3.2,3.2h-31.3l-3.2-3.2V62.5l3-3h32.1l2.8,2.8V68.8z"/>
	</g>
</g>
</svg>
