<?xml version="1.0" encoding="utf-8"?>
<!-- Generator: Adobe Illustrator 28.6.0, SVG Export Plug-In . SVG Version: 9.03 Build 54939)  -->
<svg version="1.1" baseProfile="tiny" id="Layer_1" xmlns="http://www.w3.org/2000/svg" xmlns:xlink="http://www.w3.org/1999/xlink"
	 x="0px" y="0px" viewBox="0 0 576.4 79.3" overflow="visible" xml:space="preserve">
<g transform="translate(-75.679683 -200.09862)">
	<path fill="#FFFFFF" stroke="#FFFFFF" d="M129.3,258l-11.2,20.9l-41.9-78.3h22.4L129.3,258z"/>
	<path fill="#FFFFFF" stroke="#FFFFFF" d="M120.9,231.9l16.8-31.3H160l-28,52.2L120.9,231.9z"/>
	<path fill="#FFFFFF" stroke="#FFFFFF" d="M165.7,200.6h19.6l-0.1,78.3h-19.6L165.7,200.6z"/>
	<path fill="#FFFFFF" stroke="#FFFFFF" d="M193.7,200.6h19.6l-0.1,78.3h-19.6L193.7,200.6z"/>
	<path fill="#FFFFFF" stroke="#FFFFFF" d="M218.8,220.2v-19.6h8.4c10.8,0,20,3.8,27.7,11.5c7.6,7.6,11.5,16.9,11.5,27.7
		c0,10.8-3.8,20-11.5,27.7c-7.6,7.6-16.9,11.5-27.7,11.5h-8.4v-19.6h8.4c5.4,0,10-1.9,13.8-5.7c3.8-3.8,5.7-8.4,5.7-13.8
		c0-5.4-1.9-10-5.7-13.8c-3.8-3.8-8.4-5.7-13.8-5.7L218.8,220.2z"/>
	<path fill="#FFFFFF" stroke="#FFFFFF" d="M274.9,200.6h19.6l-0.1,78.3h-19.6L274.9,200.6z"/>
	<path fill="#FFFFFF" stroke="#FFFFFF" d="M300,200.6h30.7v19.6H300V200.6z"/>
	<path fill="#FFFFFF" stroke="#FFFFFF" d="M300,259.3h30.7v19.6H300V259.3z"/>
	<path fill="#FFFFFF" stroke="#FFFFFF" d="M300,229.9h30.7v19.6H300V229.9z"/>
	<path fill="#FFFFFF" stroke="#FFFFFF" d="M397.8,242.5h19.7c-0.6,9.6-4.4,17.9-11.4,24.9c-7.6,7.6-16.9,11.5-27.7,11.5
		c-10.8,0-20-3.8-27.7-11.5c-7-7-10.8-15.3-11.3-24.9H359c0.6,4.2,2.4,7.9,5.5,11c3.8,3.8,8.4,5.8,13.8,5.8c5.4,0,10-1.9,13.9-5.8
		C395.4,250.4,397.2,246.7,397.8,242.5z"/>
	<path fill="#FFFFFF" stroke="#FFFFFF" d="M359,236.9h-19.7c0.6-9.6,4.4-17.9,11.3-24.9c7.6-7.6,16.9-11.5,27.7-11.5
		c10.8,0,20,3.8,27.7,11.5c7,7,10.8,15.3,11.4,24.9h-19.7c-0.6-4.2-2.4-7.9-5.5-11.1c-3.8-3.8-8.5-5.7-13.9-5.7
		c-5.4,0-10,1.9-13.8,5.7C361.4,229,359.6,232.7,359,236.9z"/>
	<path fill="#FFFFFF" stroke="#FFFFFF" d="M426,200.6h19.6v78.3H426V200.6z"/>
	<path fill="#FFFFFF" stroke="#FFFFFF" d="M451.2,220.2v-19.6h10.5c6.7,0,12.5,2.4,17.3,7.2c4.8,4.8,7.2,10.5,7.2,17.3
		c0,6.8-2.4,12.6-7.2,17.3c-4.8,4.8-10.5,7.2-17.3,7.2h-10.5v-19.6h10.5c1.3,0,2.5-0.5,3.4-1.4c1-1,1.4-2.1,1.4-3.5
		c0-1.3-0.5-2.5-1.4-3.4c-1-1-2.1-1.4-3.4-1.4L451.2,220.2z"/>
	<path fill="#FFFFFF" stroke="#FFFFFF" d="M529.4,247.6l-16.8,31.3h-22.4l28-52.2L529.4,247.6z"/>
	<path fill="#FFFFFF" stroke="#FFFFFF" d="M537.6,252.3L521,221.4l11.2-20.9l41.9,78.3h-22.4l-3.7-7h-26l10.5-19.6L537.6,252.3z"/>
	<path fill="#FFFFFF" stroke="#FFFFFF" d="M616.2,259.1v19.6c-9.6-0.6-17.9-4.4-24.9-11.3c-7.6-7.6-11.5-16.9-11.5-27.7
		c0-10.8,3.8-20,11.5-27.7c7-7,15.3-10.8,24.9-11.3v19.6c-4.2,0.6-7.9,2.4-11,5.5c-3.8,3.8-5.8,8.5-5.8,13.9c0,5.4,1.9,10,5.8,13.8
		C608.3,256.7,612,258.6,616.2,259.1z"/>
	<path fill="#FFFFFF" stroke="#FFFFFF" d="M635.3,228.8c-0.7-1-1.5-2-2.5-3c-3.2-3.1-6.9-5-11.1-5.5v-19.6
		c9.6,0.6,17.9,4.4,24.9,11.3c1.9,1.9,3.5,3.8,4.9,5.9L635.3,228.8z"/>
	<path fill="#FFFFFF" stroke="#FFFFFF" d="M651.6,261.5c-1.4,2.1-3.1,4.1-4.9,5.9c-7,7-15.3,10.8-24.9,11.3v-19.6
		c4.2-0.6,7.9-2.4,11.1-5.6c0.9-0.9,1.8-1.9,2.5-2.9L651.6,261.5z"/>
</g>
</svg>
