<?xml version="1.0" encoding="utf-8"?>
<!-- Generator: Adobe Illustrator 28.6.0, SVG Export Plug-In . SVG Version: 9.03 Build 54939)  -->
<svg version="1.1" baseProfile="tiny" id="Layer_1" xmlns="http://www.w3.org/2000/svg" xmlns:xlink="http://www.w3.org/1999/xlink"
	 x="0px" y="0px" viewBox="0 0 566.9 142.6" overflow="visible" xml:space="preserve">
<g>
	<path fill="#FFFFFF" d="M0,0l29.7,142.5L59.3,0h-16L29.7,80.1L16,0L0,0z"/>
	<path fill="#FFFFFF" d="M65.9,0h16v142.5h-16L65.9,0z"/>
	<path fill="#FFFFFF" d="M96.2,0v142.6h16V68.9l22.3,73.7h14.8l-17.8-67.4c9.9-5.9,12.8-13.7,12.8-13.7V16.2
		C137.7,1.6,126.4,0,126.4,0L96.2,0z M112.2,14.5h16V64h-16V14.5z"/>
	<path fill="#FFFFFF" d="M149.2,0h47.9v14.5h-16v128.1h-16v-128h-15.9V0z"/>
	<path fill="#FFFFFF" d="M285.7,0l-30.9,142.4v0.1h15.9l3.4-19.2h22.4l3.2,19.2h16L285.7,0z M285.7,61.4l7.3,49.1h-15.8L285.7,61.4z
		"/>
	<path fill="#FFFFFF" d="M322,0h16v128h23.9v14.5H322L322,0z"/>
	<path fill="#FFFFFF" d="M493.1,0h14.6l14.9,61.4L536.3,0h16.2L530,83.9v58.7h-16V83.9L493.1,0z"/>
	<path fill="#FFFFFF" d="M464.4,0c-18.2,0-24,16.1-24,16.1c0.1,0.2,0,107.2,0,110.2c2.4,17.3,24,16.2,24,16.2l0,0
		c24,0,24-16.2,24-16.2V16.2C482.2-0.8,464.4,0,464.4,0L464.4,0z M456.4,16.2h16V128h-16V16.2z"/>
	<path fill="#FFFFFF" d="M203.4,0h16.2v126.4h16.2V0h15.9v126.4c0,0-5.2,16.2-23.3,16.2s-24.8-16.2-24.8-16.2V0z"/>
	<path fill="#FFFFFF" d="M379.6,0v142.6h32.2c14.9-3.9,15.9-14.5,15.9-14.5s0-38.1,0-47.9c-1.1-6.2-6.2-6.4-6.2-6.4s0-1.7,0-3.1
		c5.6-0.4,6.3-6.6,6.3-6.6s0-38,0-47.9C425.2,4.5,411.8,0,411.8,0H379.6z M395.6,16.3h16.1V64h-16.1V16.3z M395.6,78.5h16.2V128
		h-16.2V78.5z"/>
	<path fill="#FFFFFF" d="M539.7,128.1h11.1v1.7h-4.7v12.8h-1.6v-12.8h-4.8L539.7,128.1L539.7,128.1z"/>
	<path fill="#FFFFFF" d="M552.4,142.5v-14.5h1.6l5.7,12.9l5.5-12.9h1.7v14.5h-1.7v-11.2l-4.7,11.2h-1.6l-4.9-11.2v11.2H552.4z"/>
</g>
</svg>
