<?xml version="1.0" encoding="utf-8"?>
<!-- Generator: Adobe Illustrator 28.6.0, SVG Export Plug-In . SVG Version: 9.03 Build 54939)  -->
<svg version="1.1" baseProfile="tiny" id="Layer_1" xmlns="http://www.w3.org/2000/svg" xmlns:xlink="http://www.w3.org/1999/xlink"
	 x="0px" y="0px" viewBox="0 0 990 445" overflow="visible" xml:space="preserve">
<path fill="#FFFFFF" d="M167,430c-18.2-5-35.9-21.8-43.6-41.5c-5.2-13.2-24-79.3-89.8-316L23.7,37l44.5-0.3
	c24.5-0.1,44.8,0.1,45.2,0.5c0.4,0.4,17.1,64.9,37,143.4l36.3,142.6l17.3-66.1c41-157,48-182.3,53.2-193.2
	c7-14.7,19.2-25.1,33.6-28.9c7.6-2,25.2-2,32.8,0c16,4.2,28.4,15.7,35.3,32.6c4.2,10.3,13.2,43.5,46.8,172.4
	c11.3,43.4,20.9,79.8,21.3,80.7c0.5,1.1,14.5-52.2,37.2-141.2l36.5-143l45.2,0c35.7,0,45.1,0.3,44.8,1.2
	c-0.2,0.7-9.9,35.2-21.4,76.8c-55.1,198.4-74.3,265.1-79.7,276.8c-9.2,20-24.6,33.8-42.9,38.6c-7.7,2-24.3,2-31.9,0
	c-10.6-2.8-16.6-6.4-25.7-15.5c-7.1-7.1-9.3-10.2-13.2-18c-6.3-12.9-12.4-33.9-51.2-176.5c-9.1-33.6-16.9-61.7-17.2-62.5
	c-0.3-0.8-9.7,32-20.9,72.9c-24.6,89.9-37.6,136.4-41.6,149.1c-8.7,27.5-24.6,45-45.4,50.4C192.2,431.9,174,431.9,167,430L167,430z
	 M635.4,292V155.5h42.5h42.5V292v136.5h-42.5h-42.5V292z M806.4,292V155.5h42.5h42.5V292v136.5h-42.5h-42.5V292z M923.4,415v-13.5
	h-5c-4.7,0-5-0.2-5-2.5v-2.5h13h13v2.5c0,2.3-0.3,2.5-5,2.5h-5V415v13.5h-3h-3V415z M941.4,412.5v-16h4.5h4.5l3,9.9
	c1.7,5.4,3,10.5,3,11.2c0,3.1,2-1.2,4.9-10.8l3.1-10.2h4.5h4.5v16v16h-3h-3l-0.1-11.2c-0.1-12.2,0-12.2-4.4,2.6
	c-2.6,8.8-2.6,8.8-5.8,8.5c-3.1-0.3-3.2-0.5-6.2-10.8l-3-10.5l-0.6,21.5h-3h-3V412.5L941.4,412.5z M665.9,108.4
	c-19.3-3.9-35.2-20.4-38.5-39.8c-4-23.6,11.8-47.4,35.5-53.6c12.1-3.2,27.6-1.5,38.7,4.1c6.6,3.4,16.7,13,20.1,19.2
	c11.6,21.4,4.7,49.3-15.4,62.2C695.2,107.7,678.5,111,665.9,108.4L665.9,108.4z M836.9,108.4c-24.9-5.1-42.6-29.9-38.6-54.3
	c3.1-18.7,17.3-34.3,35.6-39.1c12.1-3.2,27.6-1.5,38.7,4.1c6.6,3.4,16,12.3,19.8,18.9c12,21.1,5.2,49.6-15,62.5
	C866.2,107.7,849.5,111,836.9,108.4L836.9,108.4z"/>
</svg>
