<?xml version="1.0" encoding="utf-8"?>
<!-- Generator: Adobe Illustrator 28.6.0, SVG Export Plug-In . SVG Version: 9.03 Build 54939)  -->
<svg version="1.1" baseProfile="tiny" id="Layer_1" xmlns="http://www.w3.org/2000/svg" xmlns:xlink="http://www.w3.org/1999/xlink"
	 x="0px" y="0px" viewBox="0 0 698.3 208.3" overflow="visible" xml:space="preserve">
<g transform="translate(-5.8254 -5.6214)">
	<g>
		<path fill-rule="evenodd" fill="#FFFFFF" d="M569.9,77.7c0,47.6,56.2,40.8,56.2,7.5V6.4h-56.2V77.7L569.9,77.7z"/>
		<path fill-rule="evenodd" fill="#FFFFFF" d="M492.4,127.7c0,23.5,16.2,37.5,40,37.5h135c20.1,0,36.3-13.8,36.3-33.7V32.7
			c0-12-8.9-25-20-25h-31.2v81.2c0,61.7-107.5,61.2-107.5,1.3V6.4h-23.7c-15.5,0-28.7,9.8-28.7,25L492.4,127.7L492.4,127.7z"/>
		<g>
			<path fill="#FFFFFF" d="M305.5,29.8c0,12.8,10.8,23.6,24.3,23.6c14.2,0,25.3-10.5,25.3-23.6c0-13.2-11.1-23.6-25.3-23.6
				C316.3,6.1,305.5,16.6,305.5,29.8z"/>
			<polygon fill="#FFFFFF" points="351.4,212.1 351.4,76.7 309.6,76.7 309.6,212.1 			"/>
			<path fill="#FFFFFF" d="M390.3,29.8c0,12.8,11.1,23.6,24.7,23.6c13.8,0,25-10.5,25-23.6c0-13.2-11.1-23.6-25-23.6
				C401.4,6.1,390.3,16.6,390.3,29.8L390.3,29.8z"/>
			<polygon fill="#FFFFFF" points="436.2,212.1 436.2,76.7 394.3,76.7 394.3,212.1 			"/>
			<path fill="#FFFFFF" d="M243,17.6l-36.5,143.5c0,0-28-107.7-32.8-123.2c-4.4-15.2-13.8-21.9-27-21.9c-13.5,0-22.6,6.8-27.4,21.9
				C115.1,53.4,87,161.1,87,161.1L50.2,17.6H6.3c0,0,42.2,153,48,170.9c4.4,13.8,15.2,25,30.7,25c18.2,0,26.7-13.2,30.4-25
				c4.1-12.2,31.4-113.1,31.4-113.1s27.4,101,31.1,113.1c4.1,11.8,12.5,25,30.4,25c15.9,0,26.3-11.1,31.1-25
				c5.7-17.9,48-170.9,48-170.9L243,17.6L243,17.6z"/>
		</g>
	</g>
</g>
</svg>
