<?xml version="1.0" encoding="utf-8"?>
<!-- Generator: Adobe Illustrator 28.6.0, SVG Export Plug-In . SVG Version: 9.03 Build 54939)  -->
<svg version="1.1" baseProfile="tiny" id="Layer_1" xmlns="http://www.w3.org/2000/svg" xmlns:xlink="http://www.w3.org/1999/xlink"
	 x="0px" y="0px" viewBox="0 0 200 155" overflow="visible" xml:space="preserve">
<path fill="none" d="M0,0h137.1c-10.6,2.1-21.2,4.8-31.1,9.3c0,6.2,0,12.4,0,18.7c0.1,13.8,0.1,27.6,0,41.4c-0.1,4.3-0.1,8.6,0,12.9
	c0.1,13.6,0.1,27.1,0,40.7c-0.1,6.5-0.1,13,0.1,19.5c6.8-4.1,14.2-7.5,21.9-9.5c5.6-1.6,11.4-1.9,17.2-2.8c7.6-0.8,15,0.9,22.4,2.2
	c10.2,1.8,19.7,6.2,29.3,10.1c0.3-43.8,0-87.6,0.1-131.4C186.5,5.2,174.6,2.5,162.9,0H200v155H0L0,0L0,0z"/>
<path fill="#FFFFFF" d="M137.1,0c-10.6,2.1-21.2,4.8-31.1,9.3c0,6.2,0,12.5,0,18.7c9.7-4.4,19.9-7.9,30.6-8.9
	c0.1,13.9,0,27.8,0.1,41.7c-10.6,1.2-20.8,4.6-30.6,8.6c-0.1,4.3-0.1,8.6,0,12.9c9.7-4.3,19.9-7.7,30.6-8.5c0,13.3,0,26.6,0,39.9
	c-10.5,2-20.8,4.9-30.6,9.2c-0.1,6.5-0.1,13,0,19.5c6.8-4.1,14.2-7.5,21.9-9.5c5.6-1.6,11.4-1.9,17.2-2.8c7.6-0.8,15,0.9,22.4,2.2
	c10.2,1.8,19.7,6.2,29.3,10.1c0.3-43.8,0-87.6,0.1-131.4C186.5,5.1,174.6,2.5,162.9,0L137.1,0L137.1,0z M151.9,16.9
	c8.9-0.1,17.8,1.7,26,5.1c0,14,0.1,28,0,42c-5-1.4-9.9-3-15.1-3.8C157.9,59.8,153,60,148,60c0-14.3-0.1-28.6,0.1-42.9
	C149.4,17,150.7,17,151.9,16.9L151.9,16.9z M155.7,71.8c7.6,0.1,15.2,1.4,22.3,4.3c0,13.8,0,27.7,0,41.5c-9.7-3-19.8-4.8-29.9-4.3
	c0-13.7,0-27.4,0-41.1C150.6,71.8,153.1,71.7,155.7,71.8L155.7,71.8z"/>
<g>
	<path fill="#FFFFFF" d="M8,13.4c2.4-1,4.7-2.2,7-3.5v7c-2.3,1.2-4.6,2.4-6.9,3.5C8,18.1,8,15.7,8,13.4z"/>
	<path fill="#FFFFFF" d="M87,18.4c5.7-2.7,11.4-5.5,17-8.5c0,5.9,0,11.8,0,17.7c-5.8,2.7-11.4,5.6-17,8.5V18.4z"/>
	<path fill="#FFFFFF" d="M21,18.2c2.9-1.9,5.9-3.7,9-5.3v9c-2.6,2.2-5.6,3.8-8.9,4.5C21,23.7,21,20.9,21,18.2z"/>
	<path fill="#FFFFFF" d="M68,24.1c5.3-2.9,10.7-5.3,16-8.2v16.7c-5.4,2.4-10.6,5.3-15.9,7.8C67.9,35,68,29.5,68,24.1z"/>
	<path fill="#FFFFFF" d="M51,23.3c4.9-1.6,9.6-4,14.1-6.5c1.7,4.5,0.6,9.4,0.9,14.1c-4.8,2.8-10,4.8-15,7.1C51,33.1,51,28.2,51,23.3
		z"/>
	<path fill="#FFFFFF" d="M36,24.1c3.8-2.2,8-3.5,12-5.4c0.1,3.7,0,7.4,0,11c-4.1,1.2-7.8,3.5-11.9,4.7C36,31,36,27.5,36,24.1z"/>
	<path fill="#FFFFFF" d="M87,37.4c5.7-2.7,11.4-5.5,17-8.5c0,5.9,0,11.8,0,17.7c-5.7,2.7-11.5,5.4-16.9,8.7
		C86.9,49.4,87,43.4,87,37.4z"/>
	<path fill="#FFFFFF" d="M87,56.1c5.4-3.3,11.6-4.9,17-8.2c0,5.9,0,11.8,0,17.7c-5.7,2.7-11.4,5.6-17,8.5C87,74.1,87,56.1,87,56.1z"
		/>
	<path fill="#FFFFFF" d="M8,70.1c2.3-1.2,4.6-2.4,6.9-3.5C15,69,15,71.3,15,73.7c-2.3,1-4.5,2-6.9,2.7C8,74.3,8,72.2,8,70.1z"/>
	<path fill="#FFFFFF" d="M87,75c5.7-2.5,11.5-5,17-8.1v16.9c-5.2,3.9-11.4,6-17,9.2C87,87,87,81,87,75z"/>
	<path fill="#FFFFFF" d="M21,74.5c2.9-1.8,5.8-3.5,8.9-4.9c0.1,3.1,0.1,6.2,0.1,9.3c-3,1.5-5.7,3.6-8.9,4.6
		C21,80.4,20.9,77.5,21,74.5z"/>
	<path fill="#FFFFFF" d="M68,80.4c5.4-2.4,10.6-5.3,15.9-7.8C84.1,78,84,83.5,84,88.9c-5.3,2.9-10.7,5.3-16,8.2
		C68,97.1,68,80.4,68,80.4z"/>
	<path fill="#FFFFFF" d="M51,80.4c5-2.1,9.6-5.2,14.9-6.8c0.2,4.7,0.1,9.3,0.2,14c-5,2.1-9.6,5.3-14.9,6.8C50.9,89.7,51,85,51,80.4z
		"/>
	<path fill="#FFFFFF" d="M36,80.3c3.9-1.7,7.8-3.4,11.9-4.7C48,79.1,48,82.5,48,86c-3.9,1.9-8.1,3.3-11.9,5.4C36,87.7,36,84,36,80.3
		z"/>
	<path fill="#FFFFFF" d="M87,94.1c5.6-2.9,11.2-5.8,16.9-8.5c0.1,5.8,0,11.5,0.1,17.3c-5.7,2.8-11.1,6-16.9,8.5
		C86.9,105.6,87,99.9,87,94.1z"/>
	<path fill="#FFFFFF" d="M87,113.4c5.7-2.7,11.4-5.5,17-8.5c0,5.9,0,11.8,0,17.7c-5.8,2.5-11.4,5.7-16.9,8.8
		C86.9,125.4,87.1,119.4,87,113.4z"/>
	<path fill="#FFFFFF" d="M8,126.3c2.3-1,4.5-2.1,6.9-2.7c0.1,2.3,0.1,4.7,0.1,7c-2.4,0.6-4.7,1.7-7,2.7C8,131,8,128.7,8,126.3z"/>
	<path fill="#FFFFFF" d="M87,132.4c5.7-2.4,10.9-6,16.9-7.8c0.2,5.7,0.1,11.3,0.1,17c-5.9,2.3-11.2,6.1-16.9,8.8
		C86.9,144.4,87,138.4,87,132.4z"/>
	<path fill="#FFFFFF" d="M21,131.1c3.1-1.6,6.1-3.5,9-5.3c0,3.2,0,6.5-0.1,9.8c-3.1,1.4-5.8,3.5-8.9,4.9C21,137.4,21,134.2,21,131.1
		z"/>
	<path fill="#FFFFFF" d="M68,137.4c5.4-2.4,10.6-5.3,15.9-7.8c0.1,5.3,0,10.7,0.1,16c-5.4,2.4-10.6,5.3-15.9,7.8
		C67.9,148.1,68,142.7,68,137.4z"/>
	<path fill="#FFFFFF" d="M51,137.1c4.9-2.2,9.4-5.9,15-6.3c0.1,4.4,0,8.8,0,13.2c-4.9,2.6-9.9,5.1-14.9,7.5
		C50.9,146.6,51,141.9,51,137.1z"/>
	<path fill="#FFFFFF" d="M36,137.4c4-1.8,7.9-3.9,11.9-5.8c0.1,3.7,0.1,7.3,0,11c-4,1.8-7.8,3.9-12,5.4C36,144.5,36,140.9,36,137.4
		L36,137.4z"/>
</g>
</svg>
