<?xml version="1.0" encoding="utf-8"?>
<!-- Generator: Adobe Illustrator 28.6.0, SVG Export Plug-In . SVG Version: 9.03 Build 54939)  -->
<svg version="1.1" baseProfile="tiny" id="Layer_1" xmlns="http://www.w3.org/2000/svg" xmlns:xlink="http://www.w3.org/1999/xlink"
	 x="0px" y="0px" viewBox="0 0 419.2 103.6" overflow="visible" xml:space="preserve">
<path fill="#FFFFFF" d="M8,20.5l35.7-4.9v34.5H8 M48,14.9L95.3,8v41.8H48 M8,53.7h35.7v34.6L8,83.3 M48,54.2h47.3v41.4L48,88.9
	 M122,25l6.8,0l10.5,38.1c0.8,2.7,1.3,5.4,1.6,8.1c3.7-15.6,8.7-30.8,12.9-46.2l5.9,0l9,33c1.1,4.4,2.6,8.7,3.1,13.2
	c3.3-15.6,8-30.8,11.8-46.2l6.7,0l-14.8,53h-7.2L157.5,40c-0.6-2-0.9-4.2-1-6.3c-0.3,1.8-0.5,3.7-1,5.5l-10.8,38.8
	c-2.4,0.1-4.8,0.1-7.2,0.1L122,25 M194,25.4c0.6-5,8-4.5,8,0.5s-7.3,5.5-8,0.5 M194.9,40h6v38h-6 M217.1,46.1
	c3.4-6.1,11.4-8.9,17.9-6.1c5.1,2,7,7.9,7.2,13c0.3,8.3,0.1,16.7,0.1,25c-2,0-4,0-6,0c-0.1-8,0.2-16-0.1-24c-0.2-4-1.8-8.7-6.1-9.7
	c-6.3-1.9-12.6,3.8-12.8,10c-0.2,7.9,0,15.8-0.1,23.7h-6V40h6L217.1,46.1 M278,22h6v56h-6l-0.2-6.1c-4.3,7.8-15.9,9.5-22.5,3.7
	c-4.7-4.1-6.2-10.7-5.9-16.7c0.1-6.1,2.1-12.5,6.9-16.5c6.3-5.2,17.4-4.9,21.8,2.7L278,22 M265.2,44.1c-4.8,0.8-8,5.1-9,9.7
	c-1.2,5.5-1,11.8,2.5,16.4c3.7,4.9,11.9,5.1,15.9,0.4c2.7-2.8,3.5-6.9,3.5-10.6c0-4,0.4-8.5-2.3-11.8
	C273.5,44.8,269.1,43.3,265.2,44.1 M307,39.1c5.4-0.5,11.3,0.4,15.3,4.2c4.5,4.2,5.9,10.7,5.6,16.6c-0.1,5.3-2,10.8-6,14.5
	c-8.2,7.4-23.4,5.8-28.6-4.4c-4.1-8.6-3.3-20.4,4.2-26.9C300.2,40.9,303.6,39.8,307,39.1 M305.9,44.5c-8.8,2.7-10.3,14.2-7.5,21.8
	c2.2,6.7,10.7,9.7,16.9,6.6c4.1-1.9,6-6.6,6.4-10.9c0.5-5,0-10.7-3.5-14.6C315.2,44,310.1,43.3,305.9,44.5 M331,40h6.3l7.4,27.2
	c0.5,1.7,0.7,3.5,0.9,5.2c2.8-10.9,6.4-21.6,9.6-32.4l5.5,0c2.8,10.8,6.2,21.4,8.5,32.4c2.4-10.8,5.7-21.5,8.3-32.2
	c2-0.1,4-0.1,6-0.2l-11.3,38h-6.2c-2.7-10.3-6.2-20.4-8.4-30.8c-2.6,10.4-6.2,20.5-9.2,30.8h-6L331,40 M398,39
	c3.8-0.3,7.6,0.1,11.1,1.5c1,1.9,0.2,4.3,0.5,6.4c-4.2-2.6-10-4.3-14.6-1.6c-3.1,1.7-3.3,6.7-0.2,8.6c4.4,2.8,9.9,3.6,13.8,7.2
	c4.3,4.1,3.2,12-1.8,15.1c-6.1,3.9-14.1,3.5-20.5,0.5l0-6.7c4.5,3.5,10.9,5.4,16.4,2.9c3.2-1.6,3.3-6.5,0.5-8.5
	c-4.4-3.2-10.4-3.7-14.2-7.8c-3.8-3.9-3.1-11,1.1-14.2C392.3,40.4,395.3,39.8,398,39"/>
</svg>
