<?xml version="1.0" encoding="utf-8"?>
<!-- Generator: Adobe Illustrator 28.6.0, SVG Export Plug-In . SVG Version: 9.03 Build 54939)  -->
<svg version="1.1" baseProfile="tiny" id="Layer_1" xmlns="http://www.w3.org/2000/svg" xmlns:xlink="http://www.w3.org/1999/xlink"
	 x="0px" y="0px" viewBox="0 0 929.1 90.9" overflow="visible" xml:space="preserve">
<g transform="translate(0 5.7852477)">
	<g>
		<path fill="#FFFFFF" d="M168.4,54.2l-9.3,7.7h-48.1l7.7-32.4l7.8-6.2h7.7l-7.7,32.4l7.7-4.6l6.2-23.1l4.7-4.7h10.9l-7.8,32.4
			l7.8-6.2l4.6-20.1l6.2-6.2h9.3L168.4,54.2z"/>
		<path fill="#FFFFFF" d="M480.3,54.2l-10.6,7.7h-44.4l4-18.5l7-6.7h9L440.1,57l7.8-4.6l2-10.5l5.2-5.2h10.8L460.6,57l7.3-4.9
			l2.1-8.7l6.8-6.7h8.1L480.3,54.2z"/>
		<path fill="#FFFFFF" d="M364.8,61.9l7.8-7.7H406c0,0,2.9,0.8,4.5-2.8c1.5-3.4-1.4-3.4-1.4-3.4h-15.5c0,0-4.5-1-4.5-6.5
			c-0.1-13.5,11-16.9,11-16.9h32.6l-6.5,6.4h-17.1c0,0-5.4,1.6-5.6,6.1c-0.1,2.1,2.5,1.6,2.5,1.6h13.9c0,0,8.1,1.4,6.2,10
			c-2.4,11.4-10.8,13.1-10.8,13.1L364.8,61.9L364.8,61.9z"/>
		<path fill="#FFFFFF" d="M338.3,61.9h13.9l4.2-16c0.5-1.9,5.4-4,4.1-3.8c-1.3,0.2,4.5-0.8,4.5-0.8s1.8,0.5,2.7,1.8
			c0.9,1.2-0.9,3-1.2,4.4c-0.3,1.4,1.6,1.6,1.6,1.6h7.8c0,0,4.2-1.6,5.3-3.1c1.1-1.6,2.5-3.2,2.5-4.6s-3.1-3.1-3.1-3.1l-3.1-1.5
			h-23.3c0,0-11.1,6.4-12.4,7.7C341.3,44.7,338.3,61.9,338.3,61.9L338.3,61.9z"/>
		<path fill="#FFFFFF" d="M175.3,44.2c-1.1,1.2-4.6,12.1-3.8,13.9c0.8,1.7,5.1,3.8,5.1,3.8h22.7c0,0,10.6-6.6,11.4-7.6
			c0.8-1,3.8-11.5,3.8-12.6c0-1.1-2.5-5.1-2.5-5.1h-26.5C185.4,36.6,176.4,42.9,175.3,44.2z M193,41.7h7c0,0-0.8,8.4-2.5,10.8
			c-1.8,2.4-5.7,4.4-5.7,4.4s-4.4,0.5-5,0c-0.6-0.5-0.2-5.1-0.2-5.1s0.6-4.9,1.4-6.3C188.7,44,193,41.7,193,41.7L193,41.7z"/>
		<path fill="#FFFFFF" d="M259.9,44.2c-1.1,1.2-4.6,12.1-3.8,13.9c0.8,1.7,5.1,3.8,5.1,3.8h31.6c0,0,1-5,2.3-10.1
			c1.2-4.8,2.7-12.1,2.7-12.6c0-1.1,7.8-11,7.8-11H292l-6.9,8.5h-15C270.1,36.6,261.1,42.9,259.9,44.2L259.9,44.2z M277.6,41.7h6.9
			c0,0-0.8,8.4-2.5,10.8c-1.7,2.4-5.7,4.4-5.7,4.4s-4.4,0.5-5.1,0c-0.6-0.5-0.2-5.1-0.2-5.1s0.6-4.9,1.4-6.3
			C273.4,44,277.6,41.7,277.6,41.7L277.6,41.7z"/>
		<path fill="#FFFFFF" d="M211.1,61.9l7.2-25.3h30.3c0,0,4,0.4,5.4,2.7c1.4,2.3,1,6.2,1,6.2l-4.1,16.4h-12.6c0,0,1.5-8,2.9-13.9
			c1.4-5.8-2.5-6.3-2.5-6.3h-7.6l-4.3,15.2c0,0-3.8,4.4-5.4,5.1H211.1z"/>
		<path fill="#FFFFFF" d="M522.2,61.9l8-25.3h30.3c0,0,4,0.4,5.4,2.7c1.4,2.3,1,6.2,1,6.2l-4.3,16.4h-13.9c0,0,2.3-6.8,3.8-12.6
			c1.4-5.8-2.1-7.6-2.1-7.6h-7.6l-4.2,15.2c0,0-3.5,4.4-5.1,5.1L522.2,61.9L522.2,61.9z"/>
		<path fill="#FFFFFF" d="M301.6,44.2c-1.1,1.2-4.5,12.1-3.8,13.9c0.8,1.7,5.1,3.8,5.1,3.8h22.7c0,0,4.5-2.8,7.9-5.1
			c0,0-19.3,0.1-20.5,0c-0.5-0.1-0.3-2.4-0.3-3.8h15.5c0,0,3-0.6,7.5-4.3c4.5-3.7,5.1-4.1,5.1-7c0-2.9-2.5-5.1-2.5-5.1h-26.5
			C311.7,36.6,302.7,42.9,301.6,44.2L301.6,44.2z M319.3,41.7h10.2c0,0-1.1,3.9-6.7,6.3h-8.5c-0.8-2.2,1.2-4,2.3-4.9
			C317.8,42,319.3,41.7,319.3,41.7z"/>
		<path fill="#FFFFFF" d="M505.7,61.9c0,0,4.3-13.6,5.6-17.9c0.7-2.4-0.9-2.3-3.9-2.3s-5.2,0.6-9.3,7.6c-4.9,8.1,7.2,10.3,7.2,10.3
			l-0.8,2.4h-13.9c0,0-7.6,0.3-7.6-8.8c0-11.2,14.4-16.4,14.4-16.4h30.3l-8.1,25.3L505.7,61.9L505.7,61.9z"/>
	</g>
	<path fill="#FFFFFF" d="M72.6,23.4c0.7,0,1.4-0.1,2.2-0.1c15.8,0,29.4,15.3,30.4,23.1c0.1,0.8,0.2,1.6,0.2,2.2
		C105.1,27.3,72,0,45.3,0C24.8,0,15.2,8.3,12,17.7c-4.7,11.8,1.5,28.6,16.1,40.6c1.6,1.2,3.1,2.4,4.7,3.5c-0.7,0.1-1.4,0.1-2.1,0.1
		c-15.8,0-29.4-15.3-30.4-23.1c-0.1-0.8-0.2-1.6-0.2-2.2c0.2,21.3,33.4,48.6,60,48.6c20.5,0,30.1-8.3,33.3-17.7
		c4.7-11.8-1.5-28.6-16.1-40.6C75.7,25.6,74.2,24.4,72.6,23.4z M42.9,58.7c-11.7-9.6-15.6-23.8-9.1-31.8c6.6-8,21.6-7.1,33.6,2.3
		c11.9,9.3,16.5,23.4,10.4,31.8c2.5-5.1-0.3-12.6-6.8-17.8c-7-5.5-15.9-6.1-19.8-1.3c-3.9,4.8-1.6,13.2,5.3,18.9
		c5.3,4.4,11.8,6,16.4,4.4C65.2,69.2,52.8,66.9,42.9,58.7z"/>
</g>
<g transform="matrix(.99999583 0 0 .99999577 466.85264 -386.43178)">
	<path fill="#FFFFFF" d="M298.8,390.8c-4.5-1.3-9.6,5-13.9,14.7c-3.9,16.1-12.4,40-13,56.4c-0.2,7.3,6.5,9.4,11.1,11
		c14.5,5.1,22.9,0.1,27.2-5.1c3.1-3.7-0.2-6.9-4-5.7c-5.6,1.6-12.3,2.8-13.7-2.6c-1.5-5.9,6.7-30.2,12.4-48.3
		C308,401.2,310.6,393,298.8,390.8L298.8,390.8z"/>
	<path fill="#FFFFFF" d="M223.8,419.4c-9.8,1-29.3,6.2-29.3,31.4c0,1.2-3.6,28.4,31.6,25.3c35.1-3.2,41.1-25.3,41.1-25.3
		s8.7-29.2-12.6-28.4c-13,0.5-19,6.3-19,6.3s8.7,1.7,10.6,7.9c3.6,11.8,2.2,31.8-16.9,30c-19.2-1.8-9.8-27.2-3.8-40
		C227.6,422.1,227.1,419.1,223.8,419.4L223.8,419.4z"/>
	<path fill="#FFFFFF" d="M340.7,419.4c-9.8,1-29.3,6.2-29.3,31.4c0,1.2-3.5,28.4,31.6,25.3c35.1-3.2,41.1-25.3,41.1-25.3
		s8.7-29.2-12.6-28.4c-13,0.5-19,6.3-19,6.3s8.7,1.7,10.6,7.9c3.6,11.8,2.2,31.8-16.9,30c-19.2-1.8-9.8-27.2-3.8-40
		C344.5,422.1,344,419.1,340.7,419.4L340.7,419.4z"/>
	<path fill="#FFFFFF" d="M109.3,438.1c-1.6-31.2,41.5-45.2,56.9-46.4c15.4-1.2,31.6,2.2,31.6,2.2s-2.4,30.8-9.5,31.6
		c-7.1,0.8-5.5-23.3-19-22.1c-24.6,2.2-34.5,29-34.7,37.9c-0.1,4.3,1.2,23.7,19,22.1c17.8-1.6,21.7-11.1,25.3-12.6
		c3.6-1.6,10.4-4.7,9.5,3.2c-2,17.4-34.7,22.1-34.7,22.1S111.3,478.4,109.3,438.1L109.3,438.1z"/>
	<path fill="#FFFFFF" d="M399.9,472.9c-15,0.8-6.7-17.4-3.2-28.4c3.6-11.1,2.9-23.2,15.8-22.1c14.2,1.2,3.2,19,3.2,19
		s21.6-23.7,41.1-22.1c4.7,0.4-9.5,31.6-9.5,31.6s-3.6-11.5-12.6-9.5C408.5,447,414.9,472.1,399.9,472.9L399.9,472.9z"/>
</g>
</svg>
