<?xml version="1.0" encoding="utf-8"?>
<!-- Generator: Adobe Illustrator 28.6.0, SVG Export Plug-In . SVG Version: 9.03 Build 54939)  -->
<svg version="1.1" baseProfile="tiny" id="Layer_1" xmlns="http://www.w3.org/2000/svg" xmlns:xlink="http://www.w3.org/1999/xlink"
	 x="0px" y="0px" viewBox="0 0 545 87" overflow="visible" xml:space="preserve">
<g transform="matrix(.52488 0 0 .52227 111.12 207.81)">
	<path fill="#FFFFFF" d="M768.7-261.2h-9.6v-5.9h26.1v5.9h-9.6v25.9h-7L768.7-261.2"/>
	<path fill="#FFFFFF" d="M792.3-267h10l7.4,21.8l7.1-21.8h9.8v31.7h-6.6v-22.5h-0.1l-7.8,22.5h-5.3l-7.8-22.3h-0.1v22.3h-6.6
		L792.3-267"/>
	<path fill="#FFFFFF" d="M695.1-245.5c-10.7,0-19.7-3.5-26.5-10.4c-15.2-15.1-17.3-43.2-17.3-58.6c0-20.7,4.2-68.9,43.8-68.9
		c39.6,0,44,48.2,44,68.9C739.1-293.8,734.7-245.5,695.1-245.5z M695.1-397.6c-37.7,0-59.3,30.3-59.3,83.2
		c0,52.8,21.6,83.1,59.3,83.1c21.4,0,37.4-9.3,47.5-27.8c9.7-17.6,11.7-39.8,11.7-55.4C754.4-339.5,748.5-397.6,695.1-397.6"/>
	<path fill="#FFFFFF" d="M567.8-245.5c-22.4,0-40-18-40-41c0-23.9,17.2-41.9,40-41.9c10.4,0,20.1,4,27.3,11.3
		c7.9,7.9,12.4,19.1,12.4,30.6C607.5-263.6,590.1-245.5,567.8-245.5z M567.8-342.7c-17.1,0-32.9,8.4-42.5,22.2
		c1.9-30.1,11.6-62.9,44.3-62.9c18.3,0,32.2,11.9,35.2,30.4l0.5,2.9h15.2l-0.3-3.8c-3-26.9-22.4-43.7-50.7-43.7
		c-49.6,0-60.1,49.3-60.1,90.7c0,49.4,20.2,75.6,58.3,75.6c31.4,0,55-23.8,55-55.3C622.8-319.1,599.8-342.7,567.8-342.7"/>
	<path fill="#FFFFFF" d="M472.1-320.3c13.4-6.2,21.9-19.5,21.9-35.3c0-11.1-3.7-20.5-10.9-27.8c-9.2-9.2-24.5-14.5-41.5-14.5
		c-28.1,0-47.5,16.7-50.5,43.7l-0.4,3.8h15.2l0.5-2.9c3-18.5,16.9-30.4,35.2-30.4c18.4,0,37.2,9.6,37.2,28.1
		c0,7.9-2.5,14.3-7.4,18.9c-7.8,7.6-22.4,9.5-29.9,9.5c-2.7,0-6.7,0.1-10.7,0.1c-0.1,3.9-0.1,11.3,0,15c2.5,0,10.7,0,10.7,0
		c14.2,0.1,25.3,3.1,32.2,9.6c5.7,5.3,8.6,12.8,8.6,22.2c0,22.7-20.5,34.5-40.7,34.5c-13.2,0-24-4-31.3-11.6
		c-7.2-7.5-10.8-18.2-10.2-31.1l0.1-3.6h-15.3l-0.1,3.3c-0.8,17,3.8,31.3,13.3,41.2c10,10.4,25.1,15.9,43.6,15.9
		c34,0,56-19.1,56-48.8C497.5-299.1,487.8-314,472.1-320.3"/>
	<path fill="#FFFFFF" d="M347.1-235.3L286-318.4l55.7-75.5h-20.9l-45.3,61.6l-45.3-61.6h-20.8l55.6,75.5l-60.9,83.1H225l50.5-68.8
		l50.7,68.8H347.1"/>
	<path fill="#FFFFFF" d="M-68.7-235.3l-60.9-83.1l55.6-75.5h-20.8l-45.3,61.6l-45.3-61.6h-20.9l55.7,75.5l-61.1,83.1h20.9l50.7-68.8
		l50.5,68.8H-68.7"/>
	<path fill="#FFFFFF" d="M4.4-251.9h-46.6v-57.7H4.4c17.8,0,38.8,4.8,38.8,27.6C43.2-255.8,18.9-251.9,4.4-251.9z M-42.2-377.4H4.4
		c12.6,0,33.7,3.2,33.7,25.2c0,16.7-12.3,26.6-33.7,26.6h-46.6V-377.4z M47.3-312.4c-3.3-2.9-6.8-5-10.4-6.6c11.5-6.3,19-18,19-31.8
		c0-10.1-3.7-43.2-51.5-43.2H-60v68.4h-21.4c-2.9,3.6-9.2,12.3-11.6,15.9H-60v74.3H4.4c35,0,56.7-17.7,56.7-46.3
		C61.1-294.1,56.3-304.7,47.3-312.4"/>
	<path fill="#FFFFFF" d="M144.8-248.6c-34,0-57.8-27.2-57.8-66.1c0-38.9,23.8-66.1,57.8-66.1c33.9,0,57.5,27.2,57.5,66.1
		C202.3-275.7,178.7-248.6,144.8-248.6z M144.8-397.6c-44.7,0-75.8,34.1-75.8,82.9c0,48.8,31.1,82.9,75.8,82.9
		c44.4,0,75.5-34.1,75.5-82.9C220.3-363.5,189.2-397.6,144.8-397.6"/>
</g>
</svg>
