<?xml version="1.0" encoding="utf-8"?>
<!-- Generator: Adobe Illustrator 28.6.0, SVG Export Plug-In . SVG Version: 9.03 Build 54939)  -->
<svg version="1.1" baseProfile="tiny" id="Layer_1" xmlns="http://www.w3.org/2000/svg" xmlns:xlink="http://www.w3.org/1999/xlink"
	 x="0px" y="0px" viewBox="0 0 947.7 156.2" overflow="visible" xml:space="preserve">
<g transform="translate(876.93 -446.99)">
	<path fill="#FFFFFF" d="M-644.5,447h-40.9l-75.4,61.4l-75.4-61.4h-40.9l95.8,78.1l-95.8,78.1h40.9l75.4-61.4l75.4,61.4h40.9
		l-95.8-78.1L-644.5,447L-644.5,447z"/>
	<path fill="#FFFFFF" d="M-590.1,575.9c-6.8-10.9-11.5-23.6-13.3-37.2h159.1c-1.9,13.7-6.6,26.3-13.3,37.2H-590.1z M-590.1,474.2
		h132.4c6.8,10.9,11.5,23.6,13.3,37.2h-159.1C-601.5,497.8-596.9,485.1-590.1,474.2 M-429,518.8l11.3-5.8
		c-2.3-25.1-11.6-47.9-25.8-65.9h-160.6c-13.9,17.6-23.1,39.9-25.6,64.4H-655v27.2h25.3c2.5,24.5,11.8,46.8,25.6,64.4h160.6V603
		c14.2-18,23.5-40.8,25.8-65.9l-11.3-5.8V518.8L-429,518.8z"/>
	<path fill="#FFFFFF" d="M-346.6,575.9c-9-14.4-14.3-32-14.3-50.9s5.3-36.4,14.3-50.9h132.4c9,14.4,14.3,32,14.3,50.9
		c0,18.9-5.3,36.4-14.3,50.9H-346.6z M-200,447h-41.1h-119.6c-16.4,20.9-26.4,48.2-26.4,78c0,29.9,10,57.2,26.4,78h160.6v-0.1
		c16.4-20.9,26.4-48.2,26.4-78C-173.6,495.2-183.6,467.9-200,447"/>
	<path fill="#FFFFFF" d="M70.8,447H29.9l-75.4,61.4l-75.4-61.4h-40.9l95.8,78.1l-95.8,78.1h40.9l75.4-61.4l75.4,61.4h40.9L-25,525.1
		L70.8,447L70.8,447z"/>
</g>
</svg>
