<?xml version="1.0" encoding="utf-8"?>
<!-- Generator: Adobe Illustrator 28.6.0, SVG Export Plug-In . SVG Version: 9.03 Build 54939)  -->
<svg version="1.1" baseProfile="tiny" id="Layer_1" xmlns="http://www.w3.org/2000/svg" xmlns:xlink="http://www.w3.org/1999/xlink"
	 x="0px" y="0px" viewBox="0 0 566.9 98.4" overflow="visible" xml:space="preserve">
<g>
	<path fill="#FFFFFF" d="M12,98.4c-6.6,0-12-5.4-12-12V31.9c0-6.6,5.4-12,12-12s12,5.4,12,12v54.5C24,93.1,18.6,98.4,12,98.4z"/>
	<path fill="#FFFFFF" d="M174.7,48h-36.2v-6.5h36.2c6,0,10.8-4.8,10.8-10.8c0-6-4.8-10.8-10.8-10.8h-49.4c-6,0-10.8,4.8-10.8,10.8
		v55.7c0,6.6,5.4,12,12,12s12-5.4,12-12V69.6h36.2c6,0,10.8-4.8,10.8-10.8C185.5,52.9,180.7,48,174.7,48L174.7,48z"/>
	<path fill="#FFFFFF" d="M540.9,82.9l-15.5-54.2c-0.9-3.2-3.1-5.7-5.8-7.2c-1.7-1-3.6-1.7-5.7-1.7h-57c-0.4,0-0.7,0-1.1,0.1
		c-6.1,0.6-10.9,5.7-10.9,11.9v54.5c0,6.6,5.4,12,12,12c6.6,0,12-5.4,12-12V41.5h5.3v44.9c0,6.6,5.4,12,12,12c6.6,0,12-5.4,12-12
		V41.5h6l13.8,48c1.5,5.2,6.3,8.6,11.5,8.6c1.1,0,2.2-0.1,3.3-0.5C539,95.9,542.7,89.3,540.9,82.9z"/>
	<path fill="#FFFFFF" d="M250.5,19.9h-40.8c-11.3,0-20.6,9.3-20.6,20.6v37.3c0,11.3,9.3,20.6,20.6,20.6h40.8
		c11.3,0,20.6-9.3,20.6-20.6V40.5C271.1,29.2,261.8,19.9,250.5,19.9L250.5,19.9z M247.9,73.8c0,1.3-1.1,2.4-2.4,2.4h-30.7
		c-1.3,0-2.4-1.1-2.4-2.4V44.6c0-1.3,1.1-2.4,2.4-2.4h30.7c1.3,0,2.4,1.1,2.4,2.4V73.8z"/>
	<path fill="#FFFFFF" d="M419.3,19.9h-40.8c-11.3,0-20.6,9.3-20.6,20.6v37.3c0,11.3,9.3,20.6,20.6,20.6h40.8
		c11.3,0,20.6-9.3,20.6-20.6V40.5C439.9,29.2,430.7,19.9,419.3,19.9z M416.7,73.8c0,1.3-1.1,2.4-2.4,2.4h-30.7
		c-1.3,0-2.4-1.1-2.4-2.4V44.6c0-1.3,1.1-2.4,2.4-2.4h30.7c1.3,0,2.4,1.1,2.4,2.4V73.8z"/>
	<path fill="#FFFFFF" d="M105.5,19.9H34.7c-3,0-5.4,2.4-5.4,5.4v61.1c0,6.6,5.4,12,12,12s11.9-5.4,11.9-12V44.6
		c0-1.3,1.1-2.4,2.4-2.4h28.9c1.3,0,2.5,1.1,2.5,2.4v41.9c0,6.6,5.4,12,12,12s12-5.4,12-12V41V25.3
		C110.9,22.3,108.5,19.9,105.5,19.9z"/>
	<path fill="#FFFFFF" d="M345,76.2h-42.9c-1.3,0-2.4-1.1-2.4-2.4V44.6c0-1.3,1.1-2.4,2.4-2.4H345c6.2,0,11.1-5,11.1-11.1
		s-5-11.1-11.1-11.1h-15.5h-30.6h-2.6c-11.3,0-20.5,9.2-20.5,20.5v37.5c0,11.3,9.2,20.5,20.5,20.5h2.6h30.6H345
		c6.2,0,11.1-5,11.1-11.1S351.2,76.2,345,76.2z"/>
	<g>
		<path fill="#FFFFFF" d="M541,11.7h-4.1V8.8h11.8v2.9h-4.2v12.4H541V11.7z"/>
		<path fill="#FFFFFF" d="M563.3,18.3c-0.1-1.8-0.1-4-0.1-6.3h0c-0.5,2-1.1,4.1-1.7,5.9l-1.9,6h-2.7l-1.6-5.9c-0.5-1.8-1-4-1.4-6h0
			c-0.1,2.1-0.2,4.4-0.2,6.3l-0.3,5.8h-3.2l1-15.3h4.6l1.5,5.1c0.5,1.7,1,3.7,1.3,5.4h0.1c0.4-1.8,0.9-3.8,1.5-5.5l1.6-5.1h4.5
			l0.8,15.3h-3.4L563.3,18.3z"/>
	</g>
</g>
</svg>
