<?xml version="1.0" encoding="utf-8"?>
<!-- Generator: Adobe Illustrator 28.6.0, SVG Export Plug-In . SVG Version: 9.03 Build 54939)  -->
<svg version="1.1" baseProfile="tiny" id="Layer_1" xmlns="http://www.w3.org/2000/svg" xmlns:xlink="http://www.w3.org/1999/xlink"
	 x="0px" y="0px" viewBox="0 0 566.9 88" overflow="visible" xml:space="preserve">
<g>
	<path fill="#FFFFFF" stroke="#FFFFFF" d="M0.6,52.3v-7.7h60.6v-8.8H0.6L0.2,12H69v7.7H8.4l0.4,8.4h60.6v24.3L0.6,52.3L0.6,52.3z"/>
	<path fill="#FFFFFF" stroke="#FFFFFF" d="M74.4,52.3V12.1h8.2v40.2H74.4z"/>
	<path fill="#FFFFFF" stroke="#FFFFFF" d="M87,52.3V12.1h68.8v40.2h-8.2V19.8H95.3v32.5L87,52.3z"/>
	<path fill="#FFFFFF" stroke="#FFFFFF" d="M160.2,52.3V12.1h68.9v7.7h-60.6v24.8h60.6v7.7L160.2,52.3L160.2,52.3z"/>
	<path fill="#FFFFFF" stroke="#FFFFFF" d="M234.6,52.3V0h8.2v52.3L234.6,52.3L234.6,52.3z"/>
	<path fill="#FFFFFF" stroke="#FFFFFF" d="M321,52.3V12.1h8.3v40.2H321z"/>
	<path fill="#FFFFFF" stroke="#FFFFFF" d="M334.3,52.3V12.1h68.8v7.7h-60.6v32.5L334.3,52.3L334.3,52.3z"/>
	<path fill="#FFFFFF" stroke="#FFFFFF" d="M247.2,12.1v7.7h60.6v8.8h-60.6v23.7h68.9V12.1L247.2,12.1z M307.8,44.6h-52.3v-8.8h52.3
		V44.6z"/>
	<path fill="#FFFFFF" stroke="#FFFFFF" d="M74.4,7.7V0h8.2v7.7H74.4z"/>
	<path fill="#FFFFFF" stroke="#FFFFFF" d="M321,7.7V0h8.3v7.7H321z"/>
	<g>
		<path fill="#FFFFFF" stroke="#FFFFFF" d="M0,80.2l9.7-11.6H0.8v-3.3H15v3.1L5.3,80h9.9v3.3H0V80.2z"/>
		<path fill="#FFFFFF" stroke="#FFFFFF" d="M22,73.9l-5.8-8.6h4.6l3.5,5.8l3.7-5.8h4.4l-5.8,8.6l6.3,9.4h-4.7l-3.9-6.2l-4,6.2h-4.5
			L22,73.9z"/>
		<path fill="#FFFFFF" stroke="#FFFFFF" d="M44.2,77.4c0,2.4,1.9,3.3,4,3.3c1.4,0,3.5-0.4,3.5-2.3c0-1.9-2.7-2.3-5.4-3
			c-2.7-0.7-5.4-1.7-5.4-5.1c0-3.7,3.5-5.5,6.8-5.5c3.8,0,7.2,1.6,7.2,5.8h-3.8C51,68.5,49.4,68,47.5,68c-1.3,0-2.7,0.5-2.7,2
			c0,1.4,0.9,1.6,5.4,2.7c1.3,0.3,5.4,1.2,5.4,5.3c0,3.3-2.6,5.8-7.5,5.8c-4,0-7.7-2-7.7-6.4L44.2,77.4z"/>
		<path fill="#FFFFFF" stroke="#FFFFFF" d="M57.5,70.3h3.4V72H61c0.9-1.4,2.3-2,3.9-2c4.1,0,5.9,3.3,5.9,7c0,3.5-1.9,6.8-5.7,6.8
			c-1.6,0-3.1-0.7-3.9-2h-0.1V88h-3.6L57.5,70.3z M67.2,76.9c0-2.1-0.8-4.2-3.1-4.2c-2.4,0-3.1,2.1-3.1,4.2c0,2.1,0.8,4.1,3.1,4.1
			C66.5,81,67.2,79,67.2,76.9z"/>
		<path fill="#FFFFFF" stroke="#FFFFFF" d="M75.9,77.7C76,80,77.1,81,79.1,81c1.4,0,2.6-0.9,2.8-1.7h3.2c-1,3.1-3.2,4.4-6.1,4.4
			c-4.1,0-6.7-2.8-6.7-6.9c0-3.9,2.7-6.9,6.7-6.9c4.5,0,6.6,3.7,6.3,7.8L75.9,77.7z M81.8,75.4c-0.3-1.8-1.1-2.8-2.9-2.8
			c-2.3,0-2.9,1.8-3,2.8H81.8z"/>
		<path fill="#FFFFFF" stroke="#FFFFFF" d="M96.4,74.9c-0.2-1.5-1.2-2.2-2.7-2.2c-2.3,0-3.1,2.3-3.1,4.2c0,1.9,0.7,4.1,3,4.1
			c1.7,0,2.6-1.1,2.9-2.7h3.5c-0.5,3.5-2.9,5.4-6.3,5.4c-3.9,0-6.6-2.8-6.6-6.7c0-4.1,2.4-7.1,6.7-7.1c3.1,0,5.9,1.6,6.1,5
			L96.4,74.9z"/>
		<path fill="#FFFFFF" stroke="#FFFFFF" d="M106.6,70.3h2.6v2.4h-2.6v6.5c0,1.2,0.3,1.5,1.5,1.5c0.4,0,0.7,0,1.1-0.1v2.8
			c-0.6,0.1-1.4,0.1-2.1,0.1c-2.2,0-4.1-0.5-4.1-3.1v-7.7h-2.2v-2.4h2.2v-3.9h3.6V70.3z"/>
		<path fill="#FFFFFF" stroke="#FFFFFF" d="M110.9,70.3h3.4v2.4h0.1c0.7-1.6,2.4-2.8,4.2-2.8c0.3,0,0.6,0.1,0.8,0.1v3.3
			c-0.3-0.1-0.9-0.1-1.3-0.1c-2.6,0-3.5,1.9-3.5,4.2v5.9h-3.6L110.9,70.3z"/>
		<path fill="#FFFFFF" stroke="#FFFFFF" d="M133,83.4h-3.4v-1.8h-0.1c-0.9,1.5-2.5,2.2-4,2.2c-3.8,0-4.8-2.1-4.8-5.4v-8h3.6v7.4
			c0,2.1,0.6,3.2,2.3,3.2c1.9,0,2.8-1.1,2.8-3.7v-6.9h3.6L133,83.4z"/>
		<path fill="#FFFFFF" stroke="#FFFFFF" d="M135.9,70.3h3.4v1.8h0.1c0.9-1.3,2.3-2.1,4-2.1c1.6,0,3.1,0.6,3.8,2.2
			c0.8-1.1,2.1-2.2,3.9-2.2c2.8,0,4.8,1.3,4.8,4.7v8.8h-3.6v-7.4c0-1.7-0.1-3.2-2.2-3.2c-2,0-2.4,1.7-2.4,3.3v7.3H144V76
			c0-1.5,0.1-3.3-2.2-3.3c-0.7,0-2.4,0.5-2.4,3v7.6h-3.6L135.9,70.3z"/>
	</g>
	<g>
		<path fill="#FFFFFF" stroke="#FFFFFF" d="M430,2.2l-60.1,60.1h34.2l60.1-60.1L430,2.2z"/>
		<path fill="#FFFFFF" stroke="#FFFFFF" d="M464.2,2.2l-60.1,60.1h34.2l60.1-60.1L464.2,2.2z"/>
		<path fill="#FFFFFF" stroke="#FFFFFF" d="M498.5,2.2l-60.1,60.1h34.2l60.1-60.1L498.5,2.2z"/>
		<path fill="#FFFFFF" stroke="#FFFFFF" d="M532.7,2.2l-60.1,60.1h34.2l60.1-60.1L532.7,2.2z"/>
	</g>
</g>
</svg>
